<svg width="624" height="362" viewBox="0 0 624 362" fill="none" xmlns="http://www.w3.org/2000/svg">
<path d="M624 58.0205H391.91V249.742H624V58.0205Z" fill="white"/>
<path d="M391.91 49.1919V252.265H624V49.1919H391.91ZM623.326 251.638H392.584V49.8189H623.326V251.638Z" fill="#263238"/>
<path d="M597.937 102.168H560.703V235.868H597.937V102.168Z" fill="#C7F6D6"/>
<path d="M599.177 153.881H561.943V235.867H599.177V153.881Z" fill="#39CD81"/>
<path d="M493.682 235.867H530.916V71.8952H493.682V235.867Z" fill="#C7F6D6"/>
<path d="M493.682 235.867H530.916V132.439H493.682V235.867Z" fill="#39CD81"/>
<path d="M425.421 235.867H462.654V89.5537H425.421V235.867Z" fill="#C7F6D6"/>
<path d="M425.421 235.867H462.654V143.791H425.421V235.867Z" fill="#39CD81"/>
<path d="M416.123 98.3829H415.492V84.5083H429.145V85.104H416.123V98.3829Z" fill="#4D626C"/>
<path d="M534.979 127.394L534.641 127.09L544.195 118.564H573.115V118.992H544.394L534.979 127.394Z" fill="#4D626C"/>
<path d="M547.727 114.781H581.127C581.5 114.781 581.803 114.505 581.803 114.165V112.874C581.803 112.534 581.5 112.258 581.127 112.258H547.727C547.354 112.258 547.051 112.534 547.051 112.874V114.165C547.051 114.505 547.354 114.781 547.727 114.781Z" fill="#4D626C"/>
<path d="M547.717 108.474H588.581C588.95 108.474 589.248 108.198 589.248 107.858V106.568C589.248 106.227 588.95 105.951 588.581 105.951H547.717C547.348 105.951 547.05 106.227 547.05 106.568V107.858C547.05 108.198 547.348 108.474 547.717 108.474Z" fill="#4D626C"/>
<path d="M453.389 134.961H484.334C484.7 134.961 484.996 134.692 484.996 134.36V133.04C484.996 132.708 484.7 132.439 484.334 132.439H453.389C453.023 132.439 452.727 132.708 452.727 133.04V134.36C452.727 134.692 453.023 134.961 453.389 134.961Z" fill="#4D626C"/>
<path d="M453.312 140.007H464.546C464.871 140.007 465.135 139.765 465.135 139.467V138.024C465.135 137.726 464.871 137.484 464.546 137.484H453.312C452.987 137.484 452.724 137.726 452.724 138.024V139.467C452.724 139.765 452.987 140.007 453.312 140.007Z" fill="#4D626C"/>
<path d="M453.381 128.655H478.13C478.493 128.655 478.787 128.386 478.787 128.053V126.734C478.787 126.402 478.493 126.132 478.13 126.132H453.381C453.018 126.132 452.724 126.402 452.724 126.734V128.053C452.724 128.386 453.018 128.655 453.381 128.655Z" fill="#4D626C"/>
<path d="M427.904 204.332C427.904 205.33 427.613 206.306 427.068 207.136C426.523 207.966 425.748 208.613 424.84 208.995C423.933 209.377 422.935 209.477 421.972 209.283C421.009 209.089 420.124 208.608 419.429 207.903C418.735 207.197 418.262 206.298 418.07 205.319C417.878 204.341 417.977 203.326 418.352 202.404C418.728 201.482 419.364 200.694 420.181 200.14C420.997 199.585 421.957 199.289 422.939 199.289C424.255 199.289 425.518 199.82 426.449 200.766C427.38 201.712 427.903 202.994 427.904 204.332V204.332Z" fill="#C3D2FD"/>
<path d="M449.001 90.1849C449.001 91.0584 448.71 91.9122 448.164 92.6384C447.618 93.3645 446.842 93.9303 445.935 94.2642C445.027 94.5981 444.028 94.6851 443.065 94.5141C442.102 94.3432 441.217 93.9219 440.523 93.3037C439.829 92.6856 439.357 91.8982 439.167 91.0413C438.976 90.1845 439.076 89.2966 439.453 88.4901C439.83 87.6835 440.467 86.9946 441.285 86.5105C442.103 86.0263 443.063 85.7687 444.046 85.7703C445.361 85.7723 446.621 86.2384 447.55 87.0661C448.479 87.8937 449.001 89.0154 449.001 90.1849V90.1849Z" fill="#C3D2FD"/>
<path d="M421.538 203.073L420.281 201.891L420.439 201.744L421.695 202.925L421.538 203.073ZM419.026 200.71L417.769 199.528L417.927 199.38L419.182 200.562L419.026 200.71ZM416.513 198.346L415.256 197.165L415.413 197.017L416.67 198.199L416.513 198.346ZM414.001 195.983L412.744 194.802L412.902 194.654L414.156 195.835L414.001 195.983ZM411.487 193.62L410.23 192.438L410.388 192.291L411.645 193.472L411.487 193.62ZM408.976 191.257L407.719 190.075L407.876 189.927L409.131 191.109L408.976 191.257ZM406.462 188.893L405.207 187.712L405.363 187.564L406.62 188.746L406.462 188.893ZM403.95 186.53L403.095 185.725V185.099H403.318V185.634L404.106 186.375L403.95 186.53ZM403.318 183.434H403.095V181.763H403.318V183.434ZM403.318 180.091H403.095V178.42H403.318V180.091ZM403.318 176.749H403.095V175.077H403.318V176.749ZM403.318 173.406H403.095V171.735H403.318V173.406ZM403.318 170.064H403.095V168.392H403.318V170.064ZM403.318 166.721H403.095V165.05H403.318V166.721ZM403.318 163.379H403.095V161.707H403.318V163.379ZM403.318 160.036H403.095V158.365H403.318V160.036ZM403.318 156.694H403.095V155.022H403.318V156.694ZM403.318 153.351H403.095V151.68H403.318V153.351ZM403.318 150.009H403.095V148.337H403.318V150.009ZM403.318 146.666H403.095V144.995H403.318V146.666ZM403.318 143.324H403.095V141.652H403.318V143.324ZM403.318 139.981H403.095V138.31H403.318V139.981ZM403.318 136.639H403.095V134.967H403.318V136.639ZM403.318 133.296H403.095V131.625H403.318V133.296ZM403.318 129.954H403.095V128.282H403.318V129.954ZM402.429 126.958L401.172 125.775L401.33 125.627L402.585 126.81L402.429 126.958ZM399.916 124.595L398.661 123.413L398.816 123.264L400.073 124.447L399.916 124.595ZM397.404 122.23L396.147 121.05L396.305 120.902L397.562 122.084L397.404 122.23ZM394.89 119.868L393.636 118.685L393.791 118.539L395.048 119.719L394.89 119.868ZM392.379 117.505L391.122 116.322L391.28 116.174L392.536 117.356L392.379 117.505ZM389.865 115.14L388.61 113.96L388.766 113.811L390.023 114.994L389.865 115.14ZM387.354 112.777L386.097 111.595L386.254 111.449L387.511 112.629L387.354 112.777ZM384.842 110.414L383.585 109.232L383.741 109.086L384.997 110.266L384.842 110.414ZM382.328 108.06L381.071 106.878L381.229 106.729L382.486 107.912L382.328 108.06ZM379.817 105.695L378.56 104.515L378.718 104.367L379.972 105.549L379.817 105.695ZM377.303 103.333L376.046 102.15L376.204 102.004L377.461 103.184L377.303 103.333ZM374.803 100.957L373.546 99.7749L373.703 99.6265L374.958 100.809L374.803 100.957ZM372.289 98.5924L371.032 97.4121L371.19 97.2638L372.447 98.4462L372.289 98.5924ZM369.777 96.2297L368.52 95.0494L368.678 94.901L369.933 96.0814L369.777 96.2297ZM367.253 93.8711L365.998 92.6887L366.153 92.5425L367.41 93.7228L367.253 93.8711ZM364.741 91.5084L363.484 90.326L363.642 90.1777L364.899 91.3601L364.741 91.5084ZM362.227 89.1436L360.973 87.9632L361.128 87.8149L362.385 88.9973L362.227 89.1436ZM359.716 86.7808L358.459 85.5984L358.617 85.4522L359.873 86.6325L359.716 86.7808ZM357.202 84.4181L355.947 83.2357L356.103 83.0873L357.36 84.2698L357.202 84.4181ZM354.69 82.0533L353.434 80.8729L353.591 80.7246L354.848 81.907L354.69 82.0533Z" fill="#C3D2FD"/>
<path d="M526.567 156.404C523.253 156.404 520.014 155.478 517.26 153.745C514.505 152.012 512.358 149.55 511.091 146.669C509.823 143.788 509.492 140.618 510.139 137.559C510.786 134.501 512.382 131.692 514.725 129.488C517.069 127.283 520.054 125.782 523.304 125.174C526.554 124.566 529.923 124.878 532.985 126.072C536.046 127.265 538.662 129.286 540.503 131.879C542.344 134.472 543.327 137.52 543.327 140.638C543.321 144.819 541.554 148.827 538.412 151.783C535.27 154.738 531.01 156.401 526.567 156.404V156.404ZM526.567 125.773C523.443 125.774 520.389 126.646 517.791 128.28C515.194 129.913 513.17 132.235 511.974 134.951C510.779 137.668 510.467 140.657 511.077 143.54C511.687 146.423 513.192 149.072 515.401 151.15C517.611 153.229 520.426 154.644 523.49 155.217C526.554 155.79 529.73 155.495 532.616 154.37C535.503 153.245 537.97 151.339 539.705 148.894C541.44 146.45 542.366 143.576 542.366 140.636C542.361 136.695 540.695 132.916 537.733 130.13C534.771 127.344 530.755 125.777 526.567 125.773V125.773Z" fill="#4D626C"/>
<path d="M624 49.1919H391.91V61.8051H624V49.1919Z" fill="#4D626C"/>
<path d="M430.872 54.2368H402.595C402.178 54.2368 401.84 54.5432 401.84 54.9211V56.0752C401.84 56.4531 402.178 56.7595 402.595 56.7595H430.872C431.289 56.7595 431.627 56.4531 431.627 56.0752V54.9211C431.627 54.5432 431.289 54.2368 430.872 54.2368Z" fill="#F7F7F7"/>
<path d="M442.637 88.2929L442.249 87.9312L442.408 87.7848L442.797 88.1466L442.637 88.2929ZM440.979 86.7498L439.711 85.5663L439.868 85.4178L441.138 86.6013L440.979 86.7498ZM438.44 84.3828L437.17 83.2014L437.329 83.0529L438.6 84.2364L438.44 84.3828ZM435.9 82.0179L434.632 80.8344L434.789 80.688L436.059 81.8694L435.9 82.0179ZM433.361 79.653L432.091 78.4694L432.25 78.321L433.521 79.5045L433.361 79.653ZM399.247 79.5589L399.088 79.4104L400.358 78.229L400.518 78.3753L399.247 79.5589ZM356.077 79.3142L355.918 79.1657L357.188 77.9822L357.348 78.1307L356.077 79.3142ZM397.822 78.7413L396.552 77.5578L396.709 77.4114L397.979 78.5928L397.822 78.7413ZM430.834 77.2776L429.564 76.0962L429.723 75.9477L430.991 77.1312L430.834 77.2776ZM401.788 77.1856L401.631 77.0371L402.901 75.8536L403.058 76.0021L401.788 77.1856ZM358.62 76.9388L358.461 76.7925L359.731 75.609L359.888 75.7574L358.62 76.9388ZM395.282 76.368L394.011 75.1845L394.171 75.036L395.441 76.2195L395.282 76.368ZM428.294 74.9043L427.023 73.7229L427.183 73.5744L428.453 74.7558L428.294 74.9043ZM404.329 74.8102L404.169 74.6638L405.44 73.4803L405.599 73.6288L404.329 74.8102ZM361.159 74.5656L360.999 74.4171L362.269 73.2357L362.429 73.3841L361.159 74.5656ZM392.743 73.9947L391.473 72.8112L391.632 72.6628L392.9 73.8463L392.743 73.9947ZM425.755 72.531L424.485 71.3475L424.644 71.2011L425.912 72.3826L425.755 72.531ZM406.867 72.4369L406.71 72.2885L407.978 71.1071L408.137 71.2534L406.867 72.4369ZM363.699 72.1923L363.54 72.0438L364.81 70.8624L364.967 71.0088L363.699 72.1923ZM390.203 71.6193L388.932 70.4379L389.092 70.2895L390.362 71.473L390.203 71.6193ZM423.215 70.1661L421.944 68.9826L422.104 68.8341L423.374 70.0176L423.215 70.1661ZM409.407 70.072L409.248 69.9235L410.518 68.74L410.678 68.8885L409.407 70.072ZM366.238 69.8274L366.078 69.6789L367.348 68.4954L367.508 68.6439L366.238 69.8274ZM387.664 69.2544L386.394 68.0709L386.553 67.9246L387.821 69.106L387.664 69.2544ZM420.676 67.7907L419.406 66.6093L419.565 66.4609L420.834 67.6444L420.676 67.7907ZM411.946 67.6987L411.789 67.5503L413.057 66.3668L413.216 66.5152L411.946 67.6987ZM368.767 67.4917L368.608 67.3453L369.878 66.1619L370.035 66.3103L368.767 67.4917ZM385.112 66.9209L383.844 65.7374L384.002 65.5889L385.272 66.7724L385.112 66.9209ZM418.125 65.4572L416.856 64.2737L417.014 64.1273L418.284 65.3087L418.125 65.4572ZM414.475 65.3631L414.316 65.2167L415.586 64.0332L415.746 64.1817L414.475 65.3631ZM371.305 65.1184L371.15 64.9825L372.421 63.8011L372.58 63.9475L371.305 65.1184ZM382.574 64.5455L381.304 63.3641L381.463 63.2156L382.731 64.3991L382.574 64.5455ZM373.844 62.7535L373.686 62.6051L374.966 61.4278L375.125 61.5763L373.844 62.7535ZM380.034 62.1806L378.765 60.9971L378.923 60.8507L380.193 62.0321L380.034 62.1806ZM376.384 60.3823L376.225 60.2339L377.246 59.2825L377.654 59.6609L377.495 59.8094L377.246 59.5773L376.384 60.3823Z" fill="#C3D2FD"/>
<path d="M609.105 167.756H608.881V88.5013H571.871V88.293H609.105V167.756Z" fill="#4D626C"/>
<g style="mix-blend-mode:multiply" opacity="0.15">
<g style="mix-blend-mode:multiply" opacity="0.15">
<path d="M522.461 302.697C522.492 302.78 522.518 302.832 522.52 302.843L522.461 302.697Z" fill="#243973"/>
</g>
<g style="mix-blend-mode:multiply" opacity="0.15">
<path d="M576.011 245.568L575.431 251.213L575.371 251.836H529.146C529.262 251.629 529.39 251.421 529.531 251.213C529.862 250.687 530.245 250.151 530.65 249.606C530.509 243.547 533.461 240.567 535.847 238.777C538.233 236.987 538.387 231.629 537.288 228.112C536.189 224.595 535.853 219.544 537.14 216.771C538.427 213.999 545.235 208.873 553.254 212.406C561.273 215.94 557.059 227.397 557.059 227.397C556.542 232.065 555.226 234.601 553.859 235.977C553.785 236.755 553.635 238.983 554 240.758C554.405 240.808 554.823 240.876 555.253 240.951C555.403 240.97 555.557 240.982 555.701 241.007C559.299 241.471 562.639 242.735 564.734 244.607C566.076 244.67 567.395 244.751 568.655 244.844C571.253 245.017 573.733 245.243 576.011 245.568Z" fill="#243973"/>
</g>
</g>
<path d="M483.874 194.244L519.746 194.402L519.626 219.277L519.602 224.516L514.151 219.253L483.754 219.119L483.874 194.244Z" fill="#4D626C"/>
<path d="M583.471 264.182C582.761 263.745 581.779 263.849 581.104 264.007L581.351 262.355H571.871L573.388 272.446H579.834L579.976 271.504L580.114 270.599C581.061 270.591 581.971 270.258 582.668 269.663C583.693 268.794 584.282 267.394 584.282 265.818C584.278 264.882 583.837 264.414 583.471 264.182ZM581.964 268.957C581.493 269.361 580.884 269.6 580.243 269.633L580.931 265.046C581.437 264.886 582.397 264.679 582.886 264.978C582.972 265.032 583.232 265.192 583.232 265.816C583.243 267.128 582.778 268.273 581.964 268.969V268.957Z" fill="#92E3A9"/>
<path d="M580.559 272.446H573.526L571.871 262.355H575.68C575.68 262.355 574.311 271.462 580.559 272.446Z" fill="#92E3A9"/>
<path d="M577.046 254.788C577.046 254.788 575.011 255.459 575.765 257.248C576.519 259.036 577.815 260.161 576.593 262.356C576.593 262.356 578.854 261.011 577.8 258.775C576.745 256.539 576.103 255.911 577.046 254.788Z" fill="#14AF78"/>
<path d="M579.531 257.31C579.531 257.31 577.494 257.756 578.247 258.949C579 260.142 580.302 260.892 579.078 262.355C579.078 262.355 581.342 261.459 580.278 259.968C579.213 258.477 578.589 258.055 579.531 257.31Z" fill="#14AF78"/>
<path d="M573.841 257.31C573.841 257.31 572.822 257.756 573.199 258.949C573.575 260.142 574.226 260.892 573.614 262.355C573.614 262.355 574.746 261.459 574.214 259.968C573.682 258.477 573.37 258.055 573.841 257.31Z" fill="#14AF78"/>
<path d="M564.266 350.648L556.98 301.675L558.383 301.457L565.668 350.43L564.266 350.648Z" fill="#263238"/>
<path d="M554.334 350.648L547.049 301.675L548.451 301.457L555.737 350.43L554.334 350.648Z" fill="#263238"/>
<path d="M507.494 350.648L506.092 350.43L513.376 301.457L514.78 301.675L507.494 350.648Z" fill="#263238"/>
<path d="M559.453 302.715L565.668 241.961C565.668 241.961 554.799 240.638 548.233 240.964L538.363 302.718L559.453 302.715Z" fill="#7C8285"/>
<path d="M559.462 298.934H538.363V302.718H559.462V298.934Z" fill="#4D626C"/>
<path d="M524.307 300.195L520.988 242.269C520.988 242.269 548.668 239.491 565.669 241.886L524.307 300.195Z" fill="#7C8285"/>
<path d="M545.957 224.331C545.957 224.331 550.126 212.878 542.171 209.327C534.216 205.777 527.458 210.908 526.186 213.696C524.913 216.483 525.247 221.525 526.334 225.047C527.422 228.568 527.265 233.929 524.9 235.722C522.536 237.515 519.605 240.492 519.749 246.553C519.84 250.314 535.546 236.935 535.546 236.935L545.957 224.331Z" fill="#292C47"/>
<path d="M535.271 347.104C535.271 347.104 535.026 355.155 536.238 355.639C537.45 356.123 542.034 353.324 544.056 350.555C546.079 347.787 541.521 341.341 540.774 337.787C540.462 336.299 536.899 333.619 535.162 334.387C533.425 335.155 532.158 337.12 532.158 337.12C532.158 337.12 536.565 339.996 535.271 347.104Z" fill="#263238"/>
<path d="M532.158 337.032C532.158 337.032 533.673 339.828 534.45 341.999C535.228 344.169 535.377 350.173 535.867 350.59C536.356 351.007 540.227 349.135 540.745 346.889C541.263 344.643 539.691 340.152 538.198 337.795C536.705 335.437 535.184 334.251 535.184 334.251C535.184 334.251 532.547 334.744 532.158 337.032Z" fill="#92E3A9"/>
<path d="M540.846 338.035L545.81 343.828L544.872 344.342L541.034 339.865L540.846 338.035Z" fill="#263238"/>
<path d="M526.089 274.717C526.069 274.681 526.051 274.651 526.037 274.628C535.697 272.037 541.253 272.216 544.391 273.04C545.963 273.452 546.928 274.027 547.5 274.496C547.785 274.73 547.973 274.939 548.088 275.088C548.146 275.162 548.186 275.222 548.211 275.262C548.218 275.273 548.223 275.282 548.228 275.291L524.145 296.737L524.12 296.76L524.132 296.792L534.45 324.448L534.451 324.454L534.453 324.496L534.463 324.658C534.472 324.8 534.484 325.008 534.499 325.27C534.529 325.796 534.57 326.543 534.612 327.426C534.697 329.194 534.789 331.51 534.818 333.703C534.847 335.898 534.812 337.967 534.646 339.243C534.604 339.562 534.554 339.83 534.495 340.037C534.436 340.246 534.37 340.386 534.3 340.456C534.266 340.49 534.234 340.505 534.204 340.508C534.174 340.51 534.137 340.5 534.093 340.469C534.002 340.405 533.893 340.262 533.767 340.019C532.818 338.183 530.034 333.384 527.165 328.44C526.983 328.126 526.801 327.811 526.619 327.497C523.563 322.23 520.538 317.001 519.647 315.194C517.861 311.576 514.435 305.391 513.493 303.9C513.026 303.16 512.145 301.323 511.368 299.202C510.59 297.08 509.919 294.68 509.867 292.813C509.854 292.36 510.057 291.859 510.435 291.321C510.813 290.785 511.361 290.217 512.032 289.632C513.373 288.461 515.194 287.225 517.086 286.031C518.234 285.307 519.406 284.599 520.513 283.931C521.231 283.497 521.922 283.08 522.56 282.686C523.371 282.186 524.096 281.723 524.686 281.311C525.274 280.9 525.729 280.538 525.997 280.238C527.065 279.04 527.063 277.619 526.798 276.504C526.665 275.946 526.466 275.463 526.301 275.12C526.218 274.948 526.143 274.811 526.089 274.717Z" fill="#92E3A9" stroke="black" stroke-width="0.1"/>
<path d="M534.839 237.439C534.839 237.439 528.27 238.785 525.662 240.193C523.055 241.601 517.262 248.078 517.262 250.864C517.262 253.649 542.588 256.253 542.588 256.253L547.389 272.446C547.389 272.446 560.19 269.56 561.714 267.167C563.237 264.773 556.675 247.732 555.76 244.141C554.846 240.55 550.056 238.129 544.723 237.439C541.444 237.026 538.119 237.026 534.839 237.439V237.439Z" fill="#92E3A9"/>
<path d="M550.297 275.019C550.295 275.037 550.292 275.058 550.288 275.084C550.278 275.162 550.265 275.276 550.254 275.416C550.23 275.695 550.211 276.081 550.23 276.503C550.268 277.345 550.455 278.349 551.069 278.951C551.664 279.535 553.337 281.535 554.497 284.228C555.657 286.92 556.301 290.299 554.849 293.646C553.514 296.723 551.552 298.229 549.927 298.967C549.114 299.336 548.384 299.513 547.858 299.598C547.595 299.64 547.383 299.66 547.237 299.669C547.164 299.673 547.107 299.675 547.069 299.675C547.05 299.676 547.036 299.676 547.026 299.676L547.015 299.676L547.013 299.675L547.012 299.675L547.012 299.675H547.011H538.967H538.905L538.918 299.736L538.967 299.725C538.918 299.736 538.918 299.736 538.918 299.736L538.918 299.736L538.919 299.738L538.92 299.744L538.925 299.768L538.944 299.862C538.961 299.945 538.986 300.068 539.017 300.227C539.079 300.545 539.168 301.008 539.271 301.586C539.478 302.743 539.747 304.361 539.992 306.208C540.482 309.903 540.877 314.51 540.501 318.168C540.124 321.83 539.048 327.843 538.057 333.049C537.596 335.468 537.153 337.712 536.808 339.464L536.731 339.853C536.554 340.754 536.406 341.506 536.3 342.059C536.195 342.61 536.13 342.968 536.121 343.077C536.112 343.17 536.058 343.295 535.959 343.444C535.862 343.591 535.724 343.756 535.557 343.927C535.222 344.27 534.772 344.635 534.293 344.933C533.814 345.231 533.311 345.458 532.869 345.529C532.435 345.599 532.07 345.517 531.84 345.214L531.84 345.201L531.839 345.116C531.839 345.041 531.837 344.931 531.836 344.79C531.832 344.507 531.827 344.098 531.818 343.596C531.802 342.592 531.774 341.213 531.73 339.716C531.642 336.722 531.489 333.249 531.227 331.344C530.965 329.441 530.277 324.684 529.57 320.121C529.216 317.84 528.858 315.607 528.546 313.803C528.234 312 527.968 310.623 527.798 310.055C527.628 309.487 527.252 308.634 526.786 307.665C526.319 306.696 525.76 305.608 525.222 304.568C525.141 304.411 525.06 304.255 524.98 304.1C524.531 303.234 524.11 302.421 523.786 301.764C523.595 301.377 523.438 301.044 523.329 300.787C523.275 300.658 523.232 300.549 523.204 300.462C523.175 300.373 523.162 300.312 523.162 300.276C523.162 300.226 523.145 300.136 523.119 300.017C523.095 299.907 523.062 299.768 523.022 299.602L523.01 299.553C522.921 299.178 522.803 298.68 522.688 298.092C522.457 296.917 522.238 295.387 522.282 293.793C522.326 292.199 522.634 290.542 523.454 289.11C524.274 287.679 525.607 286.469 527.709 285.769C531.062 284.651 533.561 282.737 536.045 280.836C536.699 280.335 537.352 279.835 538.019 279.35C541.211 277.033 544.74 275.061 550.297 275.019Z" fill="#92E3A9" stroke="black" stroke-width="0.1"/>
<path d="M527.332 353.404C527.332 353.404 521.636 359.657 522.277 360.78C522.917 361.903 528.505 362.472 532.017 361.51C535.529 360.547 536.286 352.64 538.106 349.357C538.872 347.984 537.845 343.681 535.929 343.222C534.012 342.763 531.66 343.561 531.66 343.561C531.66 343.561 533.23 348.553 527.332 353.404Z" fill="#263238"/>
<path d="M531.703 343.84C531.703 343.84 531.072 346.814 530.295 348.89C529.517 350.966 525.85 355.548 525.953 356.146C526.056 356.744 530.112 357.588 531.907 356.207C533.701 354.826 535.351 350.553 535.721 347.917C536.09 345.281 535.702 343.515 535.702 343.515C535.702 343.515 533.43 342.346 531.703 343.84Z" fill="#92E3A9"/>
<path d="M554.747 294.064C552.175 300.397 546.738 300.195 546.738 300.195H538.563C538.563 300.195 535.155 295.124 526.807 294.254C524.71 294.049 522.594 294.097 520.509 294.396L520.425 294.406C509.333 295.949 511.473 299.769 511.509 299.869C510.586 297.757 509.618 294.398 509.852 292.59C510.915 284.351 523.601 282.623 525.661 280.247C527.721 277.872 525.661 274.611 525.661 274.611C544.665 269.355 547.524 275.323 547.524 275.323C548.356 275.214 550.491 274.07 551.399 274.056C551.399 274.056 552.349 276.006 553.02 277.763C553.614 279.31 557.536 287.19 554.747 294.064Z" fill="#14AF78"/>
<path d="M546.728 248.481L549.532 272.446H512.621L509.816 248.481H546.728Z" fill="#4D626C"/>
<path d="M553.254 271.185H547.049V272.447H553.254V271.185Z" fill="#2A4387"/>
<path d="M588.009 272.446H488.719V276.23H588.009V272.446Z" fill="#263238"/>
<path d="M538.724 210.799C538.724 210.799 546.86 213.132 545.697 224.103C544.533 235.074 539.221 234.493 538.724 234.584C538.226 234.675 531.915 235.067 529.921 221.764C527.928 208.461 538.724 210.799 538.724 210.799Z" fill="#FFE7DB"/>
<path d="M542.988 232.035C542.988 232.035 542.532 235.64 543.289 237.882C544.046 240.125 533.393 240.186 533.4 238.344C533.4 236.238 534.489 234.499 533.468 230.909C532.447 227.319 542.988 232.035 542.988 232.035Z" fill="#FFE1D2"/>
<path d="M536.88 216.202C536.88 216.202 541.105 222.839 545.552 224.378C545.552 224.378 547.981 213.241 537.95 210.909C527.92 208.576 529.491 222.157 530.24 225.777C530.24 225.777 532.329 220.451 536.88 216.202Z" fill="#292C47"/>
<path d="M534.641 233.345C534.641 233.345 537.91 236.382 542.087 233.663C542.087 233.663 541.744 235.603 538.736 235.852C535.729 236.101 534.641 233.345 534.641 233.345Z" fill="#F1BFA5"/>
<path opacity="0.72" d="M530.916 214.425C530.916 214.425 533.222 210.166 537.116 209.976C541.01 209.787 543.327 213.008 543.327 213.008C543.327 213.008 541.813 209.38 537.123 209.38C532.433 209.38 530.916 214.425 530.916 214.425Z" fill="white"/>
<path d="M544.569 237.603C544.569 237.603 544.412 245.713 537.641 245.953C530.871 246.193 532.28 238.174 532.28 238.174C532.28 238.174 537.233 236.269 544.569 237.603Z" fill="#FFE7DB"/>
<path d="M588.008 276.23H585.525V353.171H588.008V276.23Z" fill="#263238"/>
<path d="M491.201 276.23H488.719V353.171H491.201V276.23Z" fill="#263238"/>
<path d="M9.80893 169.609L8.03442 167.212L22.5469 152.892H40.4413L81.0428 113.125L106.436 137.997H125.162L134.628 147.268L164.034 118.464H178.959L276.858 22.7839L278.634 25.1792L179.967 121.614H165.042L134.628 151.403L124.154 141.144H105.428L81.0428 117.26L41.4494 156.04H23.555L9.80893 169.609Z" fill="#92E3A9"/>
<path d="M306.072 73.4153V283.238H48.0002V73.4153C48.0018 70.6535 48.9546 68.0054 50.6493 66.0525C52.344 64.0997 54.6421 63.0018 57.0388 63H297.034C299.43 63.0018 301.728 64.0997 303.423 66.0525C305.118 68.0054 306.071 70.6535 306.072 73.4153V73.4153Z" fill="#4D626C"/>
<path d="M51.8839 241.755L292.417 241.755V73.4126L51.8839 73.4126L51.8839 241.755Z" fill="white"/>
<path d="M301.655 250.616H172.15H42.6445L14.3 334.155H172.999H330L301.655 250.616Z" fill="#4D626C"/>
<path d="M53.3542 265.804H68.4174C69.0477 265.804 69.5213 266.18 69.4038 266.584L67.9456 271.599C67.8561 271.908 67.4421 272.133 66.9592 272.133H51.6349C50.9916 272.133 50.5161 271.743 50.6541 271.333L52.3715 266.318C52.4759 266.017 52.8824 265.804 53.3542 265.804Z" fill="#14AF78"/>
<path d="M76.83 265.804H87.3128C87.8744 265.804 88.2992 266.165 88.1986 266.559L86.892 271.609C86.8135 271.912 86.441 272.133 86.0062 272.133H75.3362C74.7644 272.133 74.3295 271.76 74.4544 271.364L75.9482 266.312C76.0347 266.017 76.4032 265.804 76.83 265.804Z" fill="#14AF78"/>
<path d="M95.1658 265.804H104.951C105.44 265.804 105.814 266.137 105.745 266.506L104.785 271.607C104.727 271.908 104.39 272.133 103.991 272.133H94.0301C93.5322 272.133 93.1536 271.793 93.2375 271.417L94.3733 266.31C94.4404 266.021 94.7742 265.804 95.1658 265.804Z" fill="#14AF78"/>
<path d="M112.542 265.804H122.371C122.917 265.804 123.343 266.159 123.286 266.565L122.593 271.514C122.543 271.865 122.148 272.133 121.677 272.133H111.683C111.128 272.133 110.698 271.766 110.771 271.354L111.637 266.405C111.683 266.06 112.078 265.804 112.542 265.804Z" fill="#14AF78"/>
<path d="M131.166 265.804H141.083C141.668 265.804 142.12 266.163 142.081 266.586L141.647 271.446C141.613 271.832 141.175 272.133 140.649 272.133H130.558C129.973 272.133 129.505 271.762 129.56 271.333L130.168 266.471C130.215 266.093 130.647 265.804 131.166 265.804Z" fill="#14AF78"/>
<path d="M149.725 265.804H158.545C159.148 265.804 159.634 266.201 159.619 266.682L159.467 271.307C159.453 271.772 158.976 272.133 158.392 272.133H149.421C148.806 272.133 148.316 271.72 148.346 271.233L148.651 266.602C148.685 266.162 149.159 265.804 149.725 265.804Z" fill="#14AF78"/>
<path d="M290.654 265.804H275.038C274.133 265.804 273.461 266.396 273.659 267.021L275.02 271.35C275.163 271.807 275.735 272.133 276.399 272.133H292.255C293.18 272.133 293.856 271.515 293.622 270.88L292.021 266.551C291.858 266.112 291.295 265.804 290.654 265.804Z" fill="#14AF78"/>
<path d="M266.187 265.804H257.296C256.539 265.804 255.97 266.33 256.105 266.904L257.169 271.37C257.275 271.811 257.776 272.133 258.358 272.133H267.403C268.171 272.133 268.744 271.589 268.587 271.011L267.372 266.545C267.253 266.114 266.76 265.804 266.187 265.804Z" fill="#14AF78"/>
<path d="M248.955 265.804H239.605C238.961 265.804 238.465 266.24 238.557 266.724L239.451 271.442C239.526 271.838 239.973 272.133 240.498 272.133H250.012C250.67 272.133 251.169 271.685 251.058 271.195L249.999 266.469C249.919 266.087 249.477 265.804 248.955 265.804Z" fill="#14AF78"/>
<path d="M230.341 265.804H220.881C220.213 265.804 219.692 266.236 219.761 266.731L220.416 271.38C220.475 271.807 220.958 272.133 221.534 272.133H231.156C231.836 272.133 232.361 271.688 232.273 271.184L231.457 266.535C231.388 266.116 230.915 265.804 230.341 265.804Z" fill="#14AF78"/>
<path d="M213.084 265.804H203.273C202.661 265.804 202.177 266.184 202.216 266.63L202.645 271.407C202.68 271.82 203.142 272.133 203.7 272.133H213.682C214.306 272.133 214.794 271.741 214.737 271.287L214.139 266.508C214.088 266.11 213.632 265.804 213.084 265.804Z" fill="#14AF78"/>
<path d="M195.732 265.804H185.804C185.171 265.804 184.661 266.18 184.677 266.63L184.848 271.345C184.864 271.784 185.364 272.133 185.975 272.133H196.076C196.723 272.133 197.237 271.745 197.203 271.283L196.859 266.562C196.827 266.151 196.333 265.804 195.732 265.804Z" fill="#14AF78"/>
<path d="M166.943 265.804H175.966C176.54 265.804 177.009 266.165 177.024 266.615L177.158 271.283C177.173 271.749 176.696 272.133 176.101 272.133H166.943C166.359 272.133 165.884 271.762 165.884 271.308V266.64C165.884 266.176 166.359 265.804 166.943 265.804Z" fill="#14AF78"/>
<path d="M48.1134 277.196H70.8699C71.5202 277.196 72.0148 277.69 71.9135 278.237L70.8329 284.031C70.7511 284.468 70.3091 284.79 69.7911 284.79H46.6744C46.0026 284.79 45.5061 284.264 45.6405 283.705L47.0814 277.908C47.1904 277.493 47.6149 277.196 48.1134 277.196Z" fill="#14AF78"/>
<path d="M294.419 277.196H266.229C265.363 277.196 264.712 277.865 264.879 278.585L266.098 283.849C266.226 284.396 266.792 284.79 267.449 284.79H296.048C296.948 284.79 297.607 284.07 297.379 283.331L295.75 278.067C295.586 277.553 295.047 277.196 294.419 277.196Z" fill="#14AF78"/>
<path d="M257.222 277.196H247.543C246.633 277.196 245.939 277.87 246.08 278.614L247.054 283.753C247.168 284.351 247.789 284.79 248.519 284.79H258.36C259.284 284.79 259.984 284.096 259.817 283.35L258.681 278.211C258.553 277.62 257.939 277.196 257.222 277.196Z" fill="#14AF78"/>
<path d="M238.97 277.196H229.727C229.005 277.196 228.446 277.762 228.531 278.407L229.241 283.83C229.313 284.377 229.826 284.79 230.437 284.79H239.847C240.585 284.79 241.138 284.204 241.039 283.552L240.17 278.127C240.077 277.591 239.57 277.196 238.97 277.196Z" fill="#14AF78"/>
<path d="M220.262 277.196H211.117C210.308 277.196 209.673 277.803 209.736 278.511L210.195 283.667C210.252 284.3 210.853 284.79 211.577 284.79H220.874C221.695 284.79 222.338 284.164 222.251 283.443L221.639 278.29C221.565 277.668 220.966 277.196 220.262 277.196Z" fill="#14AF78"/>
<path d="M201.777 277.196H192.232C191.498 277.196 190.913 277.724 190.941 278.357L191.183 283.717C191.212 284.317 191.781 284.79 192.474 284.79H202.176C202.922 284.79 203.519 284.245 203.465 283.59L203.058 278.232C203.022 277.654 202.458 277.196 201.777 277.196Z" fill="#14AF78"/>
<path d="M44.7608 289.854H68.2641C68.9984 289.854 69.5486 290.426 69.3962 291.032L67.9969 296.67C67.886 297.124 67.4031 297.448 66.8648 297.448H43.0191C42.2611 297.448 41.7069 296.842 41.8989 296.223L43.6485 290.583C43.7732 290.155 44.2344 289.854 44.7608 289.854Z" fill="#14AF78"/>
<path d="M76.775 289.854H87.1706C87.8157 289.854 88.3058 290.363 88.1986 290.919L87.0729 296.689C86.9868 297.127 86.5522 297.448 86.0449 297.448H75.4751C74.8184 297.448 74.3264 296.924 74.4527 296.361L75.7508 290.59C75.8465 290.163 76.2772 289.854 76.775 289.854Z" fill="#14AF78"/>
<path d="M94.2184 290.837C94.3226 290.271 94.8951 289.854 95.5679 289.854H189.326C190.06 289.854 190.662 290.337 190.692 290.969L190.941 296.24C190.971 296.9 190.351 297.448 189.564 297.448H94.5921C93.7541 297.448 93.1127 296.81 93.2426 296.105L94.2184 290.837Z" fill="#14AF78"/>
<path d="M199.044 289.854H208.707C209.665 289.854 210.461 290.459 210.541 291.241L210.979 295.826C211.062 296.7 210.219 297.448 209.145 297.448H199.333C198.355 297.448 197.551 296.821 197.5 296.022L197.206 291.437C197.157 290.577 197.993 289.854 199.044 289.854Z" fill="#14AF78"/>
<path d="M218.965 289.854H228.641C229.511 289.854 230.245 290.397 230.346 291.117L231.016 295.849C231.136 296.699 230.34 297.448 229.311 297.448H219.482C218.596 297.448 217.856 296.883 217.774 296.148L217.254 291.416C217.164 290.578 217.954 289.854 218.965 289.854Z" fill="#14AF78"/>
<path d="M237.58 289.854H247.355C248.113 289.854 248.759 290.337 248.878 290.96L249.799 295.936C249.947 296.731 249.224 297.448 248.277 297.448H238.348C237.574 297.448 236.92 296.965 236.82 296.308L236.052 291.334C235.929 290.549 236.652 289.854 237.58 289.854Z" fill="#14AF78"/>
<path d="M257.233 289.854H266.352C266.901 289.854 267.373 290.226 267.48 290.74L268.591 296.139C268.731 296.817 268.188 297.448 267.464 297.448H258.196C257.636 297.448 257.158 297.061 257.065 296.535L256.102 291.134C255.981 290.465 256.522 289.854 257.233 289.854Z" fill="#14AF78"/>
<path d="M275.745 289.854H299.679C300.073 289.854 300.421 290.081 300.519 290.407L302.406 296.523C302.55 296.989 302.135 297.448 301.564 297.448H277.254C276.843 297.448 276.489 297.206 276.404 296.861L274.895 290.745C274.775 290.276 275.194 289.854 275.745 289.854Z" fill="#14AF78"/>
<path d="M183.057 277.196H173.601C172.798 277.196 172.147 277.745 172.147 278.422V283.563C172.147 284.243 172.798 284.79 173.601 284.79H183.221C184.038 284.79 184.696 284.221 184.675 283.532L184.515 278.391C184.49 277.726 183.845 277.196 183.057 277.196Z" fill="#14AF78"/>
<path d="M164.608 277.196H153.668C152.986 277.196 152.425 277.615 152.389 278.154L152.105 283.764C152.078 284.325 152.653 284.79 153.374 284.79H164.512C165.205 284.79 165.772 284.356 165.791 283.817L165.885 278.207C165.887 277.646 165.324 277.196 164.608 277.196Z" fill="#14AF78"/>
<path d="M145.813 277.196H136.329C135.661 277.196 135.105 277.645 135.053 278.226L134.57 283.589C134.51 284.238 135.099 284.79 135.845 284.79H145.492C146.173 284.79 146.735 284.327 146.769 283.734L147.091 278.367C147.131 277.731 146.547 277.196 145.813 277.196Z" fill="#14AF78"/>
<path d="M127.121 277.196H117.684C117.085 277.196 116.579 277.594 116.509 278.124L115.781 283.616C115.699 284.24 116.248 284.79 116.956 284.79H126.555C127.168 284.79 127.676 284.377 127.734 283.83L128.295 278.338C128.364 277.728 127.818 277.196 127.121 277.196Z" fill="#14AF78"/>
<path d="M108.22 277.196H99.2057C98.5636 277.196 98.0172 277.618 97.9178 278.189L96.998 283.431C96.8728 284.151 97.4855 284.79 98.2858 284.79H107.446C108.101 284.79 108.653 284.353 108.734 283.767L109.494 278.525C109.617 277.82 109.008 277.196 108.22 277.196Z" fill="#14AF78"/>
<path d="M89.5566 277.196H80.5164C79.9612 277.196 79.4818 277.558 79.3754 278.06L78.2127 283.513C78.0721 284.176 78.6219 284.79 79.3538 284.79H88.5471C89.1131 284.79 89.598 284.413 89.6936 283.899L90.7012 278.446C90.8238 277.793 90.2758 277.196 89.5566 277.196Z" fill="#14AF78"/>
<path d="M53.172 259.655L54.7041 255.062C54.8303 254.68 55.2698 254.412 55.7703 254.412H59.5466C60.2628 254.412 60.7878 254.941 60.6189 255.487L59.1946 260.08C59.0746 260.468 58.631 260.741 58.1224 260.741H54.2565C53.5118 260.732 52.9848 260.205 53.172 259.655Z" fill="#14AF78"/>
<path d="M67.8667 254.412H77.3567C77.8863 254.412 78.2822 254.826 78.1729 255.267L76.959 260.18C76.878 260.508 76.5368 260.741 76.1429 260.741H66.5002C65.963 260.741 65.5578 260.316 65.6878 259.872L67.0543 254.96C67.1429 254.639 67.4784 254.412 67.8667 254.412Z" fill="#14AF78"/>
<path d="M85.185 254.412H94.9201C95.422 254.412 95.8013 254.789 95.7189 255.203L94.7017 260.18C94.6366 260.505 94.2994 260.741 93.9048 260.741H84.0126C83.5031 260.741 83.12 260.353 83.2177 259.937L84.39 254.96C84.4647 254.641 84.798 254.412 85.185 254.412Z" fill="#14AF78"/>
<path d="M102.684 254.412H112.225C112.855 254.412 113.339 254.875 113.259 255.375L112.515 260.001C112.447 260.424 112.004 260.741 111.48 260.741H101.783C101.142 260.741 100.654 260.278 100.752 259.758L101.644 255.132C101.733 254.725 102.17 254.412 102.684 254.412Z" fill="#14AF78"/>
<path d="M120.042 254.412H129.716C130.357 254.412 130.86 254.854 130.802 255.367L130.277 259.948C130.225 260.411 129.754 260.741 129.191 260.741H119.368C118.715 260.741 118.21 260.279 118.286 259.766L118.961 255.184C119.025 254.745 119.49 254.412 120.042 254.412Z" fill="#14AF78"/>
<path d="M137.421 254.412H147.177C147.847 254.412 148.38 254.854 148.343 255.38L148.045 259.872C148.012 260.36 147.5 260.741 146.878 260.741H136.986C136.305 260.741 135.766 260.279 135.821 259.752L136.27 255.26C136.307 254.782 136.811 254.412 137.421 254.412Z" fill="#14AF78"/>
<path d="M155.828 254.412H164.873C165.431 254.412 165.891 254.81 165.883 255.293L165.813 259.886C165.813 260.36 165.355 260.741 164.802 260.741H155.618C155.045 260.741 154.587 260.332 154.609 259.84L154.82 255.246C154.84 254.782 155.292 254.412 155.828 254.412Z" fill="#14AF78"/>
<path d="M173.144 254.412H183.516C184.057 254.412 184.498 254.745 184.513 255.159L184.675 259.955C184.691 260.388 184.24 260.741 183.678 260.741H173.144C172.595 260.741 172.147 260.399 172.147 259.976V255.186C172.147 254.757 172.595 254.412 173.144 254.412Z" fill="#14AF78"/>
<path d="M190.766 254.412H199.55C200.118 254.412 200.588 254.796 200.624 255.288L200.961 259.745C201.002 260.284 200.508 260.741 199.886 260.741H190.966C190.389 260.741 189.914 260.346 189.89 259.842L189.689 255.385C189.665 254.856 190.153 254.412 190.766 254.412Z" fill="#14AF78"/>
<path d="M208.265 254.412H218.093C218.628 254.412 219.078 254.736 219.134 255.16L219.748 259.817C219.812 260.309 219.326 260.741 218.707 260.741H208.732C208.187 260.741 207.729 260.406 207.689 259.974L207.23 255.317C207.174 254.828 207.655 254.412 208.265 254.412Z" fill="#14AF78"/>
<path d="M225.854 254.412H235.397C235.936 254.412 236.383 254.734 236.468 255.166L237.281 259.738C237.376 260.267 236.869 260.741 236.21 260.741H226.511C225.962 260.741 225.501 260.408 225.436 259.967L224.771 255.394C224.702 254.872 225.205 254.412 225.854 254.412Z" fill="#14AF78"/>
<path d="M243.451 254.412H252.691C253.246 254.412 253.721 254.738 253.822 255.186L254.813 259.627C254.941 260.207 254.4 260.741 253.682 260.741H244.3C243.735 260.741 243.253 260.404 243.165 259.944L242.317 255.503C242.213 254.932 242.745 254.412 243.451 254.412Z" fill="#14AF78"/>
<path d="M260.947 254.412H270.07C270.589 254.412 271.039 254.715 271.152 255.138L272.346 259.616C272.501 260.193 271.963 260.741 271.263 260.741H262.01C261.479 260.741 261.024 260.429 260.922 259.995L259.869 255.517C259.725 254.955 260.248 254.412 260.947 254.412Z" fill="#14AF78"/>
<path d="M278.374 254.412H287.487C287.939 254.412 288.333 254.673 288.448 255.045L289.875 259.683C290.04 260.219 289.565 260.741 288.913 260.741H279.658C279.198 260.741 278.796 260.473 278.691 260.089L277.407 255.452C277.26 254.923 277.733 254.412 278.374 254.412Z" fill="#14AF78"/>
<path d="M53.3542 264.539H68.4174C69.0477 264.539 69.5213 264.914 69.4038 265.319L67.9456 270.333C67.8561 270.643 67.4421 270.868 66.9592 270.868H51.6349C50.9916 270.868 50.5161 270.478 50.6541 270.067L52.3808 265.053C52.4759 264.754 52.8824 264.539 53.3542 264.539Z" fill="#F2F3F7"/>
<path d="M76.83 264.539H87.3128C87.8744 264.539 88.2992 264.902 88.1986 265.294L86.892 270.344C86.8135 270.647 86.441 270.868 86.0062 270.868H75.3362C74.7644 270.868 74.3295 270.494 74.4544 270.098L75.9482 265.047C76.0347 264.752 76.4032 264.539 76.83 264.539Z" fill="#F2F3F7"/>
<path d="M95.1658 264.539H104.951C105.44 264.539 105.814 264.871 105.745 265.24L104.785 270.342C104.727 270.643 104.39 270.868 103.991 270.868H94.0301C93.5322 270.868 93.1536 270.525 93.2375 270.15L94.3658 265.053C94.4404 264.756 94.7742 264.539 95.1658 264.539Z" fill="#F2F3F7"/>
<path d="M112.542 264.539H122.371C122.917 264.539 123.343 264.894 123.286 265.3L122.593 270.249C122.543 270.6 122.148 270.868 121.677 270.868H111.683C111.128 270.868 110.698 270.503 110.771 270.09L111.637 265.141C111.683 264.795 112.078 264.539 112.542 264.539Z" fill="#F2F3F7"/>
<path d="M131.166 264.539H141.083C141.668 264.539 142.12 264.898 142.081 265.321L141.647 270.183C141.613 270.569 141.175 270.868 140.649 270.868H130.558C129.973 270.868 129.505 270.496 129.56 270.067L130.168 265.205C130.215 264.828 130.647 264.539 131.166 264.539Z" fill="#F2F3F7"/>
<path d="M149.725 264.539H158.545C159.148 264.539 159.634 264.936 159.619 265.419L159.467 270.042C159.453 270.504 158.976 270.868 158.392 270.868H149.421C148.806 270.868 148.316 270.455 148.346 269.965L148.651 265.336C148.685 264.896 149.159 264.539 149.725 264.539Z" fill="#F2F3F7"/>
<path d="M290.654 264.539H275.038C274.133 264.539 273.461 265.133 273.659 265.755L275.02 270.084C275.163 270.542 275.735 270.868 276.399 270.868H292.255C293.18 270.868 293.856 270.249 293.622 269.614L292.021 265.285C291.858 264.846 291.295 264.539 290.654 264.539Z" fill="#F2F3F7"/>
<path d="M266.187 264.539H257.296C256.539 264.539 255.97 265.067 256.105 265.639L257.169 270.105C257.275 270.546 257.776 270.868 258.358 270.868H267.403C268.171 270.868 268.744 270.323 268.587 269.746L267.372 265.28C267.253 264.846 266.76 264.539 266.187 264.539Z" fill="#F2F3F7"/>
<path d="M248.955 264.539H239.605C238.961 264.539 238.465 264.974 238.557 265.459L239.451 270.179C239.526 270.575 239.973 270.868 240.498 270.868H250.012C250.67 270.868 251.169 270.418 251.058 269.927L249.999 265.201C249.919 264.822 249.477 264.539 248.955 264.539Z" fill="#F2F3F7"/>
<path d="M230.341 264.539H220.881C220.213 264.539 219.692 264.97 219.761 265.465L220.416 270.115C220.475 270.544 220.958 270.868 221.534 270.868H231.156C231.836 270.868 232.361 270.422 232.273 269.919L231.457 265.269C231.388 264.846 230.915 264.539 230.341 264.539Z" fill="#F2F3F7"/>
<path d="M213.084 264.539H203.273C202.661 264.539 202.177 264.919 202.216 265.364L202.645 270.144C202.68 270.556 203.142 270.868 203.7 270.868H213.682C214.306 270.868 214.794 270.476 214.737 270.022L214.139 265.245C214.088 264.846 213.632 264.539 213.084 264.539Z" fill="#F2F3F7"/>
<path d="M195.732 264.539H185.804C185.171 264.539 184.661 264.915 184.677 265.365L184.848 270.079C184.864 270.519 185.364 270.868 185.975 270.868H196.076C196.723 270.868 197.237 270.477 197.203 270.015L196.859 265.293C196.827 264.878 196.333 264.539 195.732 264.539Z" fill="#F2F3F7"/>
<path d="M166.943 264.539H175.966C176.54 264.539 177.009 264.9 177.024 265.35L177.158 270.018C177.173 270.484 176.696 270.868 176.101 270.868H166.943C166.359 270.868 165.884 270.496 165.884 270.043V265.372C165.884 264.91 166.359 264.539 166.943 264.539Z" fill="#F2F3F7"/>
<path d="M48.1134 277.196H70.8699C71.5202 277.196 72.0148 277.607 71.9135 278.063L70.8329 282.89C70.7511 283.254 70.3091 283.524 69.7911 283.524H46.6744C46.0026 283.524 45.5061 283.084 45.6405 282.618L47.0814 277.791C47.1904 277.451 47.6149 277.196 48.1134 277.196Z" fill="#F2F3F7"/>
<path d="M294.419 277.196H266.229C265.363 277.196 264.712 277.755 264.879 278.355L266.098 282.738C266.226 283.194 266.792 283.524 267.449 283.524H296.048C296.948 283.524 297.607 282.924 297.379 282.306L295.75 277.921C295.586 277.501 295.047 277.196 294.419 277.196Z" fill="#F2F3F7"/>
<path d="M257.222 277.196H247.543C246.633 277.196 245.939 277.757 246.08 278.377L247.054 282.658C247.168 283.156 247.789 283.524 248.519 283.524H258.36C259.284 283.524 259.984 282.944 259.817 282.324L258.681 278.043C258.553 277.557 257.939 277.196 257.222 277.196Z" fill="#F2F3F7"/>
<path d="M238.97 277.196H229.727C229.005 277.196 228.446 277.668 228.531 278.197L229.241 282.723C229.313 283.178 229.826 283.524 230.437 283.524H239.847C240.585 283.524 241.138 283.036 241.039 282.489L240.17 277.964C240.077 277.534 239.57 277.196 238.97 277.196Z" fill="#F2F3F7"/>
<path d="M220.262 277.196H211.117C210.308 277.196 209.673 277.701 209.736 278.293L210.195 282.586C210.252 283.114 210.853 283.524 211.577 283.524H220.874C221.695 283.524 222.338 283 222.251 282.4L221.639 278.107C221.565 277.595 220.966 277.196 220.262 277.196Z" fill="#F2F3F7"/>
<path d="M201.777 277.196H192.232C191.498 277.196 190.913 277.635 190.941 278.165L191.183 282.628C191.212 283.128 191.781 283.524 192.474 283.524H202.176C202.922 283.524 203.519 283.068 203.465 282.524L203.058 278.061C203.022 277.595 202.458 277.196 201.777 277.196Z" fill="#F2F3F7"/>
<path d="M44.7608 289.854H68.2641C68.9984 289.854 69.5486 290.329 69.3962 290.834L67.9969 295.534C67.886 295.912 67.4031 296.182 66.8648 296.182H43.0191C42.2611 296.182 41.7069 295.677 41.8989 295.161L43.6485 290.462C43.7732 290.103 44.2344 289.854 44.7608 289.854Z" fill="#F2F3F7"/>
<path d="M76.775 289.854H87.1706C87.8157 289.854 88.3058 290.276 88.1986 290.739L87.0729 295.55C86.9868 295.914 86.5522 296.182 86.0449 296.182H75.4751C74.8184 296.182 74.3264 295.745 74.4527 295.276L75.7508 290.466C75.8465 290.109 76.2772 289.854 76.775 289.854Z" fill="#F2F3F7"/>
<path d="M94.2184 290.671C94.3226 290.2 94.8951 289.854 95.5679 289.854H189.326C190.06 289.854 190.662 290.256 190.692 290.782L190.941 295.175C190.971 295.725 190.351 296.182 189.564 296.182H94.5921C93.7541 296.182 93.1127 295.651 93.2426 295.065L94.2184 290.671Z" fill="#F2F3F7"/>
<path d="M199.044 289.854H208.707C209.665 289.854 210.461 290.356 210.541 291.008L210.979 294.83C211.062 295.559 210.219 296.182 209.145 296.182H199.333C198.355 296.182 197.551 295.659 197.5 294.993L197.206 291.171C197.157 290.455 197.993 289.854 199.044 289.854Z" fill="#F2F3F7"/>
<path d="M218.965 289.854H228.641C229.511 289.854 230.245 290.305 230.346 290.907L231.016 294.849C231.136 295.56 230.34 296.182 229.311 296.182H219.482C218.596 296.182 217.856 295.713 217.774 295.099L217.254 291.154C217.164 290.456 217.954 289.854 218.965 289.854Z" fill="#F2F3F7"/>
<path d="M237.58 289.854H247.355C248.113 289.854 248.759 290.244 248.878 290.774L249.799 294.922C249.947 295.584 249.224 296.182 248.277 296.182H238.348C237.574 296.182 236.92 295.779 236.82 295.234L236.052 291.086C235.929 290.431 236.652 289.854 237.58 289.854Z" fill="#F2F3F7"/>
<path d="M257.233 289.854H266.352C266.901 289.854 267.373 290.162 267.48 290.59L268.591 295.093C268.731 295.657 268.188 296.182 267.464 296.182H258.196C257.636 296.182 257.158 295.86 257.065 295.421L256.102 290.921C255.981 290.367 256.522 289.854 257.233 289.854Z" fill="#F2F3F7"/>
<path d="M275.745 289.854H299.679C300.073 289.854 300.421 290.041 300.519 290.313L302.406 295.411C302.55 295.802 302.135 296.182 301.564 296.182H277.254C276.843 296.182 276.489 295.981 276.404 295.693L274.895 290.595C274.775 290.212 275.194 289.854 275.745 289.854Z" fill="#F2F3F7"/>
<path d="M183.057 277.196H173.601C172.798 277.196 172.147 277.653 172.147 278.217V282.502C172.147 283.066 172.798 283.524 173.601 283.524H183.221C184.038 283.524 184.696 283.05 184.675 282.474L184.515 278.191C184.49 277.645 183.845 277.196 183.057 277.196Z" fill="#F2F3F7"/>
<path d="M164.608 277.196H153.668C152.986 277.196 152.425 277.545 152.389 277.994L152.105 282.668C152.078 283.135 152.653 283.524 153.374 283.524H164.512C165.205 283.524 165.772 283.161 165.791 282.711L165.885 278.038C165.887 277.579 165.324 277.196 164.608 277.196Z" fill="#F2F3F7"/>
<path d="M145.813 277.196H136.329C135.661 277.196 135.105 277.57 135.053 278.054L134.57 282.524C134.51 283.064 135.099 283.524 135.845 283.524H145.492C146.173 283.524 146.735 283.136 146.769 282.642L147.091 278.172C147.131 277.652 146.547 277.196 145.813 277.196Z" fill="#F2F3F7"/>
<path d="M127.121 277.196H117.684C117.085 277.196 116.579 277.529 116.509 277.969L115.781 282.544C115.699 283.066 116.248 283.524 116.956 283.524H126.555C127.168 283.524 127.676 283.178 127.734 282.724L128.295 278.151C128.364 277.647 127.818 277.196 127.121 277.196Z" fill="#F2F3F7"/>
<path d="M108.22 277.196H99.2057C98.5636 277.196 98.0172 277.547 97.9178 278.023L96.998 282.39C96.8728 282.99 97.4855 283.524 98.2858 283.524H107.446C108.101 283.524 108.653 283.158 108.734 282.67L109.494 278.303C109.617 277.725 109.008 277.196 108.22 277.196Z" fill="#F2F3F7"/>
<path d="M89.5566 277.196H80.5164C79.9612 277.196 79.4818 277.497 79.3754 277.917L78.2127 282.458C78.0721 283.01 78.6219 283.524 79.3538 283.524H88.5471C89.1131 283.524 89.598 283.21 89.6936 282.78L90.7012 278.239C90.8238 277.701 90.2758 277.196 89.5566 277.196Z" fill="#F2F3F7"/>
<path d="M53.172 259.653L54.7041 255.059C54.8303 254.678 55.2698 254.412 55.7703 254.412H59.5466C60.2628 254.412 60.7878 254.939 60.6189 255.484L59.1946 260.078C59.0746 260.466 58.631 260.741 58.1224 260.741H54.2565C53.5118 260.741 52.9848 260.203 53.172 259.653Z" fill="#F2F3F7"/>
<path d="M67.8667 254.412H77.3567C77.8863 254.412 78.2822 254.826 78.1729 255.265L76.959 260.177C76.878 260.505 76.5368 260.741 76.1429 260.741H66.5002C65.963 260.741 65.5578 260.314 65.6878 259.87L67.0543 254.958C67.1429 254.636 67.4784 254.412 67.8667 254.412Z" fill="#F2F3F7"/>
<path d="M85.1834 254.412H94.9199C95.4219 254.412 95.8013 254.789 95.7189 255.2L94.7034 260.177C94.6383 260.503 94.3011 260.741 93.9064 260.741H84.0128C83.5031 260.741 83.12 260.353 83.2177 259.935L84.3902 254.958C84.463 254.641 84.7964 254.412 85.1834 254.412Z" fill="#F2F3F7"/>
<path d="M102.684 254.412H112.225C112.855 254.412 113.339 254.875 113.259 255.372L112.515 259.999C112.447 260.424 112.004 260.741 111.48 260.741H101.783C101.142 260.741 100.654 260.278 100.752 259.758L101.644 255.132C101.733 254.718 102.17 254.412 102.684 254.412Z" fill="#F2F3F7"/>
<path d="M120.042 254.412H129.716C130.357 254.412 130.86 254.854 130.802 255.364L130.277 259.946C130.225 260.408 129.754 260.741 129.191 260.741H119.368C118.715 260.741 118.21 260.279 118.286 259.766L118.961 255.182C119.025 254.743 119.49 254.412 120.042 254.412Z" fill="#F2F3F7"/>
<path d="M137.421 254.412H147.177C147.847 254.412 148.38 254.854 148.343 255.378L148.045 259.87C148.012 260.357 147.5 260.741 146.878 260.741H136.986C136.305 260.741 135.766 260.279 135.821 259.75L136.27 255.258C136.307 254.78 136.811 254.412 137.421 254.412Z" fill="#F2F3F7"/>
<path d="M155.828 254.412H164.873C165.431 254.412 165.891 254.807 165.883 255.29L165.813 259.884C165.813 260.346 165.355 260.741 164.802 260.741H155.618C155.045 260.741 154.587 260.33 154.609 259.838L154.82 255.246C154.84 254.78 155.292 254.412 155.828 254.412Z" fill="#F2F3F7"/>
<path d="M173.144 254.412H183.516C184.057 254.412 184.498 254.743 184.513 255.159L184.675 259.953C184.691 260.385 184.24 260.741 183.678 260.741H173.144C172.595 260.741 172.147 260.397 172.147 259.974V255.177C172.147 254.754 172.595 254.412 173.144 254.412Z" fill="#F2F3F7"/>
<path d="M190.766 254.412H199.55C200.118 254.412 200.588 254.794 200.624 255.286L200.961 259.743C201.002 260.284 200.508 260.741 199.886 260.741H190.966C190.389 260.741 189.914 260.344 189.89 259.84L189.689 255.385C189.665 254.854 190.153 254.412 190.766 254.412Z" fill="#F2F3F7"/>
<path d="M208.265 254.412H218.093C218.628 254.412 219.078 254.733 219.134 255.158L219.748 259.817C219.812 260.309 219.326 260.741 218.707 260.741H208.732C208.187 260.741 207.729 260.406 207.689 259.972L207.23 255.313C207.174 254.826 207.655 254.412 208.265 254.412Z" fill="#F2F3F7"/>
<path d="M225.854 254.412H235.397C235.936 254.412 236.383 254.731 236.468 255.163L237.281 259.738C237.376 260.267 236.869 260.741 236.21 260.741H226.511C225.962 260.741 225.501 260.406 225.436 259.965L224.771 255.392C224.702 254.87 225.205 254.412 225.854 254.412Z" fill="#F2F3F7"/>
<path d="M243.451 254.412H252.691C253.246 254.412 253.721 254.738 253.822 255.184L254.813 259.627C254.941 260.205 254.4 260.741 253.682 260.741H244.3C243.735 260.741 243.253 260.401 243.165 259.944L242.317 255.501C242.213 254.93 242.745 254.412 243.451 254.412Z" fill="#F2F3F7"/>
<path d="M260.947 254.412H270.07C270.589 254.412 271.039 254.713 271.152 255.136L272.346 259.613C272.501 260.191 271.963 260.741 271.263 260.741H262.01C261.479 260.741 261.024 260.427 260.922 259.992L259.869 255.517C259.725 254.944 260.248 254.412 260.947 254.412Z" fill="#F2F3F7"/>
<path d="M278.374 254.412H287.487C287.939 254.412 288.333 254.671 288.448 255.043L289.875 259.68C290.04 260.217 289.565 260.741 288.913 260.741H279.658C279.198 260.741 278.796 260.471 278.691 260.089L277.407 255.452C277.26 254.921 277.733 254.412 278.374 254.412Z" fill="#F2F3F7"/>
<path d="M321.752 344.28H22.548C21.4649 344.28 20.3924 344.018 19.3918 343.51C18.3911 343.001 17.4818 342.255 16.7159 341.315C15.95 340.374 15.3424 339.258 14.9279 338.029C14.5134 336.801 14.3 335.484 14.3 334.154H330C329.999 336.84 329.13 339.415 327.583 341.314C326.037 343.213 323.939 344.28 321.752 344.28Z" fill="#263238"/>
<path d="M209.313 307.555C209.004 306.104 207.364 305.042 205.449 305.042H138.832C136.918 305.042 135.29 306.104 134.979 307.555L130.806 327.825C130.806 327.805 130.818 327.776 130.818 327.759L134.979 308.386C135.29 306.934 136.918 305.874 138.832 305.874H205.449C207.364 305.874 209.004 306.934 209.313 308.386L213.477 327.759C213.477 327.776 213.489 327.796 213.489 327.816L209.313 307.555Z" fill="#14AF78"/>
<path d="M209.276 308.82C208.966 307.371 207.333 306.308 205.422 306.308H138.884C136.971 306.308 135.34 307.371 135.027 308.82L130.86 328.131C130.461 329.96 132.303 331.623 134.717 331.623H209.579C211.993 331.623 213.828 329.96 213.436 328.131L209.276 308.82Z" fill="#BEC9E5"/>
<path d="M198.665 136.366C198.241 131.403 198.47 126.394 199.345 121.511L241.052 131.553L216.973 172.14C211.842 168.089 207.543 162.786 204.38 156.604C201.217 150.423 199.266 143.514 198.665 136.366V136.366Z" fill="#FE5454"/>
<path d="M199.71 121.569C203.447 101 218.503 84.6791 237.741 82.516C245.303 81.6537 252.93 83.1023 259.843 86.7139C254.371 100.406 245.554 122.586 242.806 129.508L242.61 130.019C242.545 130.179 242.486 130.332 242.431 130.469L241.967 131.637L199.71 121.569Z" fill="#14A06F"/>
<path d="M241.731 136.613L242.203 135.435L242.385 134.981L242.585 134.466L243.185 132.988L243.351 132.561L243.911 131.176L259.953 91.3259C266.09 94.5093 271.497 99.2579 275.753 105.202C280.009 111.146 283 118.125 284.493 125.597C285.985 133.068 285.939 140.829 284.358 148.277C282.776 155.725 279.703 162.658 275.376 168.536L241.731 136.613Z" fill="#88EBA5"/>
<path d="M217.247 172.34L241.691 131.636L274.875 163.288C267.977 172.714 258.25 178.865 247.594 180.539C236.937 182.213 226.117 179.289 217.247 172.34V172.34Z" fill="#CFFFDD"/>
<path d="M271.424 132.073C271.538 113.175 258.335 97.7483 241.933 97.6163C225.531 97.4844 212.141 112.697 212.027 131.595C211.912 150.493 225.116 165.92 241.518 166.052C257.92 166.184 271.309 150.971 271.424 132.073Z" fill="#4D626C"/>
<path d="M341.274 22.2088L335.96 0L304.943 31.9419L308.759 55.6924L341.274 22.2088Z" fill="#14A06F" fill-opacity="0.75"/>
<path d="M333.18 65.8186L314.964 58.3067L344.124 26.5808L363.822 32.6894L333.18 65.8186Z" fill="#14A06F"/>
<path d="M241.818 135.935L343.778 26.1992L340.048 21.5181L238.047 131.302C237.566 131.891 237.296 132.671 237.292 133.484C237.288 134.297 237.55 135.081 238.025 135.677C238.5 136.273 239.152 136.636 239.849 136.692C240.546 136.749 241.236 136.494 241.777 135.981L241.803 135.953H241.814L241.818 135.935Z" fill="#92E3A9"/>
<path d="M60.6516 230.365C60.6516 230.365 71.704 141.756 109.511 141.763C149.653 141.763 151.319 218.916 171.746 218.746C185.108 218.635 188.713 185.767 203.263 186.189C217.813 186.612 220.067 222.196 233.161 222.04C246.487 221.882 241.098 200.584 254.617 200.562C269.829 200.544 272.371 230.365 272.371 230.365H60.6516Z" fill="#92E3A9"/>
<path d="M124.544 141.763H95.7297V143.029H124.544V141.763Z" fill="#1BE49D"/>
<path d="M110.761 140.497H108.255V143.028H110.761V140.497Z" fill="white"/>
<path d="M59.4468 145.559H59.3977V130.37H71.9255V130.426H59.4468V145.559Z" fill="#14A06F"/>
<path d="M284.899 235.428H279.888V235.37H284.845V230.365H284.899V235.428Z" fill="#8DA6EB"/>
<path d="M149.16 176.16L145.548 180.324L145.817 180.635L149.429 176.471L149.16 176.16Z" fill="white"/>
<path d="M145.821 176.185L145.552 176.495L149.165 180.658L149.434 180.348L145.821 176.185Z" fill="white"/>
<path d="M188.066 202.064L184.454 206.228L184.724 206.538L188.336 202.374L188.066 202.064Z" fill="white"/>
<path d="M184.723 202.083L184.454 202.394L188.067 206.557L188.336 206.247L184.723 202.083Z" fill="white"/>
<path d="M60.6516 230.364C60.6516 230.364 73.1141 184.77 100.832 186.092C128.55 187.414 123.41 222.743 136.448 220.253C149.487 217.763 145.347 201.247 155.818 201.286C166.288 201.326 163.064 224.732 175.169 224.291C187.275 223.849 183.157 210.416 193.146 210.504C203.496 210.596 204.721 230.364 204.721 230.364H60.6516Z" fill="#14A06F"/>
<path d="M60.6516 218.451L75.6528 227.833L90.7182 200.859L72.4966 193.658L60.6516 218.451Z" fill="#292C47"/>
<path d="M61.9036 217.88L76.2795 226.567L90.7174 201.592L73.2549 194.923L61.9036 217.88Z" fill="#F7F7F7"/>
<path d="M56.8938 213.319C56.8938 213.319 59.4695 211.863 60.5998 211.101C61.7301 210.339 64.6364 209.282 64.8709 209.054C65.1054 208.827 73.4882 208.195 73.9956 207.676C74.5031 207.158 74.999 208.893 72.8269 209.455C70.6548 210.016 67.637 211.395 67.4659 212.411C67.2948 213.428 69.6957 213.653 69.9398 214.481C70.1839 215.308 69.8706 215.122 69.5284 215.299C69.1863 215.477 66.6778 213.835 65.5745 214.301C64.4711 214.767 62.7873 214.121 61.9415 214.462C61.0957 214.804 56.988 216.441 56.988 216.441L56.8938 213.319Z" fill="#263238"/>
<path d="M76.8652 225.301C76.8652 225.301 79.0317 222.975 80.0813 222.001C81.1308 221.026 83.0971 218.165 83.386 217.997C83.6748 217.829 87.4302 208.629 88.0464 208.259C88.6627 207.889 87.4687 206.65 86.1707 208.877C84.8727 211.104 82.5964 213.968 81.7298 213.759C80.8631 213.55 81.6084 210.755 81.0442 210.157C80.4799 209.56 80.505 209.98 80.2296 210.297C79.9542 210.615 80.2854 214.085 79.4843 215.145C78.6831 216.204 78.5387 218.362 77.9436 219.174C77.3485 219.985 74.4329 223.977 74.4329 223.977L76.8652 225.301Z" fill="#263238"/>
<path d="M29.3315 347.304C29.3315 347.304 28.8536 351.112 28.7948 351.685C28.7361 352.258 23.4907 351.347 23.4907 351.347L23.0676 346.812C23.0676 346.812 28.6753 346.767 29.3315 347.304Z" fill="#424773"/>
<path d="M28.6568 350.873C28.6568 350.873 30.3795 353.211 32.0453 354.228C33.7111 355.246 36.3317 355.653 37.3271 356.707C38.0381 357.467 39.9172 360.747 32.996 360.68C26.0749 360.614 22.7372 361.14 21.9957 359.886C21.2542 358.632 23.0683 350.609 23.0683 350.609C23.0683 350.609 24.6975 351.277 28.6568 350.873Z" fill="#292C47"/>
<path d="M66.9155 347.304C66.9155 347.304 66.4395 351.112 66.3788 351.685C66.3181 352.258 61.0767 351.347 61.0767 351.347L60.6516 346.812C60.6516 346.812 66.2593 346.767 66.9155 347.304Z" fill="#424773"/>
<path d="M66.0038 350.874C66.0038 350.874 67.6653 353.22 69.2719 354.241C70.8785 355.262 76.7956 356.103 77.7459 357.164C78.4316 357.927 79.5719 361.004 70.179 360.716C63.5057 360.51 60.2846 361.177 59.5694 359.918C58.8543 358.66 60.604 350.609 60.604 350.609C60.604 350.609 62.095 351.325 66.0038 350.874Z" fill="#292C47"/>
<path d="M33.4111 249.35C33.4111 249.35 28.4112 258.377 28.7848 266.52C29.1584 274.663 26.9724 283.573 26.2213 292.09C25.3846 301.583 21.9587 324.059 21.8335 329.137C21.7083 334.215 22.366 350.43 22.366 350.43L29.224 350.608C29.224 350.608 34.9869 311.316 36.4754 307.308C37.9638 303.3 45.3642 274.717 45.6166 271.508C45.869 268.298 33.4111 249.35 33.4111 249.35Z" fill="#14A06F"/>
<path d="M60.0314 250.854C60.0314 250.854 63.7235 273.134 64.2016 278.11C64.6796 283.086 65.0119 302.191 65.2548 305.297C65.4977 308.403 66.8754 345.991 68.1696 350.61H59.5981C59.5981 350.61 53.0183 323.288 53.0183 310.363C53.0183 297.438 47.9329 282.258 44.6508 273.731C41.3687 265.203 33.8562 264.998 31.8391 249.175C31.8391 249.175 57.2992 245.833 60.0314 250.854Z" fill="#14A06F"/>
<path d="M42.0155 172.864C42.0155 172.864 48.2591 169.91 51.1377 175.931C54.0164 181.951 53.7391 194.001 50.5831 195.483C47.4271 196.966 42.7088 196.186 41.0984 192.424C39.4881 188.662 38.033 183.211 38.1033 179.573C38.1735 175.935 40.37 173.916 42.0155 172.864Z" fill="#EEA886"/>
<path d="M50.4225 195.86C50.4225 195.86 50.1365 197.925 50.6105 198.942C51.0844 199.959 41.6734 199.987 41.6734 199.987C41.6734 199.987 40.9094 194.462 39.4692 189.776C38.0291 185.09 50.4225 195.86 50.4225 195.86Z" fill="#EEA886"/>
<path d="M39.4175 189.055C39.4175 189.055 40.0436 190.203 42.5991 189.757C45.1546 189.311 48.2713 185.537 49.3383 185.124C50.4054 184.711 50.4153 184.013 50.4153 184.013L50.3011 185.253L52.2168 185.177C52.2168 185.177 51.1831 181.799 52.7424 180.423C54.3017 179.048 51.506 164.473 39.0828 174.198C39.0828 174.198 36.6355 174.601 36.8639 178.571C37.0923 182.542 38.0019 187.077 39.4175 189.055Z" fill="#263238"/>
<path d="M50.6289 198.506C50.6289 198.506 50.6018 196.931 49.8535 196.78C49.1052 196.63 41.5314 195.94 40.6067 196.285V198.12C40.6067 198.12 42.3824 199.157 50.6289 198.506Z" fill="#292C47"/>
<path d="M50.4375 182.674C50.3002 181.904 48.8205 179.704 48.2541 182.058C47.6877 184.411 49.1103 187.583 49.9036 187.313C50.6969 187.043 50.7827 184.626 50.4375 182.674Z" fill="#EEA886"/>
<path d="M28.3254 270.814C28.3254 270.814 32.3165 272.199 39.1225 273.089C45.9284 273.978 62.9395 272.768 63.0475 271.819C63.1555 270.871 59.3842 236.486 59.6021 234.713C59.82 232.941 59.9318 226.635 59.9318 226.635C60.0147 228.364 61.5089 235.425 63.3097 239.275C63.9614 240.665 66.1458 245.024 67.1986 244.032C72.2944 239.232 80.1858 221.145 80.6948 220.99C80.2745 220.777 76.9564 218.972 76.4898 218.79C76.081 218.629 72.4062 223.222 70.1774 226.071C69.1844 227.34 68.4807 228.261 68.4807 228.261C67.8367 226.553 65.4942 215.796 64.7654 212.074C63.1227 203.68 63.3753 203.329 63.3753 203.329C58.3951 201.552 50.843 197.935 50.843 197.935L40.8673 197.455C40.8673 197.455 31.713 199.833 28.1076 201.755C27.7663 201.937 27.7644 211.39 26.8254 213.87L29.8158 221.309C29.8158 221.309 31.5414 236.047 31.9 242.601C32.0504 245.606 28.3254 270.814 28.3254 270.814Z" fill="#92E3A9"/>
<path d="M26.3193 226.564C26.5661 227.593 27.6889 228.453 28.4166 228.842C28.8969 229.094 29.423 229.162 29.9324 229.038L30.2981 228.951L36.782 227.397C36.782 227.397 38.201 206.305 27.9247 201.252C27.6578 201.365 24.0501 217.119 26.3193 226.564Z" fill="#92E3A9"/>
<path d="M28.0793 228.832C28.719 229.094 29.4196 229.165 30.0979 229.036L30.5849 228.945L29.7327 217.707L28.0793 228.832Z" fill="#14A06F"/>
<path d="M69.4192 228.748L70.035 232.896C70.035 232.896 70.7035 228.732 70.6708 226.567C69.9383 227.833 69.4192 228.748 69.4192 228.748Z" fill="#B52828"/>
<path d="M40.608 173.428C40.608 173.428 29.4601 172.096 40.4191 189.86L40.608 173.428Z" fill="#263238"/>
<path d="M83.6063 199.986L84.4534 198.025L77.7839 194.923L76.9368 196.872L83.6063 199.986Z" fill="#292C47"/>
<path d="M4.15935 140.497H0.516846V137.349H3.02145L18.3665 119.766L29.5248 132.549L56.1781 102.013L64.3782 111.407L91.4022 80.4465L107.595 98.9989H126.058L154.557 66.3502H179.134L197.303 45.5336H219.545L241.611 20.2517L243.556 22.4798L220.683 48.6814H198.441L180.272 69.4981H155.695L127.198 102.147H106.457L91.4022 84.8981L64.3782 115.859L56.1781 106.465L29.5248 137.001L18.3665 124.22L4.15935 140.497Z" fill="#14A06F"/>
<path d="M193.373 135.434L186.578 127.952H167.136V127.84H186.618L193.444 135.356L193.373 135.434Z" fill="#4D626C"/>
<path d="M173.018 121.511H146.221C146.01 121.511 145.839 121.649 145.839 121.82V122.467C145.839 122.638 146.01 122.776 146.221 122.776H173.018C173.229 122.776 173.4 122.638 173.4 122.467V121.82C173.4 121.649 173.229 121.511 173.018 121.511Z" fill="#4D626C"/>
<path d="M162.988 117.713H146.229C146.013 117.713 145.839 117.852 145.839 118.023V118.669C145.839 118.84 146.013 118.979 146.229 118.979H162.988C163.203 118.979 163.378 118.84 163.378 118.669V118.023C163.378 117.852 163.203 117.713 162.988 117.713Z" fill="#4D626C"/>
<path d="M102.931 136.7H84.7651C84.5924 136.7 84.4524 136.815 84.4524 136.958V137.708C84.4524 137.85 84.5924 137.966 84.7651 137.966H102.931C103.104 137.966 103.244 137.85 103.244 137.708V136.958C103.244 136.815 103.104 136.7 102.931 136.7Z" fill="#1BE49D"/>
<path d="M96.6457 131.636H84.7869C84.6021 131.636 84.4524 131.866 84.4524 132.151V133.652C84.4524 133.937 84.6021 134.167 84.7869 134.167H96.6457C96.8304 134.167 96.9802 133.937 96.9802 133.652V132.151C96.9802 131.866 96.8304 131.636 96.6457 131.636Z" fill="#1BE49D"/>
<path d="M194.63 111.385L186.899 102.636H163.38V102.524H186.939L194.699 111.306L194.63 111.385Z" fill="#4D626C"/>
<path d="M165.493 95.7969H146.229C146.014 95.7969 145.839 96.0742 145.839 96.4163V97.7089C145.839 98.051 146.014 98.3283 146.229 98.3283H165.493C165.708 98.3283 165.883 98.051 165.883 97.7089V96.4163C165.883 96.0742 165.708 95.7969 165.493 95.7969Z" fill="#4D626C"/>
<path d="M170.498 92H146.235C146.016 92 145.839 92.2773 145.839 92.6194V93.912C145.839 94.2541 146.016 94.5315 146.235 94.5315H170.498C170.717 94.5315 170.894 94.2541 170.894 93.912V92.6194C170.894 92.2773 170.717 92 170.498 92Z" fill="#4D626C"/>
<path d="M439.678 354.407L438.826 354.369L443.114 231.338H368.964L364.675 354.407L363.823 354.369L368.144 230.365H444.001L439.678 354.407Z" fill="#263238"/>
<path d="M446.905 354.407L442.618 231.338H368.468L372.756 354.369L371.904 354.407L367.581 230.365H443.436L447.759 354.369L446.905 354.407Z" fill="#263238"/>
<path d="M373.051 313.903H446.507L442.291 189.861H368.835L373.051 313.903Z" fill="#14A06F"/>
<path d="M440.977 190.361L436.727 313.403H363.087L367.337 190.361H440.977Z" fill="white" stroke="black"/>
<path d="M394.779 211.378H375.461C374.568 211.378 373.845 212.162 373.845 213.13V214.689C373.845 215.656 374.568 216.441 375.461 216.441H394.779C395.671 216.441 396.395 215.656 396.395 214.689V213.13C396.395 212.162 395.671 211.378 394.779 211.378Z" fill="#C7F6D6"/>
<path d="M394.779 201.252H375.461C374.568 201.252 373.845 202.036 373.845 203.004V204.563C373.845 205.53 374.568 206.315 375.461 206.315H394.779C395.671 206.315 396.395 205.53 396.395 204.563V203.004C396.395 202.036 395.671 201.252 394.779 201.252Z" fill="#39CD81" fill-opacity="0.85"/>
<path d="M391.557 259.476H378.681C378.085 259.476 377.603 259.869 377.603 260.353V261.131C377.603 261.615 378.085 262.008 378.681 262.008H391.557C392.153 262.008 392.636 261.615 392.636 261.131V260.353C392.636 259.869 392.153 259.476 391.557 259.476Z" fill="#56D393"/>
<path d="M405.165 265.804H381.362V265.277H404.692V256.944H405.165V265.804Z" fill="#56D393"/>
<path d="M433.428 206.276C433.013 204.867 432.373 203.572 431.545 202.463C430.716 201.355 429.716 200.455 428.601 199.815C427.486 199.175 426.277 198.808 425.045 198.734C423.813 198.66 422.581 198.881 421.419 199.385C420.257 199.888 419.188 200.665 418.274 201.669C417.36 202.673 416.617 203.885 416.09 205.237C415.562 206.589 415.259 208.054 415.198 209.548C415.137 211.042 415.32 212.536 415.735 213.944C415.806 214.185 415.885 214.422 415.968 214.653C416.939 217.364 418.742 219.511 420.995 220.64C423.248 221.769 425.774 221.792 428.041 220.704C430.308 219.617 432.137 217.503 433.142 214.811C434.148 212.119 434.25 209.058 433.428 206.276ZM426.953 218.149C425.271 218.881 423.422 218.809 421.782 217.949C420.142 217.088 418.834 215.504 418.123 213.516C418.061 213.344 418.003 213.164 417.95 212.984C417.481 211.394 417.411 209.671 417.75 208.032C418.089 206.394 418.82 204.914 419.853 203.78C420.885 202.646 422.172 201.909 423.55 201.661C424.928 201.413 426.336 201.667 427.595 202.389C428.855 203.111 429.909 204.27 430.625 205.719C431.341 207.168 431.687 208.842 431.618 210.528C431.55 212.215 431.07 213.84 430.24 215.196C429.41 216.553 428.266 217.58 426.955 218.149H426.953Z" fill="#92E3A9"/>
<path d="M417.44 207.58L415.187 206.728C415.772 204.463 416.924 202.476 418.483 201.041C420.041 199.606 421.929 198.795 423.885 198.72L423.956 201.576C422.49 201.631 421.074 202.239 419.906 203.315C418.737 204.391 417.873 205.882 417.435 207.58H417.44Z" fill="#FE5454"/>
<path d="M417.506 213.507L415.668 214.594C415.598 214.377 415.53 214.146 415.47 213.916C414.881 211.688 414.845 209.259 415.366 207L417.285 207.814C416.894 209.507 416.921 211.328 417.363 212.998C417.403 213.17 417.453 213.341 417.506 213.507Z" fill="#56D393"/>
<path d="M417.685 217.797C416.992 216.982 416.424 216.069 416 215.087L418.495 214C418.814 214.736 419.24 215.421 419.758 216.032L417.685 217.797Z" fill="#56D393"/>
<path d="M363.424 313.903H362.569L366.844 189.861H442.747V190.848H367.665L363.424 313.903Z" fill="#263238"/>
<path d="M437.737 313.903L441.546 189.861H442.698L446.507 313.903H437.737Z" fill="#263238"/>
<path d="M371.757 288.589L371.339 287.693L389.726 275.062L400.391 283.822L431.06 263.274L431.472 264.174L400.346 285.029L389.685 276.271L371.757 288.589Z" fill="#C7F6D6"/>
<path d="M416.414 227.965C413.263 226.314 409.648 226.117 406.366 227.417C403.083 228.716 400.401 231.406 398.91 234.895C397.419 238.383 397.241 242.384 398.415 246.018C399.589 249.652 402.019 252.621 405.17 254.271C405.437 254.41 405.707 254.54 405.978 254.659C409.152 256.049 412.69 256.017 415.844 254.57C418.997 253.124 421.519 250.376 422.875 246.907C424.23 243.439 424.314 239.523 423.108 235.988C421.903 232.453 419.502 229.576 416.414 227.965V227.965ZM419.701 245.784C418.634 248.288 416.746 250.249 414.421 251.268C412.096 252.286 409.507 252.287 407.182 251.269C406.983 251.181 406.784 251.084 406.585 250.978C404.824 250.054 403.35 248.573 402.35 246.721C401.35 244.87 400.868 242.732 400.965 240.577C401.062 238.423 401.734 236.348 402.895 234.617C404.057 232.885 405.657 231.573 407.492 230.847C409.327 230.121 411.315 230.014 413.205 230.539C415.095 231.064 416.802 232.197 418.111 233.796C419.419 235.395 420.27 237.387 420.556 239.521C420.842 241.654 420.55 243.834 419.717 245.784H419.701Z" fill="#92E3A9"/>
<path d="M402.289 246.297L399.226 248.085C397.892 245.245 397.385 242.013 397.775 238.837C398.166 235.661 399.433 232.7 401.402 230.365L403.911 233.009C402.435 234.76 401.484 236.982 401.192 239.363C400.9 241.745 401.28 244.169 402.28 246.299L402.289 246.297Z" fill="#56D393"/>
<path d="M406.517 251.312L405.398 254.86C405.145 254.736 404.891 254.6 404.642 254.454C402.222 253.047 400.241 250.699 399 247.768L401.73 246C402.659 248.2 404.144 249.963 405.959 251.019C406.136 251.118 406.327 251.22 406.517 251.312Z" fill="#FE5454"/>
<path d="M410.52 255.797C409.312 255.697 408.126 255.413 407 254.954L408.119 252C408.964 252.343 409.853 252.557 410.758 252.634L410.52 255.797Z" fill="#FE5454"/>
<path d="M370.534 303.776L370.087 302.897L389.701 288.589L397.849 297.169L411.449 292.235L423.531 293.027L430.884 284.79L431.473 285.545L423.851 294.08L411.553 293.276L397.639 298.323L389.609 289.865L370.534 303.776Z" fill="#C7F6D6"/>
<path d="M380.891 250.939C380.621 250.941 380.353 250.887 380.1 250.78C379.863 250.679 379.645 250.531 379.458 250.343C379.273 250.159 379.123 249.938 379.016 249.692C378.911 249.439 378.856 249.164 378.856 248.887C378.856 248.609 378.911 248.335 379.016 248.082C379.231 247.577 379.617 247.181 380.094 246.978C380.603 246.766 381.167 246.766 381.676 246.978C382.152 247.181 382.538 247.577 382.754 248.082C382.859 248.335 382.913 248.609 382.913 248.887C382.913 249.164 382.859 249.439 382.754 249.692C382.647 249.938 382.496 250.159 382.312 250.343C382.125 250.531 381.907 250.679 381.669 250.78C381.421 250.885 381.157 250.939 380.891 250.939V250.939ZM379.438 256.25L383.021 251.634L386.389 246.875L387.051 247.5L383.532 252.066L380.087 256.894L379.438 256.25ZM380.891 250.148C381.031 250.15 381.169 250.114 381.294 250.045C381.417 249.976 381.528 249.881 381.618 249.766C381.713 249.647 381.787 249.511 381.839 249.365C381.895 249.212 381.924 249.049 381.923 248.884C381.924 248.713 381.895 248.544 381.839 248.384C381.788 248.235 381.713 248.097 381.618 247.976C381.527 247.861 381.414 247.768 381.287 247.704C381.097 247.607 380.882 247.583 380.677 247.634C380.472 247.686 380.289 247.812 380.158 247.99C380.012 248.179 379.914 248.407 379.875 248.651C379.837 248.895 379.858 249.145 379.937 249.377C379.989 249.523 380.064 249.659 380.158 249.778C380.248 249.892 380.359 249.984 380.483 250.05C380.61 250.117 380.75 250.15 380.891 250.148V250.148ZM385.584 256.945C385.314 256.947 385.045 256.893 384.793 256.786C384.317 256.583 383.931 256.188 383.715 255.683C383.61 255.43 383.556 255.156 383.556 254.878C383.556 254.6 383.61 254.326 383.715 254.073C383.822 253.827 383.972 253.605 384.157 253.422C384.344 253.233 384.562 253.084 384.8 252.984C385.309 252.772 385.873 252.772 386.382 252.984C386.62 253.084 386.838 253.232 387.025 253.422C387.21 253.605 387.361 253.826 387.467 254.073C387.572 254.326 387.626 254.6 387.626 254.878C387.626 255.156 387.572 255.43 387.467 255.683C387.251 256.188 386.865 256.583 386.389 256.786C386.132 256.895 385.859 256.949 385.584 256.945V256.945ZM385.584 256.154C385.725 256.156 385.863 256.123 385.99 256.058C386.117 255.993 386.229 255.898 386.318 255.779C386.465 255.589 386.564 255.36 386.603 255.115C386.641 254.87 386.619 254.618 386.539 254.385C386.488 254.238 386.413 254.102 386.318 253.984C386.224 253.871 386.112 253.779 385.986 253.712C385.865 253.649 385.732 253.616 385.598 253.616C385.458 253.615 385.32 253.65 385.195 253.72C385.072 253.789 384.962 253.884 384.871 253.998C384.776 254.117 384.701 254.253 384.65 254.4C384.595 254.553 384.567 254.716 384.568 254.88C384.567 255.051 384.595 255.22 384.65 255.38C384.701 255.529 384.776 255.668 384.871 255.789C384.961 255.902 385.072 255.994 385.195 256.06C385.317 256.122 385.45 256.154 385.584 256.154V256.154Z" fill="#56D393"/>
<g style="mix-blend-mode:multiply" opacity="0.15">
<path d="M391.153 228.443C390.803 228.307 385.553 228.515 383.883 228.587C383.883 228.55 383.86 228.506 383.852 228.469C385.159 228.092 388.754 227.052 389.209 226.909C389.773 226.729 389.743 226.317 389.289 226.003C388.882 225.716 383.9 226.946 382.942 227.177C382.006 227.258 379.896 228.235 380.105 227.554C380.342 226.775 381.96 223.456 381.396 222.865C380.832 222.273 380.105 224.614 379.703 225.196C379.399 225.635 378.419 227.045 378.197 228.263C378.128 228.585 377.99 228.88 377.795 229.116L377.78 228.963C377.78 228.963 376.6 229.402 374.796 229.832C373.393 230.179 371.975 230.428 370.549 230.576C370.311 230.604 370.051 230.632 369.783 230.666C369.464 230.713 369.131 230.757 368.781 230.819C368.536 230.856 368.283 230.891 368.016 230.937C367.4 231.034 366.776 231.143 366.183 231.23C366.034 231.258 365.892 231.277 365.751 231.304C365.609 231.332 365.469 231.348 365.335 231.367L365.075 239.224C365.209 239.206 365.351 239.189 365.492 239.162L365.923 239.099C366.673 238.975 367.453 238.822 368.268 238.651L368.513 238.598C368.704 238.561 368.896 238.517 369.087 238.471L369.34 238.418L370.022 238.256C374.352 237.225 378.57 235.889 378.57 235.889L378.339 233.897C378.413 233.868 378.485 233.831 378.555 233.789C378.882 233.592 381.233 234.482 383.202 233.816L383.292 233.763V233.782C383.292 233.782 386.353 233.611 387.644 233.708C388.935 233.805 388.824 233.125 388.727 232.867C388.608 232.525 385.475 232.337 384.16 232.275C384.169 232.243 384.174 232.209 384.176 232.176C385.771 231.995 390.064 231.512 390.489 231.459C390.617 231.444 390.736 231.37 390.821 231.252C390.906 231.134 390.95 230.982 390.944 230.826C390.947 230.745 390.933 230.665 390.904 230.591C390.876 230.518 390.833 230.454 390.78 230.405C390.521 230.188 385.88 230.341 384.202 230.405C384.199 230.387 384.199 230.368 384.202 230.35C385.13 230.244 386.978 230.029 388.545 229.83C389.919 229.668 391.086 229.506 391.197 229.453C391.493 229.331 391.405 228.531 391.153 228.443Z" fill="#243973"/>
</g>
<path d="M321.07 349.342C321.07 349.342 319.802 352.07 318.976 353.153C318.15 354.236 314.98 356.17 314.964 359.387C314.944 362.874 320.303 361.91 322.398 361.78C324.494 361.649 324.653 359.788 325.535 357.815C326.417 355.842 327.306 356.175 327.473 354.582C327.64 352.99 326.619 349.342 326.619 349.342H321.07Z" fill="#202338"/>
<path d="M326.065 348.63C326.065 348.63 326.274 350.038 326.233 350.071C326.193 350.103 321.199 351.255 321.228 350.086C321.25 349.157 321.689 348.077 321.689 348.077L326.065 348.63Z" fill="#81807E"/>
<path d="M380.108 222.529C380.108 222.529 386.289 221.281 386.752 221.539C387.214 221.796 387.242 222.131 386.668 222.272C386.094 222.413 380.722 223.647 380.722 223.647C380.722 223.647 388.215 223.384 388.644 223.51C388.896 223.584 388.992 224.226 388.688 224.331C388.384 224.436 380.943 225.118 380.943 225.118C380.943 225.118 387.939 224.885 388.261 225.099C388.333 225.165 388.384 225.249 388.408 225.341C388.432 225.434 388.428 225.531 388.396 225.622C388.364 225.712 388.307 225.792 388.229 225.852C388.152 225.912 388.058 225.949 387.959 225.96C387.441 226.011 380.939 226.594 380.939 226.594C380.939 226.594 386.023 226.745 386.178 227.091C386.275 227.305 386.376 227.853 385.073 227.775C383.771 227.697 380.641 227.832 380.641 227.832L380.108 222.529Z" fill="#EEA886"/>
<path d="M352.781 348.653C352.781 348.653 355.393 351.92 358.044 352.605C360.696 353.289 362.55 354.163 362.57 356.039C362.59 357.915 354.937 359.151 351.905 357.26C347.378 354.438 346.917 355.289 346.415 353.882C345.913 352.474 347.018 348.702 346.986 348.252C346.946 347.693 352.781 348.653 352.781 348.653Z" fill="#202338"/>
<path d="M352.292 347.655C352.292 347.655 352.588 349.057 352.545 349.086C352.502 349.115 347.387 349.841 347.542 348.715C347.666 347.803 347.845 346.811 347.845 346.811L352.292 347.655Z" fill="#81807E"/>
<path d="M347.547 255.177C347.547 255.177 349.694 278.767 350.812 286.843C352.117 296.285 352.56 304.085 352.924 308.974C353.383 315.12 353.471 345.359 353.791 347.156C354.112 348.952 346.678 347.652 346.678 347.652C346.678 347.652 343.02 308.143 341.656 301.595C340.386 295.501 335.671 269.256 334.511 270.922C333.352 272.587 331.908 301.548 331.057 306.355C330.206 311.162 327.588 348.8 327.588 348.8C327.588 348.8 321.671 350.132 320.097 348.626C320.097 348.626 319.38 316.189 319.929 307.168C320.129 303.732 316.37 265.983 321.2 250.784C323.752 242.762 347.547 255.177 347.547 255.177Z" fill="#39CD81"/>
<path d="M310.686 258.704C310.686 258.704 314.26 259.951 315.757 259.635C317.254 259.32 316.498 238.214 316.548 233.822C316.593 230.26 318.289 220.855 318.289 220.855C318.289 220.86 318.289 220.865 318.289 220.87C318.289 220.87 318.289 220.882 318.289 220.886C318.457 221.591 320.747 231.351 320.826 236.042C320.911 240.908 320.274 259.524 320.274 259.524L326.585 260.231L344.722 260.742L348.504 260.228C348.504 260.228 348.053 252.277 347.885 248.487C347.78 246.084 347.373 241.781 347.477 237.582C347.477 237.582 347.412 233.164 347.794 231.262C347.833 222.856 348.276 214.546 348.276 214.546C348.524 210.741 348.695 207.182 348.79 203.868C347.999 203.382 347.031 202.811 346.26 202.393C343.887 201.089 340.564 199.335 338.435 198.215C337.189 197.557 335.969 197.079 335.969 197.079C335.969 197.079 327.469 196.141 326.773 196.191C326.555 196.207 325.492 196.632 324.098 197.243C321.081 198.558 315.267 201.237 314.339 202C312.981 203.118 310.111 229.663 309.99 231.521C309.763 234.874 310.686 258.704 310.686 258.704Z" fill="#14A06F"/>
<path d="M348.247 256.944C348.247 256.944 335.84 258.148 324.987 256.944V261.009C324.987 261.009 341.297 263.705 348.79 260.234L348.247 256.944Z" fill="#1D2033"/>
<path d="M337.515 197.455C337.515 197.455 339.577 202.907 341.125 215.132C341.719 219.825 342.821 227.721 343.622 235.78C344.252 242.141 345.694 248.653 346.153 253.516C346.626 258.555 348.056 273.399 348.056 273.399L351.524 270.935C352.019 270.417 352.714 269.747 352.512 269.022C351.558 265.549 349.733 254.068 348.656 244.06C348.656 244.06 348.656 244.049 348.656 244.04C348.607 243.558 348.557 243.08 348.507 242.606C348.507 242.581 348.507 242.556 348.507 242.529C348.306 240.528 348.135 238.611 348.016 236.85C347.938 235.532 347.99 234.208 348.171 232.902C348.654 223.921 348.894 214.451 348.894 214.451C349.147 210.573 349.296 206.955 349.391 203.575C348.829 203.091 347.589 202.343 346.719 201.878C346.707 201.889 338.964 197.928 337.515 197.455Z" fill="#92E3A9"/>
<path d="M336.257 200.54C336.257 200.54 336.448 204.942 334.14 205.047C331.831 205.151 329.997 201.57 329.997 201.57L333.828 203.174L336.159 199.986L336.257 200.54Z" fill="#CAC7D1"/>
<path d="M372.591 225.165C372.591 225.165 374.682 224.509 374.963 223.105C375.2 221.908 376.237 220.515 376.555 220.091C376.982 219.516 377.753 217.219 378.349 217.801C378.945 218.383 377.227 221.649 376.98 222.409C376.732 223.169 379.632 221.834 380.302 222.066C380.973 222.298 382.326 227.924 380.259 228.577C378.193 229.231 375.691 228.346 375.342 228.554C374.855 228.77 374.357 228.952 373.851 229.099L372.591 225.165Z" fill="#EEA886"/>
<path d="M333.603 172.221C333.603 172.221 339.687 173.432 338.647 184.665C337.607 195.899 332.257 194.91 331.898 194.895C331.538 194.879 326.504 195.029 326.239 181.293C326.239 181.293 326.165 171.136 333.603 172.221Z" fill="#FFE7DB"/>
<path d="M334.816 194.203C334.816 194.203 334.716 198.298 334.813 198.897C334.918 199.542 331.839 201.402 329.851 199.234C329.851 199.234 329.976 195.82 329.851 194.753C329.726 193.687 334.816 194.203 334.816 194.203Z" fill="#FFE7DB"/>
<path d="M325.916 181.361C325.916 181.361 325.29 180.563 325.032 181.341C324.774 182.119 325.716 185.61 325.835 185.825C325.835 185.825 326.037 186.184 326.204 186.02C326.37 185.856 325.916 181.361 325.916 181.361Z" fill="#EEA987"/>
<path d="M338.702 181.403C338.487 182.979 338.284 184.151 338.284 184.151L337.375 185.549C337.375 185.549 337.43 182.456 337.291 181.97C337.239 181.785 337.176 181.461 337.114 181.108C337.008 180.525 336.902 179.866 336.828 179.648C336.711 179.297 331.478 177.496 326.817 180.025C326.817 180.025 326.856 180.502 326.854 181.032C326.854 181.649 326.794 182.34 326.553 182.444C326.108 182.638 326.293 186.063 326.293 186.063L325.567 185.075C325.567 185.075 325.357 183.285 325.15 181.228C325.151 181.223 325.151 181.219 325.15 181.214C325.103 180.735 325.056 180.24 325.01 179.751C324.906 177.678 325.08 173.925 327.366 171.716C328.908 170.938 331.372 170.277 335.478 171.758C335.478 171.758 336.502 172.103 336.766 172.403C339.32 175.72 338.702 181.403 338.702 181.403Z" fill="#353A3D"/>
<path d="M336.26 201.532L333.755 203.784C333.755 203.784 335.857 198.361 335.903 196.189L336.26 201.532Z" fill="#A09EA6"/>
<path d="M336.261 196.189L337.482 197.924L338.766 203.784L336.517 201.006L336.261 196.189Z" fill="#EAE6F2"/>
<path d="M375.099 230.815C375.099 230.815 361.265 234.97 357.882 234.021C356.318 233.572 354.259 231.121 352.302 228.225C351.657 227.271 351.024 226.27 350.422 225.28C348.023 221.325 346.141 217.532 346.141 217.532C346.141 217.532 339.045 208.042 344.738 203.814C344.738 203.814 347.138 203.535 348.505 204.684C349.763 205.746 352.831 212.428 353.329 213.663C353.827 214.897 359.219 226.4 359.581 226.658C359.943 226.917 364.565 225.985 367.007 225.743C369.476 225.497 371.918 224.983 374.3 224.207L375.099 230.815Z" fill="#92E3A9"/>
<path d="M336.261 197.455C335.704 199.631 334.99 201.748 334.126 203.784C334.126 203.784 331.052 200.639 330.087 199.536C329.121 198.433 336.261 197.455 336.261 197.455Z" fill="#FFE2D4"/>
<path d="M331.076 199.986L333.755 203.783C333.755 203.783 330.589 203.473 329.997 202.667L331.076 199.986Z" fill="#A09EA6"/>
<path d="M328.369 194.923C328.369 194.923 330.107 199.037 331.25 200.384L329.323 205.049L326.239 196.871L328.369 194.923Z" fill="#EAE6F2"/>
<path d="M316.886 234.317C316.609 238.339 318.189 260.592 316.611 260.904C315.033 261.216 309.242 259.846 309.242 259.846C309.242 259.846 308.515 235.846 308.748 233.331C308.917 231.5 311.625 204.037 313.052 202.934C313.885 202.295 319.995 199.959 322.996 198.675C323.544 198.45 325.285 197.657 325.772 197.455C326.409 198.217 331.956 212.235 332.482 223.165C332.643 226.492 331.918 233.517 331.369 239.258C330.78 245.383 330.131 250.162 329.654 255.282C328.713 265.369 328.056 273.399 328.056 273.399L318.732 268.929C317.223 268.116 315.133 264.78 315.702 263.069C317.856 256.569 320.572 245.459 320.574 239.756C320.574 239.756 319.533 225.786 318.701 222.719C318.705 222.723 317.248 229.204 316.886 234.317Z" fill="#92E3A9"/>
<path d="M338.766 256.944H333.755V262.007H338.766V256.944Z" fill="#3A4066"/>
<path d="M320.463 283.524H301.185L305.709 268.335H324.987L320.463 283.524Z" fill="#EDDAD3"/>
<path d="M320.463 283.524H301.185L305.709 268.335H324.987L320.463 283.524Z" fill="#F7F7F7"/>
<path d="M305.709 297.448H324.987L320.463 283.525H301.185L305.709 297.448Z" fill="#C1C5DB"/>
<path d="M320.463 312.637H301.185L305.709 297.448H324.987L320.463 312.637Z" fill="#F7F7F7"/>
<path d="M305.709 327.825H324.987L320.463 312.636H301.185L305.709 327.825Z" fill="#C1C5DB"/>
<path d="M317.33 272.133H307.448L307.587 270.867H317.47L317.33 272.133Z" fill="#AEBDF2"/>
<path d="M317.314 274.665H306.194L306.35 273.399H317.469L317.314 274.665Z" fill="#AEBDF2"/>
<path d="M311.069 303.777H306.194L306.331 302.511H311.205L311.069 303.777Z" fill="#AEBDF2"/>
<path d="M316.34 261.65C316.34 261.65 316.44 262.013 316.611 262.623C316.911 263.672 317.873 264.872 317.281 266.306C316.689 267.741 312.23 266.838 311.553 266.169C310.875 265.5 311.155 263.305 312.711 260.485C314.267 257.665 316.34 261.65 316.34 261.65Z" fill="#EEA886"/>
<path d="M317.471 265.852C317.418 267.605 317.273 269.354 317.038 271.091C316.708 273.511 315.981 276.464 315.406 276.372C314.541 276.248 315.391 273.899 315.566 271.479C315.728 269.25 315.35 269.661 315.35 269.661C315.35 269.661 315.466 269.55 314.842 271.943C314.169 274.517 313.347 277.251 312.876 277.196C312.29 277.125 312.227 277.063 312.323 276.087C312.15 276.636 311.983 276.664 311.758 276.611C310.597 276.331 311.023 272.388 311.194 270.822C311.056 272.023 310.833 272.889 310.225 272.232C309.531 271.479 310.374 265.932 310.493 263.914C310.621 261.726 317.471 265.852 317.471 265.852Z" fill="#EEA886"/>
<path d="M317.472 244.959L317.369 263.272C317.369 263.272 313.867 263.109 309.042 261.25L308.702 235.426L317.472 244.959Z" fill="#92E3A9"/>
<path d="M101.479 182.907L97.8665 187.071L98.1359 187.381L101.748 183.217L101.479 182.907Z" fill="white"/>
<path d="M98.1358 182.925L97.8665 183.236L101.479 187.399L101.749 187.089L98.1358 182.925Z" fill="white"/>
<path d="M423.956 189.225C423.956 190.351 423.699 191.453 423.218 192.39C422.736 193.327 422.052 194.057 421.251 194.489C420.449 194.92 419.568 195.033 418.717 194.814C417.866 194.594 417.085 194.052 416.471 193.255C415.858 192.459 415.44 191.444 415.271 190.339C415.102 189.234 415.188 188.089 415.52 187.048C415.852 186.007 416.414 185.117 417.135 184.491C417.856 183.865 418.704 183.531 419.571 183.531C420.734 183.531 421.849 184.131 422.671 185.199C423.493 186.266 423.955 187.714 423.956 189.225V189.225Z" fill="#56D393"/>
<path d="M304.942 146.826C304.942 147.827 304.685 148.806 304.203 149.639C303.722 150.472 303.037 151.12 302.236 151.504C301.434 151.887 300.553 151.987 299.702 151.792C298.852 151.596 298.07 151.114 297.457 150.406C296.844 149.698 296.426 148.796 296.257 147.814C296.088 146.832 296.175 145.814 296.507 144.889C296.838 143.963 297.4 143.173 298.122 142.616C298.843 142.06 299.69 141.763 300.558 141.763C301.133 141.763 301.704 141.894 302.236 142.148C302.768 142.402 303.251 142.775 303.659 143.245C304.066 143.716 304.389 144.274 304.609 144.888C304.829 145.503 304.943 146.161 304.942 146.826V146.826Z" fill="#C3D2FD"/>
<path d="M189.944 153.618C189.213 151.181 188.072 148.937 186.586 147.014C185.101 145.091 183.3 143.527 181.289 142.413C179.278 141.299 177.096 140.656 174.869 140.523C172.643 140.39 170.415 140.768 168.315 141.636C166.215 142.503 164.285 143.844 162.635 145.579C160.986 147.315 159.65 149.411 158.705 151.746C157.76 154.082 157.225 156.611 157.13 159.188C157.035 161.764 157.382 164.337 158.151 166.757C158.279 167.171 158.417 167.578 158.567 167.973C160.31 172.625 163.549 176.311 167.6 178.25C171.651 180.189 176.195 180.23 180.271 178.364C184.347 176.498 187.636 172.871 189.441 168.251C191.247 163.631 191.427 158.38 189.944 153.608V153.618ZM178.311 173.973C175.288 175.228 171.967 175.105 169.019 173.631C166.072 172.156 163.721 169.44 162.442 166.034C162.33 165.736 162.226 165.431 162.13 165.109C161.288 162.384 161.163 159.43 161.772 156.623C162.38 153.815 163.695 151.279 165.55 149.336C167.404 147.392 169.716 146.128 172.192 145.703C174.667 145.279 177.196 145.712 179.459 146.95C181.722 148.187 183.616 150.172 184.904 152.655C186.191 155.137 186.813 158.005 186.691 160.896C186.569 163.787 185.708 166.571 184.218 168.897C182.728 171.223 180.675 172.985 178.319 173.962L178.311 173.973Z" fill="#92E3A9"/>
<path d="M161.844 156L158 154.559C159.001 150.723 160.971 147.356 163.638 144.926C166.304 142.496 169.534 141.124 172.88 141L173 145.834C170.492 145.927 168.07 146.956 166.071 148.778C164.072 150.6 162.594 153.124 161.844 156Z" fill="#CFFFDD"/>
<path d="M163 165.139L158.598 167C158.428 166.622 158.271 166.234 158.126 165.839C156.716 162.025 156.628 157.867 157.876 154L162.457 155.391C161.522 158.29 161.588 161.408 162.646 164.267C162.755 164.562 162.873 164.854 163 165.139Z" fill="#FE5454"/>
<path d="M161.176 172.14C160.023 170.782 159.076 169.26 158.368 167.624L162.528 165.811C163.058 167.039 163.767 168.181 164.632 169.2L161.176 172.14Z" fill="#14A06F"/>
</svg>
