<svg width="183" height="162" viewBox="0 0 183 162" fill="none" xmlns="http://www.w3.org/2000/svg">
<rect x="11" y="4" width="168" height="154" rx="16" fill="#C83333" stroke="#C83333" stroke-width="8"/>
<rect x="1" y="1" width="174" height="156" rx="19" fill="white" stroke="#C83333" stroke-width="2"/>
<path d="M80.7068 97.5224H79.6285V91.7417C79.6285 90.8137 78.6992 90.0614 77.5529 90.0614H75.9772L81.8892 77.166C82.5901 75.6369 82.4163 73.9495 81.4117 72.5357L75.007 63.5229C73.8991 61.9639 71.8307 60.9951 69.6093 60.9951H60.9464C58.7242 60.9951 56.6558 61.9639 55.5478 63.5229L49.1432 72.5357C48.1394 73.9495 47.9648 75.6369 48.6657 77.166L54.5777 90.0608H53.0028C51.8564 90.0608 50.9264 90.813 50.9264 91.7417V97.5224H49.8481C48.4959 97.5224 47.4713 98.6268 47.8582 99.6812L53.6757 115.548C53.9369 116.261 54.7468 116.751 55.6656 116.751H74.8893C75.8081 116.751 76.618 116.261 76.8792 115.548L82.6967 99.6812C83.082 98.632 82.0654 97.5224 80.7068 97.5224V97.5224ZM65.2778 74.8191C66.5588 74.8191 67.601 75.6628 67.601 76.6997C67.601 77.7373 66.5588 78.581 65.2778 78.581C63.9961 78.581 62.9539 77.7373 62.9539 76.6997C62.9539 75.6628 63.9961 74.8191 65.2778 74.8191ZM52.5582 75.9961C52.2882 75.4073 52.3555 74.7562 52.7424 74.2115L59.1471 65.1993C59.9426 64.0793 61.8612 64.3569 63.2014 64.3569V71.7355C60.6468 72.4378 58.8019 74.3969 58.8019 76.6997C58.8019 79.5907 61.7066 81.9422 65.2778 81.9422C68.8483 81.9422 71.753 79.5907 71.753 76.6997C71.753 74.3969 69.9089 72.4378 67.3535 71.7355V64.3569C68.7514 64.3569 70.5274 64.0903 71.4086 65.1993L77.8124 74.2115C78.1994 74.7562 78.2667 75.4066 77.9967 75.9961L71.5479 90.0608H59.0069L52.5582 75.9961ZM55.0784 93.4219H75.4765V97.5224H55.0784V93.4219ZM77.9182 100.904L73.34 113.39H67.3535V111.478C67.3535 109.32 63.2014 109.317 63.2014 111.478V113.39H57.2149L52.6367 100.904H77.9182Z" fill="#14A06F"/>
<path d="M89.0813 43.1491C86.2367 43.1491 83.8166 44.6419 82.949 46.7106H72.9923V43.8267C72.9923 42.8987 72.0631 42.1465 70.9167 42.1465H59.6406C58.4943 42.1465 57.5642 42.8987 57.5642 43.8267V46.7106H47.6083C46.7407 44.6419 44.3206 43.1491 41.476 43.1491C37.9047 43.1491 35 45.5005 35 48.3909C35 51.2819 37.9047 53.6333 41.4752 53.6333C44.3206 53.6333 46.7407 52.1398 47.6083 50.0718H57.5642V52.955C57.5642 53.883 58.4943 54.6359 59.6406 54.6359H70.9159C72.0623 54.6359 72.9923 53.883 72.9923 52.955V50.0718H82.9482C83.8158 52.1398 86.2359 53.6333 89.0813 53.6333C92.6518 53.6333 95.5565 51.2819 95.5565 48.3909C95.5565 45.5005 92.6518 43.1491 89.0813 43.1491V43.1491ZM41.4752 50.2722C40.1942 50.2722 39.152 49.4285 39.152 48.3909C39.152 47.3539 40.1942 46.5102 41.4752 46.5102C42.7569 46.5102 43.7991 47.3539 43.7991 48.3909C43.7991 49.4285 42.7569 50.2722 41.4752 50.2722ZM68.8403 51.2747H61.7162V45.5077H68.8403V51.2747ZM89.0813 50.2722C87.7996 50.2722 86.7574 49.4285 86.7574 48.3909C86.7574 47.3539 87.7996 46.5102 89.0813 46.5102C90.3623 46.5102 91.4045 47.3539 91.4045 48.3909C91.4045 49.4285 90.3623 50.2722 89.0813 50.2722Z" fill="#14A06F"/>
<path d="M105.813 74.4112C108.583 74.4112 110.95 72.9962 111.874 71.0124H127.462C128.386 72.9962 130.754 74.4112 133.523 74.4112C137.093 74.4112 139.998 72.0591 139.998 69.1688C139.998 65.934 136.247 63.4205 132.323 64.0184L124.416 52.2248C125.487 51.2897 126.143 50.0387 126.143 48.6652C126.143 45.7748 123.239 43.4234 119.668 43.4234C116.097 43.4234 113.192 45.7748 113.192 48.6652C113.192 50.0381 113.848 51.289 114.919 52.2248L107.013 64.0184C103.089 63.4205 99.3374 65.934 99.3374 69.1688C99.3374 72.0591 102.242 74.4112 105.813 74.4112V74.4112ZM119.668 53.9076C120.043 53.9076 120.411 53.8798 120.768 53.8305L128.706 65.6701C128.08 66.2337 127.603 66.9081 127.325 67.6513H112.011C111.733 66.9081 111.255 66.2337 110.63 65.6701L118.567 53.8298C118.925 53.8798 119.292 53.9076 119.668 53.9076ZM135.846 69.1688C135.846 70.2064 134.804 71.05 133.523 71.05C132.242 71.05 131.199 70.2064 131.199 69.1688C131.199 68.1318 132.241 67.2881 133.523 67.2881C134.804 67.2881 135.846 68.1318 135.846 69.1688ZM119.668 46.7845C120.949 46.7845 121.991 47.6282 121.991 48.6652C121.991 49.7028 120.949 50.5465 119.668 50.5465C118.386 50.5465 117.344 49.7028 117.344 48.6652C117.344 47.6282 118.386 46.7845 119.668 46.7845ZM105.813 67.2881C107.094 67.2881 108.137 68.1318 108.137 69.1688C108.137 70.2064 107.094 71.05 105.813 71.05C104.532 71.05 103.489 70.2064 103.489 69.1688C103.489 68.1318 104.532 67.2881 105.813 67.2881Z" fill="#14A06F"/>
<path d="M135.6 106.514V93.1132C138.155 92.4116 140 90.4518 140 88.149C140 85.2586 137.095 82.9072 133.525 82.9072C130.871 82.9072 128.587 84.2061 127.587 86.0595H110.617C109.618 84.2061 107.334 82.9072 104.68 82.9072C101.109 82.9072 98.2047 85.2586 98.2047 88.149C98.2047 90.4888 100.108 92.4745 102.726 93.147V93.1735C102.726 94.1015 103.655 94.8538 104.802 94.8538C105.999 94.8538 106.891 94.0192 106.878 93.0802C108.888 92.4913 110.437 91.1185 110.962 89.4207H127.242C127.777 91.1528 129.379 92.5452 131.448 93.1132V106.514C129.545 107.037 128.038 108.257 127.391 109.797H110.812C110.18 108.29 108.724 107.088 106.877 106.547C106.879 105.625 105.967 104.824 104.802 104.824C103.666 104.824 102.744 105.563 102.727 106.48C100.108 107.152 98.2039 109.138 98.2039 111.478C98.2039 114.368 101.109 116.72 104.68 116.72C107.524 116.72 109.945 115.227 110.812 113.158H127.391C128.259 115.227 130.679 116.72 133.524 116.72C137.094 116.72 139.999 114.368 139.999 111.478C140 109.175 138.155 107.215 135.6 106.514V106.514ZM104.68 90.0303C103.399 90.0303 102.357 89.1866 102.357 88.149C102.357 87.112 103.399 86.2683 104.68 86.2683C105.962 86.2683 107.004 87.112 107.004 88.149C107.004 89.1866 105.962 90.0303 104.68 90.0303V90.0303ZM133.525 86.2683C134.805 86.2683 135.848 87.112 135.848 88.149C135.848 89.1866 134.805 90.0303 133.525 90.0303C132.243 90.0303 131.201 89.1866 131.201 88.149C131.201 87.112 132.243 86.2683 133.525 86.2683ZM104.68 113.359C103.399 113.359 102.357 112.515 102.357 111.478C102.357 110.44 103.399 109.597 104.68 109.597C105.962 109.597 107.004 110.44 107.004 111.478C107.004 112.515 105.962 113.359 104.68 113.359ZM133.525 113.359C132.243 113.359 131.201 112.515 131.201 111.478C131.201 110.44 132.243 109.597 133.525 109.597C134.805 109.597 135.848 110.44 135.848 111.478C135.848 112.515 134.805 113.359 133.525 113.359Z" fill="#14A06F"/>
<path d="M104.006 101.366C105.049 101.718 106.283 101.299 106.714 100.456C107.146 99.6119 106.639 98.6139 105.594 98.2624C104.551 97.9122 103.314 98.3272 102.882 99.1716C102.45 100.019 102.962 101.015 104.006 101.366Z" fill="#14A06F"/>
<path d="M66.4314 103.465C65.4572 102.94 64.1002 103.19 63.4994 104C62.9154 104.788 63.2438 105.832 64.2139 106.302C65.1921 106.776 66.5051 106.505 67.0754 105.703C67.6178 104.94 67.3214 103.959 66.4314 103.465Z" fill="#14A06F"/>
</svg>
