<svg width="183" height="162" viewBox="0 0 183 162" fill="none" xmlns="http://www.w3.org/2000/svg">
<rect x="11" y="4" width="168" height="154" rx="16" fill="#C83333" stroke="#C83333" stroke-width="8"/>
<rect x="1" y="1" width="174" height="156" rx="19" fill="white" stroke="#C83333" stroke-width="2"/>
<path d="M126.938 91.2344H111.781C109.274 91.2344 107.234 93.1062 107.234 95.4062V120.438C107.234 122.738 109.274 124.609 111.781 124.609H126.938C129.444 124.609 131.484 122.738 131.484 120.438V95.4062C131.484 93.1062 129.444 91.2344 126.938 91.2344ZM111.781 94.0156H126.938C127.773 94.0156 128.453 94.6386 128.453 95.4062V96.7969H110.266V95.4062C110.266 94.6386 110.946 94.0156 111.781 94.0156ZM128.453 99.5781V116.266H110.266V99.5781H128.453ZM126.938 121.828H111.781C110.946 121.828 110.266 121.205 110.266 120.438V119.047H128.453V120.438C128.453 121.205 127.773 121.828 126.938 121.828Z" fill="#14AF78"/>
<path d="M116.328 114.06L126.494 104.733L124.351 102.767L116.328 110.127L114.369 108.329L112.226 110.296L116.328 114.06Z" fill="#14AF78"/>
<path d="M52.6719 96.7969C44.3147 96.7969 37.5156 103.035 37.5156 110.703C37.5156 118.371 44.3147 124.609 52.6719 124.609C61.029 124.609 67.8281 118.371 67.8281 110.703C67.8281 103.035 61.029 96.7969 52.6719 96.7969ZM64.6923 112.094C64.4149 114.121 63.5419 115.976 62.2385 117.514L60.1742 115.619L58.0311 117.585L60.0954 119.479C58.4191 120.675 56.3973 121.476 54.1875 121.731V119.047H51.1562V121.732C48.9465 121.478 46.9246 120.677 45.2483 119.481L47.3126 117.587L45.1695 115.619L43.1053 117.514C41.8018 115.976 40.9288 114.121 40.6515 112.094H43.5781V109.312H40.6515C40.9288 107.285 41.8018 105.43 43.1053 103.892L45.1695 105.787L47.3126 103.821L45.2483 101.927C46.9246 100.731 48.9465 99.93 51.1562 99.6755V102.359H54.1875V99.6741C56.3973 99.9286 58.4191 100.73 60.0954 101.925L58.0311 103.82L60.1742 105.786L62.2385 103.89C63.5419 105.428 64.4149 107.284 64.6923 109.311H61.7656V112.092H64.6923V112.094Z" fill="#14AF78"/>
<path d="M54.1875 105.141H51.1562V111.279L54.6316 114.468L56.7747 112.501L54.1875 110.127V105.141Z" fill="#14AF78"/>
<path d="M126.938 38.3906H93.5938C91.0869 38.3906 89.0469 40.2624 89.0469 42.5625V59.25C89.0469 61.5501 91.0869 63.4219 93.5938 63.4219H126.938C129.444 63.4219 131.484 61.5501 131.484 59.25V42.5625C131.484 40.2624 129.444 38.3906 126.938 38.3906ZM93.5938 41.1719H126.938C127.773 41.1719 128.453 41.7949 128.453 42.5625V43.9531H92.0781V42.5625C92.0781 41.7949 92.7586 41.1719 93.5938 41.1719ZM126.938 60.6406H93.5938C92.7586 60.6406 92.0781 60.0176 92.0781 59.25V46.7344H128.453V59.25C128.453 60.0176 127.773 60.6406 126.938 60.6406Z" fill="#14AF78"/>
<path d="M116.328 57.8594H125.422V49.5156H116.328V57.8594ZM119.359 52.2969H122.391V55.0781H119.359V52.2969Z" fill="#14AF78"/>
<path d="M101.172 55.0781H104.203V57.8594H101.172V55.0781Z" fill="#14AF78"/>
<path d="M107.234 55.0781H110.266V57.8594H107.234V55.0781Z" fill="#14AF78"/>
<path d="M95.1094 55.0781H98.1406V57.8594H95.1094V55.0781Z" fill="#14AF78"/>
<path d="M95.1094 49.5156H110.266V52.2969H95.1094V49.5156Z" fill="#14AF78"/>
<path d="M90.5625 95.7344C96.3128 93.6652 100.516 88.7563 101.095 82.8906H111.781V66.2031H108.75V80.1094H101.095C100.326 72.3247 93.1815 66.2031 84.5 66.2031C81.4975 66.2031 78.6861 66.9457 76.2505 68.2237C75.7109 67.4088 74.8834 66.783 73.8906 66.459V55.0781H76.9219V51.6377L60.8669 39.5838C58.8147 38.0444 55.6258 38.0444 53.5706 39.5838L37.5156 51.6377V55.0781H40.5469V66.459C38.7872 67.0347 37.5156 68.5644 37.5156 70.375V74.5469H69.6681C68.7193 76.2448 68.1009 78.1208 67.9039 80.1094H57.2188V77.3281H54.1875V82.8906H67.9054C68.4844 88.7563 72.6872 93.6652 78.4375 95.7344V109.313H70.8594V112.094H81.4688V96.5313C82.4539 96.6982 83.4633 96.7969 84.5 96.7969C85.5367 96.7969 86.5461 96.6982 87.5312 96.5313V109.313H104.203V106.531H90.5625V95.7344ZM70.8594 66.2031H67.8281V55.0781H70.8594V66.2031ZM52.6719 55.0781V66.2031H49.6406V55.0781H52.6719ZM55.7031 55.0781H58.7344V66.2031H55.7031V55.0781ZM61.7656 55.0781H64.7969V66.2031H61.7656V55.0781ZM55.4894 41.7379C56.464 41.0078 57.975 41.0078 58.9481 41.7379L73.0131 52.2969H41.4244L55.4894 41.7379ZM46.6094 55.0781V66.2031H43.5781V55.0781H46.6094ZM40.5469 71.7656V70.375C40.5469 69.6074 41.2274 68.9844 42.0625 68.9844H72.375C72.9949 68.9844 73.5254 69.3293 73.7603 69.8188C72.9964 70.4112 72.2871 71.0592 71.6505 71.7656H40.5469ZM70.8594 81.5C70.8594 74.5983 76.9795 68.9844 84.5 68.9844C92.0205 68.9844 98.1406 74.5983 98.1406 81.5C98.1406 88.4017 92.0205 94.0156 84.5 94.0156C76.9795 94.0156 70.8594 88.4017 70.8594 81.5V81.5Z" fill="#14AF78"/>
<path d="M79.4937 75.6639V77.657H83.1886C84.3928 77.657 85.4195 78.4901 85.8008 79.65H79.4937V81.6431H85.8008C85.4195 82.8029 84.3928 83.6361 83.1886 83.6361H79.1111L86.2303 91.3163L87.5366 89.907L83.5567 85.6134C85.6218 85.4369 87.3082 83.7883 87.7136 81.6431H89.6546V79.65H87.7142C87.5752 78.9141 87.2852 78.2366 86.8809 77.657H89.6546V75.6639H79.4937Z" fill="#14A06F"/>
</svg>
