<svg width="183" height="162" viewBox="0 0 183 162" fill="none" xmlns="http://www.w3.org/2000/svg">
<rect x="11" y="4" width="168" height="154" rx="16" fill="#C83333" stroke="#C83333" stroke-width="8"/>
<rect x="1" y="1" width="174" height="156" rx="19" fill="white" stroke="#C83333" stroke-width="2"/>
<g clip-path="url(#clip0_105_147)">
<path d="M107.175 64.3329C106.203 64.3329 105.414 65.005 105.414 65.8362C105.414 66.6669 106.203 67.3401 107.175 67.3401C108.15 67.3401 108.937 66.6669 108.937 65.8362C108.937 65.005 108.15 64.3329 107.175 64.3329Z" fill="#14A06F"/>
<path d="M75.1736 91.6576C74.1994 91.6576 73.4124 92.3314 73.4124 93.1615C73.4124 93.9933 74.1994 94.6654 75.1736 94.6654C76.1457 94.6654 76.9349 93.9933 76.9349 93.1615C76.9349 92.3314 76.1457 91.6576 75.1736 91.6576Z" fill="#14A06F"/>
<path d="M134.074 50.252C133.479 50.1339 132.855 50.2872 132.425 50.6573L125.124 56.9414H121.623L117.77 53.5324V50.5016L124.967 44.2645C125.393 43.8956 125.566 43.3651 125.425 42.8605C125.285 42.3564 124.85 41.9499 124.275 41.7843C122.467 41.2638 120.575 41 118.65 41C112.914 41 107.702 43.284 104.352 47.2665C101.216 50.9945 100.249 55.5632 101.634 59.9357L88.6609 71.0135L67.0471 52.5155V48.8849C67.0471 48.3568 66.7224 47.8669 66.1919 47.5954L53.7386 41.2144C53.0451 40.859 52.1583 40.9524 51.5873 41.4406L46.6062 45.6932C46.0352 46.1814 45.9258 46.9387 46.3414 47.5308L53.8129 58.1645C54.1308 58.6174 54.7039 58.8941 55.3224 58.8947L59.5728 58.8959L81.1887 77.394L68.2648 88.4295C63.1441 87.2475 57.7909 88.074 53.4228 90.7535C48.7617 93.6127 46.0889 98.0615 46.0889 102.96C46.0889 104.602 46.3978 106.218 47.0073 107.762C47.202 108.256 47.6829 108.629 48.2774 108.746C48.8725 108.864 49.4965 108.711 49.9265 108.341L57.2274 102.057H60.7472L64.7575 105.482V108.487L57.3987 114.721C56.9653 115.089 56.7857 115.621 56.924 116.13C57.0616 116.637 57.4985 117.048 58.0771 117.214C59.8844 117.734 61.7771 117.998 63.7007 117.998C69.4372 117.998 74.6466 115.715 77.9957 111.735C81.1337 108.006 82.1017 103.435 80.7174 99.0626L91.0971 90.1995L93.4748 92.4048L92.3837 93.336C91.6957 93.9234 91.6957 94.8757 92.3837 95.4632C93.0716 96.05 94.1862 96.05 94.8749 95.4632L95.8628 94.6196L118.172 115.311C118.188 115.326 118.205 115.341 118.222 115.356C122.35 118.881 129.038 118.882 133.168 115.355C137.287 111.837 137.287 106.112 133.168 102.594C133.15 102.579 133.132 102.564 133.113 102.549L108.843 83.5365L109.82 82.7023C110.508 82.1154 110.508 81.1631 109.82 80.5757C109.132 79.9882 108.018 79.9882 107.329 80.5757L106.245 81.5015L103.658 79.4736L114.088 70.5676C115.57 70.906 117.1 71.0775 118.65 71.0775C128.362 71.0775 136.262 64.3311 136.262 56.0391C136.262 54.3959 135.953 52.7804 135.344 51.2365C135.149 50.7425 134.668 50.3694 134.074 50.252ZM61.55 56.3299C61.2198 56.0473 60.7719 55.9034 60.3041 55.9034L56.3206 55.9022L50.0696 46.9904L53.1057 44.3979L63.5246 49.7368V53.1382C63.5246 53.5365 63.7096 53.9183 64.0392 54.2003L86.1704 73.1407L83.6792 75.2673L61.55 56.3299ZM106.35 85.6654L130.703 104.742C133.423 107.09 133.415 110.891 130.677 113.229C127.933 115.572 123.492 115.579 120.737 113.25L98.3554 92.4906L106.35 85.6654ZM103.752 83.6299L95.9674 90.2759L93.5897 88.0705L101.164 81.602L103.752 83.6299ZM118.65 68.0697C117.11 68.0697 115.595 67.8588 114.149 67.4429C113.515 67.2614 112.815 67.4012 112.342 67.8048C103.512 75.3443 84.4862 91.5894 77.4804 97.5722C77.0071 97.9763 76.8427 98.5744 77.0566 99.116C78.5207 102.828 77.8203 106.788 75.1344 109.981C72.4561 113.164 68.2882 114.99 63.7007 114.99C63.1854 114.99 62.6728 114.966 62.1651 114.92L67.7592 110.18C68.0921 109.898 68.28 109.514 68.28 109.113V104.858C68.28 104.46 68.0942 104.077 67.764 103.795L62.7217 99.4896C62.3915 99.2077 61.9436 99.049 61.4764 99.049H56.494C56.0241 99.049 55.5742 99.2094 55.2433 99.4938L49.6932 104.27C49.6382 103.837 49.6107 103.399 49.6107 102.959C49.6107 99.0414 51.749 95.4831 55.4779 93.1961C59.2164 90.9027 63.8541 90.3041 68.2022 91.5548C68.8359 91.7375 69.5362 91.5971 70.0096 91.1929C70.1066 91.1106 104.846 61.4467 104.871 61.4255C105.344 61.0213 105.508 60.4239 105.294 59.8822C103.83 56.1701 104.529 52.2117 107.213 49.0212C109.893 45.8348 114.062 44.0078 118.65 44.0078C119.181 44.0078 119.709 44.0331 120.231 44.0824L114.754 48.8297C114.429 49.1111 114.247 49.49 114.247 49.8848V54.1392C114.247 54.5293 114.424 54.9035 114.741 55.1837L119.607 59.4892C119.939 59.783 120.397 59.9486 120.875 59.9486H125.857C126.326 59.9486 126.776 59.7888 127.107 59.5039L132.657 54.7278C132.712 55.1614 132.74 55.5991 132.74 56.0391C132.74 62.6727 126.419 68.0697 118.65 68.0697Z" fill="#14A06F"/>
<path d="M100.949 69.0261L78.9088 87.8455C78.2215 88.4324 78.2215 89.3847 78.9088 89.9721C79.5968 90.5596 80.712 90.5596 81.4 89.9721L103.44 71.1527C104.128 70.5659 104.128 69.6136 103.44 69.0261C102.752 68.4387 101.637 68.4387 100.949 69.0261V69.0261Z" fill="#14A06F"/>
<path d="M123.206 108.977C123.894 109.562 125.009 109.562 125.697 108.973C126.384 108.385 126.382 107.433 125.693 106.846L109.818 93.3342C109.129 92.7479 108.013 92.7497 107.327 93.3377C106.64 93.9264 106.642 94.8781 107.331 95.4643L123.206 108.977Z" fill="#14A06F"/>
</g>
<defs>
<clipPath id="clip0_105_147">
<rect width="90" height="77" fill="white" transform="translate(46 41)"/>
</clipPath>
</defs>
</svg>
