<svg width="183" height="162" viewBox="0 0 183 162" fill="none" xmlns="http://www.w3.org/2000/svg">
<rect x="11" y="4" width="168" height="154" rx="16" fill="#C83333" stroke="#C83333" stroke-width="8"/>
<rect x="1" y="1" width="174" height="156" rx="19" fill="white" stroke="#C83333" stroke-width="2"/>
<path d="M127.682 81.2052C127.682 99.9551 111.829 115.624 91.6829 115.624C71.537 115.624 55.6836 99.9551 55.6836 81.2052C55.6836 62.4553 71.537 46.7862 91.6829 46.7862C111.829 46.7862 127.682 62.4553 127.682 81.2052Z" fill="white" stroke="#14A06F" stroke-width="15"/>
<path d="M154.156 84.594V23.3761C154.156 22.7855 153.819 22.2605 153.317 22.0718C152.815 21.8835 152.262 22.0739 151.942 22.5445C145.1 32.6173 141.396 44.9116 141.396 57.5526V79.9479C141.396 82.5164 143.262 84.5988 145.563 84.5988H147.3C145.588 104.339 144.456 131.949 144.456 135.181C144.456 140.274 147.264 144.403 150.728 144.403C154.192 144.403 157 140.274 157 135.181C157 131.948 155.869 104.335 154.156 84.594Z" fill="#14A06F"/>
<path d="M36.2091 73.0557C39.6802 70.7085 42.0002 66.4528 42.0002 61.5915L40.2809 30.2109C40.2152 29.0147 39.327 28.0821 38.2534 28.0821C37.0922 28.0821 36.1671 29.168 36.2248 30.4619L37.3429 55.6295C37.3429 57.0443 36.3153 58.1909 35.0484 58.1909C33.7813 58.1909 32.754 57.0437 32.754 55.6295L32.1953 30.4723C32.1658 29.1428 31.1919 28.0824 30.0004 28.0824C28.8088 28.0824 27.8353 29.1431 27.8055 30.4723L27.2468 55.6295C27.2468 57.0443 26.2192 58.1909 24.9523 58.1909C23.6852 58.1909 22.6579 57.0437 22.6579 55.6295L23.776 30.4619C23.8334 29.1674 22.9078 28.0821 21.7474 28.0821C20.6737 28.0821 19.7856 29.0147 19.7201 30.2109L18 61.5918C18 66.4531 20.3198 70.7085 23.7911 73.056C26.0502 74.5834 27.3096 77.4392 27.0185 80.3698C25.0588 100.085 23.7281 132.272 23.7281 135.778C23.7281 140.871 26.5362 145 30.0001 145C33.464 145 36.2722 140.871 36.2722 135.778C36.2722 132.272 34.9412 100.085 32.9818 80.3698C32.6903 77.4407 33.9511 74.5825 36.2091 73.0557Z" fill="#14A06F"/>
<g clip-path="url(#clip0_169_492)">
<path d="M100.837 92.2445L100.59 94.5585L103.031 94.7808C99.7862 96.9992 95.8732 98.1981 91.7603 98.1981C86.6898 98.1981 81.9228 96.3761 78.3374 93.0676C74.752 89.7591 72.7774 85.3603 72.7774 80.6814C72.7774 76.0025 74.752 71.6038 78.3374 68.2953C81.9228 64.9868 86.6898 63.1647 91.7603 63.1647C92.809 63.1647 93.8609 63.2442 94.8867 63.401L95.2985 61.107C94.137 60.9295 92.9466 60.8395 91.7603 60.8395C86.0167 60.8395 80.6169 62.9035 76.5555 66.651C72.4942 70.3987 70.2576 75.3815 70.2576 80.6814C70.2576 85.9814 72.4942 90.9641 76.5555 94.7118C80.6169 98.4594 86.0167 100.523 91.7603 100.523C96.4126 100.523 100.839 99.1689 104.512 96.6627L104.291 98.7219L106.799 98.9503L107.452 92.8469L100.837 92.2445Z" fill="#14A06F"/>
<path d="M98.7444 61.91L97.9263 64.1092C98.9121 64.4215 99.8775 64.8128 100.795 65.2722L101.997 63.2282C100.956 62.7075 99.862 62.264 98.7444 61.91Z" fill="#14A06F"/>
<path d="M112.608 75.8062L110.165 76.3758C110.42 77.307 110.593 78.2669 110.678 79.2288L113.19 79.0387C113.093 77.9492 112.897 76.8616 112.608 75.8062Z" fill="#14A06F"/>
<path d="M104.968 65.0227L103.419 66.8567C104.242 67.4488 105.018 68.1083 105.726 68.8172L107.579 67.2419C106.778 66.4396 105.899 65.6929 104.968 65.0227Z" fill="#14A06F"/>
<path d="M109.762 69.8255L107.654 71.0993C108.226 71.9058 108.729 72.7611 109.148 73.6414L111.455 72.7059C110.98 71.7083 110.41 70.7392 109.762 69.8255Z" fill="#14A06F"/>
<path d="M109.152 87.7137C108.733 88.5945 108.23 89.4502 107.658 90.2571L109.767 91.53C110.415 90.6159 110.984 89.6463 111.459 88.6481L109.152 87.7137Z" fill="#14A06F"/>
<path d="M110.68 82.1241C110.595 83.0863 110.422 84.0466 110.168 84.9782L112.611 85.5466C112.9 84.4908 113.095 83.4028 113.191 82.313L110.68 82.1241Z" fill="#14A06F"/>
<path d="M79.4714 83.4086C79.6189 83.0674 79.8316 82.7498 80.1031 82.4714L81.7824 80.7496C82.6686 79.8411 83.1566 78.6676 83.1566 77.4453C83.1566 75.8052 81.7106 74.4709 79.9333 74.4709C78.1559 74.4709 76.71 75.8052 76.71 77.4453V78.3309H79.2298V77.4453C79.2298 77.0873 79.5454 76.7961 79.9333 76.7961C80.3212 76.7961 80.6367 77.0873 80.6367 77.4453C80.6367 78.0922 80.3785 78.7133 79.9094 79.1941L78.2302 80.9159C77.25 81.9209 76.71 83.2191 76.71 84.5712V85.7338H83.2772V83.4086H79.4714Z" fill="#14A06F"/>
<path d="M90.5445 80.671V74.4709H87.5212L83.7053 80.3864V82.9962H88.0247V85.6371H90.5445V82.9962H91.597V80.671H90.5445ZM88.0246 80.671H86.4542L88.0246 78.2365V80.671Z" fill="#14A06F"/>
<path d="M100.894 74.4709V76.7961H104.372L102.603 85.4209L105.079 85.8534L107.413 74.4709H100.894Z" fill="#14A06F"/>
<path d="M95.6691 74.428L93.6985 85.4488L96.1849 85.8273L98.1555 74.8066L95.6691 74.428Z" fill="#14A06F"/>
</g>
<defs>
<clipPath id="clip0_169_492">
<rect width="43.0055" height="39.6838" fill="white" transform="translate(70.2212 60.8395)"/>
</clipPath>
</defs>
</svg>
