<svg width="183" height="162" viewBox="0 0 183 162" fill="none" xmlns="http://www.w3.org/2000/svg">
<rect x="11" y="4" width="168" height="154" rx="16" fill="#C83333" stroke="#C83333" stroke-width="8"/>
<rect x="1" y="1" width="174" height="156" rx="19" fill="white" stroke="#C83333" stroke-width="2"/>
<path d="M88.1963 34.3361H49.2084C48.1574 34.3361 47.3057 33.4195 47.3057 32.2886C47.3057 31.1576 48.1577 30.2411 49.2084 30.2411H88.1963C89.2473 30.2411 90.0993 31.1576 90.0993 32.2886C90.0993 33.4195 89.2475 34.3361 88.1963 34.3361Z" fill="#78C2A4"/>
<path d="M50.9297 49.3448H30.8612C29.8102 49.3448 28.9585 48.4283 28.9585 47.2974C28.9585 46.1664 29.8105 45.2499 30.8612 45.2499H50.9297C51.9807 45.2499 52.8324 46.1664 52.8324 47.2974C52.8324 48.4283 51.9807 49.3448 50.9297 49.3448Z" fill="#78C2A4"/>
<path d="M50.2428 63.2976H42.3153C41.2643 63.2976 40.4126 62.3811 40.4126 61.2501C40.4126 60.1192 41.2646 59.2026 42.3153 59.2026H50.2431C51.2941 59.2026 52.1458 60.1192 52.1458 61.2501C52.1458 62.3811 51.2938 63.2976 50.2428 63.2976Z" fill="#78C2A4"/>
<path d="M42.3152 73.4021H22.9027C21.8517 73.4021 21 72.4855 21 71.3546C21 70.2236 21.852 69.3071 22.9027 69.3071H42.3149C43.3659 69.3071 44.2177 70.2236 44.2177 71.3546C44.2177 72.4855 43.3659 73.4021 42.3152 73.4021Z" fill="#78C2A4"/>
<path d="M90.7335 126.759H49.2084C48.1574 126.759 47.3057 125.842 47.3057 124.711C47.3057 123.58 48.1577 122.664 49.2084 122.664H90.7335C91.7845 122.664 92.6363 123.58 92.6363 124.711C92.6363 125.842 91.7845 126.759 90.7335 126.759Z" fill="#78C2A4"/>
<path d="M50.9297 111.75H30.8612C29.8102 111.75 28.9585 110.834 28.9585 109.703C28.9585 108.572 29.8105 107.655 30.8612 107.655H50.9297C51.9807 107.655 52.8324 108.572 52.8324 109.703C52.8324 110.834 51.9807 111.75 50.9297 111.75Z" fill="#78C2A4"/>
<path d="M50.2428 97.7976H42.3153C41.2643 97.7976 40.4126 96.8811 40.4126 95.7499C40.4126 94.6186 41.2646 93.7024 42.3153 93.7024H50.2431C51.2941 93.7024 52.1458 94.6189 52.1458 95.7499C52.1458 96.8808 51.2938 97.7976 50.2428 97.7976Z" fill="#78C2A4"/>
<path d="M42.3152 87.6933H22.9027C21.8517 87.6933 21 86.7767 21 85.6458C21 84.5148 21.852 83.598 22.9027 83.598H42.3149C43.3659 83.598 44.2177 84.5146 44.2177 85.6458C44.2177 86.777 43.3659 87.6933 42.3152 87.6933Z" fill="#78C2A4"/>
<path d="M102.07 129C127.989 129 149 106.39 149 78.5C149 50.6096 127.989 28 102.07 28C76.151 28 55.1396 50.6096 55.1396 78.5C55.1396 106.39 76.151 129 102.07 129Z" fill="#95D6A4"/>
<path d="M102.069 28C100.881 28 99.7038 28.0484 98.5381 28.1418C122.808 30.0846 141.937 51.8878 141.937 78.5C141.937 105.112 122.808 126.915 98.5381 128.858C99.7038 128.952 100.881 129 102.069 129C127.988 129 148.999 106.391 148.999 78.5C148.999 50.6095 127.988 28 102.069 28V28Z" fill="#78C2A4"/>
<path d="M102.069 117.277C121.971 117.277 138.105 99.916 138.105 78.5C138.105 57.084 121.971 39.7229 102.069 39.7229C82.1673 39.7229 66.0334 57.084 66.0334 78.5C66.0334 99.916 82.1673 117.277 102.069 117.277Z" fill="#F4FBFF"/>
<path d="M102.07 39.7227C100.974 39.7227 99.8899 39.7783 98.8184 39.8816C117.196 41.651 131.602 58.2638 131.602 78.5C131.602 98.7362 117.196 115.349 98.8184 117.118C99.8899 117.221 100.974 117.277 102.07 117.277C121.973 117.277 138.106 99.9158 138.106 78.4997C138.106 57.0839 121.973 39.7227 102.07 39.7227V39.7227Z" fill="#DAF1F4"/>
<path d="M102.069 53.8824C101.018 53.8824 100.166 52.9659 100.166 51.8349V48.7092C100.166 47.5783 101.018 46.6617 102.069 46.6617C103.121 46.6617 103.972 47.5783 103.972 48.7092V51.8347C103.972 52.9656 103.12 53.8824 102.069 53.8824Z" fill="#365E7D"/>
<path d="M119.592 61.6923C119.105 61.6923 118.618 61.4924 118.246 61.0926C117.503 60.2929 117.503 58.9965 118.246 58.1967L120.3 55.9867C121.043 55.1875 122.248 55.1875 122.991 55.9867C123.734 56.7865 123.734 58.0829 122.991 58.8827L120.937 61.0926C120.566 61.4924 120.079 61.6923 119.592 61.6923V61.6923Z" fill="#365E7D"/>
<path d="M129.754 80.5478H126.85C125.799 80.5478 124.947 79.6313 124.947 78.5001C124.947 77.3688 125.798 76.4526 126.85 76.4526H129.754C130.805 76.4526 131.657 77.3691 131.657 78.5001C131.657 79.631 130.805 80.5478 129.754 80.5478Z" fill="#365E7D"/>
<path d="M121.645 101.613C121.159 101.613 120.671 101.413 120.3 101.013L118.246 98.8033C117.503 98.0035 117.503 96.7071 118.246 95.9073C118.989 95.108 120.194 95.108 120.937 95.9073L122.991 98.1173C123.734 98.9171 123.734 100.213 122.991 101.013C122.619 101.413 122.132 101.613 121.645 101.613Z" fill="#365E7D"/>
<path d="M102.069 110.338C101.018 110.338 100.166 109.422 100.166 108.291V105.166C100.166 104.035 101.018 103.118 102.069 103.118C103.121 103.118 103.972 104.035 103.972 105.166V108.291C103.972 109.422 103.12 110.338 102.069 110.338Z" fill="#365E7D"/>
<path d="M82.4928 101.613C82.0058 101.613 81.5188 101.413 81.1473 101.013C80.404 100.213 80.404 98.9171 81.1473 98.1173L83.201 95.9073C83.944 95.108 85.149 95.108 85.892 95.9073C86.6353 96.7071 86.6353 98.0035 85.892 98.8033L83.8383 101.013C83.4668 101.413 82.9798 101.613 82.4928 101.613V101.613Z" fill="#365E7D"/>
<path d="M77.2894 80.5478H74.3849C73.3339 80.5478 72.4822 79.6313 72.4822 78.5001C72.4822 77.3688 73.3342 76.4526 74.3849 76.4526H77.2894C78.3404 76.4526 79.1922 77.3691 79.1922 78.5001C79.1922 79.631 78.3402 80.5478 77.2894 80.5478Z" fill="#365E7D"/>
<path d="M84.5465 61.6923C84.0595 61.6923 83.5725 61.4924 83.201 61.0926L81.1473 58.8827C80.404 58.0829 80.404 56.7865 81.1473 55.9867C81.8903 55.1875 83.0953 55.1875 83.8383 55.9867L85.892 58.1967C86.6353 58.9965 86.6353 60.2929 85.892 61.0926C85.5205 61.4924 85.0335 61.6923 84.5465 61.6923V61.6923Z" fill="#365E7D"/>
<path d="M110.398 80.5478H102.069C101.018 80.5478 100.166 79.6312 100.166 78.5V61.2499C100.166 60.119 101.017 59.2024 102.069 59.2024C103.12 59.2024 103.971 60.119 103.971 61.2499V76.4523H110.398C111.449 76.4523 112.301 77.3688 112.301 78.4998C112.301 79.6307 111.449 80.5478 110.398 80.5478Z" fill="#2B4D66"/>
</svg>
