<svg width="183" height="162" viewBox="0 0 183 162" fill="none" xmlns="http://www.w3.org/2000/svg">
<rect x="11" y="4" width="168" height="154" rx="16" fill="#C83333" stroke="#C83333" stroke-width="8"/>
<rect x="1" y="1" width="174" height="156" rx="19" fill="white" stroke="#C83333" stroke-width="2"/>
<path d="M149.187 56.1332H151.211C153.597 56.0512 153.595 52.64 151.211 52.559H149.187C146.8 52.641 146.802 56.0522 149.187 56.1332Z" fill="#14A06F"/>
<path d="M143.651 50.3781C144.647 50.3781 145.454 49.578 145.454 48.591V46.5835C145.371 44.2171 141.931 44.219 141.849 46.5835V48.591C141.849 49.578 142.656 50.3781 143.651 50.3781Z" fill="#14A06F"/>
<path d="M135.824 55.8655H137.849C140.235 55.7835 140.233 52.3723 137.849 52.2913H135.824C133.438 52.3732 133.44 55.7845 135.824 55.8655Z" fill="#14A06F"/>
<path d="M143.382 63.6283C144.378 63.6283 145.184 62.8282 145.184 61.8412V59.8337C145.102 57.4673 141.662 57.4692 141.58 59.8337V61.8412C141.58 62.8282 142.387 63.6283 143.382 63.6283Z" fill="#14A06F"/>
<path d="M151.209 94.7152H145.556V80.9768C145.556 79.052 142.788 78.5309 142.077 80.322L132.977 103.237C132.668 104.637 133.227 105.451 134.654 105.679H139.763V119.417C139.763 121.308 142.493 121.854 143.229 120.105L152.873 97.1907C153.209 95.7767 152.654 94.9516 151.209 94.7152ZM143.368 110.495V103.891C143.368 102.904 142.561 102.104 141.565 102.104H137.3L141.951 90.392V96.5023C141.951 97.4893 142.758 98.2894 143.753 98.2894H148.504L143.368 110.495Z" fill="#14A06F"/>
<path d="M33.8134 109.867H31.789C29.4027 109.949 29.4046 113.36 31.789 113.441H33.8134C36.1996 113.359 36.1979 109.948 33.8134 109.867Z" fill="#14A06F"/>
<path d="M39.3468 115.622C38.3516 115.622 37.5447 116.422 37.5447 117.409V119.417C37.6273 121.783 41.067 121.781 41.1489 119.417V117.409C41.1489 116.422 40.3421 115.622 39.3468 115.622Z" fill="#14A06F"/>
<path d="M47.1757 110.135H45.1513C42.765 110.217 42.7669 113.628 45.1513 113.709H47.1757C49.5617 113.627 49.56 110.216 47.1757 110.135Z" fill="#14A06F"/>
<path d="M39.618 102.372C38.6228 102.372 37.8159 103.172 37.8159 104.159V106.167C37.8986 108.533 41.3382 108.531 41.4202 106.167V104.159C41.4202 103.172 40.6133 102.372 39.618 102.372Z" fill="#14A06F"/>
<path d="M48.344 60.3216H43.2346V46.5833C43.2346 44.6775 40.5095 44.1361 39.7695 45.8949L30.1257 68.8097C29.789 70.2234 30.3434 71.0486 31.7887 71.2852H37.4421V85.0236C37.4421 86.9313 40.2128 87.4619 40.9212 85.6784L50.021 62.7638C50.3302 61.3634 49.7713 60.5494 48.344 60.3216V60.3216ZM41.0463 75.6081V69.4979C41.0463 68.5109 40.2395 67.7108 39.2442 67.7108H34.4936L39.6303 55.5053V62.1085C39.6303 63.0955 40.4372 63.8956 41.4325 63.8956H45.6975L41.0463 75.6081Z" fill="#14A06F"/>
<path d="M119.973 22H63.0276C58.0967 22 54.0852 25.9781 54.0852 30.8679V38.9194C54.0852 41.4852 57.6895 40.9989 57.6895 38.4939V30.8679C57.6895 27.9489 60.0841 25.5742 63.0276 25.5742H75.6346L78.2095 30.7447C79.5856 33.5081 82.371 35.2246 85.4788 35.2246H97.5221C100.63 35.2246 103.415 33.5081 104.791 30.7447L107.366 25.5742H119.973C122.917 25.5742 125.311 27.9489 125.311 30.8679V135.132C125.311 138.051 122.917 140.426 119.973 140.426H63.0276C60.0841 140.426 57.6895 138.051 57.6895 135.132V48.8734C58.2647 46.5271 54.0852 45.6366 54.0852 48.4466V135.132C54.0852 140.022 58.0967 144 63.0276 144H119.973C124.904 144 128.916 140.022 128.916 135.132V30.8679C128.916 25.9781 124.904 22 119.973 22V22ZM101.56 29.162C100.795 30.6968 99.2481 31.6504 97.5219 31.6504H85.4786C83.7524 31.6504 82.2052 30.697 81.4408 29.1623L79.6543 25.5742H103.346L101.56 29.162Z" fill="#14A06F"/>
<path d="M85.4011 125.525C78.0287 125.827 78.0268 136.247 85.4011 136.55H97.5982C104.734 136.55 104.744 125.525 97.5982 125.525H85.4011ZM99.5527 131.037C99.5527 132.106 98.6761 132.975 97.5982 132.975H85.4011C84.3234 132.975 83.4466 132.106 83.4466 131.037C83.4466 129.969 84.3234 129.099 85.4011 129.099H97.5982C98.6759 129.099 99.5527 129.969 99.5527 131.037V131.037Z" fill="#14A06F"/>
<path d="M79.2789 97.7838C99.1615 110.88 122.43 87.7855 109.229 68.0837C108.388 67.1479 107.469 67.0655 106.472 67.8361L79.0292 95.05C78.2519 96.0386 78.3353 96.9498 79.2789 97.7838V97.7838ZM107.396 71.9741C115.393 87.3916 98.7398 103.895 83.2018 95.9669L107.396 71.9741Z" fill="#14A06F"/>
<path d="M104.491 63.93C104.442 63.402 104.16 62.9225 103.72 62.6211C83.8379 49.5256 60.5692 72.6197 73.7707 92.3213C74.4178 93.2501 75.743 93.3471 76.5275 92.5691L103.97 65.3552C104.348 64.9801 104.539 64.458 104.491 63.93V63.93ZM75.6031 88.4311C67.6062 73.0138 84.2596 56.5101 99.7976 64.4383L75.6031 88.4311Z" fill="#14A06F"/>
<path d="M113.493 95.6021C114.342 96.1175 115.452 95.8531 115.972 95.0114C127.683 76.4095 113.628 51.5739 91.4996 51.7666C75.6884 51.7664 62.8245 64.5228 62.8245 80.2027C62.7159 103.727 90.6684 117.222 109.213 102.551C111.044 101.121 108.813 98.3131 106.983 99.7432C90.7705 112.569 66.3312 100.767 66.429 80.2027C66.429 66.4937 77.6758 55.3404 91.5 55.3404C110.843 55.1734 123.136 76.8823 112.898 93.1447C112.378 93.9864 112.645 95.0867 113.493 95.6021V95.6021Z" fill="#14A06F"/>
</svg>
