<svg width="183" height="162" viewBox="0 0 183 162" fill="none" xmlns="http://www.w3.org/2000/svg">
<rect x="11" y="4" width="168" height="154" rx="16" fill="#C83333" stroke="#C83333" stroke-width="8"/>
<rect x="1" y="1" width="174" height="156" rx="19" fill="white" stroke="#C83333" stroke-width="2"/>
<path d="M140.875 94.6875H120.562C117.203 94.6875 114.469 97.1271 114.469 100.125V132.75C114.469 135.748 117.203 138.188 120.562 138.188H140.875C144.235 138.188 146.969 135.748 146.969 132.75V100.125C146.969 97.1271 144.235 94.6875 140.875 94.6875ZM120.562 98.3125H140.875C141.994 98.3125 142.906 99.1245 142.906 100.125V101.938H118.531V100.125C118.531 99.1245 119.443 98.3125 120.562 98.3125ZM142.906 105.562V127.312H118.531V105.562H142.906ZM140.875 134.562H120.562C119.443 134.562 118.531 133.75 118.531 132.75V130.938H142.906V132.75C142.906 133.75 141.994 134.562 140.875 134.562Z" fill="#14AF78"/>
<path d="M126.657 124.438L140.28 112.281L137.408 109.719L126.657 119.312L124.03 116.969L121.158 119.531L126.657 124.438Z" fill="#14AF78"/>
<path d="M41.3438 101.938C30.1434 101.938 21.0312 110.068 21.0312 120.062C21.0312 130.057 30.1434 138.188 41.3438 138.188C52.5441 138.188 61.6562 130.057 61.6562 120.062C61.6562 110.068 52.5441 101.938 41.3438 101.938ZM57.4536 121.875C57.0819 124.518 55.9119 126.935 54.165 128.94L51.3984 126.47L48.5263 129.033L51.2928 131.501C49.0462 133.06 46.3366 134.104 43.375 134.436V130.938H39.3125V134.437C36.3509 134.106 33.6413 133.062 31.3947 131.503L34.1613 129.034L31.2891 126.47L28.5225 128.94C26.7756 126.935 25.6056 124.518 25.2339 121.875H29.1562V118.25H25.2339C25.6056 115.607 26.7756 113.19 28.5225 111.185L31.2891 113.655L34.1613 111.092L31.3947 108.624C33.6413 107.065 36.3509 106.021 39.3125 105.689V109.188H43.375V105.688C46.3366 106.019 49.0462 107.063 51.2928 108.622L48.5263 111.091L51.3984 113.654L54.165 111.183C55.9119 113.188 57.0819 115.606 57.4536 118.248H53.5312V121.873H57.4536V121.875Z" fill="#14AF78"/>
<path d="M43.375 112.812H39.3125V120.813L43.9702 124.969L46.8423 122.406L43.375 119.312V112.812Z" fill="#14AF78"/>
<path d="M140.875 25.8125H96.1875C92.8278 25.8125 90.0938 28.2521 90.0938 31.25V53C90.0938 55.9979 92.8278 58.4375 96.1875 58.4375H140.875C144.235 58.4375 146.969 55.9979 146.969 53V31.25C146.969 28.2521 144.235 25.8125 140.875 25.8125ZM96.1875 29.4375H140.875C141.994 29.4375 142.906 30.2495 142.906 31.25V33.0625H94.1562V31.25C94.1562 30.2495 95.0683 29.4375 96.1875 29.4375ZM140.875 54.8125H96.1875C95.0683 54.8125 94.1562 54.0005 94.1562 53V36.6875H142.906V53C142.906 54.0005 141.994 54.8125 140.875 54.8125Z" fill="#14AF78"/>
<path d="M126.656 51.1875H138.844V40.3125H126.656V51.1875ZM130.719 43.9375H134.781V47.5625H130.719V43.9375Z" fill="#14AF78"/>
<path d="M106.344 47.5625H110.406V51.1875H106.344V47.5625Z" fill="#14AF78"/>
<path d="M114.469 47.5625H118.531V51.1875H114.469V47.5625Z" fill="#14AF78"/>
<path d="M98.2188 47.5625H102.281V51.1875H98.2188V47.5625Z" fill="#14AF78"/>
<path d="M98.2188 40.3125H118.531V43.9375H98.2188V40.3125Z" fill="#14AF78"/>
<path d="M92.125 100.553C99.8316 97.8557 105.464 91.4576 106.24 83.8125H120.562V62.0625H116.5V80.1875H106.24C105.21 70.0411 95.635 62.0625 84 62.0625C79.9761 62.0625 76.2081 63.0304 72.9439 64.6961C72.2208 63.6339 71.1117 62.8183 69.7812 62.396V47.5625H73.8438V43.0784L52.3267 27.3676C49.5764 25.3612 45.3027 25.3612 42.5483 27.3676L21.0312 43.0784V47.5625H25.0938V62.396C22.7355 63.1464 21.0312 65.1401 21.0312 67.5V72.9375H64.1222C62.8506 75.1506 62.0219 77.5956 61.7578 80.1875H47.4375V76.5625H43.375V83.8125H61.7598C62.5358 91.4576 68.1684 97.8557 75.875 100.553V118.25H65.7188V121.875H79.9375V101.591C81.2578 101.809 82.6106 101.937 84 101.937C85.3894 101.937 86.7422 101.809 88.0625 101.591V118.25H110.406V114.625H92.125V100.553ZM65.7188 62.0625H61.6562V47.5625H65.7188V62.0625ZM41.3438 47.5625V62.0625H37.2812V47.5625H41.3438ZM45.4062 47.5625H49.4688V62.0625H45.4062V47.5625ZM53.5312 47.5625H57.5938V62.0625H53.5312V47.5625ZM45.1198 30.1752C46.4259 29.2236 48.4511 29.2236 49.7552 30.1752L68.6052 43.9375H26.2698L45.1198 30.1752ZM33.2188 47.5625V62.0625H29.1562V47.5625H33.2188ZM25.0938 69.3125V67.5C25.0938 66.4995 26.0058 65.6875 27.125 65.6875H67.75C68.5808 65.6875 69.2917 66.137 69.6066 66.775C68.5828 67.5471 67.6322 68.3917 66.7791 69.3125H25.0938ZM65.7188 82C65.7188 73.0046 73.9209 65.6875 84 65.6875C94.0791 65.6875 102.281 73.0046 102.281 82C102.281 90.9954 94.0791 98.3125 84 98.3125C73.9209 98.3125 65.7188 90.9954 65.7188 82V82Z" fill="#14AF78"/>
<path d="M77.2906 74.3934V76.9911H82.2425C83.8564 76.9911 85.2324 78.077 85.7435 79.5888H77.2906V82.1864H85.7435C85.2324 83.6982 83.8564 84.7841 82.2425 84.7841H76.7778L86.319 94.7943L88.0698 92.9575L82.7359 87.3613C85.5035 87.1313 87.7637 84.9825 88.307 82.1864H90.9083V79.5888H88.3078C88.1214 78.6295 87.7328 77.7466 87.191 76.9911H90.9083V74.3934H77.2906Z" fill="#14A06F"/>
</svg>
