<svg width="183" height="162" viewBox="0 0 183 162" fill="none" xmlns="http://www.w3.org/2000/svg">
<rect x="11" y="4" width="168" height="154" rx="16" fill="#C83333" stroke="#C83333" stroke-width="8"/>
<rect x="1" y="1" width="174" height="156" rx="19" fill="white" stroke="#C83333" stroke-width="2"/>
<path d="M143.94 112.364C143.057 111.754 142.03 111.342 140.941 111.162C139.852 110.982 138.732 111.039 137.672 111.329L109.386 118.936H93.7171L82.5841 113.287H103.489C104.036 113.287 104.561 113.089 104.947 112.735C105.334 112.382 105.551 111.903 105.551 111.404V105.755C105.547 105.256 105.333 104.777 104.953 104.418L100.83 100.652C100.541 100.393 100.175 100.216 99.7785 100.144L68.8533 94.4946C68.7171 94.4727 68.5793 94.4601 68.441 94.4569H56.0709C55.8095 94.4532 55.55 94.4981 55.3081 94.5887L47.8242 97.3191V94.4569C47.8256 94.0088 47.652 93.5749 47.3346 93.2332C47.0172 92.8915 46.5767 92.6644 46.0924 92.5927L33.7224 90.7097C33.4263 90.6715 33.1248 90.6902 32.8372 90.7648C32.5496 90.8394 32.2822 90.9682 32.0524 91.1428C31.8273 91.3205 31.6464 91.5401 31.5219 91.787C31.3974 92.0338 31.3323 92.3021 31.3308 92.5739V130.234C31.3308 130.733 31.548 131.212 31.9347 131.565C32.3213 131.919 32.8457 132.117 33.3925 132.117C33.5028 132.12 33.6133 132.114 33.7224 132.098L46.0924 130.215C46.5767 130.143 47.0172 129.916 47.3346 129.575C47.652 129.233 47.8256 128.799 47.8242 128.351V126.468H53.6794L78.0896 133.906C78.3038 133.965 78.5258 133.996 78.7494 134H109.674C109.907 134.001 110.138 133.962 110.355 133.887L142.043 123.681C143.429 123.234 144.629 122.405 145.478 121.309C146.327 120.213 146.784 118.904 146.785 117.561C146.791 116.552 146.537 115.555 146.042 114.652C145.548 113.749 144.828 112.965 143.94 112.364V112.364ZM43.7009 126.75L35.4542 128.012V94.7958L43.7009 96.0574V126.75ZM140.682 120.122L109.324 130.234H79.0792L54.669 122.796C54.4548 122.737 54.2328 122.706 54.0092 122.702H47.8242V101.386L56.4626 98.2229H68.2348L98.3559 103.721L101.428 106.527V109.521H74.626C74.1713 109.522 73.7298 109.661 73.3702 109.915C73.0106 110.169 72.7532 110.525 72.6379 110.927C72.5227 111.328 72.5561 111.754 72.7329 112.136C72.9098 112.519 73.2202 112.837 73.6158 113.042L92.1709 122.457C92.477 122.621 92.8263 122.706 93.1811 122.702H109.674C109.87 122.706 110.065 122.681 110.252 122.627L138.847 114.944C139.29 114.821 139.758 114.796 140.214 114.872C140.669 114.947 141.098 115.12 141.466 115.377C141.897 115.672 142.233 116.068 142.438 116.524C142.643 116.979 142.709 117.477 142.628 117.964C142.548 118.451 142.324 118.908 141.982 119.289C141.639 119.669 141.19 119.957 140.682 120.122V120.122Z" fill="#14A06F"/>
<path d="M74.3288 82.1985C88.1013 82.1985 99.3073 68.5136 99.3073 51.694V34.2628C99.3073 33.9428 99.1937 33.6319 98.9842 33.3781C98.7748 33.1244 98.4811 32.9421 98.1489 32.8596L74.7316 27.0492C74.4677 26.9836 74.1899 26.9836 73.9261 27.0492L50.5087 32.8596C50.1765 32.9421 49.8829 33.1244 49.6734 33.3781C49.464 33.6319 49.3504 33.9428 49.3503 34.2628V51.694C49.3503 68.5136 60.5563 82.1985 74.3288 82.1985ZM52.4727 35.3798L74.3288 29.9558L96.185 35.3798V51.694C96.185 66.9128 86.3809 79.2933 74.3288 79.2933C62.2767 79.2933 52.4727 66.9128 52.4727 51.694V35.3798Z" fill="#14A06F"/>
<path d="M67.9012 60.4658V64.8657C67.9012 65.6437 68.2398 66.3897 68.8424 66.9398C69.4451 67.4899 70.2625 67.799 71.1148 67.799H77.542C78.3943 67.799 79.2117 67.4899 79.8144 66.9398C80.4171 66.3897 80.7556 65.6437 80.7556 64.8657V60.4658H85.576C86.4283 60.4658 87.2457 60.1568 87.8484 59.6067C88.4511 59.0566 88.7896 58.3105 88.7896 57.5326V51.6661C88.7896 50.8881 88.4511 50.142 87.8484 49.5919C87.2457 49.0418 86.4283 48.7328 85.576 48.7328H80.7556V44.3329C80.7556 43.555 80.4171 42.8089 79.8144 42.2588C79.2117 41.7087 78.3943 41.3997 77.542 41.3997H71.1148C70.2625 41.3997 69.4451 41.7087 68.8424 42.2588C68.2398 42.8089 67.9012 43.555 67.9012 44.3329V48.7328H63.0808C62.2285 48.7328 61.4111 49.0418 60.8084 49.5919C60.2058 50.142 59.8672 50.8881 59.8672 51.6661V57.5326C59.8672 58.3105 60.2058 59.0566 60.8084 59.6067C61.4111 60.1568 62.2285 60.4658 63.0808 60.4658H67.9012ZM63.0808 51.6661H67.9012C68.7535 51.6661 69.5709 51.357 70.1736 50.8069C70.7762 50.2568 71.1148 49.5107 71.1148 48.7328V44.3329H77.542V48.7328C77.542 49.5107 77.8806 50.2568 78.4833 50.8069C79.0859 51.357 79.9033 51.6661 80.7556 51.6661H85.576V57.5326H80.7556C79.9033 57.5326 79.0859 57.8416 78.4833 58.3917C77.8806 58.9418 77.542 59.6879 77.542 60.4658V64.8657H71.1148V60.4658C71.1148 59.6879 70.7762 58.9418 70.1736 58.3917C69.5709 57.8416 68.7535 57.5326 67.9012 57.5326H63.0808V51.6661Z" fill="#14A06F"/>
<path d="M39.2692 35.3998H42.3367V32.5999H45.4043V29.7999H42.3367V27H39.2692V29.7999H36.2017V32.5999H39.2692V35.3998Z" fill="#14A06F"/>
<path d="M30.0675 44.9996H33.1351V41.7997H36.2026V38.5998H33.1351V35.3998H30.0675V38.5998H27V41.7997H30.0675V44.9996Z" fill="#14A06F"/>
<path d="M45.8461 72.5988V75.3987H42.7786V78.1986H45.8461V80.9985H48.9136V78.1986H51.9812V75.3987H48.9136V72.5988H45.8461Z" fill="#14A06F"/>
<path d="M39.7071 72.5988V69.7989H42.7746V66.999H39.7071V64.199H36.6396V66.999H33.572V69.7989H36.6396V72.5988H39.7071Z" fill="#14A06F"/>
<path d="M126.871 67.3488C126.354 67.3488 125.936 66.9391 125.936 66.4339V62.7746C125.936 62.2694 126.354 61.8597 126.871 61.8597C127.388 61.8597 127.806 62.2694 127.806 62.7746V66.4339C127.806 66.9391 127.388 67.3488 126.871 67.3488Z" fill="#65DDB9"/>
<path d="M117.452 87.8852C117.074 87.8852 116.733 87.6626 116.588 87.3205C116.444 86.9789 116.523 86.5854 116.791 86.3239L118.447 84.7048C118.814 84.3578 119.397 84.3631 119.758 84.7157C120.119 85.0687 120.124 85.6394 119.769 85.9981L118.114 87.6173C117.939 87.7897 117.701 87.886 117.452 87.8852Z" fill="#65DDB9"/>
<path d="M126.871 92.9625C126.354 92.9625 125.936 92.5529 125.936 92.0477V88.3883C125.936 87.8832 126.354 87.4735 126.871 87.4735C127.388 87.4735 127.806 87.8832 127.806 88.3883V92.0477C127.806 92.5529 127.388 92.9625 126.871 92.9625Z" fill="#65DDB9"/>
<path d="M141.839 78.326H138.097C137.58 78.326 137.161 77.9164 137.161 77.4112C137.161 76.906 137.58 76.4963 138.097 76.4963H141.839C142.355 76.4963 142.774 76.906 142.774 77.4112C142.774 77.9164 142.355 78.326 141.839 78.326Z" fill="#65DDB9"/>
<path d="M115.648 78.326H112.842C112.325 78.326 111.906 77.9164 111.906 77.4112C111.906 76.906 112.325 76.4963 112.842 76.4963H115.648C116.165 76.4963 116.584 76.906 116.584 77.4112C116.584 77.9164 116.165 78.326 115.648 78.326Z" fill="#65DDB9"/>
<path d="M135.027 70.6977C134.649 70.6977 134.308 70.4746 134.164 70.133C134.019 69.7909 134.099 69.3979 134.366 69.136L136.424 67.1237C136.791 66.7768 137.375 66.7817 137.735 67.1347C138.096 67.4876 138.101 68.058 137.747 68.417L135.689 70.4297C135.513 70.6013 135.276 70.6977 135.027 70.6977Z" fill="#65DDB9"/>
<path d="M137.956 77.5691C137.956 83.6359 133.059 88.5539 127.018 88.5539C120.976 88.5539 116.079 83.6359 116.079 77.5691C116.079 71.5023 120.976 66.5844 127.018 66.5844C133.059 66.5844 137.956 71.5023 137.956 77.5691Z" fill="#46B29D"/>
<path d="M125.759 86.0432C125.246 86.0432 124.831 85.6343 124.831 85.1301C124.831 84.6259 125.246 84.2171 125.759 84.2171C126.816 84.2179 127.86 83.9957 128.822 83.5662L132.522 79.9261C132.959 78.9795 133.185 77.9525 133.184 76.913C133.184 76.4088 133.599 75.9999 134.112 75.9999C134.625 75.9999 135.04 76.4088 135.04 76.913C135.041 78.2745 134.731 79.619 134.133 80.8472C134.087 80.9418 134.024 81.0278 133.948 81.1009L130.013 84.9721C129.938 85.0473 129.851 85.1091 129.755 85.1548C128.507 85.7406 127.142 86.044 125.759 86.0432V86.0432Z" fill="#65DDB9"/>
<path d="M130.11 76.6276C131.357 76.3141 132.209 75.0375 132.114 73.6259C132.019 72.2139 131.005 71.0917 129.729 70.9862C128.454 70.8812 127.3 71.8245 127.017 73.2049" fill="#14A085"/>
<path d="M123.738 84.16C123.594 84.1579 123.453 84.1325 123.322 84.0844C123.189 84.036 123.067 83.9692 122.961 83.8861C122.862 83.7959 122.784 83.6902 122.731 83.5749C122.675 83.4613 122.645 83.3394 122.644 83.2162C122.647 82.9665 122.761 82.7272 122.961 82.5459C123.067 82.4624 123.189 82.3952 123.322 82.3471C123.73 82.2047 124.197 82.2828 124.514 82.5459C124.714 82.7272 124.827 82.9665 124.831 83.2162C124.83 83.3394 124.8 83.4613 124.744 83.5749C124.691 83.6902 124.613 83.7959 124.514 83.8861C124.304 84.0581 124.027 84.1558 123.738 84.16Z" fill="#14A085"/>
<path d="M120.091 81.6492C119.948 81.6475 119.807 81.6217 119.675 81.5736C119.543 81.5256 119.421 81.4583 119.314 81.3756C119.215 81.2854 119.137 81.1798 119.085 81.0641C119.029 80.9505 118.999 80.8289 118.997 80.7053C119.001 80.4555 119.115 80.2162 119.314 80.0354C119.421 79.9518 119.543 79.8842 119.675 79.8361C120.084 79.6941 120.55 79.7718 120.867 80.0354C121.067 80.2162 121.18 80.4555 121.185 80.7053C121.183 80.8289 121.153 80.9505 121.097 81.0641C121.044 81.1798 120.967 81.2854 120.867 81.3756C120.658 81.5477 120.38 81.645 120.091 81.6492V81.6492Z" fill="#14A085"/>
<path d="M126.653 50.8918C111.55 50.8918 99.3069 62.695 99.3069 77.2553C99.3069 91.8157 111.55 103.619 126.653 103.619C141.757 103.619 154 91.8157 154 77.2553C154 62.695 141.757 50.8918 126.653 50.8918ZM126.653 99.0735C118.013 99.0779 110.125 94.3363 106.325 86.8548C102.527 79.3733 103.48 70.4589 108.784 63.8825L140.515 94.4823C136.558 97.4656 131.677 99.0824 126.653 99.0735V99.0735ZM144.523 90.6189L112.782 60.0283C121.784 53.2769 134.592 54.0441 142.658 61.8176C150.724 69.5912 151.524 81.9386 144.523 90.6189Z" fill="#14A06F"/>
<path d="M128.477 60.9349C128.477 61.9753 127.661 62.8182 126.654 62.8182C125.647 62.8182 124.831 61.9753 124.831 60.9349C124.831 59.8949 125.647 59.052 126.654 59.052C127.661 59.052 128.477 59.8949 128.477 60.9349Z" fill="#14A085"/>
<path d="M118.266 89.1814C118.266 90.568 117.287 91.6925 116.079 91.6925C114.87 91.6925 113.891 90.568 113.891 89.1814C113.891 87.7948 114.87 86.6708 116.079 86.6708C117.287 86.6708 118.266 87.7948 118.266 89.1814Z" fill="#14A085"/>
<path d="M128.477 93.5757C128.477 94.6157 127.661 95.4586 126.654 95.4586C125.647 95.4586 124.831 94.6157 124.831 93.5757C124.831 92.5353 125.647 91.6924 126.654 91.6924C127.661 91.6924 128.477 92.5353 128.477 93.5757Z" fill="#14A085"/>
<path d="M113.164 77.883C113.164 78.9229 112.184 79.7662 110.976 79.7662C109.767 79.7662 108.788 78.9229 108.788 77.883C108.788 76.8432 109.767 75.9999 110.976 75.9999C112.184 75.9999 113.164 76.8432 113.164 77.883Z" fill="#14A085"/>
</svg>
