<svg width="198" height="161" viewBox="0 0 198 161" fill="none" xmlns="http://www.w3.org/2000/svg">
<path d="M162.12 161H24.0306C10.7565 161 0 151.424 0 139.618V19.7209C0 7.91011 51.9973 0.481207 65.2655 0.481207L83.0399 9.51355e-05C95.0522 9.51355e-05 165.824 6.22879 167.452 16.8186L185.93 136.716C187.907 149.556 176.691 161 162.12 161" fill="#E9F9FE"/>
<path d="M185.93 136.716L167.452 16.8187C167.092 14.4596 163.289 12.3178 157.475 10.4088C158.708 11.3142 159.458 12.2558 159.609 13.2335L178.081 133.131C180.058 145.977 168.842 157.415 154.271 157.415H16.1818C13.8038 157.415 11.5071 157.104 9.33838 156.53C13.4026 159.329 18.4959 161 24.0311 161H162.121C176.691 161 187.907 149.556 185.93 136.716" fill="#A1C8D1"/>
<path d="M4.66893 143.105V23.2076C4.66893 11.3969 56.6662 3.96792 69.9403 3.96792L87.7087 3.48165C97.907 3.48165 150.445 7.97729 167.086 15.8097C161.329 5.83552 94.6627 -2.92318e-06 83.0399 -2.92318e-06L65.2655 0.481109C51.9973 0.481109 0 7.91001 0 19.7208V139.618C0 147.172 4.40143 153.804 11.0472 157.606C7.08763 153.793 4.66893 148.703 4.66893 143.105" fill="#F8FEFF"/>
<path d="M164.581 11.8572C164.912 10.2742 187.489 11.8314 193.158 1.74332C193.158 1.74332 192.286 1.77957 192.286 9.9069C192.286 18.0342 197.519 15.1268 197.519 15.1268C197.519 15.1268 196.861 16.0942 195.995 19.5862C195.123 23.0782 163.476 17.1185 164.581 11.8572Z" fill="#E9F9FE"/>
<path d="M193.018 13.9784C192.576 13.1092 192.286 11.8159 192.286 9.90698C192.286 9.26549 192.291 8.68089 192.303 8.13768C185.611 10.3984 172.703 11.3451 167.714 11.9349C166.208 12.178 165.266 12.385 165.185 12.623C166.203 14.1802 184.872 14.5785 193.018 13.9784" fill="#A1C8D1"/>
<path d="M195.995 16.1563C195.332 18.7947 177.134 16.0425 168.732 12.2659L164.581 11.8572C163.476 17.1185 195.123 23.0782 195.995 19.5862C196.861 16.0942 197.519 15.1268 197.519 15.1268C197.519 15.1268 196.1 15.7373 195.995 16.1563" fill="#A1C8D1"/>
<path d="M163.987 8.96024C163.987 8.96024 160.202 6.24941 156.714 8.96024C153.225 11.6763 163.034 18.2723 163.034 18.2723C163.034 18.2723 173.982 15.4528 173.162 12.2143C171.755 6.63743 163.987 8.96024 163.987 8.96024" fill="#E9F9FE"/>
<path d="M169.761 14.4802C166.813 15.9391 163.034 16.9169 163.034 16.9169C163.034 16.9169 160.406 15.1476 158.353 13.0628C157.091 11.7798 158.214 9.73625 160.126 9.91731C160.882 9.99492 161.563 10.2019 162.103 10.4243C162.848 10.7244 163.307 11.4073 163.284 12.1315C163.266 12.6748 163.278 13.4456 163.382 14.4492C163.382 14.4492 163.935 13.1093 164.58 11.8573C164.958 11.1279 165.766 10.6364 166.673 10.6209C167.627 10.6054 168.668 10.7037 169.615 11.0555C171.249 11.6556 171.307 13.7146 169.761 14.4802ZM173.162 12.2143C171.755 6.63743 163.987 8.96024 163.987 8.96024C163.987 8.96024 160.202 6.24941 156.714 8.96024C156.394 9.20857 156.196 9.48796 156.08 9.79318V9.78798L156.062 9.83971C156.045 9.90697 156.022 9.96909 156.01 10.0363L155.993 10.1398C155.981 10.1967 155.975 10.2588 155.975 10.3209L155.969 10.445C155.969 10.5019 155.975 10.5588 155.981 10.6157C155.987 10.6675 155.987 10.7141 155.998 10.7606C156.004 10.8175 156.016 10.8692 156.027 10.9261C156.039 10.9779 156.051 11.0296 156.062 11.0813L156.074 11.1331L156.08 11.1279C156.969 14.1905 163.034 18.2723 163.034 18.2723C163.034 18.2723 170.493 16.353 172.633 13.8594L172.691 13.787C172.738 13.7353 172.778 13.6784 172.819 13.6215L172.883 13.5284C172.918 13.4766 172.953 13.4249 172.982 13.3732C173.023 13.2956 173.057 13.218 173.092 13.1404L173.127 13.0317C173.145 12.9748 173.162 12.923 173.174 12.8661L173.191 12.7575C173.197 12.7006 173.203 12.6385 173.203 12.5764V12.4885C173.197 12.3954 173.185 12.3074 173.162 12.2143" fill="#A1C8D1"/>
<path d="M91.3374 105.216C79.4355 105.216 69.7838 96.6279 69.7838 86.038C69.7838 75.4482 79.4355 66.8604 91.3374 66.8604C103.239 66.8604 112.891 75.4482 112.891 86.038C112.891 96.6279 103.239 105.216 91.3374 105.216ZM91.3374 33.6372C58.8122 33.6372 32.4443 57.0983 32.4443 86.038C32.4443 114.978 58.8122 138.439 91.3374 138.439C123.863 138.439 150.231 114.978 150.231 86.038C150.231 57.0983 123.863 33.6372 91.3374 33.6372Z" fill="#A1C8D1"/>
<path d="M87.7446 102.36C75.8428 102.36 66.191 93.7721 66.191 83.1823C66.191 72.5924 75.8428 64.0047 87.7446 64.0047C99.6465 64.0047 109.298 72.5924 109.298 83.1823C109.298 93.7721 99.6465 102.36 87.7446 102.36ZM87.7446 30.7814C55.2194 30.7814 28.8516 54.2426 28.8516 83.1823C28.8516 112.122 55.2194 135.583 87.7446 135.583C120.27 135.583 146.638 112.122 146.638 83.1823C146.638 54.2426 120.27 30.7814 87.7446 30.7814Z" fill="#CC6F23"/>
<path d="M31.8401 86.1053C31.8401 57.1656 58.208 33.7044 90.7332 33.7044C107.211 33.7044 122.101 39.7366 132.788 49.4418C121.985 38.0345 105.821 30.7815 87.7447 30.7815C55.2194 30.7815 28.8516 54.2426 28.8516 83.1823C28.8516 97.4608 35.2764 110.394 45.684 119.846C37.0497 110.73 31.8401 98.9611 31.8401 86.1053" fill="#F49045"/>
<path d="M135.828 52.9441C140.707 60.5799 143.509 69.4005 143.509 78.8108C143.509 107.751 117.141 131.212 84.616 131.212C64.7544 131.212 47.201 122.448 36.5317 109.044C46.6603 124.89 65.7951 135.583 87.7441 135.583C120.269 135.583 146.637 112.122 146.637 83.1823C146.637 71.9147 142.625 61.4904 135.828 52.9441Z" fill="#A55316"/>
<path d="M108.327 88.8834C107.7 90.6837 106.781 92.3754 105.618 93.9015C104.845 94.9259 103.961 95.8726 102.984 96.7417C99.5711 99.7785 95.0185 101.801 89.9484 102.262C89.2216 102.324 88.4891 102.36 87.7448 102.36C85.5121 102.36 83.3608 102.055 81.3375 101.496C72.5637 99.0697 66.1912 91.7856 66.1912 83.1823C66.1912 76.3121 70.267 70.3059 76.3662 66.9173C77.907 66.0637 79.5641 65.355 81.3375 64.8687C82.0119 64.6824 82.698 64.5221 83.4015 64.3927C84.8028 64.1392 86.2564 64.0047 87.7448 64.0047C93.6987 64.0047 99.0827 66.1517 102.984 69.623C103.961 70.4921 104.845 71.4388 105.618 72.458C106.781 73.9893 107.7 75.6758 108.327 77.4813C108.955 79.2816 109.298 81.1958 109.298 83.1823C109.298 85.1689 108.955 87.0831 108.327 88.8834ZM130.212 69.6282C130.131 69.4212 130.044 69.2195 129.957 69.0177L129.939 68.9712C128.462 64.8532 126.055 57.7657 118.909 50.4143C111.764 43.063 100.141 44.5788 97.5768 44.0046C95.0185 43.4303 84.9598 38.8881 78.0349 40.6781C71.1101 42.4629 68.6565 46.8085 68.6565 46.8085C51.0159 48.5675 48.8472 62.8562 48.8472 62.8562C38.6431 71.1233 43.2189 67.4812 40.2885 84.1963C37.3581 100.917 51.5566 107.15 51.5566 107.15C64.6097 133.079 81.5584 124.295 97.6931 123.84C113.822 123.39 116.334 114.233 116.334 114.233C133.195 108.687 129.183 99.0697 130.282 96.571C131.375 94.0774 136.777 94.1343 138.562 89.1214C140.265 84.3464 132.271 74.1548 130.212 69.6282" fill="#E05C98"/>
<path d="M42.527 86.7416C45.4574 70.0213 40.8874 73.6634 51.0857 65.3963C51.0857 65.3963 53.2544 51.1127 70.9008 49.3486C70.9008 49.3486 73.3544 45.0081 80.2735 43.2182C87.1983 41.4282 97.257 45.9756 99.8212 46.5498C102.379 47.1241 114.002 45.6031 121.148 52.9544C121.311 53.12 121.456 53.2855 121.613 53.4511C120.793 52.4474 119.898 51.4335 118.909 50.4143C111.764 43.063 100.141 44.5788 97.5768 44.0045C95.0185 43.4303 84.9598 38.8881 78.0349 40.6781C71.1101 42.4629 68.6565 46.8085 68.6565 46.8085C51.0159 48.5674 48.8472 62.8562 48.8472 62.8562C38.6431 71.1232 43.2189 67.4812 40.2885 84.1963C38.6314 93.6583 42.4514 99.7577 46.0854 103.27C43.341 99.6077 41.2188 94.2274 42.527 86.7416Z" fill="#ED91BF"/>
<path d="M66.1907 83.1821C66.1907 76.3119 70.2666 70.3056 76.3658 66.9171C77.9065 66.0635 79.5636 65.3547 81.337 64.8684C82.0114 64.6822 82.6975 64.5218 83.4011 64.3925C84.8023 64.139 86.2559 64.0045 87.7444 64.0045C93.6982 64.0045 99.0822 66.1515 102.984 69.6228C103.96 70.4919 104.844 71.4386 105.617 72.4578C105.78 72.675 105.931 72.9027 106.083 73.1251C105.524 71.9094 104.833 70.7557 104.019 69.6797C103.239 68.6553 102.361 67.7086 101.385 66.8395C97.4833 63.3682 92.0935 61.2212 86.1454 61.2212C84.657 61.2212 83.2034 61.3557 81.8021 61.6144C81.0986 61.7386 80.4125 61.899 79.7381 62.0852C77.9647 62.5767 76.3076 63.2802 74.7668 64.1338C68.6676 67.5224 64.5918 73.5286 64.5918 80.3989C64.5918 84.1082 65.7779 87.564 67.8304 90.4973C66.778 88.2417 66.1907 85.774 66.1907 83.1821" fill="#A83D73"/>
<path d="M134.253 76.6018C136.27 80.2801 137.805 83.9738 136.962 86.338C135.177 91.351 129.776 91.2941 128.683 93.7928C127.584 96.2864 131.59 105.909 114.734 111.45C114.734 111.45 112.222 120.606 96.0877 121.062C80.9298 121.486 65.0452 129.267 52.3525 108.677C65.2952 132.722 81.8834 124.285 97.6925 123.84C113.821 123.39 116.333 114.233 116.333 114.233C133.195 108.687 129.183 99.0697 130.282 96.5709C131.375 94.0774 136.776 94.1343 138.567 89.1213C139.619 86.1518 136.933 81.0974 134.253 76.6018" fill="#A83D73"/>
<path d="M131.55 71.687C131.468 71.4853 131.387 71.2835 131.3 71.0817L131.276 71.03C130.212 68.0553 128.654 63.539 125.183 58.4898C127.741 62.6957 129.02 66.405 129.939 68.971L129.957 69.0176C130.044 69.2193 130.131 69.4211 130.212 69.628C132.271 74.1547 140.265 84.3462 138.567 89.1212C136.777 94.1342 131.375 94.0773 130.282 96.5708C129.183 99.0696 133.195 108.687 116.334 114.233C116.334 114.233 113.822 123.39 97.693 123.84C83.0409 124.253 67.7261 131.532 55.2544 113.457C67.9586 134.124 83.8549 126.328 99.0302 125.904C115.165 125.454 117.677 116.292 117.677 116.292C134.532 110.751 130.526 101.134 131.619 98.635C132.718 96.1363 138.893 96.3639 139.905 91.1802C141.469 83.1822 133.614 76.2189 131.55 71.687Z" fill="#A55316"/>
<path d="M89.9132 58.2778C89.3375 58.2778 88.7852 57.9829 88.5352 57.4759L86.9362 54.2477C86.599 53.57 86.942 52.7785 87.7095 52.4784C88.4712 52.1784 89.3608 52.4888 89.6922 53.1665L91.2912 56.3999C91.6284 57.0776 91.2853 57.8691 90.5237 58.164C90.326 58.2416 90.1167 58.2778 89.9132 58.2778" fill="#A83D73"/>
<path d="M104.763 53.9581C104.774 53.4407 105.117 52.9544 105.687 52.7423L109.35 51.3766C110.118 51.092 111.001 51.4128 111.321 52.1008C111.641 52.7837 111.281 53.5701 110.513 53.8546L106.85 55.2152C106.083 55.5049 105.199 55.179 104.879 54.4961C104.798 54.3202 104.757 54.134 104.763 53.9581" fill="#A83D73"/>
<path d="M57.0738 97.704C57.0854 97.1918 57.4284 96.7055 57.9982 96.4934L61.6612 95.1277C62.4287 94.8431 63.3125 95.1639 63.6323 95.8468C63.9521 96.5348 63.5916 97.316 62.8241 97.6057L59.1611 98.9663C58.3936 99.2508 57.5099 98.9301 57.1901 98.2472C57.1087 98.0713 57.068 97.8851 57.0738 97.704" fill="#A83D73"/>
<path d="M113.803 106.116C113.222 106.085 112.693 105.754 112.478 105.241L111.1 101.925C110.815 101.232 111.21 100.461 111.995 100.203C112.78 99.9491 113.64 100.301 113.931 100.999L115.309 104.31C115.594 105.004 115.199 105.78 114.414 106.033C114.21 106.1 114.007 106.126 113.803 106.116Z" fill="#A83D73"/>
<path d="M118.194 83.3583C117.618 83.3273 117.083 82.9962 116.868 82.484L115.496 79.1731C115.205 78.4747 115.607 77.7038 116.386 77.4452C117.171 77.1917 118.037 77.5435 118.322 78.2419L119.7 81.5528C119.991 82.246 119.589 83.0221 118.81 83.2756C118.607 83.3428 118.397 83.3687 118.194 83.3583" fill="#A83D73"/>
<path d="M113.803 69.2919C113.222 69.2609 112.693 68.9298 112.478 68.4176L111.1 65.1015C110.815 64.4083 111.21 63.6375 111.995 63.3788C112.78 63.1253 113.64 63.4771 113.931 64.1755L115.309 67.4864C115.594 68.1797 115.199 68.9557 114.414 69.2092C114.21 69.2764 114.007 69.3023 113.803 69.2919Z" fill="#A83D73"/>
<path d="M60.208 73.1718C59.6847 73.3994 59.0452 73.3477 58.5684 72.9959L55.5333 70.7248C54.8937 70.2437 54.8123 69.4004 55.3472 68.8313C55.888 68.2623 56.8357 68.1898 57.4753 68.671L60.5103 70.9421C61.1499 71.418 61.2313 72.2665 60.6964 72.8303C60.5569 72.9804 60.3882 73.0942 60.208 73.1718Z" fill="#A83D73"/>
<path d="M80.2383 114.652C80.029 114.171 80.1453 113.607 80.5814 113.219L83.3897 110.72C83.9769 110.198 84.9305 110.198 85.5177 110.72C86.1108 111.248 86.1108 112.096 85.5177 112.619L82.7094 115.117C82.1221 115.64 81.1686 115.64 80.5756 115.112C80.4244 114.978 80.3139 114.823 80.2383 114.652Z" fill="#A83D73"/>
<path d="M70.2835 56.074C69.8242 55.7584 69.5915 55.2256 69.7427 54.6927L70.6905 51.2628C70.894 50.5437 71.708 50.104 72.5161 50.2799C73.3243 50.4609 73.8186 51.1852 73.6209 51.9043L72.6674 55.3342C72.4697 56.0533 71.6498 56.4931 70.8416 56.3172C70.6323 56.2706 70.4463 56.1878 70.2835 56.074Z" fill="#A83D73"/>
<path d="M51.98 86.0742C51.4741 85.8207 51.1602 85.3188 51.2183 84.7705L51.6253 81.2578C51.7125 80.5231 52.451 79.9851 53.2766 80.0627C54.1081 80.1351 54.7069 80.7922 54.6255 81.5319L54.2185 85.0446C54.1371 85.7793 53.3987 86.3173 52.5673 86.2449C52.3521 86.2242 52.1544 86.1621 51.98 86.0742" fill="#A83D73"/>
<path d="M71.0225 107.523C71.4876 107.828 71.7376 108.361 71.5981 108.899L70.7376 112.345C70.5574 113.069 69.7492 113.524 68.9352 113.359C68.1212 113.198 67.6095 112.484 67.7955 111.76L68.6561 108.315C68.8363 107.59 69.6445 107.135 70.4585 107.295C70.6678 107.337 70.8597 107.414 71.0225 107.523" fill="#A83D73"/>
<path d="M101.519 110.115C101.984 110.42 102.234 110.953 102.1 111.486L101.234 114.931C101.053 115.655 100.245 116.111 99.4313 115.95C98.6173 115.79 98.1056 115.071 98.2916 114.346L99.1522 110.901C99.3382 110.177 100.141 109.721 100.955 109.887C101.164 109.928 101.356 110.006 101.519 110.115" fill="#A83D73"/>
<path d="M123.473 93.6582C123.252 94.1342 122.723 94.4704 122.106 94.4808L118.141 94.5325C117.31 94.5429 116.624 93.9531 116.612 93.2133C116.6 92.4684 117.263 91.8631 118.095 91.8475L122.066 91.7958C122.897 91.7854 123.583 92.3752 123.595 93.1202C123.595 93.3116 123.554 93.4927 123.473 93.6582" fill="#A83D73"/>
<path d="M120.223 72.0078C120.456 71.537 120.979 71.2059 121.595 71.2007L125.567 71.1697C126.398 71.1645 127.078 71.7594 127.084 72.5044C127.09 73.2442 126.421 73.8495 125.59 73.8547L121.619 73.8805C120.787 73.8857 120.107 73.2907 120.101 72.551C120.101 72.3595 120.142 72.1785 120.223 72.0078Z" fill="#A83D73"/>
<path d="M45.6958 98.7799C45.4865 98.2988 45.6028 97.7349 46.0389 97.3469L48.8472 94.8482C49.4344 94.3257 50.388 94.3257 50.9752 94.8533C51.5683 95.3758 51.5683 96.2243 50.9752 96.7468L48.1669 99.2455C47.5797 99.768 46.6261 99.768 46.0331 99.2455C45.8819 99.1058 45.7714 98.9506 45.6958 98.7799" fill="#A83D73"/>
<path d="M68.0861 60.492C68.5513 60.7972 68.8013 61.33 68.6675 61.8681L67.8012 65.3135C67.621 66.0378 66.8128 66.4931 65.9988 66.3275C65.1848 66.1671 64.6789 65.4532 64.8592 64.729L65.7255 61.2835C65.9058 60.5592 66.7082 60.104 67.5222 60.2643C67.7315 60.3057 67.9233 60.3833 68.0861 60.492" fill="#A83D73"/>
<path d="M89.3428 57.5173C88.7672 57.5173 88.2149 57.2224 87.9648 56.7154L86.3659 53.4872C86.0287 52.8095 86.3717 52.018 87.1392 51.7179C87.9009 51.4179 88.7905 51.7283 89.1219 52.406L90.7208 55.6393C91.0581 56.3119 90.715 57.1086 89.9533 57.4034C89.7557 57.481 89.5463 57.5173 89.3428 57.5173" fill="#19DDDD"/>
<path d="M104.193 53.1975C104.205 52.6801 104.548 52.1938 105.117 51.9817L108.781 50.616C109.548 50.3314 110.432 50.6522 110.752 51.3402C111.071 52.0231 110.711 52.8095 109.943 53.094L106.28 54.4546C105.513 54.7443 104.629 54.4184 104.309 53.7355C104.222 53.5596 104.187 53.3734 104.193 53.1975" fill="#19DDDD"/>
<path d="M56.504 96.9435C56.5156 96.4313 56.8586 95.945 57.4284 95.7329L61.0914 94.3672C61.8589 94.0826 62.7427 94.4034 63.0625 95.0862C63.3823 95.7743 63.0218 96.5555 62.2543 96.8452L58.5913 98.2058C57.8238 98.4903 56.94 98.1696 56.6203 97.4867C56.5389 97.3108 56.4982 97.1245 56.504 96.9435" fill="#19DDDD"/>
<path d="M113.234 105.355C112.653 105.324 112.123 104.993 111.908 104.481L110.53 101.165C110.245 100.472 110.641 99.7007 111.426 99.442C112.211 99.1885 113.071 99.5403 113.362 100.239L114.74 103.55C115.025 104.243 114.629 105.019 113.844 105.272C113.641 105.34 113.437 105.366 113.234 105.355Z" fill="#19DDDD"/>
<path d="M117.624 82.5978C117.048 82.5668 116.514 82.2357 116.298 81.7235L114.926 78.4126C114.636 77.7142 115.037 76.9434 115.816 76.6847C116.601 76.4312 117.467 76.783 117.752 77.4814L119.13 80.7923C119.421 81.4856 119.02 82.2616 118.24 82.5151C118.037 82.5823 117.828 82.6082 117.624 82.5978" fill="#FFCE6C"/>
<path d="M113.234 68.5314C112.653 68.5004 112.123 68.1693 111.908 67.6571L110.53 64.341C110.245 63.6478 110.641 62.8769 111.426 62.6183C112.211 62.3648 113.071 62.7166 113.362 63.415L114.74 66.7259C115.025 67.4192 114.629 68.1952 113.844 68.4486C113.641 68.5159 113.437 68.5418 113.234 68.5314Z" fill="#E789F7"/>
<path d="M59.6377 72.4114C59.1144 72.639 58.4748 72.5873 57.998 72.2355L54.963 69.9592C54.3234 69.4833 54.242 68.64 54.7769 68.071C55.3177 67.5019 56.2654 67.4295 56.9049 67.9106L59.94 70.1817C60.5796 70.6576 60.661 71.5061 60.1261 72.0699C59.9865 72.22 59.8179 72.3338 59.6377 72.4114Z" fill="#FFCE6C"/>
<path d="M79.668 113.891C79.4587 113.41 79.575 112.846 80.0111 112.458L82.8194 109.96C83.4066 109.437 84.3601 109.437 84.9474 109.96C85.5404 110.487 85.5404 111.336 84.9474 111.858L82.1391 114.357C81.5518 114.879 80.5983 114.879 80.0052 114.352C79.854 114.217 79.7436 114.062 79.668 113.891Z" fill="#FFCE6C"/>
<path d="M69.7141 55.3135C69.2548 54.998 69.0222 54.4651 69.1734 53.9322L70.1211 50.5023C70.3246 49.7832 71.1386 49.3435 71.9468 49.5194C72.755 49.7004 73.2492 50.4247 73.0515 51.1438L72.098 54.5737C71.9003 55.2928 71.0805 55.7326 70.2723 55.5567C70.063 55.5101 69.8769 55.4273 69.7141 55.3135Z" fill="#FFCE6C"/>
<path d="M51.4111 85.3137C50.9052 85.0602 50.5912 84.5583 50.6552 84.01L51.0564 80.4973C51.1436 79.7626 51.882 79.2246 52.7076 79.3022C53.5391 79.3746 54.138 80.0317 54.0566 80.7715L53.6496 84.2842C53.5682 85.0188 52.8298 85.5568 51.9983 85.4844C51.7832 85.4637 51.5855 85.4016 51.4111 85.3137" fill="#E789F7"/>
<path d="M70.4529 106.762C70.9181 107.068 71.1681 107.601 71.0286 108.139L70.1681 111.584C69.9878 112.308 69.1796 112.764 68.3656 112.598C67.5516 112.438 67.04 111.724 67.2202 110.999L68.0865 107.554C68.2667 106.83 69.0749 106.374 69.8889 106.535C70.0983 106.576 70.2901 106.654 70.4529 106.762" fill="#E789F7"/>
<path d="M100.948 109.354C101.413 109.66 101.663 110.193 101.53 110.725L100.663 114.171C100.483 114.895 99.6749 115.35 98.8609 115.19C98.0469 115.03 97.5353 114.31 97.7213 113.586L98.5818 110.141C98.7679 109.416 99.5702 108.961 100.384 109.127C100.594 109.168 100.785 109.246 100.948 109.354" fill="#E789F7"/>
<path d="M122.904 92.8977C122.683 93.3737 122.153 93.7099 121.537 93.7203L117.572 93.772C116.74 93.7824 116.054 93.1926 116.043 92.4528C116.031 91.7079 116.694 91.1026 117.525 91.0871L121.496 91.0353C122.328 91.025 123.014 91.6147 123.026 92.3597C123.026 92.5511 122.985 92.7322 122.904 92.8977" fill="#E789F7"/>
<path d="M119.653 71.2473C119.886 70.7765 120.409 70.4454 121.025 70.4402L124.997 70.4092C125.828 70.404 126.508 70.999 126.514 71.7439C126.52 72.4837 125.851 73.089 125.02 73.0942L121.049 73.12C120.217 73.1252 119.537 72.5303 119.531 71.7905C119.531 71.5991 119.572 71.418 119.653 71.2473Z" fill="#19DDDD"/>
<path d="M45.1255 98.0194C44.9162 97.5383 45.0325 96.9744 45.4685 96.5864L48.2769 94.0877C48.8641 93.5652 49.8177 93.5652 50.4049 94.0928C50.9922 94.6153 50.9922 95.4638 50.4049 95.9863L47.5966 98.485C47.0094 99.0075 46.0558 99.0075 45.4628 98.485C45.3116 98.3453 45.2011 98.1901 45.1255 98.0194" fill="#FFCE6C"/>
<path d="M67.5163 59.7315C67.9872 60.0367 68.2314 60.5696 68.0977 61.1076L67.2314 64.5531C67.0512 65.2773 66.243 65.7326 65.429 65.567C64.615 65.4066 64.1091 64.6927 64.2893 63.9685L65.1557 60.523C65.3359 59.7987 66.1383 59.3435 66.9523 59.5039C67.1616 59.5453 67.3535 59.628 67.5163 59.7315" fill="#E789F7"/>
<path d="M0.00584837 140.089C0.00584837 140.084 0.00584837 140.084 0.00584837 140.084C0.00584837 140.084 0.00584837 140.084 0.00584837 140.089ZM0 139.913C0 139.913 0 139.908 0 139.903C0 139.908 0 139.913 0 139.913ZM0 139.862C0 139.856 0 139.851 0 139.851C0 139.851 0 139.856 0 139.862ZM0 139.794C0 139.794 0 139.794 0 139.789C0 139.794 0 139.794 0 139.794ZM0 139.743C0 139.737 0 139.732 0 139.727C0 139.732 0 139.737 0 139.743ZM0 139.68C0 139.68 0 139.675 0 139.67C0 139.675 0 139.675 0 139.68ZM83.8248 0.00516742H83.819H83.8248ZM83.7783 0.00516742C83.7783 0.00516742 83.7783 0.00516742 83.7725 0.00516742C83.7783 0.00516742 83.7783 0.00516742 83.7783 0.00516742ZM83.6446 1.42752e-05C83.6388 1.42752e-05 83.6387 1.42752e-05 83.6387 1.42752e-05C83.6387 1.42752e-05 83.6387 1.42752e-05 83.6329 1.42752e-05C83.6387 1.42752e-05 83.6388 1.42752e-05 83.6446 1.42752e-05ZM83.5981 1.42752e-05C83.5981 1.42752e-05 83.598 1.42752e-05 83.5922 1.42752e-05C83.598 1.42752e-05 83.5981 1.42752e-05 83.5981 1.42752e-05ZM83.5574 1.42752e-05H83.5515H83.5574ZM83.4701 1.42752e-05H83.4643H83.4585C83.4643 1.42752e-05 83.4701 1.42752e-05 83.4701 1.42752e-05ZM83.4469 1.42752e-05C83.4469 1.42752e-05 83.4469 1.42752e-05 83.4411 1.42752e-05C83.4469 1.42752e-05 83.4469 1.42752e-05 83.4469 1.42752e-05ZM83.4294 1.42752e-05H83.4236C83.4236 1.42752e-05 83.4236 1.42752e-05 83.4178 1.42752e-05C83.4236 1.42752e-05 83.4236 1.42752e-05 83.4294 1.42752e-05ZM83.412 1.42752e-05C83.4062 1.42752e-05 83.4062 1.42752e-05 83.4004 1.42752e-05C83.4062 1.42752e-05 83.4062 1.42752e-05 83.412 1.42752e-05ZM83.3248 1.42752e-05C83.319 1.42752e-05 83.319 1.42752e-05 83.3131 1.42752e-05C83.319 1.42752e-05 83.319 1.42752e-05 83.3248 1.42752e-05ZM83.3015 1.42752e-05H83.2957H83.3015ZM83.2608 1.42752e-05C83.2608 1.42752e-05 83.2608 1.42752e-05 83.255 1.42752e-05C83.2608 1.42752e-05 83.2608 1.42752e-05 83.2608 1.42752e-05ZM83.1794 1.42752e-05H83.1736H83.1794ZM83.162 1.42752e-05C83.1562 1.42752e-05 83.1562 1.42752e-05 83.1504 1.42752e-05C83.1562 1.42752e-05 83.1562 1.42752e-05 83.162 1.42752e-05ZM83.1445 1.42752e-05C83.1387 1.42752e-05 83.1329 1.42752e-05 83.1329 1.42752e-05C83.1329 1.42752e-05 83.1387 1.42752e-05 83.1445 1.42752e-05ZM83.1213 1.42752e-05C83.1213 1.42752e-05 83.1213 1.42752e-05 83.1154 1.42752e-05C83.1213 1.42752e-05 83.1213 1.42752e-05 83.1213 1.42752e-05Z" fill="#F4FCFE"/>
<path d="M6.27365 150.798C5.23871 148.413 4.66893 145.816 4.66893 143.105V23.2077C4.66893 11.3969 56.6662 3.96798 69.9403 3.96798L87.7087 3.48172C93.5289 3.48172 113.152 4.94576 132.02 7.66177C127.182 11.459 116.1 19.726 101.837 32.2921C97.7791 31.4075 93.5579 30.8953 89.2205 30.797C89.1856 30.797 89.1566 30.797 89.1217 30.797C89.1159 30.797 89.1158 30.797 89.1158 30.797C89.0809 30.797 89.046 30.797 89.017 30.7918C89.0111 30.7918 89.0112 30.7918 89.0112 30.7918C88.9763 30.7918 88.9414 30.7918 88.9123 30.7918C88.9065 30.7918 88.9065 30.7918 88.9065 30.7918C88.767 30.7918 88.6274 30.7867 88.4937 30.7867C88.482 30.7867 88.4704 30.7867 88.4646 30.7867C88.4355 30.7867 88.4123 30.7867 88.389 30.7867C88.3774 30.7867 88.3658 30.7867 88.36 30.7867C88.3367 30.7867 88.3134 30.7867 88.2902 30.7867C88.2785 30.7867 88.2669 30.7867 88.2553 30.7867C88.2262 30.7815 88.2088 30.7815 88.1855 30.7815C88.1739 30.7815 88.1623 30.7815 88.1507 30.7815C88.1274 30.7815 88.1041 30.7815 88.0867 30.7815C88.075 30.7815 88.0576 30.7815 88.046 30.7815C88.0286 30.7815 88.0053 30.7815 87.982 30.7815C87.9704 30.7815 87.9588 30.7815 87.9472 30.7815C87.9239 30.7815 87.9006 30.7815 87.8774 30.7815C87.8658 30.7815 87.8541 30.7815 87.8425 30.7815C87.8134 30.7815 87.7786 30.7815 87.7437 30.7815C86.2494 30.7815 84.7726 30.8332 83.3074 30.9263C52.8521 32.9491 28.8506 55.5722 28.8506 83.1823C28.8506 84.7343 28.9262 86.2657 29.0774 87.7815C29.0774 87.7866 29.0774 87.797 29.0774 87.8022C29.0774 87.8177 29.0831 87.8332 29.0831 87.8487C29.0831 87.8642 29.0832 87.8746 29.089 87.8901C29.089 87.8953 29.089 87.9056 29.089 87.9108C29.7286 94.2482 31.6298 100.265 34.5777 105.749C24.6468 119.432 15.0126 134.461 6.27365 150.798M0.00584837 140.032V140.027V140.032ZM0 139.686C0 139.686 0 139.686 0 139.681V139.686ZM134.665 5.30275C130.287 4.57848 125.758 3.92659 121.269 3.34718C125.758 3.92659 130.287 4.57848 134.665 5.30275ZM121.182 3.33167C121.17 3.33167 121.158 3.33167 121.147 3.33167C121.158 3.33167 121.17 3.33167 121.182 3.33167ZM121.118 3.32651C121.106 3.32651 121.094 3.32131 121.083 3.32131C121.094 3.32131 121.106 3.32651 121.118 3.32651ZM121.06 3.31616C121.054 3.31616 121.048 3.31616 121.042 3.31616C121.048 3.31616 121.054 3.31616 121.06 3.31616ZM85.04 0.0362335C85.0342 0.0362335 85.0284 0.0362335 85.0284 0.0362335C85.0284 0.0362335 85.0342 0.0362335 85.04 0.0362335ZM84.3074 0.0155704C84.3016 0.0155704 84.2958 0.0155704 84.2899 0.0155704C84.2958 0.0155704 84.3016 0.0155704 84.3074 0.0155704ZM84.2783 0.0155704C84.2783 0.0155704 84.2783 0.0155704 84.2725 0.0155704C84.2783 0.0155704 84.2783 0.0155704 84.2783 0.0155704ZM84.2551 0.0155704H84.2492H84.2551ZM84.1562 0.0103667C84.1504 0.0103667 84.1504 0.0103667 84.1504 0.0103667C84.1504 0.0103667 84.1504 0.0103667 84.1562 0.0103667ZM84.1097 0.0103667C84.1039 0.0103667 84.1039 0.0103667 84.1039 0.0103667H84.1097ZM84.0109 0.0103667C84.0051 0.0103667 84.0051 0.0103667 84.0051 0.0103667H84.0109ZM83.9876 0.0103667C83.9818 0.0103667 83.9818 0.0103869 83.9818 0.0052136L83.9876 0.0103667ZM83.9644 0.0052136C83.9527 0.0052136 83.9411 0.0052136 83.9294 0.0052136C83.9411 0.0052136 83.9527 0.0052136 83.9644 0.0052136ZM83.9179 0.0052136H83.912H83.9179ZM83.8713 0.0052136H83.8655H83.8713ZM83.819 0.0052136C83.819 0.0052136 83.819 0.0052136 83.8132 0.0052136H83.819ZM83.7841 0.0052136C83.7783 0.0052136 83.7725 0.0052136 83.7667 0.0052136C83.7725 0.0052136 83.7725 0.0052136 83.7725 0.0052136C83.7783 0.0052136 83.7783 0.0052136 83.7783 0.0052136C83.7783 0.0052136 83.7783 0.0052136 83.7841 0.0052136M83.755 0.0052136C83.755 0.0052136 83.755 0.0052136 83.7492 0.0052136C83.755 0.0052136 83.755 0.0052136 83.755 0.0052136ZM83.6387 6.04532e-05C83.6329 6.04532e-05 83.633 6.04532e-05 83.6272 6.04532e-05C83.633 6.04532e-05 83.6329 6.04532e-05 83.6329 6.04532e-05C83.6388 6.04532e-05 83.6387 6.04532e-05 83.6387 6.04532e-05ZM83.6272 6.04532e-05C83.6213 6.04532e-05 83.6155 6.04532e-05 83.6097 6.04532e-05C83.6155 6.04532e-05 83.6213 6.04532e-05 83.6272 6.04532e-05ZM83.6039 6.04532e-05C83.5981 6.04532e-05 83.5923 6.04532e-05 83.5864 6.04532e-05C83.5923 6.04532e-05 83.5922 6.04532e-05 83.5922 6.04532e-05C83.598 6.04532e-05 83.5981 6.04532e-05 83.5981 6.04532e-05C83.6039 6.04532e-05 83.6039 6.04532e-05 83.6039 6.04532e-05M83.5806 6.04532e-05H83.5748H83.5806ZM83.5574 6.04532e-05H83.5515H83.5574ZM83.4702 6.04532e-05H83.4643H83.4702ZM83.4294 6.04532e-05C83.4294 6.04532e-05 83.4295 6.04532e-05 83.4237 6.04532e-05H83.4294Z" fill="#E9F9FE"/>
<path d="M5.17473 152.867C2.04082 149.339 0.122134 144.911 0.00584837 140.089C0.00584837 140.084 0.00584837 140.084 0.00584837 140.084C0.00584837 140.069 0.00584837 140.048 0.00584837 140.032V140.027C3.40681e-05 139.991 0 139.955 0 139.913C0 139.913 0 139.908 0 139.903C0 139.887 0 139.877 0 139.862C0 139.856 0 139.851 0 139.851C0 139.831 0 139.815 0 139.794C0 139.794 0 139.794 0 139.789C0 139.774 0 139.758 0 139.743C0 139.737 0 139.732 0 139.727C0 139.712 0 139.701 0 139.686V139.681C0 139.675 0 139.675 0 139.67C0 139.655 0 139.634 0 139.618V19.7208C0 7.91005 51.9973 0.481146 65.2655 0.481146L83.0399 3.40267e-05C83.0689 3.40267e-05 83.0922 3.40267e-05 83.1154 3.40267e-05C83.1213 3.40267e-05 83.1213 3.40267e-05 83.1213 3.40267e-05C83.1271 3.40267e-05 83.1271 3.40267e-05 83.1329 3.40267e-05C83.1329 3.40267e-05 83.1387 3.40267e-05 83.1445 3.40267e-05H83.1504C83.1562 3.40267e-05 83.1562 3.40267e-05 83.162 3.40267e-05C83.162 3.40267e-05 83.1678 3.40267e-05 83.1736 3.40267e-05H83.1794C83.1911 3.40267e-05 83.2027 3.40267e-05 83.2201 3.40267e-05C83.2318 3.40267e-05 83.2434 3.40267e-05 83.255 3.40267e-05C83.2608 3.40267e-05 83.2608 3.40267e-05 83.2608 3.40267e-05C83.2724 3.40267e-05 83.2841 3.40267e-05 83.2957 3.40267e-05H83.3015C83.3073 3.40267e-05 83.3132 3.40267e-05 83.3132 3.40267e-05C83.319 3.40267e-05 83.319 3.40267e-05 83.3248 3.40267e-05C83.3422 3.40267e-05 83.3655 3.40267e-05 83.3829 3.40267e-05C83.3888 3.40267e-05 83.3946 3.40267e-05 83.4004 3.40267e-05C83.4062 3.40267e-05 83.4062 3.40267e-05 83.412 3.40267e-05H83.4178C83.4236 3.40267e-05 83.4237 3.40267e-05 83.4237 3.40267e-05C83.4295 3.40267e-05 83.4294 3.40267e-05 83.4294 3.40267e-05C83.4353 3.40267e-05 83.4411 3.40267e-05 83.4411 3.40267e-05C83.4469 3.40267e-05 83.4469 3.40267e-05 83.4469 3.40267e-05C83.4527 3.40267e-05 83.4585 3.40267e-05 83.4585 3.40267e-05H83.4643H83.4702C83.4992 3.40267e-05 83.5283 3.40267e-05 83.5515 3.40267e-05H83.5574C83.5632 3.40267e-05 83.569 3.40267e-05 83.5748 3.40267e-05H83.5806H83.5864C83.5923 3.40267e-05 83.5981 3.40267e-05 83.6039 3.40267e-05H83.6097C83.6155 3.40267e-05 83.6213 3.40267e-05 83.6272 3.40267e-05C83.633 3.40267e-05 83.6329 3.40267e-05 83.6387 3.40267e-05C83.6387 3.40267e-05 83.6388 3.40267e-05 83.6446 3.40267e-05C83.6795 3.40267e-05 83.7143 0.00518717 83.7492 0.00518717C83.755 0.00518717 83.755 0.00518717 83.755 0.00518717C83.7608 0.00518717 83.7667 0.00518717 83.7667 0.00518717C83.7725 0.00518717 83.7783 0.00518717 83.7841 0.00518717C83.7899 0.00518717 83.8015 0.00518717 83.8132 0.00518717C83.819 0.00518717 83.819 0.00518717 83.819 0.00518717H83.8248C83.8422 0.00518717 83.8539 0.00518717 83.8655 0.00518717H83.8713C83.8829 0.00518717 83.9004 0.00518717 83.912 0.00518717H83.9179C83.9237 0.00518717 83.9294 0.00518717 83.9294 0.00518717C83.9411 0.00518717 83.9527 0.00518717 83.9644 0.00518717C83.9702 0.00518717 83.976 0.00518717 83.9818 0.00518717C83.9818 0.0103605 83.9818 0.0103403 83.9876 0.0103403C83.9934 0.0103403 83.9993 0.0103403 84.0051 0.0103403C84.0051 0.0103403 84.0051 0.0103403 84.0109 0.0103403C84.0399 0.0103403 84.069 0.0103403 84.1039 0.0103403C84.1039 0.0103403 84.1039 0.0103403 84.1097 0.0103403C84.1155 0.0103403 84.1213 0.0103403 84.1272 0.0103403C84.1388 0.0103403 84.1446 0.0103403 84.1504 0.0103403C84.1504 0.0103403 84.1504 0.0103403 84.1562 0.0103403C84.1853 0.0103403 84.2143 0.0103706 84.2492 0.015544H84.2551C84.2609 0.015544 84.2667 0.015544 84.2725 0.015544C84.2783 0.015544 84.2783 0.015544 84.2783 0.015544C84.2841 0.015544 84.2841 0.015544 84.2899 0.015544C84.2958 0.015544 84.3016 0.015544 84.3074 0.015544C84.4179 0.015544 84.5341 0.0207274 84.6562 0.0259008C84.7783 0.0259008 84.9005 0.0310337 85.0284 0.0362071C85.0284 0.0362071 85.0342 0.0362071 85.04 0.0362071C91.6218 0.253488 106.059 1.3813 121.042 3.31613C121.048 3.31613 121.054 3.31613 121.06 3.31613C121.071 3.32131 121.077 3.32129 121.083 3.32129C121.094 3.32129 121.106 3.32649 121.118 3.32649C121.129 3.32649 121.135 3.32647 121.147 3.33164C121.158 3.33164 121.17 3.33164 121.182 3.33164C121.211 3.33682 121.24 3.34198 121.269 3.34715C125.758 3.92657 130.287 4.57845 134.665 5.30272C134.7 5.49413 133.77 6.28564 132.02 7.66175C113.152 4.94574 93.5289 3.48169 87.7087 3.48169L69.9403 3.96795C56.6662 3.96795 4.66893 11.3969 4.66893 23.2077V143.105C4.66893 145.816 5.23871 148.413 6.27365 150.798C5.90735 151.486 5.54103 152.174 5.17473 152.867" fill="#F0FBFE"/>
<path d="M34.5784 105.748C31.6306 100.265 29.7293 94.2481 29.0898 87.9108C29.7293 94.2481 31.6364 100.26 34.5843 105.743C34.5785 105.748 34.5842 105.743 34.5784 105.748ZM35.5436 104.429C33.1481 98.7231 31.8399 92.5512 31.8399 86.1053C31.8399 57.1655 58.2077 33.7044 90.7329 33.7044C93.7389 33.7044 96.6926 33.9061 99.5765 34.2941C96.8787 36.6997 94.082 39.2502 91.1981 41.9507C88.2793 41.0764 84.8257 40.259 81.622 40.259C80.3719 40.259 79.1625 40.3832 78.0345 40.6781C71.1097 42.4629 68.6561 46.8085 68.6561 46.8085C51.0155 48.5674 48.8467 62.8562 48.8467 62.8562C38.6427 71.1232 43.2185 67.4812 40.2881 84.1963C40.2823 84.217 40.2823 84.2325 40.2764 84.2532C40.2764 84.2584 40.2764 84.2584 40.2764 84.2636C40.2706 84.2791 40.2707 84.2894 40.2707 84.3049C40.2707 84.3101 40.2648 84.3153 40.2648 84.3204C40.2648 84.3308 40.2648 84.3463 40.259 84.3567C40.259 84.3618 40.259 84.367 40.259 84.3722C40.2532 84.3877 40.2532 84.3981 40.2532 84.4136C40.2474 84.4188 40.2474 84.4239 40.2474 84.4291C40.2474 84.4394 40.2416 84.455 40.2416 84.4653C40.2416 84.4705 40.2416 84.4757 40.2416 84.4808C40.2358 84.4963 40.2358 84.5067 40.2299 84.5222C40.2299 84.5274 40.2299 84.5274 40.2299 84.5326C40.2241 84.5843 40.2125 84.6412 40.2067 84.6929V84.6981C40.2008 84.7136 40.2009 84.7291 40.1951 84.7447C40.1951 84.7498 40.1951 84.7499 40.1951 84.755C40.1951 84.7705 40.1892 84.7861 40.1892 84.7964C40.1892 84.8016 40.1892 84.8068 40.1892 84.8068C40.1834 84.8223 40.1834 84.8378 40.1776 84.8533C40.1776 84.8585 40.1776 84.8585 40.1776 84.8585C40.1776 84.8792 40.1718 84.8947 40.1718 84.9102C40.1718 84.9102 40.1718 84.9102 40.1718 84.9154C40.1544 85.0188 40.1427 85.1275 40.1253 85.2361C40.1253 85.2361 40.1253 85.2361 40.1253 85.2413C40.1195 85.2724 40.1137 85.3086 40.1079 85.3448C39.5148 89.8559 40.1835 93.5704 41.4452 96.5658C39.4683 99.1369 37.5031 101.749 35.5436 104.429M29.0898 87.8901C29.084 87.8745 29.0839 87.8642 29.0839 87.8487C29.0839 87.8642 29.084 87.8745 29.0898 87.8901ZM29.0781 87.8021C29.0781 87.797 29.0781 87.7866 29.0781 87.7814C29.0781 87.7866 29.0781 87.797 29.0781 87.8021ZM101.838 32.2921C97.7799 31.4074 93.5587 30.8953 89.2212 30.797C93.5587 30.8953 97.7799 31.4074 101.838 32.2921C101.838 32.2921 101.832 32.2921 101.838 32.2921ZM83.3081 30.9263C84.7733 30.8332 86.2501 30.7814 87.7444 30.7814C87.7793 30.7814 87.8142 30.7814 87.8433 30.7814C87.8142 30.7814 87.7793 30.7814 87.7444 30.7814C86.2501 30.7814 84.7733 30.8332 83.3081 30.9263ZM89.2212 30.797C89.1863 30.797 89.1573 30.797 89.1224 30.797C89.1573 30.797 89.1863 30.797 89.2212 30.797ZM89.1166 30.797C89.0817 30.797 89.0468 30.797 89.0177 30.7918C89.0468 30.797 89.0817 30.797 89.1166 30.797ZM89.0119 30.7918C88.977 30.7918 88.948 30.7918 88.9131 30.7918C88.9421 30.7918 88.977 30.7918 89.0119 30.7918ZM88.9073 30.7918C88.7677 30.7918 88.6282 30.7866 88.4944 30.7866C88.6282 30.7866 88.7677 30.7918 88.9073 30.7918ZM88.4654 30.7866C88.4363 30.7866 88.413 30.7866 88.3898 30.7866C88.413 30.7866 88.4363 30.7866 88.4654 30.7866ZM88.3607 30.7866C88.3375 30.7866 88.3142 30.7866 88.2909 30.7866C88.3142 30.7866 88.3375 30.7866 88.3607 30.7866ZM88.2561 30.7866C88.2328 30.7866 88.2095 30.7814 88.1863 30.7814C88.2095 30.7814 88.227 30.7814 88.2561 30.7866ZM88.1514 30.7814C88.1282 30.7814 88.1049 30.7814 88.0874 30.7814C88.1049 30.7814 88.1282 30.7814 88.1514 30.7814ZM88.0468 30.7814C88.0293 30.7814 88.006 30.7814 87.9828 30.7814C88.006 30.7814 88.0293 30.7814 88.0468 30.7814ZM87.9479 30.7814C87.9247 30.7814 87.9014 30.7814 87.8781 30.7814C87.9014 30.7814 87.9247 30.7814 87.9479 30.7814Z" fill="#DBB491"/>
<path d="M34.5845 105.743C31.6366 100.259 29.7296 94.2481 29.09 87.9107C29.09 87.9055 29.09 87.8952 29.09 87.89C29.0842 87.8745 29.0841 87.8641 29.0841 87.8486C29.0841 87.8331 29.0783 87.8176 29.0783 87.8021C29.0783 87.7969 29.0783 87.7865 29.0783 87.7814C28.9272 86.2656 28.8516 84.7342 28.8516 83.1822C28.8516 55.5721 52.853 32.949 83.3083 30.9262C84.7735 30.8331 86.2504 30.7814 87.7446 30.7814C87.7795 30.7814 87.8144 30.7814 87.8435 30.7814C87.8551 30.7814 87.8667 30.7814 87.8784 30.7814C87.9016 30.7814 87.9249 30.7814 87.9481 30.7814C87.9598 30.7814 87.9714 30.7814 87.983 30.7814C88.0063 30.7814 88.0296 30.7814 88.047 30.7814C88.0586 30.7814 88.076 30.7814 88.0877 30.7814C88.1051 30.7814 88.1284 30.7814 88.1516 30.7814C88.1633 30.7814 88.1749 30.7814 88.1865 30.7814C88.2098 30.7814 88.233 30.7865 88.2563 30.7865C88.2679 30.7865 88.2795 30.7865 88.2912 30.7865C88.3144 30.7865 88.3377 30.7865 88.3609 30.7865C88.3668 30.7865 88.3784 30.7865 88.39 30.7865C88.4133 30.7865 88.4365 30.7865 88.4656 30.7865C88.4714 30.7865 88.483 30.7865 88.4947 30.7865C88.6284 30.7865 88.768 30.7917 88.9075 30.7917C88.9075 30.7917 88.9075 30.7917 88.9133 30.7917C88.9482 30.7917 88.9773 30.7917 89.0122 30.7917C89.0122 30.7917 89.0121 30.7917 89.0179 30.7917C89.047 30.7969 89.0819 30.7969 89.1168 30.7969C89.1168 30.7969 89.1168 30.7969 89.1226 30.7969C89.1575 30.7969 89.1866 30.7969 89.2214 30.7969C93.5589 30.8952 97.7801 31.4074 101.838 32.292C101.094 32.949 100.338 33.6164 99.5767 34.2941C96.6929 33.9061 93.7392 33.7043 90.7332 33.7043C58.208 33.7043 31.8401 57.1655 31.8401 86.1052C31.8401 92.5512 33.1484 98.723 35.5439 104.429C35.2299 104.864 34.9043 105.309 34.5845 105.743" fill="#EEC5A2"/>
<path d="M41.4456 96.5659C40.1839 93.5705 39.5153 89.856 40.1083 85.3449C39.5153 89.856 40.1839 93.5705 41.4456 96.5659ZM42.5038 95.1949C42.0328 92.7376 41.9689 89.9336 42.5271 86.7417C45.4575 70.0214 40.8874 73.6634 51.0857 65.3964C51.0857 65.3964 53.2544 51.1128 70.9009 49.3487C70.9009 49.3487 73.3545 45.0082 80.2735 43.2183C81.4015 42.9285 82.6109 42.8044 83.861 42.8044C85.7273 42.8044 87.6809 43.0786 89.5648 43.4873C82.6574 50.0057 75.2965 57.3519 67.7437 65.4947C67.767 65.4378 67.7844 65.3757 67.8018 65.3136L68.6681 61.8682C68.8019 61.3302 68.5577 60.8025 68.0926 60.4921C68.0053 60.192 67.8018 59.9178 67.5169 59.7316C67.3541 59.6281 67.1622 59.5454 66.9529 59.504C66.8424 59.4833 66.732 59.4729 66.6215 59.4729C65.9355 59.4729 65.3133 59.8971 65.1563 60.5231L64.29 63.9686C64.1563 64.5014 64.4005 65.0343 64.8656 65.3395C64.9993 65.8206 65.4238 66.2138 65.9994 66.3276C66.1099 66.3535 66.2204 66.3638 66.3308 66.3638C66.6157 66.3638 66.889 66.2914 67.1216 66.1621C62.9062 70.725 58.6269 75.5414 54.3417 80.6009C54.2545 80.4923 54.144 80.394 54.0219 80.3164C53.8766 79.7783 53.3649 79.3593 52.7079 79.3024C52.6555 79.2972 52.6032 79.292 52.5567 79.292C51.7892 79.292 51.1381 79.8094 51.0567 80.4974L50.6554 84.0101C50.6206 84.2947 50.6903 84.5637 50.8299 84.7965C48.0506 88.1592 45.2714 91.6253 42.5038 95.1949M55.0394 70.0214C55.115 70.2852 55.2778 70.5336 55.5337 70.725L58.5687 72.9961C58.8536 73.2082 59.1966 73.3116 59.5397 73.3116C59.7723 73.3116 59.999 73.2651 60.2083 73.172C60.3886 73.0944 60.5572 72.9806 60.6968 72.8305C61.2317 72.2666 61.1503 71.4182 60.5107 70.9423L60.4351 70.8853C60.3595 70.6163 60.1967 70.368 59.9409 70.1818L56.9058 67.9107C56.6209 67.6986 56.2779 67.5951 55.9348 67.5951C55.5046 67.5951 55.0801 67.7555 54.7778 68.0711C54.2429 68.6401 54.3243 69.4834 54.9639 69.9593L55.0394 70.0214M69.738 55.3343C69.8194 55.624 70.0171 55.8878 70.2846 56.074C70.4474 56.1878 70.6334 56.2706 70.8427 56.3172C70.9648 56.3431 71.0869 56.3534 71.2032 56.3534C71.8835 56.3534 72.4998 55.9447 72.6684 55.3343L73.6219 51.9043C73.7731 51.3611 73.5289 50.8179 73.0521 50.5023C72.9242 50.0367 72.5114 49.6436 71.9474 49.5194C71.8253 49.4935 71.7032 49.4832 71.5869 49.4832C70.9067 49.4832 70.2903 49.8919 70.1217 50.5023L69.174 53.9323C69.0228 54.4651 69.2554 54.998 69.7147 55.3136C69.7263 55.3187 69.7322 55.3239 69.738 55.3343M40.1083 85.3449C40.1141 85.3087 40.1199 85.2724 40.1258 85.2414C40.1199 85.2724 40.1141 85.3087 40.1083 85.3449ZM40.1258 85.2362C40.1432 85.1276 40.1548 85.0189 40.1723 84.9155C40.1548 85.0189 40.1432 85.1276 40.1258 85.2362ZM40.1723 84.9103C40.1723 84.8948 40.1781 84.8793 40.1781 84.8586C40.1781 84.8793 40.1723 84.8948 40.1723 84.9103ZM40.1781 84.8534C40.1839 84.8379 40.1839 84.8224 40.1897 84.8068C40.1839 84.8224 40.1839 84.8379 40.1781 84.8534ZM40.1897 84.7965C40.1897 84.7861 40.1955 84.7706 40.1955 84.7551C40.1955 84.7706 40.1897 84.7861 40.1897 84.7965ZM40.1955 84.7448C40.2014 84.7292 40.2013 84.7137 40.2071 84.6982C40.2013 84.7137 40.2014 84.7292 40.1955 84.7448ZM40.2071 84.693C40.2129 84.6413 40.2246 84.5844 40.2304 84.5326C40.2246 84.5844 40.2129 84.6413 40.2071 84.693ZM40.2304 84.5223C40.2362 84.5068 40.2362 84.4964 40.242 84.4809C40.2362 84.4964 40.2362 84.5068 40.2304 84.5223ZM40.242 84.4654C40.242 84.455 40.2478 84.4395 40.2478 84.4292C40.2478 84.4395 40.242 84.4499 40.242 84.4654ZM40.2537 84.4137C40.2537 84.3981 40.2537 84.3878 40.2595 84.3723C40.2537 84.3878 40.2537 84.3981 40.2537 84.4137ZM40.2595 84.3567C40.2653 84.3464 40.2653 84.3309 40.2653 84.3205C40.2653 84.3309 40.2653 84.3464 40.2595 84.3567ZM40.2711 84.305C40.2711 84.2895 40.2711 84.2792 40.2769 84.2636C40.2769 84.2792 40.2711 84.2895 40.2711 84.305ZM40.2769 84.2533C40.2827 84.2326 40.2827 84.2171 40.2886 84.1964C43.219 67.4813 38.6431 71.1233 48.8472 62.8563C48.8472 62.8563 51.016 48.5675 68.6566 46.8086C68.6566 46.8086 71.1102 42.463 78.035 40.6782C79.163 40.3833 80.3724 40.2591 81.6224 40.2591C84.8261 40.2591 88.2798 41.0765 91.1986 41.9508C88.2798 41.0765 84.8261 40.2591 81.6224 40.2591C80.3724 40.2591 79.163 40.3833 78.035 40.6782C71.1102 42.463 68.6566 46.8086 68.6566 46.8086C51.016 48.5675 48.8472 62.8563 48.8472 62.8563C38.6431 71.1233 43.219 67.4813 40.2886 84.1964C40.2827 84.2171 40.2827 84.2326 40.2769 84.2533Z" fill="#E5ABCB"/>
<path d="M41.4456 96.5659C40.1839 93.5705 39.5153 89.856 40.1083 85.3449C40.1141 85.3087 40.1199 85.2724 40.1258 85.2414C40.1258 85.2362 40.1258 85.2362 40.1258 85.2362C40.1432 85.1276 40.1548 85.0189 40.1723 84.9155C40.1723 84.9103 40.1723 84.9103 40.1723 84.9103C40.1723 84.8948 40.1781 84.8793 40.1781 84.8586C40.1781 84.8586 40.1781 84.8586 40.1781 84.8534C40.1839 84.8379 40.1839 84.8224 40.1897 84.8068C40.1897 84.8068 40.1897 84.8017 40.1897 84.7965C40.1897 84.7861 40.1955 84.7706 40.1955 84.7551C40.1955 84.7499 40.1955 84.7499 40.1955 84.7448C40.2014 84.7292 40.2013 84.7137 40.2071 84.6982V84.693C40.2129 84.6413 40.2246 84.5844 40.2304 84.5326C40.2304 84.5275 40.2304 84.5275 40.2304 84.5223C40.2362 84.5068 40.2362 84.4964 40.242 84.4809C40.242 84.4757 40.242 84.4706 40.242 84.4654C40.242 84.4499 40.2478 84.4395 40.2478 84.4292C40.2478 84.424 40.2479 84.4188 40.2537 84.4137C40.2537 84.3981 40.2537 84.3878 40.2595 84.3723C40.2595 84.3671 40.2595 84.3619 40.2595 84.3567C40.2653 84.3464 40.2653 84.3309 40.2653 84.3205C40.2653 84.3154 40.2711 84.3102 40.2711 84.305C40.2711 84.2895 40.2769 84.2792 40.2769 84.2636C40.2769 84.2585 40.2769 84.2585 40.2769 84.2533C40.2827 84.2326 40.2827 84.2171 40.2886 84.1964C43.219 67.4813 38.6431 71.1233 48.8472 62.8563C48.8472 62.8563 51.016 48.5675 68.6566 46.8086C68.6566 46.8086 71.1102 42.463 78.035 40.6782C79.163 40.3833 80.3724 40.2591 81.6224 40.2591C84.8261 40.2591 88.2798 41.0765 91.1986 41.9508C90.6578 42.4578 90.1113 42.9699 89.5648 43.4873C87.6809 43.0786 85.7273 42.8044 83.861 42.8044C82.6109 42.8044 81.4015 42.9285 80.2735 43.2183C73.3545 45.0082 70.9009 49.3487 70.9009 49.3487C53.2544 51.1128 51.0857 65.3964 51.0857 65.3964C40.8874 73.6634 45.4575 70.0214 42.5271 86.7417C41.9689 89.9336 42.0328 92.7376 42.5038 95.1949C42.1549 95.6502 41.8003 96.1054 41.4456 96.5659" fill="#EBC5DF"/>
<path d="M59.5388 73.3115C59.1958 73.3115 58.8528 73.208 58.5679 72.9959L55.5328 70.7248C55.277 70.5334 55.1142 70.285 55.0386 70.0212L57.998 72.2354C58.2829 72.4475 58.626 72.551 58.969 72.551C59.2016 72.551 59.4283 72.5044 59.6377 72.4113C59.8179 72.3337 59.9865 72.2199 60.1261 72.0699C60.4459 71.7284 60.5447 71.2835 60.4342 70.8852L60.5098 70.9421C61.1494 71.418 61.2308 72.2665 60.6959 72.8304C60.5563 72.9804 60.3877 73.0942 60.2075 73.1718C59.9981 73.2649 59.7714 73.3115 59.5388 73.3115" fill="#C99BB9"/>
<path d="M71.203 56.3532C71.0867 56.3532 70.9646 56.3429 70.8425 56.317C70.6332 56.2704 70.4472 56.1876 70.2844 56.0738C70.0169 55.8876 69.8192 55.6238 69.7378 55.3341C69.8948 55.4323 70.075 55.5099 70.2727 55.5565C70.3948 55.5824 70.5169 55.5927 70.6332 55.5927C71.3135 55.5927 71.9298 55.184 72.0984 54.5736L73.0519 51.1436C73.1101 50.9264 73.1101 50.7091 73.0519 50.5021C73.5287 50.8177 73.7729 51.3609 73.6217 51.9041L72.6682 55.3341C72.4996 55.9445 71.8833 56.3532 71.203 56.3532" fill="#C99BB9"/>
<path d="M54.0326 80.9628L54.0559 80.7714C54.0733 80.6162 54.0617 80.461 54.021 80.3162C54.1431 80.3938 54.2536 80.4921 54.3408 80.6007C54.2361 80.7197 54.1373 80.8438 54.0326 80.9628Z" fill="#C99BB9"/>
<path d="M66.3304 66.364C66.22 66.364 66.1095 66.3536 65.999 66.3277C65.4234 66.2139 64.999 65.8207 64.8652 65.3396C65.028 65.4483 65.2199 65.5258 65.4292 65.5672C65.5397 65.5931 65.6501 65.6035 65.7606 65.6035C66.4525 65.6035 67.0747 65.1793 67.2317 64.5533L68.098 61.1078C68.1503 60.8957 68.1445 60.6888 68.0922 60.4922C68.5573 60.8026 68.8015 61.3303 68.6678 61.8683L67.8015 65.3137C67.784 65.3758 67.7666 65.4379 67.7433 65.4948C67.534 65.7173 67.3305 65.9345 67.1212 66.1622C66.8886 66.2915 66.6154 66.364 66.3304 66.364" fill="#C99BB9"/>
<path d="M58.969 72.5511C58.626 72.5511 58.2829 72.4476 57.998 72.2355L55.0386 70.0213L54.963 69.9593C54.3234 69.4833 54.242 68.6401 54.7769 68.071C55.0793 67.7554 55.5037 67.595 55.9339 67.595C56.277 67.595 56.62 67.6985 56.9049 67.9106L59.94 70.1817C60.1958 70.3679 60.3586 70.6163 60.4342 70.8853C60.5447 71.2836 60.4459 71.7285 60.1261 72.07C59.9865 72.22 59.8179 72.3338 59.6377 72.4114C59.4283 72.5045 59.2016 72.5511 58.969 72.5511" fill="#F4E4B5"/>
<path d="M70.6328 55.5927C70.5165 55.5927 70.3944 55.5824 70.2723 55.5565C70.0746 55.5099 69.8944 55.4323 69.7374 55.334C69.7316 55.3237 69.7257 55.3185 69.7141 55.3134C69.2548 54.9978 69.0222 54.4649 69.1734 53.9321L70.1211 50.5021C70.2897 49.8917 70.906 49.483 71.5863 49.483C71.7026 49.483 71.8247 49.4933 71.9468 49.5192C72.5108 49.6434 72.9236 50.0365 73.0515 50.5021C73.1097 50.7091 73.1097 50.9263 73.0515 51.1436L72.098 54.5736C71.9294 55.184 71.3131 55.5927 70.6328 55.5927Z" fill="#F4E4B5"/>
<path d="M50.8288 84.7963C50.6893 84.5635 50.6195 84.2945 50.6544 84.01L51.0556 80.4973C51.137 79.8092 51.7882 79.2919 52.5557 79.2919C52.6022 79.2919 52.6545 79.297 52.7068 79.3022C53.3639 79.3591 53.8755 79.7782 54.0209 80.3162C54.0616 80.4611 54.0732 80.6163 54.0558 80.7715L54.0325 80.9629C52.9685 82.2252 51.8987 83.503 50.8288 84.7963" fill="#E8C1FB"/>
<path d="M65.7603 65.6032C65.6499 65.6032 65.5394 65.5929 65.429 65.567C65.2197 65.5256 65.0278 65.448 64.865 65.3394C64.3998 65.0341 64.1556 64.5013 64.2893 63.9684L65.1557 60.523C65.3127 59.897 65.9348 59.4728 66.6209 59.4728C66.7314 59.4728 66.8418 59.4831 66.9523 59.5038C67.1616 59.5452 67.3535 59.628 67.5163 59.7315C67.8012 59.9177 68.0047 60.1919 68.0919 60.4919C68.1442 60.6885 68.15 60.8955 68.0977 61.1076L67.2314 64.553C67.0744 65.179 66.4522 65.6032 65.7603 65.6032" fill="#E8C1FB"/>
</svg>
