<svg width="142" height="177" viewBox="0 0 142 177" fill="none" xmlns="http://www.w3.org/2000/svg">
<path d="M134.166 -1.889e-05L130.456 5.58425L126.74 -1.889e-05L123.03 5.58904L119.309 -1.889e-05L115.594 5.58904L111.878 -1.889e-05L108.163 5.58904L104.448 -1.889e-05L100.732 5.58904L97.0167 -1.889e-05L93.2957 5.58904L89.5857 -1.889e-05L85.8648 5.58904L82.1548 -1.889e-05L78.4339 5.58904L74.7184 -1.889e-05L71.003 5.58904L67.2875 -1.889e-05L63.5721 5.58904L59.8566 -1.889e-05L56.1411 5.58904L52.4202 -1.889e-05L48.7102 5.58904L44.9893 -1.889e-05L41.2793 5.58904L37.5584 -1.889e-05L33.8429 5.58904L30.1274 -1.889e-05L26.412 5.58904L22.6966 -1.889e-05L18.9811 5.58904L15.2656 -1.889e-05L11.5447 5.58904L7.83476 -1.889e-05L4.11377 5.58904V19.4067H137.881V5.58904L134.166 -1.889e-05Z" fill="#156D15"/>
<path d="M134.166 -3.21282e-05L130.456 5.58423L126.74 -3.21282e-05L123.03 5.58903L119.309 -3.21282e-05L115.594 5.58903L111.878 -3.21282e-05L108.163 5.58903L104.448 -3.21282e-05L100.732 5.58903L97.0167 -3.21282e-05L93.2957 5.58903L89.5857 -3.21282e-05L85.8648 5.58903L82.1548 -3.21282e-05L78.4339 5.58903L74.7184 -3.21282e-05L71.003 5.58903L67.2875 -3.21282e-05L63.5721 5.58903L59.8566 -3.21282e-05L56.1411 5.58903L52.4202 -3.21282e-05L48.7102 5.58903L44.9893 -3.21282e-05L41.2793 5.58903L37.5584 -3.21282e-05L33.8429 5.58903L30.1274 -3.21282e-05L26.412 5.58903L22.6966 -3.21282e-05L18.9811 5.58903L15.2656 -3.21282e-05L11.5447 5.58903L7.83476 -3.21282e-05L4.11377 5.58903V7.66168L7.83476 2.07262L11.5447 7.66168L15.2656 2.07262L18.9811 7.66168L22.6966 2.07262L26.412 7.66168L30.1274 2.07262L33.8429 7.66168L37.5584 2.07262L41.2793 7.66168L44.9893 2.07262L48.7102 7.66168L52.4202 2.07262L56.1411 7.66168L59.8566 2.07262L63.5721 7.66168L67.2875 2.07262L71.003 7.66168L74.7184 2.07262L78.4339 7.66168L82.1548 2.07262L85.8648 7.66168L89.5857 2.07262L93.2957 7.66168L97.0167 2.07262L100.732 7.66168L104.448 2.07262L108.163 7.66168L111.878 2.07262L115.594 7.66168L119.309 2.07262L123.03 7.66168L126.74 2.07262L130.456 7.65214L134.166 2.07262L137.881 7.66168V5.58903L134.166 -3.21282e-05Z" fill="#26912B"/>
<path d="M134.166 177L130.456 171.42L126.74 177L123.03 171.411L119.309 177L115.594 171.411L111.878 177L108.163 171.411L104.448 177L100.732 171.411L97.0167 177L93.2957 171.411L89.5857 177L85.8648 171.411L82.1548 177L78.4339 171.411L74.7184 177L71.003 171.411L67.2875 177L63.5721 171.411L59.8566 177L56.1411 171.411L52.4202 177L48.7102 171.411L44.9893 177L41.2793 171.411L37.5584 177L33.8429 171.411L30.1274 177L26.412 171.411L22.6966 177L18.9811 171.411L15.2656 177L11.5447 171.411L7.83476 177L4.11377 171.411V157.593H137.881V171.411L134.166 177Z" fill="#FF9700"/>
<path d="M130.456 169.41L126.74 174.989L123.03 169.4L119.309 174.989L115.594 169.4L111.878 174.989L108.163 169.4L104.448 174.989L100.732 169.4L97.0167 174.989L93.2957 169.4L89.5857 174.989L85.8648 169.4L82.1548 174.989L78.4339 169.4L74.7184 174.989L71.003 169.4L67.2875 174.989L63.5721 169.4L59.8566 174.989L56.1411 169.4L52.4202 174.989L48.7102 169.4L44.9893 174.989L41.2793 169.4L37.5584 174.989L33.8429 169.4L30.1274 174.989L26.412 169.4L22.6966 174.989L18.9811 169.4L15.2656 174.989L11.5447 169.4L7.83476 174.989L4.11377 169.4V171.411L7.83476 177L11.5447 171.411L15.2656 177L18.9811 171.411L22.6966 177L26.412 171.411L30.1274 177L33.8429 171.411L37.5584 177L41.2793 171.411L44.9893 177L48.7102 171.411L52.4202 177L56.1411 171.411L59.8566 177L63.5721 171.411L67.2875 177L71.003 171.411L74.7184 177L78.4339 171.411L82.1548 177L85.8648 171.411L89.5857 177L93.2957 171.411L97.0167 177L100.732 171.411L104.448 177L108.163 171.411L111.878 177L115.594 171.411L119.309 177L123.03 171.411L126.74 177L130.456 171.42L134.166 177L137.881 171.411V169.4L134.166 174.989L130.456 169.41Z" fill="#FFBA6E"/>
<path d="M137.883 159.104C93.1842 164.756 48.822 164.756 4.11748 159.104C-1.37119 112.521 -1.37119 65.991 4.11748 19.408C48.822 13.7511 93.1842 13.7559 137.883 19.408C143.372 65.991 143.372 112.521 137.883 159.104Z" fill="#FF9700"/>
<path d="M19.3891 159.103C13.9025 112.521 13.9025 65.9876 19.3891 19.4046C39.1869 16.9023 58.9166 15.5102 78.6358 15.2236C53.8283 14.8642 29.026 16.2563 4.11887 19.4046C-1.37296 65.9876 -1.37296 112.521 4.11887 159.103C29.026 162.256 53.8283 163.648 78.6358 163.284C58.9166 163.002 39.1869 161.606 19.3891 159.103Z" fill="#FFBA6E"/>
<path d="M137.884 19.4079C111.975 16.1289 86.1829 14.7578 60.374 15.2803C79.104 15.6543 97.8339 17.0301 116.63 19.4079C122.119 65.991 122.119 112.521 116.63 159.104C97.8395 161.482 79.104 162.853 60.374 163.232C86.1885 163.754 111.981 162.379 137.884 159.104C143.372 112.521 143.372 65.991 137.884 19.4079Z" fill="#DD7300"/>
<path d="M114.989 92.7747C114.989 113.867 95.2932 130.966 70.9988 130.966C46.7043 130.966 27.0142 113.867 27.0142 92.7747C27.0142 71.6825 46.7043 54.5831 70.9988 54.5831C95.2932 54.5831 114.989 71.6825 114.989 92.7747Z" fill="#156D15"/>
<path d="M137.884 19.4062C105.598 15.3273 73.494 14.1913 41.313 16.0079C41.3516 16.0319 56.4677 23.3702 80.3067 51.156C102.826 54.9282 119.836 72.1212 119.836 92.7749C119.836 96.5902 119.245 100.281 118.163 103.794C124.705 114.387 131.524 126.183 138.546 139.34C138.546 139.34 139.098 138.497 140.059 136.992C143.217 97.7933 142.505 58.6189 137.884 19.4062" fill="#26912B"/>
<path d="M63.5059 15.2027C73.2888 15.6436 79.163 14.6658 116.633 19.4062C120.1 48.7978 121.37 78.1701 120.464 107.547C126.306 117.153 132.345 127.712 138.551 139.34C138.551 139.34 139.103 138.497 140.063 136.987C143.216 97.8316 142.493 58.5135 137.883 19.4062C136.144 17.1007 121.337 16.7413 113.094 16.0894C96.1175 14.7473 79.2844 13.8893 63.5059 15.2027" fill="#156D15"/>
<path d="M103.561 92.7738C103.561 108.384 88.9847 121.04 71.004 121.04C53.0233 121.04 38.4414 108.384 38.4414 92.7738C38.4414 77.1586 53.0233 64.5033 71.004 64.5033C88.9847 64.5033 103.561 77.1586 103.561 92.7738Z" fill="#FF9700"/>
<path d="M101.252 51.1708C100.141 51.8974 71.9504 106.02 69.3135 119.034L74.8137 120.414L101.252 51.1708" fill="#26912B"/>
<path d="M74.8143 120.415L101.252 51.1709L71.2983 119.533L74.8143 120.415" fill="#156D15"/>
<path d="M73.9639 123.311L74.8125 120.418L69.3171 119.033L67.7427 121.19C64.4199 121.563 61.3834 123.968 60.3457 127.386C59.0319 131.699 61.4089 135.987 65.6518 136.954C69.8845 137.926 74.3882 135.214 75.6968 130.896C76.5659 128.034 75.8042 125.189 73.9639 123.311Z" fill="#E5EAE5"/>
<path d="M73.9639 123.311L74.8125 120.418L69.3171 119.033L67.7427 121.19C64.4199 121.563 61.3834 123.968 60.3457 127.386C59.0319 131.699 61.4089 135.987 65.6518 136.954C69.8845 137.926 74.3882 135.214 75.6968 130.896C76.5659 128.034 75.8042 125.189 73.9639 123.311Z" fill="#E5EAE5"/>
<path d="M73.9636 123.311L74.8122 120.418L70.4313 119.313L69.6747 121.869C71.515 123.746 72.2767 126.591 71.4128 129.454C70.2575 133.244 66.6485 135.796 62.9116 135.707C63.6989 136.284 64.619 136.719 65.6516 136.954C69.8843 137.926 74.3879 135.214 75.6966 130.896C76.5656 128.034 75.8039 125.189 73.9636 123.311" fill="#BABABA"/>
<path d="M66.0406 126.213C65.5154 127.428 64.2729 128.143 63.2628 127.814C62.2577 127.485 61.8689 126.235 62.3941 125.025C62.9143 123.81 64.1568 123.096 65.1669 123.424C66.172 123.753 66.5659 125.003 66.0406 126.213" fill="white"/>
<path d="M115.878 59.4394C114.545 59.7787 66.0613 101.695 58.2832 113.049L62.8548 116.037L115.878 59.4394Z" fill="#26912B"/>
<path d="M62.8549 116.037L115.878 59.4394L59.9268 114.122L62.8549 116.037" fill="#156D15"/>
<path d="M60.88 118.477L62.861 116.033L58.2857 113.042L55.9326 114.575C52.6746 113.902 48.8483 115.212 46.4852 118.089C43.4936 121.72 43.9663 126.457 47.531 128.67C51.1008 130.883 56.4103 129.735 59.4019 126.103C61.3879 123.693 61.8353 120.799 60.88 118.477Z" fill="#E5EAE5"/>
<path d="M60.88 118.477L62.861 116.033L58.2857 113.042L55.9326 114.575C52.6746 113.902 48.8483 115.212 46.4852 118.089C43.4936 121.72 43.9663 126.457 47.531 128.67C51.1008 130.883 56.4103 129.735 59.4019 126.103C61.3879 123.693 61.8353 120.799 60.88 118.477Z" fill="#E5EAE5"/>
<path d="M60.8802 118.477L62.8612 116.033L59.211 113.649L57.4612 115.806C58.4215 118.128 57.964 121.022 55.9831 123.432C53.3585 126.622 48.939 127.897 45.4849 126.657C45.9826 127.443 46.6613 128.133 47.5312 128.67C51.101 130.883 56.4104 129.735 59.402 126.103C61.388 123.693 61.8355 120.799 60.8802 118.477" fill="#BABABA"/>
<path d="M52.2867 118.749C51.2977 119.72 49.8465 120.009 49.0364 119.392C48.2313 118.775 48.3754 117.485 49.3595 116.514C50.3485 115.543 51.8047 115.254 52.6098 115.871C53.4149 116.488 53.2708 117.779 52.2867 118.749Z" fill="white"/>
<path d="M85.5569 61.0065C73.9635 66.8208 41.5575 84.9036 29.6271 91.5819C27.2526 92.912 26.984 95.8283 29.0795 97.4739C37.8931 104.399 61.2959 119.47 97.0135 118.404C99.6039 118.327 101.51 116.238 101.052 114.021L90.5113 63.004C90.1006 61.0247 87.5629 59.9963 85.5569 61.0065" fill="#FFBA6E"/>
<path d="M29.625 93.9618C41.556 87.2862 73.9598 69.2058 85.5541 63.3846C87.5592 62.3794 90.1012 63.4075 90.5117 65.3859L100.916 115.766C101.111 115.218 101.174 114.628 101.048 114.021L90.5117 63.0054C90.1012 61.0269 87.5592 59.9989 85.5541 61.0041C73.9598 66.8253 41.556 84.9056 29.625 91.5812C27.904 92.5499 27.304 94.3456 27.904 95.89C28.1934 95.1315 28.7671 94.4416 29.625 93.9618" fill="#FFD6AE"/>
<path d="M100.625 111.955C100.367 112.005 100.109 112.046 99.8356 112.055C64.1179 113.12 40.7151 98.0498 31.9015 91.1248C31.6962 90.9648 31.533 90.7865 31.375 90.6037C30.759 90.9511 30.1641 91.2802 29.6271 91.5819C27.2526 92.912 26.984 95.8283 29.0795 97.4739C37.8931 104.399 61.2959 119.47 97.0135 118.404C99.6039 118.327 101.51 116.238 101.052 114.021L100.625 111.955Z" fill="#DD7300"/>
<path d="M83.4062 69.569C83.4062 70.3387 82.6898 70.9606 81.7982 70.9606C80.9117 70.9606 80.1953 70.3387 80.1953 69.569C80.1953 68.7994 80.9117 68.1774 81.7982 68.1774C82.6898 68.1774 83.4062 68.7994 83.4062 69.569Z" fill="#EF8C16"/>
<path d="M91.6116 89.5719C91.6116 91.926 89.4154 93.8327 86.7092 93.8327C83.9978 93.8327 81.7964 91.926 81.7964 89.5719C81.7964 87.2179 83.9978 85.3112 86.7092 85.3112C89.4154 85.3112 91.6116 87.2179 91.6116 89.5719Z" fill="#EF8C16"/>
<path d="M78.5699 80.4853C78.5699 81.3261 77.7911 82.0068 76.8174 82.0068C75.8541 82.0068 75.0649 81.3261 75.0649 80.4853C75.0649 79.6445 75.8541 78.9638 76.8174 78.9638C77.7911 78.9638 78.5699 79.6445 78.5699 80.4853Z" fill="#EF8C16"/>
<path d="M53.6409 91.3673C53.6409 93.2319 51.901 94.7425 49.7484 94.7425C47.6008 94.7425 45.8608 93.2319 45.8608 91.3673C45.8608 89.4985 47.6008 87.9879 49.7484 87.9879C51.901 87.9879 53.6409 89.4985 53.6409 91.3673Z" fill="#EF8C16"/>
<path d="M71.4481 103.866C71.4481 104.885 70.5032 105.705 69.3347 105.705C68.161 105.705 67.2109 104.885 67.2109 103.866C67.2109 102.851 68.161 102.026 69.3347 102.026C70.5032 102.026 71.4481 102.851 71.4481 103.866Z" fill="#EF8C16"/>
<path d="M92.212 105.54C92.212 106.783 91.0506 107.796 89.6132 107.796C88.1759 107.796 87.0093 106.783 87.0093 105.54C87.0093 104.292 88.1759 103.279 89.6132 103.279C91.0506 103.279 92.212 104.292 92.212 105.54Z" fill="#EF8C16"/>
<path d="M76.8227 94.6142C76.8227 96.4122 75.1454 97.8639 73.0795 97.8639C71.0137 97.8639 69.3364 96.4122 69.3364 94.6142C69.3364 92.8206 71.0137 91.3645 73.0795 91.3645C75.1454 91.3645 76.8227 92.8206 76.8227 94.6142Z" fill="#EF8C16"/>
<path d="M67.315 80.7375C67.315 82.5632 65.6063 84.0467 63.5084 84.0467C61.4055 84.0467 59.6968 82.5632 59.6968 80.7375C59.6968 78.9161 61.4055 77.4327 63.5084 77.4327C65.6063 77.4327 67.315 78.9161 67.315 80.7375Z" fill="#EF8C16"/>
</svg>
