<svg width="68" height="183" viewBox="0 0 68 183" fill="none" xmlns="http://www.w3.org/2000/svg">
<path d="M56.5255 77.2694C59.7729 75.954 67.3895 72.4608 67.6163 56.0113C67.8428 39.5706 60.1849 34.7774 49.1954 27.6635H49.282C46.7706 25.5078 44.3252 23.9152 43.4572 21.4933C41.6708 16.5131 41.5724 2.3381 41.5724 2.3381H25.9806C25.9806 2.3381 25.8823 16.5131 24.0959 21.4933C23.2278 23.9152 20.7824 25.5078 18.2712 27.6635H18.4052C7.4169 34.795 -0.241432 39.5926 0.00581719 56.0399C0.252626 72.4894 7.87356 75.9738 11.1226 77.287C16.1346 79.3086 14.8493 81.1696 14.978 84.3679C15.1069 87.5663 2.47611 90.7647 1.73502 99.2161C1.04211 107.12 1.21281 154.233 1.2381 160.331H1.21984V173.523C1.21984 173.523 1.21985 182.643 10.2823 182.396C18.2393 182.179 16.6208 175.617 20.8638 175.788C25.1071 175.96 23.7446 178.437 26.5213 180.586C29.7692 183.1 37.9673 183.1 41.2152 180.586C43.9919 178.437 42.6296 175.96 46.8727 175.788C51.1157 175.617 49.4976 182.179 57.4542 182.396C66.5168 182.643 66.5168 173.523 66.5168 173.523V160.331H66.512C66.5296 154.343 66.6438 107.104 65.9401 99.1919C65.1884 90.7383 53.2059 87.5575 53.3306 84.3591C53.4553 81.1608 51.5163 79.2976 56.5255 77.2694" fill="#BBDCF9"/>
<path d="M53.7517 75.976C56.5095 74.7045 65.4076 73.0943 65.6003 57.1881C65.7024 48.772 63.9813 43.6841 60.9035 39.5772L7.31734 40.0215C4.23398 44.135 2.29559 48.651 2.4069 57.0826C2.61675 72.9888 11.1761 74.8145 13.9354 76.0838C18.1917 78.0393 17.3804 82.133 17.4897 85.2258C17.5988 88.3186 6.87255 91.4114 6.24299 99.5856C5.65456 107.227 5.79975 152.784 5.82108 158.681H5.80547V171.44C5.80547 171.44 5.80458 180.095 10.7911 180.091C17.5515 180.084 16.8415 173.864 20.4369 173.573C24.4345 173.25 24.9347 176.191 27.2928 178.267C30.0508 180.698 37.0132 180.698 39.7716 178.267C42.1297 176.191 43.5641 173.166 47.1677 172.999C50.7711 172.834 50.1264 178.784 56.8549 179.442C65.6047 180.298 62.1045 166.14 62.1782 150.203C62.2752 129.178 61.1089 103.912 60.7691 99.5592C60.1307 91.3872 49.9546 88.3098 50.0606 85.217C50.1666 82.1242 49.4975 77.9381 53.7517 75.976" fill="#F7B719"/>
<path d="M57.8124 182.401C57.6948 182.401 57.5751 182.399 57.4541 182.396C57.5746 182.399 57.695 182.401 57.8122 182.401C57.8177 182.401 57.8225 182.401 57.8278 182.401C57.8228 182.401 57.8177 182.401 57.8124 182.401M57.8399 182.401C57.8457 182.401 57.852 182.401 57.8578 182.401C57.852 182.401 57.8457 182.401 57.8399 182.401ZM57.869 182.401C57.8753 182.401 57.8817 182.401 57.8881 182.401C57.8815 182.401 57.8756 182.401 57.869 182.401ZM57.8929 182.401C57.9068 182.401 57.9209 182.401 57.9347 182.401C57.9204 182.401 57.907 182.401 57.8929 182.401ZM57.9402 182.401C57.9473 182.401 57.9545 182.401 57.9616 182.401C57.9548 182.401 57.9473 182.401 57.9402 182.401ZM57.9686 182.401C57.9921 182.399 58.0152 182.399 58.0386 182.399C58.0155 182.399 57.9919 182.399 57.9686 182.401ZM58.0403 182.399C58.0482 182.399 58.0564 182.399 58.0643 182.399C58.0564 182.399 58.0482 182.399 58.0403 182.399ZM58.0658 182.399C59.4979 182.37 60.6879 182.095 61.6758 181.66C60.6879 182.095 59.4983 182.37 58.0658 182.399ZM57.418 182.394C57.4154 182.394 57.4127 182.394 57.4101 182.394C57.4125 182.394 57.4156 182.394 57.418 182.394ZM57.3773 182.394C57.374 182.394 57.371 182.394 57.3679 182.394C57.3712 182.394 57.374 182.394 57.3773 182.394ZM57.3353 182.392C57.332 182.392 57.3287 182.392 57.3252 182.392C57.3285 182.392 57.332 182.392 57.3353 182.392ZM57.294 182.39C57.2904 182.39 57.2869 182.39 57.2834 182.39C57.2867 182.39 57.2904 182.39 57.294 182.39ZM57.2561 182.39C57.2519 182.39 57.2478 182.39 57.2436 182.388C57.248 182.39 57.2519 182.39 57.2561 182.39ZM57.2165 182.388C57.213 182.388 57.2093 182.388 57.2055 182.388C57.2093 182.388 57.2128 182.388 57.2165 182.388ZM57.1756 182.385C57.1714 182.385 57.1675 182.385 57.1633 182.385C57.1675 182.385 57.1712 182.385 57.1756 182.385ZM57.1354 182.383C57.1305 182.383 57.1257 182.383 57.1208 182.383C57.1259 182.383 57.1301 182.383 57.1354 182.383ZM57.0925 182.381C57.0889 182.381 57.0852 182.381 57.0815 182.381C57.0852 182.381 57.0887 182.381 57.0925 182.381ZM57.0584 182.379C57.0526 182.379 57.0471 182.379 57.0414 182.379C57.0469 182.379 57.0529 182.379 57.0584 182.379ZM57.0188 182.377C57.0142 182.377 57.0098 182.377 57.0054 182.377C57.0095 182.377 57.0146 182.377 57.0188 182.377ZM56.9783 182.374C56.9735 182.374 56.9688 182.374 56.964 182.374C56.9686 182.374 56.9737 182.374 56.9783 182.374ZM56.9372 182.372C56.9328 182.372 56.9284 182.372 56.9237 182.372C56.9284 182.372 56.9325 182.372 56.9372 182.372ZM56.8996 182.37C56.8945 182.37 56.8894 182.368 56.8841 182.368C56.8892 182.368 56.8947 182.37 56.8996 182.37ZM56.8613 182.368C56.8569 182.366 56.8525 182.366 56.8481 182.366C56.852 182.366 56.8571 182.366 56.8613 182.368ZM56.8228 182.363C56.8186 182.363 56.8144 182.363 56.8102 182.363C56.8142 182.363 56.8186 182.363 56.8228 182.363ZM56.7823 182.361C56.7786 182.361 56.7748 182.361 56.7713 182.361C56.7748 182.361 56.7786 182.361 56.7823 182.361ZM56.7416 182.357C56.7385 182.357 56.7354 182.357 56.7326 182.357C56.7352 182.357 56.7387 182.357 56.7416 182.357ZM56.702 182.355C56.6996 182.355 56.6972 182.355 56.6948 182.355C56.6972 182.355 56.6998 182.355 56.702 182.355ZM56.6659 182.352C56.664 182.35 56.6624 182.35 56.6607 182.35C56.6624 182.35 56.664 182.35 56.6659 182.352ZM56.6277 182.348C56.6257 182.348 56.6239 182.348 56.6219 182.348C56.6237 182.348 56.6259 182.348 56.6277 182.348ZM56.5892 182.344C56.5874 182.344 56.5854 182.344 56.5837 182.344C56.5854 182.344 56.5874 182.344 56.5892 182.344ZM56.5502 182.341C56.5491 182.341 56.548 182.341 56.5469 182.341C56.5478 182.341 56.5493 182.341 56.5502 182.341ZM61.6804 181.657C61.6949 181.651 61.7099 181.644 61.7244 181.638C61.7099 181.644 61.6949 181.651 61.6804 181.657ZM61.731 181.635C61.735 181.633 61.7387 181.633 61.7427 181.631C61.7387 181.633 61.735 181.633 61.731 181.635ZM61.7519 181.627C61.7554 181.624 61.7592 181.622 61.7627 181.622C61.7592 181.622 61.7554 181.624 61.7519 181.627ZM61.7812 181.613C61.7834 181.611 61.7851 181.611 61.7873 181.609C61.7851 181.611 61.7834 181.611 61.7812 181.613ZM61.8012 181.605C61.804 181.602 61.8067 181.6 61.8096 181.6C61.8069 181.6 61.8038 181.602 61.8012 181.605ZM61.8245 181.594C61.826 181.591 61.828 181.591 61.8293 181.591C61.8278 181.591 61.826 181.591 61.8245 181.594ZM61.8507 181.58C61.8513 181.58 61.8516 181.58 61.8522 181.58C61.8513 181.58 61.8513 181.58 61.8507 181.58ZM61.872 181.569C61.8731 181.569 61.8742 181.569 61.8753 181.569C61.8742 181.569 61.8729 181.569 61.872 181.569ZM61.8956 181.558C61.896 181.558 61.8962 181.558 61.8967 181.558C61.8964 181.558 61.8958 181.558 61.8956 181.558ZM61.9409 181.536C61.9413 181.536 61.9415 181.536 61.9417 181.536C61.9415 181.536 61.9413 181.536 61.9409 181.536ZM1.51691 175.72C1.21973 174.471 1.21973 173.547 1.21973 173.547V173.525C1.21973 173.551 1.22435 174.477 1.51691 175.72ZM66.2882 175.41C66.5167 174.308 66.5167 173.523 66.5167 173.523V160.331V173.523V173.525V173.547C66.5167 173.547 66.5161 174.321 66.2882 175.41ZM66.5121 160.331H66.5119C66.5191 157.87 66.5427 148.446 66.5191 137.643V137.626C66.5427 148.433 66.5194 157.87 66.5121 160.331M66.4699 125.3C66.4254 118.037 66.3504 111.079 66.227 106.015C66.3504 111.079 66.4254 118.037 66.4699 125.3Z" fill="#E0DFE4"/>
<path d="M33.8682 182.401C31.0066 182.401 28.1452 181.778 26.5212 180.536C23.7444 178.411 25.107 175.958 20.8637 175.788C20.8091 175.786 20.7555 175.784 20.7027 175.784C16.6607 175.784 18.1367 182.115 10.2821 182.326C10.1609 182.33 10.0417 182.33 9.92381 182.33C4.04351 182.33 2.13569 178.323 1.51691 175.72C1.22435 174.477 1.21973 173.551 1.21973 173.525V169.027C1.21995 169.115 1.25778 175.771 7.06153 177.436C7.7936 178.919 8.95263 180.091 10.787 180.091C10.7885 180.091 10.7896 180.091 10.7912 180.091C17.5516 180.085 16.8415 173.864 20.4369 173.573C20.6411 173.556 20.8364 173.547 21.0227 173.547C24.491 173.547 25.055 176.297 27.2928 178.268C28.6718 179.484 31.1019 180.091 33.5321 180.091C35.9621 180.091 38.3924 179.484 39.7716 178.268C42.1297 176.191 43.5642 173.166 47.1678 172.999C47.217 172.997 47.2659 172.997 47.3136 172.997C50.7553 172.997 50.2185 178.796 56.8549 179.442C57.107 179.469 57.3496 179.48 57.5819 179.48C65.4068 179.482 62.1067 165.681 62.1782 150.204C62.1795 149.918 62.1806 149.634 62.1813 149.348H66.145V140.793H66.5191V137.643C66.5427 148.446 66.5191 157.87 66.5119 160.331H66.5121H66.5167V173.523C66.5167 173.523 66.5167 174.308 66.2882 175.41C66.2679 175.507 66.2459 175.606 66.222 175.707C65.7818 177.588 64.6839 180.199 61.9417 181.536C61.9415 181.536 61.9413 181.536 61.9409 181.536C61.9261 181.545 61.9116 181.552 61.8967 181.558C61.8962 181.558 61.896 181.558 61.8956 181.558C61.8887 181.563 61.8821 181.565 61.8753 181.569C61.8742 181.569 61.8731 181.569 61.872 181.569C61.8654 181.574 61.8586 181.576 61.8522 181.58C61.8516 181.58 61.8513 181.58 61.8507 181.58C61.8436 181.585 61.8364 181.587 61.8293 181.591C61.828 181.591 61.826 181.591 61.8245 181.594C61.8194 181.596 61.8148 181.598 61.8096 181.6C61.8067 181.6 61.804 181.602 61.8012 181.605C61.7966 181.607 61.7919 181.607 61.7873 181.609C61.7851 181.611 61.7834 181.611 61.7812 181.613C61.775 181.616 61.7688 181.618 61.7627 181.622C61.7592 181.622 61.7554 181.624 61.7519 181.627C61.7488 181.627 61.7455 181.629 61.7427 181.631C61.7387 181.633 61.735 181.633 61.731 181.635C61.7288 181.638 61.7266 181.638 61.7244 181.638C61.7099 181.644 61.6949 181.651 61.6804 181.657C61.6789 181.66 61.6771 181.66 61.6758 181.66C60.6879 182.095 59.4979 182.37 58.0658 182.399C58.0652 182.399 58.065 182.399 58.0643 182.399C58.0564 182.399 58.0482 182.399 58.0403 182.399C58.0394 182.399 58.0392 182.399 58.0386 182.399C58.0152 182.399 57.9921 182.399 57.9686 182.401C57.9662 182.401 57.964 182.401 57.9616 182.401C57.9545 182.401 57.9473 182.401 57.9402 182.401C57.9385 182.401 57.9365 182.401 57.9347 182.401C57.9209 182.401 57.9068 182.401 57.8929 182.401C57.8914 182.401 57.8896 182.401 57.8881 182.401C57.8817 182.401 57.8753 182.401 57.869 182.401C57.8652 182.401 57.8615 182.401 57.8578 182.401C57.852 182.401 57.8457 182.401 57.8399 182.401C57.8358 182.401 57.832 182.401 57.8278 182.401C57.8225 182.401 57.8177 182.401 57.8122 182.401C57.695 182.401 57.5746 182.399 57.4541 182.396C57.442 182.396 57.4301 182.394 57.418 182.394C57.4156 182.394 57.4125 182.394 57.4101 182.394C57.3991 182.394 57.3881 182.394 57.3773 182.394C57.374 182.394 57.3712 182.394 57.3679 182.394C57.3571 182.392 57.3461 182.392 57.3353 182.392C57.332 182.392 57.3285 182.392 57.3252 182.392C57.3146 182.392 57.3043 182.392 57.294 182.39C57.2904 182.39 57.2867 182.39 57.2834 182.39C57.2744 182.39 57.2651 182.39 57.2561 182.39C57.2519 182.39 57.248 182.39 57.2436 182.388C57.2346 182.388 57.2255 182.388 57.2165 182.388C57.2128 182.388 57.2093 182.388 57.2055 182.388C57.1954 182.385 57.1855 182.385 57.1756 182.385C57.1712 182.385 57.1675 182.385 57.1633 182.385C57.1538 182.385 57.1446 182.383 57.1354 182.383C57.1301 182.383 57.1259 182.383 57.1208 182.383C57.1114 182.383 57.1019 182.381 57.0925 182.381C57.0887 182.381 57.0852 182.381 57.0815 182.381C57.0738 182.381 57.0661 182.379 57.0584 182.379C57.0529 182.379 57.0469 182.379 57.0414 182.379C57.0339 182.379 57.0263 182.377 57.0188 182.377C57.0146 182.377 57.0095 182.377 57.0054 182.377C56.9963 182.377 56.9873 182.374 56.9783 182.374C56.9737 182.374 56.9686 182.374 56.964 182.374C56.955 182.372 56.9462 182.372 56.9372 182.372C56.9325 182.372 56.9284 182.372 56.9237 182.372C56.9158 182.37 56.9077 182.37 56.8996 182.37C56.8947 182.37 56.8892 182.368 56.8841 182.368C56.8767 182.368 56.8687 182.368 56.8613 182.368C56.8571 182.366 56.852 182.366 56.8481 182.366C56.8395 182.366 56.8311 182.366 56.8228 182.363C56.8186 182.363 56.8142 182.363 56.8102 182.363C56.8008 182.363 56.7915 182.361 56.7823 182.361C56.7786 182.361 56.7748 182.361 56.7713 182.361C56.7614 182.359 56.7515 182.359 56.7416 182.357C56.7387 182.357 56.7352 182.357 56.7326 182.357C56.7225 182.357 56.7121 182.355 56.702 182.355C56.6998 182.355 56.6972 182.355 56.6948 182.355C56.6851 182.352 56.6756 182.352 56.6659 182.352C56.664 182.35 56.6624 182.35 56.6607 182.35C56.6497 182.35 56.6384 182.348 56.6277 182.348C56.6259 182.348 56.6237 182.348 56.6219 182.348C56.6109 182.346 56.6002 182.346 56.5892 182.344C56.5874 182.344 56.5854 182.344 56.5837 182.344C56.5724 182.344 56.5614 182.341 56.5502 182.341C56.5493 182.341 56.5478 182.341 56.5469 182.341C55.2366 182.214 54.2218 181.893 53.4097 181.459L53.4651 181.429C49.9825 179.634 50.186 175.784 47.0336 175.784C46.981 175.784 46.9271 175.786 46.8726 175.788C42.6295 175.958 43.9918 178.411 41.2151 180.536C39.591 181.778 36.7296 182.401 33.8682 182.401ZM66.4699 125.3H66.145V116.515H61.5636C61.2598 108.05 60.9261 101.572 60.7691 99.5593C60.1307 91.3874 49.9546 88.3099 50.0606 85.2171C50.1666 82.1243 49.4975 77.9383 53.7517 75.9761C56.5095 74.7047 65.4076 73.0945 65.6003 57.1883C65.7024 48.7721 63.9813 43.6842 60.9035 39.5773L54.871 39.6257C51.6 34.7885 46.5617 31.5769 40.514 27.6636H40.6007C38.0897 25.5079 35.6441 23.9153 34.7761 21.4934C32.9894 16.5132 32.8911 2.33822 32.8911 2.33822H41.5723C41.5725 2.36681 41.6724 16.5176 43.457 21.4934C44.3251 23.9153 46.7705 25.5079 49.2819 27.6636H49.1952C60.0238 34.6741 67.6177 39.4299 67.621 55.2965C67.621 55.5319 67.6195 55.7717 67.6162 56.0114C67.3894 72.4609 59.7728 75.9541 56.5254 77.2695C51.6822 79.2295 53.3342 81.0355 53.3364 84.0447C53.3367 84.1481 53.3347 84.2515 53.3305 84.3592C53.3301 84.3746 53.3296 84.39 53.3296 84.4054C53.3226 87.5884 65.1921 90.7802 65.94 99.192C66.0568 100.505 66.1511 102.903 66.227 106.016C66.3504 111.079 66.4254 118.037 66.4699 125.3" fill="#ABC4DF"/>
<path d="M33.5321 180.091C31.1018 180.091 28.6718 179.484 27.2928 178.267C25.055 176.297 24.491 173.547 21.0227 173.547C20.8364 173.547 20.6411 173.556 20.4369 173.573C16.8415 173.864 17.5516 180.084 10.7912 180.091C10.7896 180.091 10.7885 180.091 10.787 180.091C8.95262 180.091 7.79359 178.919 7.06152 177.436C7.89192 177.674 8.84044 177.81 9.9238 177.81C10.0413 177.81 10.1616 177.808 10.2821 177.806C18.1367 177.594 16.6607 171.264 20.7024 171.264C20.7552 171.264 20.8091 171.266 20.8637 171.268C25.1069 171.437 23.7444 173.888 26.5211 176.015C28.1452 177.258 31.0066 177.88 33.8682 177.88C36.7296 177.88 39.591 177.258 41.2151 176.015C43.9918 173.888 42.6295 171.437 46.8725 171.268C46.9273 171.266 46.981 171.264 47.0338 171.264C50.9653 171.264 49.6774 177.251 56.8346 177.773C57.8333 175.619 57.8355 173.523 57.8355 173.523V160.331H57.8309C57.8351 158.833 57.8456 154.75 57.8478 149.348H62.1813C62.1806 149.634 62.1795 149.917 62.1782 150.203C62.1067 165.681 65.4067 179.482 57.5819 179.48C57.3496 179.48 57.107 179.469 56.8549 179.442C50.2185 178.795 50.7553 172.997 47.3136 172.997C47.2659 172.997 47.217 172.997 47.1677 172.999C43.5642 173.166 42.1297 176.191 39.7716 178.267C38.3924 179.484 35.9621 180.091 33.5321 180.091M61.5636 116.515H57.7161C57.6287 108.439 57.4866 101.755 57.2587 99.1918C56.5073 90.7383 44.5248 87.5575 44.6497 84.3591C44.7302 82.287 43.9484 80.778 44.7439 79.4207H44.7423H26.9866C26.9866 79.4207 38.9067 78.1295 45.6308 74.8937C52.3549 71.6601 55.7511 68.4837 57.7205 65.5383C58.4275 62.9756 58.8821 59.8454 58.9352 56.0113C59.037 48.618 57.5441 43.5785 54.871 39.6256L60.9035 39.5772C63.9813 43.6841 65.7024 48.772 65.6003 57.1881C65.4076 73.0943 56.5095 74.7045 53.7517 75.976C49.4975 77.9381 50.1666 82.1242 50.0606 85.217C49.9546 88.3098 60.1307 91.3872 60.7691 99.5592C60.9261 101.572 61.2598 108.05 61.5636 116.515" fill="#D9A833"/>
<path d="M41.6722 12.9079H25.4147C24.1318 12.9079 23.0918 11.8674 23.0918 10.585V2.32283C23.0918 1.04039 24.1318 -9.05959e-05 25.4147 -9.05959e-05H41.6722C42.9551 -9.05959e-05 43.9951 1.04039 43.9951 2.32283V10.585C43.9951 11.8674 42.9551 12.9079 41.6722 12.9079Z" fill="#304298"/>
<path d="M42.6292 15.8708H24.6467C24.1949 15.8708 23.8286 15.5057 23.8286 15.0525V14.7753C23.8286 14.3244 24.1949 13.957 24.6467 13.957H42.6292C43.081 13.957 43.4473 14.3244 43.4473 14.7753V15.0525C43.4473 15.5057 43.081 15.8708 42.6292 15.8708" fill="#304298"/>
<path d="M26.3473 12.9079H24.9194V1.86089H26.3473V12.9079Z" fill="#223466"/>
<path d="M29.4313 12.9079H28.0034V1.86089H29.4313V12.9079Z" fill="#223466"/>
<path d="M32.9721 12.9079H31.5444V1.86089H32.9721V12.9079Z" fill="#223466"/>
<path d="M36.3988 12.9079H34.9712V1.86089H36.3988V12.9079Z" fill="#223466"/>
<path d="M39.5401 12.9079H38.1123V1.86089H39.5401V12.9079Z" fill="#223466"/>
<path d="M42.0535 12.9079H40.6255V1.86089H42.0535V12.9079Z" fill="#223466"/>
<path d="M42.0626 1.22748H24.9034C24.6742 1.22748 24.4868 1.04049 24.4868 0.811722C24.4868 0.582951 24.6742 0.393775 24.9034 0.393775H42.0626C42.2918 0.393775 42.4792 0.582951 42.4792 0.811722C42.4792 1.04049 42.2918 1.22748 42.0626 1.22748Z" fill="#405CC6"/>
<path d="M9.27148 40.0062C11.5027 33.858 16.9474 31.9992 22.269 31.9992C24.1447 31.9992 26.0059 32.2302 27.7047 32.5865C31.4964 33.3784 35.2625 35.7145 37.4015 39.7708L9.27148 40.0062" fill="#E2F0FC"/>
<path d="M23.2924 48.0441C22.262 48.0441 21.1591 48.0133 19.9825 47.9495C17.3679 47.8065 14.7508 47.7163 12.1349 47.5997C10.7326 47.536 9.02783 47.217 8.50826 45.5518C8.29356 44.8633 8.34724 44.089 8.45216 43.3587C8.63056 42.1202 8.90839 41.0072 9.27156 40.0063L37.4016 39.7709C37.4709 39.9029 37.5384 40.0371 37.6042 40.1713C38.2734 41.5439 38.3534 48.0441 23.2924 48.0441Z" fill="#FCE19E"/>
<path d="M28.1335 27.2634C27.8566 27.2634 27.5816 27.204 27.3242 27.0699C26.3619 26.5727 26.0596 25.3123 26.1929 24.2366C26.3262 23.1609 26.7802 22.1447 26.901 21.0668C27.0392 19.835 27.1458 17.5538 28.7087 17.5538C28.9105 17.5538 29.1364 17.5912 29.3898 17.6748C31.1243 18.2446 30.8794 20.8028 30.9201 22.1909C30.956 23.4205 30.9778 24.7161 30.3984 25.8006C29.9558 26.6299 29.0321 27.2634 28.1335 27.2634" fill="#E2F0FC"/>
<path d="M66.1452 116.515H47.3653C44.056 110.932 39.0928 107.384 33.5435 107.384C27.9943 107.384 23.0308 110.932 19.7216 116.515H1.29932V149.348H19.7216C23.0308 154.928 27.9943 158.479 33.5435 158.479C39.0928 158.479 44.056 154.928 47.3653 149.348H66.1452V116.515Z" fill="#EDEDC3"/>
<path d="M49.2666 133.048C49.2666 144.22 42.0724 153.279 33.1974 153.279C24.3226 153.279 17.1284 144.22 17.1284 133.048C17.1284 121.873 24.3226 112.815 33.1974 112.815C42.0724 112.815 49.2666 121.873 49.2666 133.048Z" fill="#01AFF5"/>
<path d="M1.21973 140.793H66.5191V125.301H1.21973V140.793Z" fill="#01AFF5"/>
<path d="M15.8293 165.69C13.7218 165.69 11.0958 164.266 10.6516 160.542C10.5568 159.746 10.4576 155.364 10.3778 149.348H19.7213C19.9549 149.742 20.1969 150.126 20.4463 150.498C20.4384 155.984 20.4019 159.854 20.3126 160.39C19.9635 162.485 19.0244 164.559 17.5357 165.318C17.0658 165.558 16.4719 165.69 15.8293 165.69M19.7213 116.515H10.2363C10.2757 110.056 10.3727 105.045 10.5522 103.508C11.2724 97.3287 14.68 89.3789 20.117 88.5562C20.7624 88.4595 21.4096 88.3759 22.0257 88.3759C23.5781 88.3759 24.9331 88.9016 25.5627 91.0331C26.2756 93.4462 21.3654 98.0327 20.4026 103.935C20.3447 104.289 20.3419 108.967 20.3586 115.496C20.1401 115.826 19.9274 116.167 19.7213 116.515" fill="#FCE19E"/>
<path d="M20.4464 150.498C20.197 150.127 19.955 149.742 19.7214 149.348H10.3779C10.3436 146.75 10.3128 143.844 10.2872 140.793H18.3481C18.8897 142.436 19.5978 143.97 20.4471 145.362C20.4489 147.181 20.4489 148.908 20.4464 150.498M18.3481 125.301H10.2158C10.2136 122.217 10.2199 119.238 10.2364 116.515H19.7214C19.9275 116.167 20.1402 115.826 20.3587 115.496C20.3631 117.173 20.3688 118.972 20.3749 120.851C19.558 122.212 18.8741 123.704 18.3481 125.301Z" fill="#F7F7E6"/>
<path d="M20.4471 145.362C19.5978 143.969 18.8897 142.436 18.3481 140.793H20.4394C20.4429 142.361 20.4456 143.892 20.4471 145.362M20.3906 125.3H18.3481C18.8741 123.703 19.558 122.212 20.375 120.85C20.38 122.293 20.3851 123.783 20.3906 125.3" fill="#94DDFB"/>
<path d="M20.4395 140.793H10.2873C10.246 135.798 10.2193 130.406 10.2158 125.301H18.3482H20.3906C20.4087 130.386 20.4285 135.789 20.4395 140.793" fill="#94DDFB"/>
<path d="M14.9639 136.4C14.5354 136.4 14.1711 136.356 13.8708 136.266C13.5708 136.178 13.2883 136.07 13.0239 135.94V134.955H13.0796C13.3387 135.199 13.6322 135.388 13.9603 135.52C14.2881 135.655 14.6042 135.72 14.9084 135.72C15.342 135.72 15.6702 135.63 15.8921 135.45C16.1143 135.27 16.2254 135.03 16.2254 134.733C16.2254 134.497 16.1673 134.306 16.0507 134.159C15.9344 134.011 15.7494 133.901 15.4955 133.829C15.313 133.776 15.1464 133.732 14.9958 133.699C14.8449 133.664 14.6559 133.618 14.4282 133.56C14.2248 133.508 14.0422 133.439 13.8809 133.358C13.7195 133.274 13.5767 133.169 13.4524 133.035C13.3308 132.907 13.2362 132.753 13.1687 132.577C13.1014 132.401 13.0675 132.199 13.0675 131.968C13.0675 131.49 13.254 131.088 13.6269 130.765C13.9999 130.441 14.476 130.278 15.0552 130.278C15.3858 130.278 15.6983 130.311 15.9933 130.377C16.2883 130.443 16.5613 130.538 16.8125 130.659V131.6H16.7531C16.5653 131.427 16.3246 131.277 16.0312 131.149C15.7375 131.022 15.4293 130.956 15.1066 130.956C14.7417 130.956 14.4467 131.042 14.2221 131.213C13.9973 131.383 13.8849 131.607 13.8849 131.884C13.8849 132.137 13.9509 132.337 14.0833 132.485C14.2155 132.632 14.4071 132.74 14.6583 132.81C14.8251 132.854 15.0285 132.905 15.2694 132.962C15.5098 133.019 15.7098 133.072 15.8684 133.118C16.2756 133.244 16.5732 133.431 16.761 133.681C16.9489 133.934 17.0426 134.242 17.0426 134.612C17.0426 134.841 16.9957 135.069 16.9018 135.294C16.8079 135.518 16.6763 135.707 16.5072 135.863C16.3167 136.037 16.1018 136.169 15.8624 136.262C15.6231 136.354 15.3235 136.4 14.9639 136.4" fill="#EDEDC3"/>
<path d="M20.7562 132.188C20.7562 131.983 20.721 131.805 20.6511 131.656C20.5809 131.504 20.4744 131.381 20.3317 131.286C20.2074 131.205 20.0627 131.145 19.8972 131.112C19.732 131.077 19.5264 131.059 19.2804 131.059H18.6298V133.42H19.1654C19.4828 133.42 19.7393 133.396 19.9351 133.343C20.1306 133.292 20.2934 133.2 20.423 133.068C20.5393 132.949 20.6238 132.819 20.6768 132.678C20.7298 132.54 20.7562 132.375 20.7562 132.188ZM21.5734 132.168C21.5734 132.423 21.5277 132.667 21.4364 132.894C21.3453 133.125 21.2191 133.319 21.0576 133.479C20.8539 133.681 20.6148 133.833 20.3396 133.937C20.0646 134.04 19.7169 134.091 19.2963 134.091H18.6298V136.293H17.8442V130.386H19.328C19.677 130.386 19.9747 130.415 20.2206 130.472C20.4665 130.531 20.6834 130.626 20.8713 130.754C21.0908 130.905 21.2626 131.097 21.3869 131.328C21.5112 131.559 21.5734 131.838 21.5734 132.168Z" fill="#EDEDC3"/>
<path d="M24.8658 133.972L23.9533 131.187L23.0448 133.972H24.8658ZM21.4976 136.293L23.489 130.386H24.4571L26.4487 136.293H25.6194L25.0838 134.643H22.8266L22.291 136.293H21.4976Z" fill="#EDEDC3"/>
<path d="M29.8839 132.047C29.8839 131.875 29.8536 131.724 29.7929 131.59C29.732 131.455 29.638 131.348 29.5111 131.262C29.4 131.189 29.2704 131.136 29.1224 131.106C28.9741 131.075 28.7905 131.059 28.5709 131.059H27.7933V133.29H28.4836C28.7084 133.29 28.9106 133.27 29.0905 133.231C29.2705 133.191 29.4238 133.11 29.5509 132.984C29.6644 132.874 29.7484 132.74 29.8028 132.588C29.8569 132.434 29.8839 132.254 29.8839 132.047V132.047ZM31.5819 136.293H30.5623L28.6899 133.943H27.7933V136.293H27.0078V130.386H28.5311C28.8697 130.386 29.1534 130.404 29.3822 130.441C29.611 130.479 29.8285 130.564 30.0349 130.699C30.2412 130.831 30.4044 131.002 30.5247 131.211C30.6451 131.42 30.7053 131.68 30.7053 131.988C30.7053 132.423 30.5956 132.784 30.376 133.077C30.1563 133.367 29.8576 133.582 29.4794 133.723L31.5819 136.293" fill="#EDEDC3"/>
<path d="M36.3547 136.293H35.3351L33.181 133.543L32.8358 133.932V136.293H32.0503V130.386H32.8358V133.103L35.2557 130.386H36.212L33.7681 133.024L36.3547 136.293" fill="#EDEDC3"/>
<path d="M40.2503 136.293H36.8267V130.386H37.6122V135.595H40.2503V136.293Z" fill="#EDEDC3"/>
<path d="M42.9322 136.293H40.6392V135.69H41.393V130.989H40.6392V130.386H42.9322V130.989H42.1785V135.69H42.9322V136.293Z" fill="#EDEDC3"/>
<path d="M48.1251 136.293H47.2444L44.6339 131.2V136.293H43.8999V130.386H45.0147L47.3911 135.063V130.386H48.1251V136.293Z" fill="#EDEDC3"/>
<path d="M51.7947 136.407C51.3767 136.407 50.9944 136.345 50.6482 136.218C50.3017 136.09 50.0041 135.896 49.7555 135.639C49.5067 135.377 49.3165 135.052 49.184 134.667C49.0518 134.28 48.9858 133.835 48.9858 133.334C48.9858 132.856 49.0525 132.43 49.1862 132.054C49.3198 131.677 49.5109 131.354 49.7595 131.088C49.9999 130.828 50.2962 130.628 50.6482 130.49C50.9997 130.349 51.3846 130.278 51.8026 130.278C52.0008 130.278 52.1913 130.294 52.3736 130.322C52.5562 130.351 52.7309 130.391 52.8974 130.441C53.0296 130.481 53.177 130.536 53.3397 130.606C53.5023 130.677 53.6339 130.736 53.7346 130.787V131.735H53.6671C53.5692 131.647 53.468 131.565 53.3635 131.486C53.259 131.409 53.1116 131.325 52.9211 131.235C52.7625 131.156 52.58 131.09 52.3736 131.037C52.1675 130.982 51.9453 130.956 51.7073 130.956C51.1387 130.956 50.6792 131.171 50.3288 131.6C49.9781 132.027 49.803 132.597 49.803 133.31C49.803 133.706 49.8492 134.053 49.9418 134.348C50.0344 134.645 50.168 134.896 50.3426 135.102C50.5118 135.307 50.7161 135.461 50.9555 135.569C51.1948 135.676 51.4638 135.729 51.7628 135.729C51.9849 135.729 52.2058 135.714 52.4253 135.681C52.6449 135.65 52.8301 135.602 52.9808 135.538V134.011H51.616V133.321H53.7581V135.901C53.6576 135.945 53.5236 136.002 53.3556 136.07C53.1877 136.138 53.0309 136.193 52.8855 136.233C52.6924 136.292 52.5179 136.334 52.3618 136.365C52.2058 136.394 52.0166 136.407 51.7947 136.407" fill="#EDEDC3"/>
</svg>
