<svg width="103" height="223" viewBox="0 0 103 223" fill="none" xmlns="http://www.w3.org/2000/svg">
<path d="M0 50.584H83.9197V222.716H0V50.584Z" fill="#F471AB"/>
<path d="M6.08887 50.584H83.9195V222.716H6.08887V50.584Z" fill="#F1488A"/>
<path d="M83.9199 50.584L102.803 38.928V206.988L83.9199 222.716V50.584Z" fill="#BF2963"/>
<path d="M0 50.5839H83.9197L102.802 38.9279H28.3745L0 50.5839" fill="#F46EAC"/>
<path d="M83.9199 50.584L92.4266 63.6747C93.3932 65.1627 95.2933 65.7334 96.9199 65.0227C98.0506 64.5294 98.8533 63.4934 99.0493 62.2747L102.803 38.928L83.9199 50.584" fill="#E54285"/>
<path d="M83.9199 222.716L93.5413 197.815C94.3199 195.8 97.1173 195.664 98.0853 197.595L102.803 206.988L83.9199 222.716" fill="#E54285"/>
<path d="M1.39844 49.4187C8.0595 49.172 14.7204 49.056 21.3808 48.9614C28.0418 48.864 34.7027 48.8734 41.3636 48.8227C48.024 48.8694 54.685 48.8654 61.3459 48.96C68.0064 49.0547 74.6678 49.1694 81.3278 49.4187C74.6678 49.6654 68.0064 49.78 61.3459 49.8774C54.685 49.972 48.024 49.968 41.3636 50.0134C34.7027 49.964 28.0418 49.9734 21.3808 49.876C14.7204 49.7787 8.0595 49.664 1.39844 49.4187" fill="#F790C6"/>
<path d="M15.9395 45.2719H92.5436V44.0813H15.9395V45.2719Z" fill="#F360A4"/>
<path d="M16.176 101.247C15.2113 101.224 14.3254 101.027 13.5184 100.655C12.7253 100.269 12.0783 99.7374 11.5775 99.0595L13.4631 96.9011C13.8451 97.4266 14.2503 97.8303 14.6788 98.1122C15.1076 98.3805 15.5733 98.5205 16.0761 98.5322C17.4212 98.5635 18.1122 97.7911 18.1489 96.215L18.307 89.4281L13.2932 89.3112L13.3549 86.6617L21.6501 86.8549L21.4345 96.108C21.3934 97.8744 20.9279 99.1822 20.038 100.032C19.1482 100.881 17.8608 101.286 16.176 101.247ZM30.9119 101.59C28.8873 101.543 27.3175 100.942 26.2025 99.7877C25.0874 98.6334 24.5542 97.0099 24.603 94.9175L24.7891 86.9281L28.0908 87.005L27.9076 94.8721C27.8759 96.2309 28.1317 97.2156 28.6748 97.8265C29.218 98.4373 29.9923 98.7544 30.9978 98.7778C32.0032 98.8013 32.7915 98.5205 33.3625 97.9357C33.9335 97.3508 34.2348 96.379 34.2665 95.0203L34.4498 87.1531L37.7107 87.2291L37.5246 95.2185C37.4759 97.311 36.8677 98.9078 35.7001 100.009C34.5325 101.11 32.9364 101.637 30.9119 101.59ZM40.6411 101.572L40.9735 87.3051L44.2752 87.382L43.9429 101.649L40.6411 101.572ZM54.1507 102.131C53.0501 102.106 52.0283 101.905 51.0854 101.53C50.1565 101.141 49.3532 100.606 48.6758 99.9238C47.9983 99.2419 47.4731 98.4479 47.0999 97.542C46.7404 96.6363 46.5731 95.6468 46.5981 94.5734C46.6231 93.5 46.8363 92.5194 47.2376 91.6314C47.6525 90.7439 48.2142 89.9752 48.9227 89.3256C49.6448 88.6763 50.4787 88.1859 51.4244 87.8545C52.3705 87.5094 53.4006 87.3499 54.5148 87.3759C55.7513 87.4047 56.8604 87.648 57.8421 88.1059C58.8378 88.5506 59.6656 89.1952 60.3257 90.0399L58.1605 91.9471C57.6843 91.3786 57.1505 90.9515 56.5589 90.6658C55.9677 90.3666 55.3189 90.2087 54.6123 90.1923C53.9465 90.1768 53.3326 90.2712 52.7704 90.4756C52.2083 90.6801 51.7186 90.9813 51.3015 91.3795C50.8844 91.7776 50.5539 92.2525 50.3099 92.8042C50.0795 93.3562 49.9564 93.9719 49.9406 94.6513C49.9248 95.3307 50.0191 95.9514 50.2235 96.5136C50.4415 97.076 50.7496 97.5658 51.1477 97.9829C51.5458 98.4001 52.0209 98.7238 52.5729 98.9542C53.1249 99.1846 53.7338 99.3075 54.3996 99.323C55.1062 99.3395 55.7615 99.2188 56.3657 98.961C56.9702 98.6896 57.5237 98.2742 58.0261 97.7149L60.1002 99.7209C59.4015 100.534 58.5443 101.146 57.5287 101.557C56.5267 101.969 55.4007 102.16 54.1507 102.131ZM65.5114 93.6274L72.3799 93.7874L72.3201 96.3554L65.4516 96.1954L65.5114 93.6274ZM65.6193 99.5028L73.3845 99.6837L73.3228 102.333L62.2762 102.076L62.6085 87.8091L73.3902 88.0603L73.3284 90.7098L65.8282 90.5351L65.6193 99.5028Z" fill="#E8EAD5"/>
<path d="M42.2061 110.8H38.9031C23.3941 110.8 10.8223 123.372 10.8223 138.88V171.336C10.8223 186.844 23.3941 199.417 38.9031 199.417H42.2061C57.7155 199.417 70.2876 186.844 70.2876 171.336V138.88C70.2876 123.372 57.7155 110.8 42.2061 110.8" fill="#E8EAD5"/>
<path d="M12.0156 77.212H76.2875V76.0188H12.0156V77.212Z" fill="#E4E5E2"/>
<path d="M42.8641 156.796L40.5374 157.249L37.5786 141.989L39.8974 141.536L42.8641 156.796" fill="#883831"/>
<path d="M59.1511 123.236L41.4429 149.485C41.4429 149.485 51.8959 147.985 56.7845 140.736C61.6741 133.488 59.1511 123.236 59.1511 123.236Z" fill="#53C283"/>
<path d="M43.8117 131.983C38.918 139.233 41.4425 149.485 41.4425 149.485L59.1508 123.236C59.1508 123.236 48.6981 124.736 43.8117 131.983Z" fill="#46BF9B"/>
<path d="M75.221 157.84C73.137 153.889 70.2023 150.668 66.489 148.272C65.0757 147.359 63.6157 146.804 62.0125 146.573C60.6083 146.372 59.1297 146.431 57.4927 146.747L57.5797 147.179L57.4927 146.747C54.8693 147.259 52.2791 148.343 49.5411 149.493C46.8198 150.635 44.0109 151.813 41.1879 152.363C38.3775 152.908 35.3635 152.936 32.4422 152.971C29.5021 152.999 26.727 153.028 24.1155 153.535C20.1843 154.3 17.4625 156.031 15.5594 158.985C13.2813 162.519 11.9609 166.479 11.6223 170.748C11.3057 174.767 11.9182 179.009 13.3822 183.016C14.7166 186.655 16.7833 190.366 19.3614 193.747C21.9723 197.172 25.1291 200.289 28.4931 202.766C32.1135 205.424 35.9098 207.336 39.7838 208.45C44.0057 209.665 48.1874 209.885 52.2125 209.103C56.2374 208.324 60.0302 206.555 63.493 203.844C66.6663 201.362 69.4703 198.168 71.829 194.344C74.0237 190.788 75.7877 186.713 76.925 182.567C78.0503 178.462 78.5743 174.245 78.449 170.377C78.305 165.912 77.1863 161.577 75.221 157.84" fill="#F03852"/>
<path d="M52.5797 205.967C48.701 204.854 44.9089 202.94 41.2895 200.274C37.9239 197.804 34.763 194.688 32.1516 191.266C29.5734 187.88 27.5073 184.168 26.1723 180.535C24.7109 176.525 24.1037 172.281 24.415 168.262C24.7567 163.993 26.0765 160.035 28.3546 156.5C29.2958 155.035 30.4428 153.871 31.8349 152.977C29.1177 153.004 26.5447 153.064 24.1155 153.535C20.1843 154.3 17.4625 156.031 15.5594 158.985C13.2813 162.519 11.9609 166.479 11.6223 170.748C11.3057 174.767 11.9182 179.009 13.3822 183.016C14.7166 186.655 16.7833 190.366 19.3614 193.747C21.9723 197.172 25.1291 200.289 28.4931 202.766C32.1135 205.424 35.9098 207.336 39.7838 208.45C44.0057 209.665 48.1874 209.885 52.2125 209.103C54.3583 208.688 56.4437 207.985 58.4431 207.013C56.5067 206.88 54.5458 206.531 52.5797 205.967" fill="#DF354A"/>
<path d="M21.293 137.94L39.1294 149.975C39.1294 149.975 38.1091 142.877 33.1815 139.552C28.2586 136.228 21.293 137.94 21.293 137.94Z" fill="#46BF9B"/>
<path d="M27.2362 148.364C32.1616 151.688 39.1294 149.975 39.1294 149.975L21.293 137.94C21.293 137.94 22.3132 145.043 27.2362 148.364" fill="#53C283"/>
<path d="M89.3493 112.597L100.236 103.995L98.7573 102.123L87.8706 110.724" fill="#F46EAC"/>
<path d="M89.3493 121.525L100.236 112.923L98.7573 111.051L87.8706 119.653" fill="#F46EAC"/>
<path d="M89.3493 131.696L100.236 123.095L98.7573 121.221L87.8706 129.824" fill="#F46EAC"/>
<path d="M89.3493 140.624L100.236 132.023L98.7573 130.151L87.8706 138.752" fill="#F46EAC"/>
<path d="M89.3493 150.796L100.236 142.193L98.7573 140.321L87.8706 148.924" fill="#F46EAC"/>
<path d="M89.3493 159.723L100.236 151.121L98.7573 149.249L87.8706 157.851" fill="#F46EAC"/>
<path d="M37.808 44.676C37.808 45.7747 35.1725 46.6653 31.922 46.6653C28.6705 46.6653 26.0361 45.7747 26.0361 44.676C26.0361 43.5787 28.6705 42.6867 31.922 42.6867C35.1725 42.6867 37.808 43.5787 37.808 44.676Z" fill="#F78DBE"/>
<path d="M37.8078 44.676H37.2114C37.2146 44.696 37.1963 44.804 36.9728 44.9853C36.6504 45.2493 35.966 45.5453 35.0802 45.744C34.1927 45.948 33.0994 46.0693 31.9218 46.0693C30.352 46.0706 28.9302 45.8506 27.9504 45.5186C27.4614 45.3546 27.0854 45.1586 26.8707 44.9853C26.6474 44.804 26.6291 44.696 26.6322 44.676C26.6291 44.6573 26.6474 44.5493 26.8707 44.368C27.1931 44.104 27.8775 43.8066 28.7635 43.608C29.651 43.4053 30.7436 43.2826 31.9218 43.2826C33.4916 43.2813 34.913 43.5026 35.8927 43.8346C36.3816 43.9986 36.7583 44.1946 36.9728 44.368C37.1963 44.5493 37.2146 44.6573 37.2114 44.676H37.8078H38.404C38.401 44.1466 38.09 43.7306 37.7176 43.436C37.1468 42.9866 36.3379 42.676 35.3458 42.4453C34.354 42.2186 33.1816 42.0906 31.9218 42.0906C30.2406 42.0906 28.7192 42.3173 27.5687 42.7053C26.9922 42.9013 26.5067 43.1333 26.126 43.436C25.7536 43.7306 25.4427 44.1466 25.439 44.676C25.4427 45.2066 25.7536 45.6213 26.126 45.916C26.6968 46.3666 27.5051 46.6773 28.4979 46.908C29.489 47.1333 30.6614 47.2626 31.9218 47.2626C33.6026 47.2613 35.1239 47.036 36.275 46.648C36.851 46.452 37.337 46.2186 37.7176 45.916C38.09 45.6213 38.401 45.2066 38.404 44.676H37.8078" fill="#F03B82"/>
<path d="M33.4401 45.3347C34.4453 44.8453 35.3756 44.1733 36.2089 43.3707L36.2699 6.77117e-06L27.8891 0.726667L27.8281 44.6427C29.6959 44.9693 31.5661 45.2187 33.4401 45.3347" fill="#FDF3C8"/>
<path d="M36.2536 12.9546L27.8687 15.624L27.8707 13.0866L27.8769 10.6399L27.8821 7.47995L36.2603 4.81462L36.2608 4.89463L36.2597 7.33861L36.2536 12.9546Z" fill="#D9D4AE"/>
<path d="M36.2264 30.128L27.8457 32.7934L27.8462 32.4587L27.8514 30.0161L27.8593 24.6494L36.24 21.9841L36.2364 24.272L36.2312 26.7147L36.2264 30.128Z" fill="#D9D4AE"/>
<path d="M33.5499 46.4466C36.5212 45.9813 36.24 44.3253 36.2077 43.372L36.214 39.152L27.8326 41.8173V42.1506L27.8296 44.6426C28.1821 45.616 30.2312 47.2613 33.5499 46.4466Z" fill="#D9D4AE"/>
<path d="M37.2114 44.676C37.2146 44.696 37.1963 44.804 36.9728 44.9853C36.6504 45.2493 35.966 45.5453 35.0802 45.744C34.1927 45.948 33.0994 46.0693 31.9218 46.0693C30.352 46.0706 28.9302 45.8506 27.9504 45.5186C27.4614 45.3546 27.0854 45.1586 26.8707 44.9853C26.6474 44.804 26.6291 44.696 26.6322 44.676H25.439C25.4427 45.2066 25.7536 45.6213 26.126 45.916C26.6968 46.3666 27.5051 46.6773 28.4979 46.908C29.489 47.1333 30.6614 47.2626 31.9218 47.2626C33.6026 47.2613 35.1239 47.036 36.275 46.648C36.851 46.452 37.337 46.2186 37.7176 45.916C38.09 45.6213 38.401 45.2066 38.404 44.676H37.2114" fill="#F03B82"/>
</svg>
