<svg width="88" height="212" viewBox="0 0 88 212" fill="none" xmlns="http://www.w3.org/2000/svg">
<path d="M82.4015 -2.23336e-05L76.9075 8.46876L71.4142 -2.23336e-05L65.9208 8.46876L60.4275 -2.23336e-05L54.9341 8.46876L49.4408 -2.23336e-05L43.9474 8.46876L38.4541 -2.23336e-05L32.9607 8.46876L27.4668 -2.23336e-05L21.9734 8.46876L16.4801 -2.23336e-05L10.9867 8.46876L5.49335 -2.23336e-05L2.71993 4.2732C0.937849 7.02025 0 10.1346 0 13.3058H87.8948C87.8948 10.1346 86.9564 7.02025 85.1749 4.2732L82.4015 -2.23336e-05" fill="#CCD4D6"/>
<path d="M2.71993 6.25458L5.49335 1.97621L10.9867 10.445L16.4801 1.97621L21.9734 10.445L27.4668 1.97621L32.9607 10.445L38.4541 1.97621L43.9474 10.445L49.4408 1.97621L54.9341 10.445L60.4275 1.97621L65.9208 10.445L71.4142 1.97621L76.9075 10.445L82.4015 1.97621L85.1749 6.25458C86.5842 8.42221 87.4564 10.8278 87.7634 13.3058H87.8948C87.8948 10.1346 86.9564 7.02025 85.1749 4.2732L82.4015 -2.23336e-05L76.9075 8.46876L71.4142 -2.23336e-05L65.9208 8.46876L60.4275 -2.23336e-05L54.9341 8.46876L49.4408 -2.23336e-05L43.9474 8.46876L38.4541 -2.23336e-05L32.9607 8.46876L27.4668 -2.23336e-05L21.9734 8.46876L16.4801 -2.23336e-05L10.9867 8.46876L5.49335 -2.23336e-05L2.71993 4.2732C0.937849 7.02025 0 10.1346 0 13.3058H0.131404C0.438399 10.8278 1.31055 8.42221 2.71993 6.25458" fill="#E9F2F4"/>
<path d="M82.2317 26.0839L87.8948 13.3058H0L5.66312 26.0839V185.796L0 198.569H87.8948L82.2317 185.796V26.0839Z" fill="#EA5C1C"/>
<path d="M82.4015 211.875L76.9075 203.411L71.4142 211.875L65.9208 203.411L60.4275 211.875L54.9341 203.411L49.4408 211.875L43.9474 203.411L38.4541 211.875L32.9607 203.411L27.4668 211.875L21.9734 203.411L16.4801 211.875L10.9867 203.411L5.49335 211.875L2.71993 207.601C0.937849 204.854 0 201.74 0 198.569H87.8948C87.8948 201.74 86.9564 204.854 85.1749 207.601L82.4015 211.875" fill="#CCD4D6"/>
<path d="M2.71993 205.625L5.49335 209.898L10.9867 201.43L16.4801 209.898L21.9734 201.43L27.4668 209.898L32.9607 201.43L38.4541 209.898L43.9474 201.43L49.4408 209.898L54.9341 201.43L60.4275 209.898L65.9208 201.43L71.4142 209.898L76.9075 201.43L82.4015 209.898L85.1749 205.625C86.5842 203.452 87.4564 201.047 87.7634 198.569H87.8948C87.8948 201.74 86.9564 204.854 85.1749 207.601L82.4015 211.875L76.9075 203.411L71.4142 211.875L65.9208 203.411L60.4275 211.875L54.9341 203.411L49.4408 211.875L43.9474 203.411L38.4541 211.875L32.9607 203.411L27.4668 211.875L21.9734 203.411L16.4801 211.875L10.9867 203.411L5.49335 211.875L2.71993 207.601C0.937849 204.854 0 201.74 0 198.569H0.131404C0.438399 201.047 1.31055 203.452 2.71993 205.625" fill="#E9F2F4"/>
<path d="M82.2322 185.796V26.084L86.8144 15.7477H26.455C22.0367 15.7477 18.4551 18.9345 18.4551 22.861V189.014C18.4551 192.945 22.0367 196.132 26.455 196.132H86.8144L82.2322 185.796Z" fill="#C13D0A"/>
<path d="M82.2311 26.084L86.8134 15.7477H74.9324L70.3496 26.084V185.796L74.9324 196.132H86.8134L82.2311 185.796V26.084Z" fill="#9E2905"/>
<path d="M5.66406 64.9566V74.0824H82.2326V64.9566H5.66406" fill="#FF9D00"/>
<path d="M82.2321 64.9566V74.0824H18.4551V64.9566H82.2321Z" fill="#CE7A00"/>
<path d="M70.3496 64.9566V74.0824H82.2311V64.9566H70.3496Z" fill="#A56004"/>
<path d="M5.66406 82.2925V133.39H82.2326V82.2925H5.66406" fill="#FF9D00"/>
<path d="M82.2321 82.2925V133.39H18.4551V82.2925H82.2321Z" fill="#CE7A00"/>
<path d="M70.3496 82.2925V133.39H82.2311V82.2925H70.3496Z" fill="#A56004"/>
<path d="M5.66406 141.6V150.726H82.2326V141.6H5.66406" fill="#FF9D00"/>
<path d="M82.2321 141.6V150.726H18.4551V141.6H82.2321Z" fill="#CE7A00"/>
<path d="M70.3496 141.6V150.726H82.2311V141.6H70.3496Z" fill="#A56004"/>
<path d="M64.5577 92.6497L72.061 89.137L70.6278 96.5711L76.6979 101.838L68.3096 102.919L64.5577 109.686L60.8063 102.919L52.418 101.838L58.4875 96.5711L57.0549 89.137L64.5577 92.6497" fill="#C13D0A"/>
<path d="M70.3496 89.9387V102.655L76.6971 101.837L70.627 96.5709L72.0602 89.1368L70.3496 89.9387Z" fill="#9E2905"/>
<path d="M42.2456 89.0697L47.6064 86.5658L46.5825 91.8737L50.92 95.6347L44.926 96.4107L42.2456 101.243L39.5652 96.4107L33.5713 95.6347L37.9082 91.8737L36.8843 86.5658L42.2456 89.0697Z" fill="#C13D0A"/>
<path d="M38.3004 105.066L50.3842 99.4111L48.0765 111.382L57.8521 119.861L44.342 121.61L38.3004 132.5L32.2582 121.61L18.748 119.861L28.5242 111.382L26.2165 99.4111L38.3004 105.066" fill="#C13D0A"/>
</svg>
