<svg width="115" height="173" viewBox="0 0 115 173" fill="none" xmlns="http://www.w3.org/2000/svg">
<path d="M114.631 161.789H0V14.4111H114.631V161.789Z" fill="#63D378"/>
<path d="M0.00146484 161.79L9.10769 173H57.3167V161.79H0.00146484Z" fill="#CED5D0"/>
<path d="M114.631 161.79L105.524 173H57.3154V161.79H114.631Z" fill="#CED5D0"/>
<path d="M0 14.4092L8.70508 7.04544H57.3157V14.4092H0Z" fill="#CED5D0"/>
<path d="M114.631 14.4092L105.926 7.04544H57.3154V14.4092H114.631Z" fill="#CED5D0"/>
<path d="M105.696 7.0484H8.93527C6.42432 7.0484 4.38867 5.47007 4.38867 3.52414C4.38867 1.57821 6.42432 -0.000120184 8.93527 -0.000120184H105.696C108.207 -0.000120184 110.243 1.57821 110.243 3.52414C110.243 5.47007 108.207 7.0484 105.696 7.0484Z" fill="#CED5D0"/>
<path d="M110.243 3.52417C110.243 3.51834 110.243 3.51251 110.243 3.50668C110.243 3.51251 110.243 3.51834 110.243 3.52417ZM4.38867 3.52417C4.38867 3.51834 4.38867 3.50958 4.38882 3.50374C4.38867 3.50958 4.38867 3.51834 4.38867 3.52417ZM4.38882 3.495C4.38882 3.49208 4.38894 3.48915 4.38894 3.48915C4.38894 3.48915 4.38882 3.49208 4.38882 3.495ZM106.06 0.0115905C106.059 0.0115905 106.058 0.0115905 106.056 0.0115905C106.058 0.0115905 106.059 0.0115905 106.06 0.0115905ZM106.036 0.00865601C106.034 0.00865601 106.032 0.00865601 106.03 0.00865601C106.032 0.00865601 106.034 0.00865601 106.036 0.00865601ZM106.011 0.00865601C106.009 0.00865601 106.007 0.00865601 106.004 0.00865601C106.007 0.00865601 106.009 0.00865601 106.011 0.00865601ZM105.963 0.00574997C105.963 0.00574997 105.963 0.00574997 105.962 0.00574997C105.963 0.00574997 105.963 0.00574997 105.963 0.00574997ZM105.948 0.00574997C105.943 0.00574997 105.939 0.00574997 105.935 0.00574997C105.939 0.00574997 105.943 0.00574997 105.948 0.00574997ZM105.922 0.00281543C105.917 0.00281543 105.913 0.00281543 105.908 0.00281543C105.913 0.00281543 105.917 0.00281543 105.922 0.00281543ZM105.895 0.00281543C105.89 0.00281543 105.885 0.00281543 105.881 0.00281543C105.885 0.00281543 105.89 0.00281543 105.895 0.00281543ZM105.869 0.00281543C105.863 0.00281543 105.856 0.00281543 105.85 0.00281543C105.856 0.00281543 105.863 0.00281543 105.869 0.00281543ZM105.841 0.00281543C105.833 0.00281543 105.824 -9.06096e-05 105.815 -9.06096e-05C105.824 -9.06096e-05 105.833 0.00281543 105.841 0.00281543ZM105.806 -9.06096e-05C105.8 -9.06096e-05 105.794 -9.06096e-05 105.789 -9.06096e-05C105.795 -9.06096e-05 105.8 -9.06096e-05 105.806 -9.06096e-05ZM105.778 -9.06096e-05C105.772 -9.06096e-05 105.767 -9.06096e-05 105.761 -9.06096e-05C105.767 -9.06096e-05 105.772 -9.06096e-05 105.778 -9.06096e-05ZM105.751 -9.06096e-05C105.744 -9.06096e-05 105.738 -9.06096e-05 105.732 -9.06096e-05C105.738 -9.06096e-05 105.744 -9.06096e-05 105.751 -9.06096e-05ZM105.723 -9.06096e-05C105.714 -9.06096e-05 105.706 -9.06096e-05 105.696 -9.06096e-05C105.705 -9.06096e-05 105.714 -9.06096e-05 105.723 -9.06096e-05Z" fill="#D2D2D8"/>
<path d="M105.696 7.0484H57.3158H8.93527C6.42432 7.0484 4.38867 5.47007 4.38867 3.52414C4.38867 3.51831 4.38867 3.50955 4.38882 3.50371C4.38882 3.5008 4.38882 3.49788 4.38882 3.49497C4.38882 3.49205 4.38894 3.48913 4.38894 3.48913C4.39338 3.16529 4.45684 2.85314 4.56589 2.55848C5.1078 4.0347 6.85679 5.11708 8.93527 5.11708H81.0902C81.4042 4.63862 81.5848 4.09888 81.5848 3.52414C81.5848 1.57821 79.5495 -0.000120184 77.0387 -0.000120184H105.696C105.706 -0.000120184 105.714 -0.000120184 105.723 -0.000120184C105.726 -0.000120184 105.729 -0.000120184 105.732 -0.000120184C105.738 -0.000120184 105.744 -0.000120184 105.751 -0.000120184C105.754 -0.000120184 105.757 -0.000120184 105.761 -0.000120184C105.767 -0.000120184 105.772 -0.000120184 105.778 -0.000120184C105.781 -0.000120184 105.785 -0.000120184 105.789 -0.000120184C105.794 -0.000120184 105.8 -0.000120184 105.806 -0.000120184C105.809 -0.000120184 105.812 -0.000120184 105.815 -0.000120184C105.824 -0.000120184 105.833 0.00278586 105.841 0.00278586C105.844 0.00278586 105.847 0.00278586 105.85 0.00278586C105.856 0.00278586 105.863 0.00278586 105.869 0.00278586C105.872 0.00278586 105.876 0.00278586 105.881 0.00278586C105.885 0.00278586 105.89 0.00278586 105.895 0.00278586C105.899 0.00278586 105.904 0.00278586 105.908 0.00278586C105.913 0.00278586 105.917 0.00278586 105.922 0.00278586C105.927 0.00278586 105.931 0.00572039 105.935 0.00572039C105.939 0.00572039 105.943 0.00572039 105.948 0.00572039C105.952 0.00572039 105.957 0.00572039 105.962 0.00572039C105.963 0.00572039 105.963 0.00572039 105.963 0.00572039C105.977 0.00572039 105.991 0.005709 106.004 0.00862643C106.007 0.00862643 106.009 0.00862643 106.011 0.00862643C106.018 0.00862643 106.024 0.00862643 106.03 0.00862643C106.032 0.00862643 106.034 0.00862643 106.036 0.00862643C106.043 0.00862643 106.05 0.011561 106.056 0.011561C106.058 0.011561 106.059 0.011561 106.06 0.011561C107.977 0.128259 109.556 1.16978 110.066 2.55848C110.117 2.69852 110.156 2.84148 110.185 2.98735C110.19 3.01361 110.195 3.03693 110.199 3.06319C110.224 3.20906 110.241 3.35786 110.243 3.50665C110.243 3.51248 110.243 3.51831 110.243 3.52414C110.243 5.47007 108.207 7.0484 105.696 7.0484" fill="#B1B5B9"/>
<path d="M114.631 85.9919C109.591 87.1604 104.19 87.3983 99.0319 86.5917C94.0125 85.8084 89.2756 84.1047 84.2201 83.4739C75.0672 82.3338 65.2662 85.0587 59.136 90.4462C56.7373 92.5558 54.8877 95.0195 52.402 97.067C45.543 102.716 34.5605 104.448 24.6734 103.243C17.7434 102.4 11.1163 100.291 4.13576 99.753C2.86836 99.6548 1.4584 99.616 0 99.6574V161.731H114.631V85.9919" fill="#F4E41E"/>
<path d="M15.5636 54.8972C1.26852 70.0492 5.22516 91.3436 24.5964 102.731C43.968 114.122 71.4931 111.335 86.4657 96.5838L15.5636 54.8972" fill="#77BB63"/>
<path d="M17.884 56.2622C4.81552 70.1241 8.74751 89.7846 26.8504 100.428C44.9538 111.071 70.4426 108.708 84.1439 95.2188L17.884 56.2622Z" fill="#E6F9B4"/>
<path d="M20.3462 57.7096C8.07899 70.7132 11.5822 89.0527 28.34 98.905C45.0981 108.76 68.8293 106.431 81.6824 93.7733L20.3462 57.7096" fill="#CEF490"/>
<path d="M50.423 75.3926L51.6068 76.0881L28.2502 99.9521L27.0664 99.2567L50.423 75.3926" fill="#E6F9B4"/>
<path d="M50.4947 76.2715L14.762 83.9083L13.333 82.0909L50.423 75.3926L50.4631 75.8838L50.4947 76.2715Z" fill="#E6F9B4"/>
<path d="M13.6738 65.8116C13.981 65.8917 50.4626 75.8835 50.4626 75.8835L50.4226 75.3924L14.0714 64.7465L13.6738 65.8116" fill="#E6F9B4"/>
<path d="M50.6521 77.0653L48.1387 105.653L49.6167 105.722L51.2104 76.494L50.6521 77.0653" fill="#E6F9B4"/>
<path d="M73.0797 101.237L50.4629 75.8837L50.4229 75.3925L74.0724 100.223L73.0797 101.237Z" fill="#E6F9B4"/>
<path d="M83.0368 75.5348C77.6748 75.5348 73.3281 72.1637 73.3281 68.0092C73.3281 63.8522 77.6748 60.4837 83.0368 60.4837C83.4444 60.4837 83.8453 60.5044 84.2396 60.5406V75.4753C83.8453 75.5141 83.4444 75.5348 83.0368 75.5348Z" fill="#95E1A3"/>
<path d="M46.0411 58.4944C40.679 58.4944 36.332 55.1251 36.332 50.9711C36.332 46.8145 40.679 43.4452 46.0411 43.4452C51.4025 43.4452 55.7495 46.8145 55.7495 50.9711C55.7495 55.1251 51.4025 58.4944 46.0411 58.4944" fill="#95E1A3"/>
<path d="M71.7343 43.442C67.787 43.442 64.5869 40.9624 64.5869 37.9009C64.5869 34.8422 67.787 32.3625 71.7343 32.3625C75.682 32.3625 78.8817 34.8422 78.8817 37.9009C78.8817 40.9624 75.682 43.442 71.7343 43.442Z" fill="#95E1A3"/>
<path d="M105.894 172.997H78.1006H105.525L114.631 161.79H84.2396H114.631V161.733V85.9914V14.4091L105.926 7.04532H106.065L115 14.4091V161.79L105.894 172.997" fill="#E0DFE4"/>
<path d="M114.631 161.789H84.2393V161.733H114.631V161.789ZM105.211 87.0661C103.138 87.0661 101.066 86.9105 99.0317 86.5936C94.0189 85.81 89.2878 84.1069 84.2393 83.476V75.4756C89.0342 75.0173 92.7457 71.8487 92.7457 68.0097C92.7457 64.1708 89.0342 61.0023 84.2393 60.5411V14.4111H114.631V85.9939C111.579 86.7011 108.394 87.0661 105.211 87.0661" fill="#68BD7C"/>
<path d="M105.525 173H78.1006L84.2395 161.79H114.631L105.525 173Z" fill="#BABFC0"/>
<path d="M114.631 14.4092H84.2394L76.7656 7.04544H105.926L114.631 14.4092Z" fill="#BABFC0"/>
<path d="M114.631 161.731H84.2393V98.6129C85.0078 97.964 85.7513 97.2867 86.4651 96.5835L84.2393 95.2754V83.4765C89.2877 84.1073 94.0186 85.8109 99.0317 86.5917C101.066 86.9097 103.138 87.0648 105.211 87.0648C108.394 87.0648 111.579 86.7003 114.631 85.9919V161.731" fill="#D7CA37"/>
<path d="M84.2393 98.6128V95.2753L86.4651 96.5834C85.7513 97.2865 85.0078 97.9639 84.2393 98.6128Z" fill="#77AB6C"/>
<path d="M84.2393 75.4754V60.5406C89.0339 61.0008 92.7454 64.1703 92.7454 68.0093C92.7454 71.8484 89.0339 75.0178 84.2393 75.4754" fill="#8EC89D"/>
<path d="M6.68945 113.995H15.8979V117.24H12.1266V120.313H15.4846V123.395H12.1266V130.202H6.68945V113.995Z" fill="#63D378"/>
<path d="M22.6529 116.769V120.373C23.264 120.373 23.6926 120.308 23.9381 120.176C24.1833 120.047 24.306 119.626 24.306 118.912V118.02C24.306 117.506 24.1876 117.17 23.9508 117.009C23.7136 116.849 23.2813 116.769 22.6529 116.769V116.769ZM17.2158 113.995H21.0645C23.6299 113.995 25.3671 114.073 26.2757 114.225C27.184 114.38 27.9241 114.771 28.4969 115.401C29.0696 116.032 29.3561 117.04 29.3561 118.421C29.3561 119.683 29.1533 120.53 28.749 120.962C28.3438 121.397 27.5479 121.658 26.3597 121.743C27.4358 121.95 28.159 122.226 28.5296 122.575C28.8991 122.922 29.13 123.24 29.2204 123.529C29.3108 123.821 29.3561 124.62 29.3561 125.928V130.202H24.306V124.817C24.306 123.948 24.2176 123.413 24.0412 123.206C23.8647 122.999 23.402 122.896 22.6529 122.896V130.202H17.2158V113.995" fill="#63D378"/>
<path d="M31.4609 113.995H40.5271V117.24H36.898V120.313H40.2946V123.395H36.898V126.96H40.8887V130.202H31.4609V113.995Z" fill="#63D378"/>
<path d="M53.9725 118.902H48.9227V117.7C48.9227 117.139 48.858 116.782 48.7289 116.629C48.5998 116.474 48.3844 116.399 48.0832 116.399C47.7556 116.399 47.5084 116.503 47.3407 116.709C47.1725 116.916 47.0888 117.229 47.0888 117.65C47.0888 118.191 47.1825 118.599 47.372 118.873C47.5518 119.147 48.0641 119.476 48.9084 119.863C51.3287 120.978 52.8531 121.89 53.4818 122.604C54.1099 123.32 54.4245 124.47 54.4245 126.058C54.4245 127.213 54.25 128.064 53.9015 128.609C53.5529 129.157 52.8788 129.617 51.8801 129.987C50.8811 130.357 49.7186 130.543 48.393 130.543C46.938 130.543 45.6955 130.328 44.6672 129.902C43.6381 129.475 42.964 128.93 42.6458 128.27C42.3272 127.609 42.1681 126.673 42.1681 125.458V124.395H47.2179V126.368C47.2179 126.975 47.289 127.366 47.431 127.539C47.5728 127.712 47.825 127.8 48.1866 127.8C48.5481 127.8 48.817 127.689 48.9938 127.469C49.1699 127.249 49.2583 126.921 49.2583 126.489C49.2583 125.533 49.0905 124.91 48.7546 124.615C48.41 124.323 47.5618 123.832 46.2105 123.144C44.8586 122.451 43.9633 121.947 43.524 121.634C43.0851 121.319 42.7208 120.887 42.4326 120.331C42.1438 119.778 42 119.07 42 118.209C42 116.968 42.2045 116.061 42.6134 115.487C43.0224 114.913 43.6831 114.465 44.5961 114.142C45.5084 113.817 46.6108 113.656 47.9024 113.656C49.3143 113.656 50.5175 113.832 51.5122 114.186C52.5065 114.54 53.1653 114.985 53.4882 115.523C53.8111 116.061 53.9725 116.973 53.9725 118.261V118.902" fill="#63D378"/>
<path d="M68.6298 113.995V130.202H63.1924V123.395H61.565V130.202H56.1279V113.995H61.565V119.791H63.1924V113.995H68.6298" fill="#63D378"/>
<path d="M12.0061 132.484V145.263H15.2657V148.461H6.64551V132.484H12.0061" fill="white"/>
<path d="M21.9251 132.484V148.461H16.5645V132.484H21.9251Z" fill="white"/>
<path d="M40.6178 132.484V148.461H35.9319L35.9256 137.673L34.0603 148.461H30.7367L28.7694 137.921L28.763 148.461H24.0771V132.484H31.0136C31.2194 133.444 31.4315 134.576 31.65 135.879L32.4112 139.945L33.6434 132.484H40.6178" fill="white"/>
<path d="M42.7695 132.484H51.7083V135.68H48.1302V138.71H51.4792V141.75H48.1302V145.263H52.0649V148.461H42.7695V132.484Z" fill="white"/>
<path d="M25.6951 103.357C25.3533 103.325 25.013 103.287 24.6736 103.244C19.2464 102.585 14.0053 101.146 8.63449 100.298C8.61937 100.101 8.60739 99.909 8.59788 99.7173C8.29311 93.5853 7.98834 87.4533 7.68343 81.3186C9.57849 89.554 15.3198 97.2791 24.5963 102.733C24.9593 102.947 25.3265 103.155 25.6951 103.357ZM7.20955 71.7817C6.82584 64.0621 6.44209 56.3424 6.05837 48.6228C5.91128 45.6607 5.77095 42.6528 6.89137 39.7907C8.06638 36.7908 11.7671 35.4219 15.6974 35.4219C19.9101 35.4219 24.3869 36.9933 26.2995 39.8096C28.0331 42.3612 27.7833 45.2449 27.5377 48.0044C27.1399 52.4678 26.8361 56.9338 26.6256 61.4025L15.5633 54.8979C10.722 60.0308 7.97398 65.8658 7.20955 71.7817" fill="#99E2A7"/>
<path d="M17.0422 108.729C16.2277 108.729 15.4101 108.636 14.6146 108.434C9.99354 107.266 8.88538 103.535 8.63428 100.296C14.0051 101.146 19.2461 102.584 24.6734 103.243C25.0127 103.284 25.3532 103.323 25.6948 103.357C25.8639 103.45 26.0324 103.543 26.2028 103.633C25.983 104.117 25.7081 104.59 25.3652 105.05C23.8329 107.1 20.4606 108.729 17.0422 108.729Z" fill="#F8ED6D"/>
<path d="M26.2029 103.633C26.0325 103.543 25.864 103.45 25.6949 103.357C25.3263 103.153 24.9591 102.946 24.5962 102.731C15.3198 97.2764 9.57839 89.5518 7.68336 81.3179C7.52542 78.1381 7.36738 74.9609 7.20947 71.7811C7.97393 65.8661 10.7219 60.0287 15.5633 54.897L26.6255 61.4014L17.8842 56.262C4.81577 70.1239 8.74776 89.7845 26.8507 100.428C26.8884 100.451 26.9268 100.472 26.9644 100.495C26.8784 101.568 26.6616 102.623 26.2029 103.633Z" fill="#A6D399"/>
<path d="M26.9642 100.495C26.9265 100.472 26.8881 100.451 26.8505 100.428C8.74751 89.7845 4.81552 70.1239 17.884 56.262L26.6253 61.4014L20.346 57.7097C18.1582 60.0286 16.4717 62.5182 15.2729 65.0983L14.071 64.7467L13.6734 65.8118C13.7048 65.8195 14.1144 65.9307 14.8236 66.1246C12.7004 71.2873 12.4873 76.7705 14.0731 81.959L13.3322 82.0909L14.7572 83.9031C16.9003 89.2726 21.0201 94.2336 26.9845 98.0727C27.0196 98.8793 27.0286 99.691 26.9642 100.495" fill="#EFFBCE"/>
<path d="M26.9847 98.0729C21.0203 94.2338 16.9005 89.2728 14.7574 83.9033L14.7614 83.9085L26.3086 81.4396C26.3873 86.5299 26.5868 91.6176 26.9077 96.7053C26.936 97.1577 26.9647 97.6153 26.9847 98.0729ZM14.0733 81.9592C12.4875 76.7707 12.7006 71.2875 14.8238 66.1248C16.8378 66.6754 21.2712 67.8905 26.3516 69.2814C26.2729 72.7714 26.2516 76.2614 26.2873 79.7515L14.0733 81.9592M26.3737 68.3507L15.2731 65.0985C16.4719 62.5184 18.1584 60.0289 20.3462 57.7099L26.6255 61.4016C26.5164 63.7154 26.4327 66.0343 26.3737 68.3507Z" fill="#DFF8B7"/>
<path d="M14.762 83.9083L14.758 83.9031L13.333 82.0909L14.0739 81.959L26.2879 79.7512C26.2935 80.3148 26.3005 80.8784 26.3092 81.4394L14.762 83.9083" fill="#EFFBCE"/>
<path d="M26.3518 69.2814C21.2714 67.8906 16.838 66.6755 14.8239 66.1249C14.1148 65.931 13.7052 65.8198 13.6738 65.8121L14.0714 64.747L15.2733 65.0986L26.3738 68.3508C26.3662 68.661 26.3588 68.9712 26.3518 69.2814" fill="#EFFBCE"/>
<path d="M14.5149 29.5439C11.6466 29.5439 8.77618 28.109 7.78697 25.9988C6.60414 23.4766 8.28521 20.3574 11.4322 19.2337C11.7076 19.1356 12.0315 19.0599 12.3317 19.0599C12.5815 19.0599 12.8154 19.1132 12.9908 19.2533L13.6459 18.7685C13.8534 18.7517 14.0602 18.7432 14.2674 18.7432C17.5009 18.7432 20.6204 20.6825 21.2141 23.1655C21.8454 25.8026 19.5262 28.6667 16.1844 29.3729C15.6373 29.4878 15.0765 29.5439 14.5149 29.5439" fill="#99E2A7"/>
</svg>
