<svg width="168" height="194" viewBox="0 0 168 194" fill="none" xmlns="http://www.w3.org/2000/svg">
<path d="M161.472 171.9C160.358 170.485 159.244 165.107 159.244 160.013C159.244 154.917 155.902 151.522 155.902 151.522C153.674 149.823 153.674 146.709 153.674 146.709L154.418 143.03C159.616 132.841 157.388 56.7031 157.388 56.7031C157.388 56.7031 158.872 47.9295 156.644 46.5145C154.418 45.0996 155.16 42.2685 155.16 42.2685L157.016 39.7214C168 23.305 168 0.378204 168 0.378204C111.113 -0.0832988 90.7406 -0.0439999 84.0002 0.0878581C77.2602 -0.0439999 56.8871 -0.0832988 0 0.378204C0 0.378204 0 23.305 10.9839 39.7214L12.8405 42.2685C12.8405 42.2685 13.583 45.0996 11.3557 46.5145C9.12734 47.9295 10.6127 56.7031 10.6127 56.7031C10.6127 56.7031 8.38493 132.841 13.583 143.03L14.3258 146.709C14.3258 146.709 14.3259 149.823 12.0981 151.522C12.0981 151.522 8.75613 154.917 8.75613 160.013C8.75613 165.107 7.64188 170.485 6.52761 171.9C6.52761 171.9 1.70079 180.897 1.70079 187.183L1.32958 193.47C1.32958 193.47 28.4357 194.662 32.1491 193.47C35.8629 192.279 59.2559 192.279 59.2559 192.279L84.0002 191.749L108.745 192.279C108.745 192.279 132.138 192.279 135.851 193.47C139.563 194.662 166.672 193.47 166.672 193.47L166.3 187.183C166.3 180.897 161.472 171.9 161.472 171.9Z" fill="#B5E6E6"/>
<path d="M167.093 10.9927C168 4.72815 168 0.378137 168 0.378137C111.113 -0.083366 90.7406 -0.0440671 84.0002 0.0877909C77.2602 -0.0440671 56.8871 -0.083366 0 0.378137C0 0.378137 0.000635055 4.72815 0.908157 10.9927H167.093Z" fill="#DFF4F7"/>
<path d="M12.5172 0.28051C8.54749 0.309671 4.39539 0.342638 0 0.378138C0 0.378138 0.000635055 4.72815 0.908157 10.9927H13.5482C13.2092 7.4211 12.902 3.84828 12.5172 0.28051" fill="#C1EAE9"/>
<path d="M24.5338 0.194272C22.7422 0.205683 20.9186 0.218337 19.0254 0.232283C19.412 3.81654 19.72 7.40588 20.0613 10.9927H24.5338V0.194272Z" fill="#C1EAE9"/>
<path d="M40.8312 0.0928686C37.7679 0.110619 34.5184 0.129632 31.0479 0.151185V10.9927H42.4228C41.9411 7.35644 41.3967 3.72404 40.8312 0.0928686Z" fill="#C1EAE9"/>
<path d="M66.349 0.00155376C63.8462 0.00408949 61.0709 0.00914609 57.9568 0.0180212C57.9388 3.67835 57.8922 7.33615 57.7842 10.9927H66.7513C66.5613 7.32981 66.4241 3.66695 66.349 0.00155376" fill="#C1EAE9"/>
<path d="M76.0987 0.0142461C75.1017 0.00917462 74.0378 0.00662899 72.8633 0.00409326C72.9384 3.66823 73.0756 7.33108 73.2656 10.9927H77.157C76.8037 7.33362 76.4519 3.67331 76.0987 0.0142461Z" fill="#C1EAE9"/>
<path d="M92.2755 10.5109C92.3089 7.00653 92.5393 3.50975 92.7554 0.00916838C91.0853 0.0155077 89.6349 0.0244075 88.3867 0.0345505C88.4233 3.69361 88.5717 7.34629 88.9739 10.9927H92.3311C92.2993 10.838 92.2739 10.6821 92.2755 10.5109Z" fill="#C1EAE9"/>
<path d="M100.046 0.000308636C99.7855 0.000308636 99.5233 0.000308636 99.2706 0.000308636C99.0815 3.04192 98.8908 6.08099 98.8193 9.1264C99.2293 6.08479 99.6409 3.04319 100.046 0.000308636Z" fill="#C1EAE9"/>
<path d="M118.982 0.052256C118.273 0.0497203 117.573 0.045939 116.889 0.0434032C116.621 1.96549 115.945 3.81024 115.175 5.65879C113.856 8.82084 107.568 7.4579 108.893 4.27682C109.476 2.8809 110.083 1.47356 110.36 0.0193212C109.042 0.0155176 107.763 0.0117041 106.559 0.00916838C106.072 3.67076 105.583 7.33235 105.084 10.9927H114.727C116.125 7.34122 117.549 3.6961 118.982 0.052256" fill="#C1EAE9"/>
<path d="M127.884 0.097945C127.177 0.0928736 126.471 0.0902957 125.788 0.0864921C124.364 3.7202 122.95 7.35517 121.545 10.9927H127.884V0.097945Z" fill="#C1EAE9"/>
<path d="M138.11 0.1588C137.398 1.52429 136.706 2.89862 136.018 4.27299C135.683 4.94115 135.117 5.51045 134.397 5.8515V10.9927H138.303C138.289 10.8393 138.283 10.6821 138.305 10.5109C138.761 7.03189 139.487 3.59597 140.309 0.172729C139.572 0.167658 138.831 0.162604 138.11 0.1588" fill="#C1EAE9"/>
<path d="M150.463 0.810437C150.466 0.608847 150.494 0.421237 150.542 0.243736C149.306 0.234861 148.07 0.225991 146.876 0.217116C146.026 3.62767 145.271 7.04837 144.818 10.5109C144.796 10.6821 144.748 10.8393 144.694 10.9927H149.678C149.867 7.5948 150.415 4.21593 150.463 0.810437" fill="#C1EAE9"/>
<path d="M164.061 0.346442C162.696 3.88886 161.359 7.43885 160.042 10.9927H167.093C168 4.72815 168 0.378138 168 0.378138C166.657 0.366728 165.362 0.357853 164.061 0.346442Z" fill="#C1EAE9"/>
<path d="M51.444 0.0421045C50.123 0.0471759 48.7586 0.0535326 47.3408 0.0598719C47.9083 3.70118 48.4545 7.34503 48.9367 10.9927H51.272C51.3793 7.34376 51.4259 3.69356 51.444 0.0421045Z" fill="#C1EAE9"/>
<path d="M12.8403 42.2685C12.8403 42.2685 13.5827 45.0996 11.3555 46.5145C9.1271 47.9295 10.6124 56.7032 10.6124 56.7032C10.6124 56.7032 8.38468 132.841 13.5827 143.03L14.3256 146.709C14.3256 146.709 14.3256 149.823 12.0979 151.522C12.0979 151.522 8.75589 154.917 8.75589 160.013C8.75589 165.107 7.64163 170.485 6.52737 171.9C6.52737 171.9 5.69438 173.455 4.72043 175.72H163.28C162.304 173.455 161.472 171.9 161.472 171.9C160.358 170.485 159.244 165.107 159.244 160.013C159.244 154.917 155.902 151.522 155.902 151.522C153.674 149.823 153.674 146.709 153.674 146.709L154.418 143.03C159.616 132.841 157.388 56.7032 157.388 56.7032C157.388 56.7032 158.872 47.9295 156.644 46.5145C154.418 45.0996 155.16 42.2685 155.16 42.2685L157.016 39.7214C162.196 31.9785 164.933 22.789 166.379 15.2389H1.62109C3.06811 22.789 5.80307 31.9785 10.9836 39.7214L12.8403 42.2685" fill="#F14750"/>
<path d="M154.418 143.03H154.424V143.016H154.418V143.03Z" fill="#F46872"/>
<path d="M154.426 143.012C154.427 143.008 154.431 143.004 154.432 143.002C154.431 143.004 154.427 143.008 154.426 143.012ZM154.434 142.997C154.435 142.994 154.437 142.99 154.438 142.987C154.437 142.99 154.435 142.993 154.434 142.997ZM154.442 142.983C154.443 142.979 154.445 142.975 154.446 142.973C154.445 142.975 154.443 142.979 154.442 142.983ZM154.448 142.968C154.45 142.964 154.453 142.96 154.454 142.957C154.451 142.96 154.451 142.964 154.448 142.968ZM154.456 142.952C154.458 142.949 154.459 142.945 154.461 142.941C154.459 142.945 154.458 142.949 154.456 142.952ZM154.462 142.938C154.469 142.928 154.472 142.918 154.478 142.908C154.472 142.918 154.469 142.928 154.462 142.938ZM154.478 142.905C154.481 142.902 154.483 142.897 154.485 142.893C154.483 142.897 154.481 142.902 154.478 142.905ZM154.486 142.892C154.488 142.886 154.489 142.883 154.493 142.876C154.489 142.883 154.488 142.886 154.486 142.892ZM154.493 142.875C154.496 142.87 154.497 142.865 154.5 142.86C154.497 142.865 154.496 142.87 154.493 142.875ZM154.5 142.86C154.504 142.855 154.505 142.851 154.507 142.845C154.505 142.851 154.504 142.855 154.5 142.86ZM154.508 142.843C154.518 142.822 154.527 142.802 154.537 142.78C154.527 142.802 154.518 142.823 154.508 142.843ZM154.539 142.779C154.543 142.767 154.548 142.757 154.553 142.746C154.548 142.757 154.543 142.767 154.539 142.779ZM154.553 142.746C157.237 136.74 157.863 112.574 157.861 91.3769C157.861 77.7929 157.606 65.4313 157.469 59.8438C157.47 59.8438 157.47 59.8438 157.47 59.8438C157.817 74.1403 158.959 132.889 154.553 142.746Z" fill="#F46872"/>
<path d="M11.5738 133.251C11.5732 133.246 11.5732 133.243 11.5725 133.239C11.5732 133.243 11.5732 133.246 11.5738 133.251ZM11.5639 133.154C11.5633 133.147 11.562 133.139 11.5614 133.131C11.562 133.14 11.5627 133.147 11.5639 133.154ZM11.552 133.047C11.5514 133.039 11.5509 133.034 11.5503 133.027C11.5509 133.033 11.5514 133.04 11.552 133.047ZM11.5477 133.001C11.5465 132.992 11.5458 132.984 11.5446 132.975C11.5458 132.984 11.5465 132.992 11.5477 133.001ZM11.5434 132.96C11.5396 132.93 11.5372 132.901 11.5334 132.869C11.5366 132.899 11.5403 132.931 11.5434 132.96ZM11.5322 132.856C11.5005 132.552 11.4702 132.244 11.4397 131.932C11.4527 132.064 11.4651 132.193 11.4783 132.325C11.4788 132.33 11.4794 132.338 11.48 132.343C11.4813 132.354 11.4826 132.364 11.4832 132.375C11.4839 132.381 11.4845 132.388 11.485 132.394C11.4862 132.405 11.4869 132.414 11.4881 132.425C11.4894 132.433 11.49 132.439 11.4907 132.447C11.4918 132.458 11.4931 132.473 11.4943 132.486C11.4956 132.495 11.4962 132.504 11.4969 132.513C11.4982 132.519 11.4986 132.525 11.4993 132.533C11.4999 132.543 11.5018 132.557 11.5031 132.567V132.571C11.5129 132.667 11.5223 132.761 11.5322 132.856M11.4397 131.93C11.4341 131.872 11.4286 131.818 11.423 131.76C11.4286 131.818 11.4341 131.871 11.4397 131.93ZM11.423 131.757C11.4174 131.701 11.4123 131.647 11.4068 131.591C11.4123 131.647 11.4174 131.701 11.423 131.757ZM11.4061 131.582C11.405 131.571 11.4044 131.561 11.4031 131.549C11.4044 131.559 11.4055 131.571 11.4061 131.582ZM11.4019 131.536C11.4006 131.524 11.3993 131.51 11.3988 131.498C11.3999 131.511 11.4006 131.524 11.4019 131.536ZM11.3982 131.496C11.3944 131.453 11.3907 131.411 11.3863 131.368C11.3907 131.412 11.3944 131.453 11.3982 131.496ZM11.3863 131.367C11.3795 131.297 11.3733 131.228 11.3671 131.157C11.3733 131.227 11.3795 131.297 11.3863 131.367ZM11.3653 131.138C11.3647 131.127 11.3634 131.117 11.3628 131.107C11.3634 131.117 11.364 131.127 11.3653 131.138ZM11.3615 131.099C11.3553 131.029 11.3491 130.958 11.3429 130.887C11.3491 130.957 11.3553 131.029 11.3615 131.099ZM11.3404 130.865C11.3392 130.849 11.338 130.834 11.3367 130.819C11.338 130.835 11.3392 130.848 11.3404 130.865ZM11.3342 130.791C11.3329 130.781 11.3324 130.773 11.3318 130.763C11.3324 130.771 11.3335 130.783 11.3342 130.791ZM11.3299 130.743C11.3292 130.735 11.328 130.725 11.3273 130.716C11.328 130.725 11.3286 130.734 11.3299 130.743ZM11.3243 130.681C11.3243 130.676 11.3237 130.671 11.323 130.665C11.3237 130.672 11.3237 130.676 11.3243 130.681ZM11.3187 130.615C11.3181 130.61 11.3175 130.602 11.3168 130.597C11.3175 130.602 11.3181 130.61 11.3187 130.615ZM11.3143 130.568C11.3137 130.558 11.313 130.55 11.3119 130.541C11.3125 130.548 11.3137 130.56 11.3143 130.568ZM11.31 130.516C11.3094 130.507 11.3081 130.496 11.3075 130.488C11.3081 130.497 11.3087 130.506 11.31 130.516ZM11.2989 130.39C11.2989 130.385 11.2982 130.379 11.2976 130.374C11.2982 130.379 11.2989 130.385 11.2989 130.39ZM11.2938 130.332C11.2938 130.328 11.2932 130.326 11.2932 130.322C11.2932 130.326 11.2938 130.328 11.2938 130.332ZM11.2895 130.279C11.2889 130.275 11.2889 130.27 11.2882 130.267C11.2889 130.27 11.2889 130.275 11.2895 130.279ZM11.269 130.042C11.269 130.04 11.269 130.04 11.269 130.039C11.269 130.04 11.269 130.04 11.269 130.042ZM11.2598 129.928C11.2598 129.924 11.2592 129.921 11.2592 129.919C11.2592 129.922 11.2598 129.924 11.2598 129.928ZM11.2553 129.872C11.2547 129.869 11.2547 129.864 11.2541 129.86C11.2547 129.864 11.2547 129.868 11.2553 129.872ZM11.2404 129.694C11.2404 129.692 11.2404 129.69 11.2399 129.688C11.2399 129.689 11.2404 129.692 11.2404 129.694ZM10.2331 104.891C10.2331 104.888 10.2331 104.886 10.2331 104.882C10.2331 104.885 10.2331 104.888 10.2331 104.891ZM10.2305 104.74C10.2305 104.733 10.2305 104.722 10.2305 104.715C10.2305 104.725 10.2305 104.73 10.2305 104.74ZM10.2299 104.691C10.1045 96.2327 10.1219 87.5605 10.1938 79.9559C10.1598 83.568 10.1381 87.4198 10.1381 91.3768C10.1381 95.7509 10.1641 100.249 10.2299 104.691Z" fill="#F46872"/>
<path d="M163.28 175.72H4.7207C5.69465 173.455 6.52764 171.9 6.52764 171.9C7.64191 170.485 8.75616 165.107 8.75616 160.013C8.75616 154.917 12.0982 151.522 12.0982 151.522C14.3259 149.823 14.3259 146.709 14.3259 146.709L14.1206 145.691C15.5531 144.763 17.0013 143.854 18.4688 142.966C18.28 144.767 18.0807 146.568 17.8703 148.369C17.2862 153.363 16.434 158.243 15.4222 163.096C20.9921 159.635 26.763 156.466 32.7617 153.739C32.6761 148.223 32.5594 142.711 32.4247 137.21C32.411 136.651 32.398 136.094 32.385 135.535C35.863 133.933 39.4465 132.475 43.1522 131.19C54.0983 127.397 65.3981 125.69 76.7606 125.69C87.5285 125.69 98.3523 127.222 108.991 129.96C120.14 132.83 131.426 136.555 142.888 139.535C143.506 144.69 144.18 149.833 144.876 154.96C145.292 158.026 145.707 161.095 146.142 164.161C151.749 167.255 157.204 170.569 162.516 174.017C161.914 172.727 161.48 171.913 161.472 171.9C161.482 171.918 162.311 173.468 163.28 175.72M161.472 171.9C160.358 170.485 159.244 165.107 159.244 160.013C159.244 154.917 155.902 151.522 155.902 151.522C153.697 149.839 153.674 146.77 153.674 146.71C153.674 146.77 153.697 149.839 155.902 151.522C155.902 151.522 159.244 154.917 159.244 160.013C159.244 165.107 160.358 170.485 161.472 171.9ZM11.5035 132.571V132.567C11.5035 132.568 11.5035 132.57 11.5035 132.571ZM11.4997 132.533C11.4991 132.525 11.4986 132.519 11.4973 132.513C11.4986 132.519 11.4991 132.525 11.4997 132.533ZM11.4948 132.486C11.4935 132.473 11.4922 132.458 11.4911 132.447C11.4922 132.459 11.4935 132.473 11.4948 132.486ZM11.4886 132.425C11.4873 132.414 11.4867 132.405 11.4854 132.393C11.4867 132.404 11.4879 132.415 11.4886 132.425ZM11.4837 132.374C11.483 132.364 11.4818 132.354 11.4805 132.343C11.4818 132.354 11.4824 132.364 11.4837 132.374ZM11.4787 132.325C11.4655 132.193 11.4531 132.064 11.4401 131.932V131.929C11.4346 131.871 11.429 131.818 11.4234 131.76V131.757C11.4179 131.701 11.4128 131.647 11.4072 131.591C11.4072 131.588 11.4066 131.583 11.4066 131.582C11.406 131.571 11.4048 131.559 11.4036 131.549C11.4036 131.544 11.4029 131.54 11.4023 131.536C11.401 131.524 11.4004 131.511 11.3993 131.498C11.3993 131.497 11.3986 131.497 11.3986 131.496C11.3948 131.453 11.3912 131.412 11.3867 131.368V131.366C11.3799 131.297 11.3737 131.227 11.3675 131.157C11.3669 131.151 11.3662 131.145 11.3657 131.138C11.3645 131.127 11.3638 131.117 11.3632 131.107C11.3626 131.104 11.3626 131.101 11.3619 131.099C11.3557 131.029 11.3495 130.957 11.3433 130.887C11.3421 130.88 11.3414 130.872 11.3408 130.864C11.3397 130.848 11.3384 130.835 11.3371 130.819C11.3365 130.809 11.3352 130.8 11.3346 130.791C11.334 130.783 11.3329 130.771 11.3322 130.763C11.3316 130.757 11.3309 130.75 11.3303 130.743C11.329 130.734 11.3284 130.725 11.3278 130.716C11.3265 130.705 11.326 130.693 11.3247 130.681C11.3241 130.675 11.3241 130.672 11.3235 130.665C11.3216 130.648 11.3203 130.632 11.3192 130.615C11.3186 130.61 11.3179 130.602 11.3173 130.597C11.3166 130.587 11.3154 130.577 11.3147 130.568C11.3141 130.56 11.313 130.547 11.3124 130.541C11.3117 130.532 11.3111 130.523 11.3104 130.516C11.3092 130.506 11.3085 130.497 11.3079 130.488C11.3049 130.456 11.3023 130.423 11.2993 130.39C11.2993 130.385 11.2987 130.379 11.2981 130.374C11.2968 130.359 11.2955 130.346 11.2942 130.332C11.2942 130.328 11.2936 130.326 11.2936 130.322C11.2925 130.307 11.2912 130.294 11.2899 130.279C11.2893 130.275 11.2893 130.27 11.2887 130.267C11.2825 130.192 11.2763 130.116 11.2695 130.042C11.2695 130.04 11.2695 130.04 11.2695 130.039C11.2664 130.001 11.2633 129.965 11.2602 129.927C11.2602 129.924 11.2596 129.922 11.2596 129.919C11.2583 129.903 11.2571 129.887 11.2558 129.872C11.2551 129.868 11.2552 129.864 11.2545 129.86C11.2502 129.804 11.2453 129.75 11.2408 129.694C11.2408 129.692 11.2404 129.689 11.2404 129.688C10.6699 122.727 10.37 113.938 10.2335 104.891C10.2335 104.888 10.2335 104.885 10.2335 104.882C10.2329 104.835 10.2316 104.787 10.231 104.74C10.231 104.73 10.231 104.725 10.231 104.715C10.231 104.707 10.2304 104.698 10.2304 104.691C10.1646 100.249 10.1385 95.7509 10.1385 91.3767C10.1385 87.4197 10.1603 83.568 10.1943 79.9558C13.9418 78.3913 17.7251 76.8876 21.542 75.4498C21.532 75.9924 21.5233 76.5351 21.516 77.0752C17.5438 77.8828 13.7722 78.9301 10.1925 80.1891C10.036 97.0289 10.1515 119.006 11.4787 132.325M139.929 89.3456C124.366 86.5145 109.123 82.5321 93.5215 79.6883C78.5265 76.9547 62.7718 74.7068 47.1634 74.7068C42.5004 74.7068 37.8523 74.9072 33.2384 75.3547C33.295 73.9867 33.3459 72.6174 33.3881 71.2468C54.1914 64.3281 76.007 59.5254 98.9101 57.919C105.332 57.4689 111.769 57.2509 118.208 57.2509C126.512 57.2509 134.823 57.6135 143.099 58.307C141.153 68.6071 140.193 78.9643 139.929 89.3456" fill="#F25364"/>
<path d="M93.5217 79.6882C70.8197 75.5486 46.387 72.5273 23.3361 76.7252C18.6911 77.5709 14.3149 78.7399 10.1927 80.189C9.97594 103.465 10.2803 136.556 13.5832 143.03L14.1207 145.691C23.0461 139.909 32.6092 134.845 43.1524 131.19C64.4721 123.801 87.1257 124.332 108.991 129.96C123.962 133.813 139.177 139.209 154.741 142.273C157.242 135.635 157.851 112.497 157.862 91.9523C135.91 89.7069 115.057 83.6135 93.5217 79.6882" fill="#E4E5E2"/>
<path d="M40.11 32.3868C56.5986 36.5708 74.0573 38.7413 91.3621 38.6792C108.414 38.6171 124.288 34.2632 139.444 28.251C148.718 24.5717 157.679 20.3446 166.282 15.6979C166.312 15.547 166.351 15.3873 166.379 15.2389H1.86426C12.0417 23.6474 26.3627 28.9002 40.11 32.3868Z" fill="#EC3741"/>
<path d="M12.0987 151.522C12.0987 151.522 8.75676 154.917 8.75676 160.013C8.75676 163.295 8.29307 166.689 7.66602 169.072C8.20614 168.695 8.75056 168.324 9.29434 167.952C10.4966 162.443 11.5184 156.919 12.2694 151.376L12.0987 151.522Z" fill="#F14750"/>
<path d="M15.4219 163.096C16.4336 158.243 17.2859 153.363 17.87 148.369C18.0804 146.568 18.2797 144.767 18.4685 142.966C22.9284 140.265 27.5553 137.762 32.3846 135.535C32.3977 136.094 32.4107 136.651 32.4244 137.21C32.5591 142.711 32.6758 148.223 32.7614 153.739C26.7626 156.467 20.9918 159.635 15.4219 163.096" fill="#F57D8B"/>
<path d="M21.5415 75.4498C21.8066 61.1115 22.8978 46.1165 18.8916 32.099C22.8333 33.6432 26.9419 34.9948 31.1424 36.1904C33.5148 47.7381 33.7507 59.5166 33.3876 71.2469C29.4018 72.5731 25.4534 73.9766 21.5415 75.4498" fill="#F4727C"/>
<path d="M21.5156 77.0754C21.5229 76.5353 21.5317 75.9926 21.5417 75.45C25.4535 73.9767 29.4019 72.5732 33.3878 71.247C33.3455 72.6176 33.2947 73.9868 33.2381 75.3549C29.9147 75.6782 26.6124 76.1283 23.3356 76.7254C22.7241 76.837 22.1177 76.9537 21.5156 77.0754Z" fill="#F57D8B"/>
<path d="M18.4688 142.966C20.6798 121.841 21.4073 100.654 21.4942 79.4563C21.4978 78.6651 21.5053 77.8715 21.516 77.0752C22.1181 76.9535 22.7245 76.8369 23.3359 76.7253C26.6128 76.1281 29.915 75.678 33.2384 75.3547C33.1559 77.3681 33.0603 79.3815 32.9603 81.3885C32.059 99.4987 31.9715 117.429 32.3849 135.535C27.5556 137.762 22.9287 140.264 18.4688 142.966Z" fill="#FDE9EB"/>
<path d="M157.058 39.6606C157.058 39.6593 157.059 39.6579 157.059 39.6566C157.059 39.6579 157.058 39.6593 157.058 39.6606Z" fill="#EE2327"/>
<path d="M157.056 39.6618C157.057 39.6594 157.059 39.6583 157.06 39.6559C157.059 39.6571 157.059 39.6571 157.059 39.6571C157.059 39.6582 157.057 39.6594 157.057 39.6606C157.056 39.6618 157.056 39.6618 157.056 39.6618Z" fill="#A76099"/>
<path d="M154.424 143.016C154.424 143.014 154.426 143.013 154.426 143.012C154.426 143.013 154.426 143.014 154.424 143.016ZM154.432 143.002C154.432 142.999 154.434 142.998 154.434 142.997C154.434 142.999 154.432 142.999 154.432 143.002ZM154.438 142.987C154.44 142.985 154.44 142.984 154.441 142.983C154.44 142.984 154.44 142.985 154.438 142.987ZM154.446 142.973C154.446 142.971 154.448 142.969 154.448 142.968C154.448 142.969 154.446 142.97 154.446 142.973ZM154.454 142.957C154.454 142.956 154.456 142.954 154.456 142.952C154.454 142.955 154.454 142.955 154.454 142.957ZM154.461 142.941C154.462 142.94 154.462 142.94 154.462 142.938C154.462 142.938 154.462 142.941 154.461 142.941ZM154.478 142.908C154.478 142.908 154.478 142.907 154.478 142.905C154.478 142.907 154.478 142.907 154.478 142.908ZM154.484 142.893L154.486 142.891L154.484 142.893ZM154.492 142.876V142.875C154.492 142.876 154.492 142.876 154.492 142.876ZM154.507 142.845C154.508 142.845 154.508 142.845 154.508 142.843L154.507 142.845ZM154.537 142.78L154.538 142.779L154.537 142.78ZM157.47 59.8437C152.693 59.2237 147.902 58.7102 143.099 58.3071C143.288 57.3029 143.488 56.2962 143.696 55.2933C145.681 45.7552 149.08 36.6278 154.031 28.0495C157.588 26.419 161.09 24.7023 164.532 22.9133C162.914 28.5185 160.555 34.4129 157.06 39.6555C157.059 39.658 157.057 39.6593 157.056 39.6618C157.043 39.6821 157.03 39.7011 157.016 39.7214L155.16 42.2686C155.16 42.2686 155.041 42.7224 155.041 43.3576C155.041 44.3085 155.309 45.6664 156.644 46.5146C157.599 47.1206 157.872 49.0808 157.872 51.1208C157.872 53.8403 157.388 56.7032 157.388 56.7032C157.388 56.7032 157.421 57.838 157.469 59.8437" fill="#EE2226"/>
<path d="M162.516 174.017C157.204 170.569 151.748 167.255 146.142 164.161C145.707 161.095 145.292 158.026 144.876 154.96C144.179 149.833 143.506 144.69 142.888 139.535C146.817 140.556 150.768 141.49 154.74 142.273C157.242 135.635 157.85 112.497 157.861 91.9523C151.813 91.3336 145.848 90.4233 139.929 89.3456C140.192 78.9643 141.152 68.6071 143.099 58.307C147.903 58.7101 152.694 59.2236 157.471 59.8436C157.606 65.4311 157.861 77.7928 157.861 91.3767C157.863 112.574 157.237 136.74 154.553 142.746C154.548 142.757 154.543 142.767 154.539 142.779L154.537 142.78C154.528 142.801 154.518 142.822 154.509 142.843C154.509 142.844 154.508 142.844 154.507 142.844C154.505 142.851 154.504 142.855 154.501 142.86C154.497 142.865 154.496 142.87 154.493 142.875V142.876C154.489 142.882 154.488 142.886 154.486 142.891L154.485 142.893C154.483 142.896 154.481 142.902 154.478 142.905C154.478 142.907 154.478 142.908 154.478 142.908C154.472 142.918 154.469 142.928 154.462 142.938C154.462 142.94 154.462 142.94 154.461 142.941C154.459 142.945 154.458 142.948 154.456 142.952C154.456 142.953 154.454 142.956 154.454 142.957C154.453 142.96 154.45 142.964 154.448 142.967C154.448 142.969 154.447 142.971 154.447 142.973C154.445 142.975 154.443 142.979 154.442 142.983C154.44 142.984 154.44 142.985 154.439 142.986C154.437 142.99 154.435 142.994 154.434 142.997C154.434 142.998 154.432 142.999 154.432 143.002C154.431 143.004 154.427 143.008 154.426 143.012C154.426 143.013 154.424 143.014 154.424 143.016C154.423 143.021 154.42 143.024 154.418 143.03L153.674 146.709C153.674 146.71 153.674 146.71 153.674 146.71C153.674 146.77 153.696 149.839 155.902 151.522C155.902 151.522 159.244 154.917 159.244 160.013C159.244 165.107 160.358 170.485 161.472 171.9C161.48 171.913 161.914 172.727 162.516 174.017" fill="#EE252A"/>
<path d="M154.74 142.273C150.768 141.491 146.817 140.556 142.887 139.535C140.895 122.871 139.506 106.08 139.929 89.3457C145.848 90.4234 151.813 91.3337 157.861 91.9525C157.85 112.497 157.242 135.636 154.74 142.273" fill="#E85C6D"/>
<path d="M8.09668 175.72H154.781C135.757 163.774 114.903 153.839 91.4025 150.174C58.2942 145.011 31.3811 158.808 8.09668 175.72" fill="#EC3741"/>
<path d="M49.7494 175.72C48.5478 172.135 47.4715 168.526 46.6167 164.874C45.2132 168.429 44.1896 172.095 42.999 175.72H49.7494Z" fill="#C9222D"/>
<path d="M72.0029 175.72H74.6621C73.9631 174.269 73.2872 172.812 72.6664 171.337C72.4461 172.799 72.2219 174.26 72.0029 175.72" fill="#C9222D"/>
<path d="M139.598 175.72C137.117 171.508 134.665 167.279 131.972 163.135C131.325 167.312 130.967 171.516 130.604 175.72H139.598Z" fill="#C9222D"/>
<path d="M108.716 175.72C107.267 168.064 105.791 160.412 104.065 152.8C103.19 152.574 102.308 152.366 101.426 152.158C100.973 160.009 100.644 167.866 100.258 175.72H108.716" fill="#C9222D"/>
<path d="M132.848 15.1768C134.049 18.7636 135.125 22.3719 135.981 26.0246C137.383 22.4708 138.406 18.8029 139.598 15.1768H132.848Z" fill="#C9222D"/>
<path d="M110.595 15.1768H107.935C108.635 16.6298 109.311 18.0866 109.932 19.5598C110.151 18.0993 110.375 16.6386 110.595 15.1768Z" fill="#C9222D"/>
<path d="M42.999 15.1767C45.4788 19.3898 47.9301 23.6194 50.624 27.7628C51.2716 23.5864 51.6296 19.3822 51.9922 15.1767H42.999Z" fill="#C9222D"/>
<path d="M73.8789 15.1768C75.3302 22.8335 76.8057 30.4851 78.5312 38.0986C79.4059 38.3243 80.2886 38.5322 81.1701 38.7401C81.6225 30.8895 81.9522 23.0325 82.3395 15.1768H73.8789" fill="#C9222D"/>
<path d="M164.898 179.966H3.10203C2.31369 182.364 1.70031 184.945 1.70031 187.183L1.3291 193.47C1.3291 193.47 28.4353 194.662 32.1493 193.47C35.8625 192.279 59.2554 192.279 59.2554 192.279L83.9998 191.749L108.744 192.279C108.744 192.279 132.137 192.279 135.851 193.47C139.563 194.662 166.671 193.47 166.671 193.47L166.299 187.183C166.299 184.945 165.686 182.364 164.898 179.966Z" fill="#DFF4F7"/>
<path d="M21.8953 179.966H3.10203C2.31369 182.364 1.70031 184.945 1.70031 187.183L1.3291 193.47C1.3291 193.47 13.7203 194.016 22.8946 193.999C22.4397 189.327 22.0785 184.651 21.8953 179.966" fill="#C1EAE9"/>
<path d="M38.4907 179.966H28.4082C28.59 184.597 28.9445 189.218 29.392 193.837C30.6645 193.753 31.6359 193.635 32.1494 193.47C33.1934 193.136 35.7936 192.895 38.9929 192.721C38.8991 188.469 38.7216 184.218 38.4907 179.966" fill="#C1EAE9"/>
<path d="M55.6337 179.966H45.0049C45.2315 184.134 45.4053 188.3 45.4996 192.469C48.6405 192.383 51.7696 192.334 54.2532 192.309C54.6871 188.194 55.1495 184.079 55.6337 179.966Z" fill="#C1EAE9"/>
<path d="M62.8838 179.966H62.1482C61.6665 184.058 61.2058 188.152 60.7744 192.246L63.3282 192.191C63.2494 188.115 63.114 184.04 62.8838 179.966Z" fill="#C1EAE9"/>
<path d="M77.8618 179.966H69.3975C69.6247 183.993 69.7593 188.022 69.8387 192.052L77.2608 191.892C77.506 187.918 77.7171 183.944 77.8618 179.966" fill="#C1EAE9"/>
<path d="M89.8862 179.966H84.3748C84.2326 183.897 84.0247 187.825 83.7832 191.753L84 191.749L90.2345 191.882C90.0613 187.913 89.9906 183.94 89.8862 179.966" fill="#C1EAE9"/>
<path d="M109.057 192.279C109.932 188.202 110.547 184.091 111.059 179.966H96.4014C96.5062 183.987 96.5762 188.006 96.7541 192.021L108.745 192.279C108.745 192.279 108.858 192.279 109.057 192.279Z" fill="#C1EAE9"/>
<path d="M133.612 179.966H128.161C127.626 184.202 126.887 188.41 125.703 192.573C130.334 192.748 134.464 193.025 135.851 193.47C136.059 193.538 136.352 193.596 136.7 193.649C135.428 189.123 134.408 184.562 133.612 179.966" fill="#C1EAE9"/>
<path d="M155.558 193.85C161.607 193.694 166.672 193.47 166.672 193.47L166.3 187.183C166.3 184.945 165.686 182.364 164.898 179.966H155.558V193.85" fill="#C1EAE9"/>
<path d="M149.044 179.966H140.161C141.008 184.68 142.097 189.354 143.466 193.99C145.202 194.008 147.102 194 149.044 193.978V179.966" fill="#C1EAE9"/>
<path d="M121.624 179.966H117.577C117.071 184.103 116.485 188.235 115.647 192.332C116.723 192.346 117.879 192.365 119.066 192.388C120.31 188.289 121.074 184.141 121.624 179.966" fill="#C1EAE9"/>
<path d="M1.62109 15.2388C8.4821 15.0043 15.3431 14.9028 22.2041 14.7317L42.7869 14.4426C56.5083 14.2524 70.2302 14.2258 83.9528 14.2004C97.6735 14.2233 111.395 14.2499 125.118 14.4388L145.7 14.7291C152.562 14.9016 159.422 15.003 166.282 15.2388C159.422 15.4734 152.562 15.5748 145.7 15.7485L125.118 16.0375C111.395 16.2265 97.6735 16.2531 83.9528 16.2772C70.2302 16.2506 56.5083 16.224 42.7869 16.0338L22.2041 15.7447C15.3431 15.5735 8.4821 15.4721 1.62109 15.2388" fill="#961A1F"/>
<path d="M4.7207 175.72C11.3278 175.487 17.9337 175.385 24.5408 175.214L44.3607 174.925C57.5737 174.735 70.7866 174.708 84.0003 174.682C97.2146 174.706 110.428 174.733 123.639 174.921L143.46 175.212C150.066 175.384 156.673 175.484 163.28 175.72C156.673 175.957 150.066 176.057 143.46 176.23L123.639 176.52C110.428 176.709 97.2146 176.736 84.0003 176.76C70.7866 176.733 57.5737 176.707 44.3607 176.516L24.5408 176.227C17.9337 176.056 11.3278 175.955 4.7207 175.72" fill="#961A1F"/>
<path d="M64.8741 111.197C63.9861 111.197 63.1584 111.055 62.3909 110.77C61.6344 110.474 60.9766 110.057 60.4175 109.52C59.8583 108.983 59.4198 108.352 59.1018 107.629C58.7949 106.905 58.6414 106.11 58.6414 105.244C58.6414 104.378 58.7949 103.583 59.1018 102.86C59.4198 102.136 59.8583 101.506 60.4175 100.968C60.9876 100.431 61.6509 100.02 62.4073 99.7349C63.1638 99.4389 63.9916 99.2909 64.8906 99.2909C65.8883 99.2909 66.7873 99.4663 67.5876 99.8172C68.3989 100.157 69.0787 100.661 69.6268 101.33L67.9165 102.909C67.5218 102.459 67.0833 102.125 66.6009 101.906C66.1185 101.675 65.5923 101.56 65.0222 101.56C64.4849 101.56 63.9916 101.648 63.5421 101.824C63.0926 101.999 62.7034 102.251 62.3745 102.58C62.0456 102.909 61.7879 103.298 61.6015 103.748C61.4261 104.197 61.3384 104.696 61.3384 105.244C61.3384 105.792 61.4261 106.291 61.6015 106.741C61.7879 107.19 62.0456 107.579 62.3745 107.908C62.7034 108.237 63.0926 108.489 63.5421 108.665C63.9916 108.84 64.4849 108.928 65.0222 108.928C65.5923 108.928 66.1185 108.818 66.6009 108.599C67.0833 108.369 67.5218 108.023 67.9165 107.563L69.6268 109.142C69.0787 109.81 68.3989 110.32 67.5876 110.671C66.7873 111.022 65.8828 111.197 64.8741 111.197ZM79.3197 99.4883H81.9838V111H79.3197V99.4883ZM74.0901 111H71.4259V99.4883H74.0901V111ZM79.517 106.28H73.8927V104.027H79.517V106.28ZM84.7075 111V99.4883H87.3716V111H84.7075ZM90.1036 111V99.4883H95.0865C96.1171 99.4883 97.0052 99.6582 97.7507 99.9981C98.4962 100.327 99.0718 100.804 99.4774 101.429C99.8831 102.054 100.086 102.799 100.086 103.665C100.086 104.521 99.8831 105.261 99.4774 105.886C99.0718 106.51 98.4962 106.993 97.7507 107.333C97.0052 107.662 96.1171 107.826 95.0865 107.826H91.5837L92.7677 106.626V111H90.1036ZM92.7677 106.922L91.5837 105.655H94.9385C95.7608 105.655 96.3748 105.48 96.7804 105.129C97.1861 104.778 97.3889 104.29 97.3889 103.665C97.3889 103.029 97.1861 102.536 96.7804 102.185C96.3748 101.834 95.7608 101.659 94.9385 101.659H91.5837L92.7677 100.393V106.922ZM105.931 111.197C105.01 111.197 104.127 111.077 103.283 110.836C102.439 110.583 101.759 110.26 101.244 109.865L102.149 107.859C102.642 108.21 103.223 108.5 103.892 108.731C104.571 108.95 105.257 109.059 105.947 109.059C106.474 109.059 106.896 109.01 107.214 108.911C107.543 108.802 107.784 108.654 107.937 108.467C108.091 108.281 108.168 108.067 108.168 107.826C108.168 107.519 108.047 107.278 107.806 107.102C107.565 106.916 107.247 106.768 106.852 106.658C106.457 106.538 106.019 106.428 105.536 106.33C105.065 106.22 104.588 106.088 104.106 105.935C103.634 105.781 103.201 105.584 102.806 105.343C102.412 105.102 102.088 104.784 101.836 104.389C101.595 103.994 101.474 103.49 101.474 102.876C101.474 102.218 101.65 101.621 102.001 101.083C102.362 100.535 102.9 100.102 103.612 99.7843C104.336 99.4554 105.24 99.2909 106.326 99.2909C107.049 99.2909 107.762 99.3786 108.464 99.554C109.165 99.7185 109.785 99.9707 110.322 100.311L109.5 102.333C108.962 102.026 108.425 101.802 107.888 101.659C107.351 101.506 106.824 101.429 106.309 101.429C105.794 101.429 105.372 101.489 105.043 101.61C104.714 101.73 104.478 101.889 104.336 102.087C104.193 102.273 104.122 102.492 104.122 102.744C104.122 103.04 104.243 103.282 104.484 103.468C104.725 103.643 105.043 103.786 105.438 103.896C105.832 104.005 106.265 104.115 106.737 104.225C107.219 104.334 107.696 104.46 108.168 104.603C108.65 104.745 109.088 104.937 109.483 105.178C109.878 105.42 110.196 105.737 110.437 106.132C110.689 106.527 110.815 107.026 110.815 107.629C110.815 108.276 110.634 108.868 110.273 109.405C109.911 109.942 109.368 110.375 108.644 110.704C107.932 111.033 107.027 111.197 105.931 111.197Z" fill="#EF3832"/>
<path d="M114.124 80.2475C110.834 80.3438 107.224 80.1435 104.627 78.8782C101.543 77.377 100.713 74.7652 100.326 72.0697C100.092 70.4532 100.431 68.7213 101.678 67.4332C103.869 65.1738 107.882 64.9532 111.004 63.9706C114.696 62.8105 117.624 61.1661 119.741 58.4313C121.942 55.5875 125.071 49.2279 130.653 51.3579C132.209 51.9525 133.372 53.0441 134.373 54.1662C139.226 59.6053 140.529 66.5025 134.761 71.8301C129.125 77.0347 122.589 80.1739 114.124 80.2475" fill="#EFD818"/>
<path d="M54.6034 66.2871C52.5128 68.3157 49.9293 70.3366 47.02 71.0492C43.5655 71.8936 40.5668 70.6562 37.7809 69.0992C36.1105 68.1661 34.7096 66.8158 34.3303 65.217C33.6649 62.4087 36.1199 59.8666 37.2713 57.3512C38.6314 54.378 39.0336 51.5393 37.8728 48.4596C36.666 45.2608 32.7779 39.1712 38.4787 37.253C40.0689 36.7192 41.8647 36.7484 43.5811 36.8954C51.9013 37.6067 59.2348 41.4052 60.4023 48.3835C61.5432 55.2021 60.1509 61.1852 54.6034 66.2871" fill="#EFD818"/>
<path d="M76.3568 46.2622C80.1042 44.4315 83.9552 42.5677 88.27 41.9071C92.5837 41.2466 97.5273 42.0364 100.294 44.7598C103.103 47.5288 102.975 51.6748 100.952 54.8495C98.9289 58.0242 95.336 60.3787 91.5857 62.3109C87.792 64.2634 83.5963 65.918 79.0937 66.1855C74.5909 66.4543 69.7299 65.1028 67.2333 62.1017C64.6572 59.0043 65.1457 54.6517 67.851 51.6253C70.5554 48.5989 73.3884 46.8277 76.7665 46.0632" fill="#EFD818"/>
</svg>
