<svg width="198" height="162" viewBox="0 0 198 162" fill="none" xmlns="http://www.w3.org/2000/svg">
<path d="M162.122 161.02H24.0329C10.766 161.02 0 151.449 0 139.644V19.7458C0 7.93526 51.9957 0.506023 65.2695 0.506023L83.0434 0.0200209C95.053 0.0200209 165.826 6.25416 167.461 16.8384L185.929 136.736C187.907 149.581 176.695 161.02 162.122 161.02" fill="#E9F9FE"/>
<path d="M185.929 136.736L167.461 16.8384C167.09 14.4793 163.29 12.3379 157.478 10.4337C158.715 11.339 159.457 12.2804 159.608 13.2585L178.083 133.156C180.061 145.996 168.842 157.44 154.276 157.44H16.1799C13.8027 157.44 11.508 157.129 9.33691 156.555C13.4042 159.354 18.4952 161.02 24.0328 161.02H162.122C176.695 161.02 187.907 149.581 185.929 136.736" fill="#A1C8D1"/>
<path d="M4.66598 143.125V23.2279C4.66598 11.4222 56.6659 3.99306 69.9423 3.99306L87.7162 3.50713C97.9045 3.50713 150.444 7.99769 167.085 15.8353C161.333 5.86069 94.6679 0.0202493 83.0434 0.0202493L65.2696 0.506795C51.9999 0.506795 0 7.93529 0 19.7464V139.644C0 147.192 4.40973 153.824 11.0446 157.631C7.09334 153.819 4.66598 148.723 4.66598 143.125Z" fill="#F8FEFF"/>
<path d="M164.581 11.8776C164.914 10.2999 187.49 11.8517 193.158 1.76367C193.158 1.76367 192.285 1.80496 192.285 9.93239C192.285 18.0598 197.517 15.1522 197.517 15.1522C197.517 15.1522 196.865 16.1195 195.992 19.6117C195.119 23.1039 163.472 17.1442 164.581 11.8776Z" fill="#E9F9FE"/>
<path d="M193.016 14.0045C192.574 13.1301 192.284 11.8368 192.284 9.93305C192.284 9.29132 192.291 8.7067 192.298 8.15831C185.61 10.4243 172.704 11.3713 167.714 11.9608C166.209 12.204 165.263 12.4109 165.188 12.6492C166.202 14.2066 184.878 14.5996 193.016 14.0045Z" fill="#A1C8D1"/>
<path d="M195.992 16.1818C195.334 18.8151 177.13 16.0628 168.732 12.2913L164.581 11.8776C163.472 17.1442 195.119 23.1039 195.992 19.6117C196.865 16.1195 197.517 15.1521 197.517 15.1521C197.517 15.1521 196.096 15.7626 195.992 16.1818" fill="#A1C8D1"/>
<path d="M163.99 8.98429C163.99 8.98429 160.204 6.2682 156.717 8.98429C153.229 11.7004 163.04 18.2965 163.04 18.2965C163.04 18.2965 173.985 15.4766 173.17 12.2383C171.759 6.65638 163.99 8.98429 163.99 8.98429Z" fill="#E9F9FE"/>
<path d="M169.754 14.5071C166.811 15.9659 163.035 16.9384 163.035 16.9384C163.035 16.9384 160.404 15.1695 158.356 13.0894C157.088 11.8014 158.214 9.76296 160.119 9.94395C160.885 10.0169 161.563 10.2239 162.106 10.4459C162.845 10.7511 163.299 11.4292 163.279 12.1586C163.258 12.7015 163.272 13.4671 163.387 14.4764C163.387 14.4764 163.93 13.1311 164.581 11.8792C164.96 11.1499 165.767 10.6637 166.669 10.648C167.625 10.6323 168.662 10.7306 169.611 11.0775C171.246 11.6826 171.307 13.7416 169.754 14.5071V14.5071ZM173.164 12.2412C171.747 6.65906 163.984 8.98713 163.984 8.98713C163.984 8.98713 160.201 6.27116 156.709 8.98713C156.397 9.23568 156.193 9.515 156.078 9.82026V9.81001L156.065 9.86671C156.037 9.92885 156.024 9.99581 156.004 10.0579L155.99 10.1617C155.983 10.2239 155.97 10.286 155.97 10.3475L155.963 10.4718C155.97 10.5285 155.97 10.5858 155.976 10.6425C155.983 10.689 155.99 10.7361 155.997 10.7873C155.997 10.8392 156.01 10.8959 156.024 10.9478C156.037 10.9997 156.044 11.0516 156.065 11.1083L156.078 11.1547C156.966 14.2176 163.035 18.2994 163.035 18.2994C163.035 18.2994 170.486 16.3749 172.629 13.8809L172.69 13.814C172.73 13.7573 172.778 13.7054 172.819 13.6481L172.88 13.5552C172.913 13.5033 172.947 13.452 172.975 13.4001C173.015 13.3223 173.056 13.2451 173.09 13.1624L173.124 13.0533C173.137 13.002 173.158 12.9447 173.171 12.8928L173.185 12.7842C173.198 12.7226 173.198 12.6653 173.198 12.6032V12.5157C173.198 12.4222 173.185 12.3293 173.164 12.2412" fill="#A1C8D1"/>
<path d="M167.681 55.6122C165.636 49.3836 157.437 47.3918 150.56 46.135C149.116 46.1452 149.831 45.0482 148.481 43.9205C142.752 34.893 130.253 35.7829 120.339 40.1958C118.801 40.8887 119.152 41.0184 117.302 40.1958C114.643 39.1666 112.349 38.4058 109.197 37.6402C107.301 36.1816 104.284 34.8467 101.753 34.6138C88.8973 35.628 75.4472 37.2264 65.6819 42.4565C65.1757 42.4565 43.3843 42.4565 43.3573 42.4565C34.9822 42.7568 39.0652 54.293 38.1474 61.474C28.9017 67.8835 22.4905 76.8077 28.1459 89.1407C39.8346 107.211 38.1271 87.227 38.1474 116.477C38.1474 117.129 38.1474 117.455 38.1474 117.486C31.338 119.638 26.9581 121.257 27.0121 123.094C28.2336 129.348 40.9953 132.881 43.8028 133.249C50.9901 147 66.4647 144.739 79.2467 137.915C85.7187 149.737 98.2915 150.414 108.441 140.952C111.593 137.91 112.983 134.843 118.119 133.709C121.642 131.625 122.715 132.188 124.483 132.752C125.482 133.068 126.703 133.383 128.714 133.228C133.81 131.36 132.453 131.754 139.971 131.775C140.774 131.764 141.517 131.769 142.205 131.78C146.025 131.821 148.238 131.868 149.77 128.184C150.182 127.284 149.77 111.806 149.905 108.148C164.55 99.41 167.533 80.6459 149.905 70.7705C149.919 70.7549 149.892 64.8571 149.905 63.9828C158.793 60.915 168.052 57.3818 167.681 55.6122" fill="#A1C8D1"/>
<path d="M145.437 45.6341C139.486 32.525 121.908 36.2035 111.399 43.068C111.399 43.068 104.472 31.0503 92.1186 35.4943C79.7719 39.9382 74.5343 55.4325 74.5343 55.4325C74.5343 55.4325 73.9016 50.6627 65.574 50.0936C57.2396 49.5246 50.7701 67.0003 49.1409 72.8824C47.5117 78.764 46.2461 88.1485 46.2461 88.1485C46.2461 88.1485 165.35 61.9921 162.907 54.6358C160.469 47.2795 145.437 45.6341 145.437 45.6341" fill="#BAED83"/>
<path d="M49.8814 76.5183C51.5004 70.636 57.9765 53.1606 66.3067 53.7297C74.6369 54.2987 75.2684 59.0686 75.2684 59.0686C75.2684 59.0686 80.5084 43.5748 92.8559 39.1306C105.21 34.6865 112.136 46.7045 112.136 46.7045C122.643 39.8341 140.224 36.1557 146.176 49.27C146.176 49.27 157.905 50.5587 162.326 55.9335C162.816 55.4523 163.038 55.0178 162.91 54.6353C160.465 47.2783 145.437 45.6334 145.437 45.6334C139.485 32.5245 121.911 36.2023 111.404 43.0673C111.404 43.0673 104.478 31.0499 92.1237 35.494C79.7694 39.9376 74.5294 55.432 74.5294 55.432C74.5294 55.432 73.9047 50.6621 65.5745 50.0931C57.2443 49.524 50.7682 66.9994 49.1425 72.8817C47.5167 78.7634 46.2471 88.1478 46.2471 88.1478C46.2471 88.1478 46.7106 88.0444 47.5705 87.8531C48.1012 84.5937 48.9275 79.9636 49.8814 76.5183" fill="#CFF49F"/>
<path d="M156.746 59.002C152.819 57.7605 149.272 57.3725 149.272 57.3725C143.321 44.2581 125.747 47.9362 115.234 54.8063C115.234 54.8063 108.308 42.7836 95.9577 47.2272C83.6077 51.6714 78.3644 67.1653 78.3644 67.1653C78.3644 67.1653 77.7365 62.3961 69.4008 61.8268C61.0717 61.2574 54.5995 78.7381 52.9764 84.6205C52.7894 85.2927 52.6091 86.0225 52.4287 86.7671C72.6336 82.2255 136.541 67.5279 156.746 59.002" fill="#8BBC4A"/>
<path d="M43.4432 130.285C48.4797 143.699 66.2727 140.988 77.238 134.708C77.238 134.708 83.3188 147.083 95.9563 143.321C108.587 139.56 114.893 124.382 114.893 124.382C114.893 124.382 115.19 129.177 123.465 130.202C131.741 131.226 139.414 114.139 141.443 108.355C143.473 102.571 145.383 93.2742 145.383 93.2742C145.383 93.2742 24.6984 112.871 26.6284 120.347C28.5584 127.822 43.4432 130.285 43.4432 130.285Z" fill="#BAED83"/>
<path d="M140.96 104.687C138.93 110.471 131.257 127.558 122.982 126.534C114.706 125.51 114.409 120.714 114.409 120.714C114.409 120.714 108.103 135.892 95.4725 139.653C82.835 143.415 76.7542 131.04 76.7542 131.04C65.7889 137.32 47.9893 140.031 42.9594 126.617C42.9594 126.617 31.3397 124.692 27.3013 119.085C26.7725 119.534 26.528 119.958 26.6271 120.347C28.5571 127.822 43.4419 130.285 43.4419 130.285C48.4784 143.699 66.2714 140.988 77.2367 134.708C77.2367 134.708 83.3175 147.083 95.955 143.321C108.586 139.56 114.891 124.382 114.891 124.382C114.891 124.382 115.189 129.177 123.464 130.202C131.739 131.226 139.413 114.139 141.442 108.355C143.471 102.571 145.381 93.2742 145.381 93.2742C145.381 93.2742 144.919 93.3518 144.04 93.4971C143.286 96.7198 142.143 101.298 140.96 104.687Z" fill="#CFF49F"/>
<path d="M33.0791 116.326C36.9167 117.78 40.4322 118.364 40.4322 118.364C45.4657 131.773 63.267 129.063 74.2211 122.787C74.2211 122.787 80.3059 135.162 92.9423 131.401C105.572 127.64 111.88 112.461 111.88 112.461C111.88 112.461 112.183 117.257 120.456 118.281C128.729 119.3 136.397 102.213 138.428 96.429C138.658 95.7665 138.888 95.0527 139.118 94.313C118.649 97.7433 53.8374 108.923 33.0791 116.326" fill="#8BBC4A"/>
<path d="M72.057 79.0226C72.057 90.4093 61.6779 99.6382 48.8841 99.6382C36.0842 99.6382 25.7051 90.4093 25.7051 79.0226C25.7051 67.6309 36.0842 58.4014 48.8841 58.4014C61.6779 58.4014 72.057 67.6309 72.057 79.0226Z" fill="#C63838"/>
<path d="M68.0282 79.0217C68.0282 88.4326 59.4576 96.0578 48.8808 96.0578C38.3041 96.0578 29.7334 88.4326 29.7334 79.0217C29.7334 69.6115 38.3041 61.9807 48.8808 61.9807C59.4576 61.9807 68.0282 69.6115 68.0282 79.0217Z" fill="#DD6262"/>
<path d="M157.437 87.557C157.437 98.9439 147.065 108.178 134.266 108.178C121.467 108.178 111.094 98.9439 111.094 87.557C111.094 76.1702 121.467 66.936 134.266 66.936C147.065 66.936 157.437 76.1702 157.437 87.557Z" fill="#C63838"/>
<path d="M153.41 87.5585C153.41 96.9688 144.84 104.595 134.266 104.595C123.685 104.595 115.108 96.9688 115.108 87.5585C115.108 78.1481 123.685 70.5229 134.266 70.5229C144.84 70.5229 153.41 78.1481 153.41 87.5585Z" fill="#DD6262"/>
<path d="M140.048 128.758H43.0885C39.9546 128.758 37.4092 126.497 37.4092 123.709V47.2471C37.4092 44.4586 39.9546 42.1979 43.0885 42.1979H140.048C143.182 42.1979 145.714 44.4586 145.714 47.2471V123.709C145.714 126.497 143.182 128.758 140.048 128.758Z" fill="#FCBD1F"/>
<path d="M134.388 123.715H48.7299C45.9628 123.715 43.7148 121.719 43.7148 119.256V51.6975C43.7148 49.2347 45.9628 47.2381 48.7299 47.2381H134.388C137.162 47.2381 139.403 49.2347 139.403 51.6975V119.256C139.403 121.719 137.162 123.715 134.388 123.715Z" fill="#C48A08"/>
<path d="M144.193 123.171C144.193 125.582 141.992 127.537 139.281 127.537H43.8423C41.1315 127.537 38.9364 125.582 38.9364 123.171V47.78C38.9364 45.3687 41.1315 43.4133 43.8423 43.4133H139.281C141.992 43.4133 144.193 45.3687 144.193 47.78V123.171ZM140.669 42.1979H42.4604C39.6703 42.1979 37.4092 44.2104 37.4092 46.6882V124.263C37.4092 126.746 39.6703 128.758 42.4604 128.758H140.669C143.46 128.758 145.714 126.746 145.714 124.263V46.6882C145.714 44.2104 143.46 42.1979 140.669 42.1979Z" fill="#F9C969"/>
<path d="M147.42 85.4773C147.42 112.922 122.415 135.172 91.5692 135.172C60.7169 135.172 35.7119 112.922 35.7119 85.4773C35.7119 58.0272 60.7169 35.7817 91.5692 35.7817C122.415 35.7817 147.42 58.0272 147.42 85.4773Z" fill="#EAA66E"/>
<path d="M38.0478 90.299C38.0478 62.8492 63.0531 40.5985 93.9006 40.5985C115.896 40.5985 134.907 51.918 144.017 68.3591C136.175 49.3465 115.652 35.7823 91.5638 35.7823C60.7164 35.7823 35.7109 58.0276 35.7109 85.4775C35.7109 93.3515 37.7771 100.796 41.4474 107.413C39.2426 102.079 38.0478 96.3106 38.0478 90.299Z" fill="#FFD2A9"/>
<path d="M117.367 96.3015C117.367 97.3308 116.73 97.6361 115.951 97.6361C115.166 97.6361 114.528 97.3308 114.528 96.3015C114.528 95.6702 115.069 94.5836 115.481 94.2474C115.745 94.0303 116.151 94.0303 116.415 94.2474C116.827 94.5836 117.367 95.6702 117.367 96.3015" fill="#FFFEFD"/>
<path d="M75.3266 88.5503C76.3597 89.0006 76.3968 89.6369 76.0566 90.2682C75.7101 90.8941 75.1286 91.2667 74.0893 90.822C73.4459 90.5473 72.5798 89.6369 72.4252 89.1608C72.32 88.8558 72.4932 88.5349 72.8273 88.416C73.3531 88.23 74.6832 88.2762 75.3266 88.5503Z" fill="#FFFEFD"/>
<path d="M124.977 57.5373C126.022 57.982 126.048 58.6236 125.711 59.2549C125.367 59.8809 124.782 60.2535 123.744 59.8082C123.101 59.5292 122.238 58.6236 122.076 58.1477C121.978 57.8428 122.153 57.5217 122.485 57.4027C123.004 57.2167 124.341 57.2629 124.977 57.5373" fill="#FFFEFD"/>
<path d="M107.421 103.802C107.121 104.795 106.426 104.946 105.667 104.765C104.908 104.584 104.385 104.144 104.679 103.156C104.87 102.54 105.705 101.614 106.196 101.387C106.515 101.237 106.911 101.329 107.102 101.598C107.402 102.018 107.606 103.192 107.421 103.802" fill="#FFFEFD"/>
<path d="M85.6292 51.8345C85.3358 52.8279 84.6302 52.9779 83.8746 52.7967C83.1191 52.6162 82.5946 52.1762 82.8943 51.1878C83.0754 50.5722 83.9121 49.6461 84.4116 49.4188C84.7238 49.2688 85.111 49.3616 85.3045 49.631C85.6105 50.05 85.8166 51.2245 85.6292 51.8345" fill="#FFFEFD"/>
<path d="M49.0313 91.5989C50.1529 91.3714 50.6293 91.8527 50.8042 92.5304C50.9791 93.2081 50.7861 93.8289 49.6584 94.0564C48.9649 94.1959 47.6563 93.9738 47.192 93.6894C46.9025 93.508 46.8181 93.156 46.993 92.8818C47.2644 92.4478 48.3317 91.739 49.0313 91.5989" fill="#FFFEFD"/>
<path d="M105.893 71.219C106.46 72.1141 106.071 72.6571 105.389 72.9933C104.701 73.3351 103.981 73.3453 103.421 72.4502C103.07 71.897 102.943 70.7174 103.121 70.2412C103.23 69.9414 103.58 69.7651 103.93 69.8376C104.478 69.9515 105.549 70.6652 105.893 71.219Z" fill="#FFFEFD"/>
<path d="M107.9 83.0372C109.051 82.9746 109.428 83.5233 109.479 84.2163C109.53 84.9099 109.223 85.4944 108.073 85.5563C107.364 85.5927 106.111 85.1788 105.702 84.832C105.447 84.6148 105.428 84.2527 105.651 84.0094C106.003 83.6216 107.191 83.073 107.9 83.0372" fill="#FFFEFD"/>
<path d="M107.9 48.5877C109.051 48.5252 109.428 49.0687 109.479 49.7669C109.53 50.4599 109.223 51.0449 108.073 51.1069C107.364 51.1432 106.111 50.7294 105.702 50.3826C105.447 50.1603 105.428 49.8032 105.651 49.5548C106.003 49.1671 107.191 48.6236 107.9 48.5877" fill="#FFFEFD"/>
<path d="M123.025 87.6516C123.31 88.6499 122.779 89.0848 122.022 89.2553C121.264 89.431 120.565 89.276 120.274 88.2772C120.099 87.6671 120.319 86.4926 120.63 86.079C120.824 85.81 121.219 85.7218 121.53 85.8716C122.028 86.1049 122.85 87.041 123.025 87.6516Z" fill="#FFFEFD"/>
<path d="M76.5008 58.7418C76.7854 59.7352 76.2594 60.1697 75.4982 60.3459C74.737 60.5166 74.0438 60.3613 73.7591 59.3679C73.5734 58.7523 73.7963 57.5833 74.1057 57.1642C74.2976 56.8999 74.6936 56.8124 75.0092 56.9572C75.4981 57.1951 76.3275 58.1262 76.5008 58.7418" fill="#FFFEFD"/>
<path d="M74.0886 109.845C74.9427 109.152 75.6236 109.369 76.1434 109.886C76.6757 110.399 76.8428 111.025 75.9887 111.712C75.4626 112.137 74.2001 112.514 73.6369 112.467C73.2841 112.437 73.0117 112.168 73.0117 111.852C73.0179 111.356 73.5564 110.269 74.0886 109.845Z" fill="#FFFEFD"/>
<path d="M95.0938 80.5023C93.9826 80.7922 93.4775 80.3371 93.2565 79.6697C93.0292 79.0023 93.1807 78.3709 94.2856 78.0815C94.9676 77.9057 96.2935 78.0557 96.7734 78.3141C97.0827 78.4798 97.1901 78.8214 97.0322 79.1057C96.786 79.5557 95.7694 80.3214 95.0938 80.5023" fill="#FFFEFD"/>
<path d="M80.032 69.9639C79.8395 70.9777 79.1627 71.1849 78.3865 71.0711C77.6166 70.9573 77.0453 70.5689 77.2378 69.5551C77.3558 68.9291 78.0823 67.9357 78.5542 67.6617C78.8523 67.491 79.2497 67.5479 79.467 67.796C79.8209 68.1893 80.15 69.3379 80.032 69.9639" fill="#FFFEFD"/>
<path d="M127.524 107.515C127.342 108.529 126.659 108.736 125.886 108.623C125.112 108.509 124.54 108.115 124.729 107.101C124.846 106.475 125.574 105.482 126.048 105.213C126.347 105.038 126.744 105.099 126.965 105.348C127.309 105.736 127.641 106.89 127.524 107.515" fill="#FFFEFD"/>
<path d="M72.6779 105.63C71.5225 105.656 71.1641 105.102 71.1394 104.404C71.1209 103.711 71.4483 103.137 72.5976 103.111C73.3144 103.095 74.5502 103.545 74.9395 103.902C75.1805 104.129 75.1928 104.492 74.958 104.73C74.5934 105.108 73.3823 105.614 72.6779 105.63Z" fill="#FFFEFD"/>
<path d="M115.494 66.7388C114.34 66.7646 113.98 66.211 113.96 65.5129C113.935 64.8193 114.263 64.2456 115.416 64.2193C116.131 64.2038 117.368 64.6543 117.755 65.0108C117.999 65.2389 118.012 65.6011 117.78 65.839C117.413 66.2161 116.202 66.7234 115.494 66.7388Z" fill="#FFFEFD"/>
<path d="M62.9457 69.9902C63.5076 70.8852 63.1228 71.4286 62.4449 71.7699C61.7548 72.1111 61.0341 72.122 60.4722 71.227C60.1241 70.6733 59.9959 69.4887 60.173 69.0175C60.283 68.7176 60.6372 68.5415 60.9853 68.6143C61.5227 68.723 62.5976 69.4365 62.9457 69.9902Z" fill="#FFFEFD"/>
<path d="M96.429 119.85C97.5791 119.788 97.9583 120.337 98.0088 121.03C98.053 121.723 97.7497 122.308 96.5996 122.37C95.8919 122.406 94.6344 121.992 94.2299 121.645C93.9772 121.428 93.9519 121.066 94.1794 120.823C94.5269 120.435 95.7149 119.892 96.429 119.85" fill="#FFFEFD"/>
<path d="M89.1539 65.9222C89.1539 66.9517 88.5212 67.2572 87.7381 67.2572C86.955 67.2572 86.3223 66.9517 86.3223 65.9222C86.3223 65.2912 86.8548 64.2048 87.2683 63.8687C87.5376 63.6513 87.9386 63.6513 88.208 63.8687C88.6214 64.2048 89.1539 65.2912 89.1539 65.9222Z" fill="#FFFEFD"/>
<path d="M71.0221 78.1907C72.0632 78.6352 72.094 79.277 71.7552 79.9029C71.4164 80.5289 70.825 80.9065 69.7901 80.4565C69.1433 80.1819 68.2871 79.277 68.1208 78.8007C68.0223 78.496 68.2009 78.1699 68.5273 78.0559C69.0448 77.8695 70.3815 77.9112 71.0221 78.1907Z" fill="#FFFEFD"/>
<path d="M105.893 59.3357C106.46 60.2308 106.071 60.7738 105.389 61.1105C104.701 61.4518 103.981 61.4619 103.421 60.5669C103.07 60.0136 102.943 58.834 103.121 58.3579C103.23 58.058 103.58 57.8817 103.93 57.9543C104.478 58.0682 105.549 58.7825 105.893 59.3357Z" fill="#FFFEFD"/>
<path d="M82.3521 77.9607C83.499 77.8985 83.8791 78.442 83.9352 79.1402C83.9789 79.8335 83.6734 80.418 82.5203 80.4751C81.8098 80.5161 80.557 80.1024 80.1581 79.7558C79.9026 79.5334 79.8714 79.1763 80.102 78.9284C80.451 78.5402 81.6416 77.9967 82.3521 77.9607Z" fill="#FFFEFD"/>
<path d="M87.2159 93.6044C88.0169 94.3438 87.8041 94.9546 87.2347 95.4407C86.6715 95.9217 85.9768 96.0977 85.1759 95.3577C84.6815 94.9028 84.2185 93.7854 84.256 93.2887C84.2811 92.973 84.5689 92.7197 84.9319 92.7141C85.4888 92.6991 86.7215 93.149 87.2159 93.6044" fill="#FFFEFD"/>
<path d="M97.786 88.4469C98.8993 88.7418 99.0384 89.3732 98.8171 90.0402C98.5893 90.7076 98.077 91.1579 96.9764 90.863C96.2933 90.6818 95.2749 89.9057 95.0346 89.461C94.8828 89.1712 94.9966 88.8301 95.3065 88.6641C95.7809 88.4108 97.1092 88.2657 97.786 88.4469" fill="#FFFEFD"/>
<path d="M91.4127 106.028C90.3171 105.702 90.1974 105.066 90.443 104.408C90.7011 103.746 91.2237 103.312 92.3193 103.638C92.993 103.845 93.9816 104.647 94.202 105.102C94.3468 105.391 94.2209 105.733 93.906 105.888C93.4149 106.126 92.0864 106.235 91.4127 106.028" fill="#FFFEFD"/>
<path d="M133.377 85.4937C132.282 85.1624 132.164 84.5309 132.413 83.869C132.662 83.2118 133.193 82.7721 134.281 83.1034C134.956 83.3051 135.946 84.107 136.169 84.5624C136.313 84.8569 136.182 85.1934 135.874 85.3485C135.382 85.5917 134.052 85.6949 133.377 85.4937" fill="#FFFEFD"/>
<path d="M118.334 74.7852C118.515 75.799 117.941 76.1866 117.168 76.3008C116.394 76.4091 115.711 76.1969 115.531 75.1831C115.421 74.5569 115.756 73.4089 116.104 73.0156C116.33 72.7673 116.73 72.7105 117.026 72.886C117.497 73.1601 118.218 74.159 118.334 74.7852" fill="#FFFEFD"/>
<path d="M59.9661 97.061C61.1182 96.9986 61.4961 97.542 61.5449 98.2406C61.5936 98.9337 61.2827 99.513 60.1368 99.5754C59.4236 99.6166 58.174 99.2028 57.7717 98.8562C57.5157 98.6338 57.4914 98.2764 57.7169 98.028C58.0643 97.6402 59.259 97.0973 59.9661 97.061" fill="#FFFEFD"/>
<path d="M57.7644 79.6049C57.7644 80.6342 57.1268 80.9394 56.3435 80.9394C55.5602 80.9394 54.9287 80.6342 54.9287 79.6049C54.9287 78.9739 55.4691 77.882 55.882 77.5508C56.1431 77.3337 56.5439 77.3337 56.811 77.5508C57.2239 77.882 57.7644 78.9739 57.7644 79.6049" fill="#FFFEFD"/>
<path d="M60.5433 105.531C61.6468 105.826 61.7931 106.457 61.5675 107.124C61.3419 107.792 60.8298 108.242 59.7263 107.947C59.0434 107.766 58.0253 106.99 57.7875 106.545C57.629 106.255 57.7449 105.914 58.0558 105.749C58.5314 105.495 59.8543 105.35 60.5433 105.531" fill="#FFFEFD"/>
<path d="M17.0469 8.49988C33.4651 3.34192 57.3051 0.377847 65.6873 0.377847C69.359 0.274374 73.8409 -3.84068e-06 79.9887 -3.84068e-06C80.9426 -3.84068e-06 81.9291 0.0104427 82.9613 0.026138L65.2691 0.506882C56.9522 0.506882 33.4455 3.41982 17.0469 8.49988ZM132.948 5.04924C114.511 2.10549 93.8915 0.377832 85.359 0.0720637C96.0148 0.341791 110.93 1.50035 132.948 5.04924Z" fill="#F4FCFE"/>
<path d="M6.4965 151.309C5.31808 148.79 4.66992 146.028 4.66992 143.126V23.228C4.66992 11.4223 56.6645 3.99351 69.9414 3.99351L87.7159 3.50714C93.608 3.50714 113.694 5.01292 132.791 7.79615C128.201 11.883 117.229 21.05 102.76 34.7593C102.42 34.6923 102.08 34.6457 101.752 34.6149C101.196 34.6556 100.639 34.7028 100.083 34.7488C99.2645 34.5939 98.4003 34.5059 97.5034 34.5059C95.847 34.5059 94.0532 34.8007 92.1219 35.4939C92.0826 35.5096 92.0434 35.5253 91.9975 35.5405C91.2774 35.6232 90.5638 35.7111 89.8567 35.8043C80.5079 36.0531 71.7352 38.3447 64.0885 42.1985H42.4645C39.669 42.1985 37.4104 44.2111 37.4104 46.6891V47.2477V61.1021C30.4184 64.6508 25.7047 71.3456 25.7047 79.0224C25.7047 80.9162 25.9928 82.7476 26.5297 84.4905C26.8766 85.9858 27.4134 87.5329 28.1467 89.1418C33.79 97.8689 36.3105 97.7192 37.4104 98.5313V106.829C34.6084 110.466 31.8063 114.191 29.0109 118.004C27.3218 118.863 26.4642 119.644 26.6148 120.326C26.6148 120.332 26.6148 120.332 26.6148 120.332L26.6213 120.337C26.6213 120.342 26.6213 120.342 26.6213 120.347C26.6802 120.57 26.7522 120.792 26.8308 121.004C19.9108 130.595 13.0826 140.699 6.4965 151.309M135.147 5.4061C135.128 5.40085 135.115 5.40087 135.095 5.39563C135.115 5.40087 135.128 5.40085 135.147 5.4061ZM133.157 5.07991C114.662 2.12077 93.9288 0.377305 85.3591 0.0720706C93.8961 0.377305 114.512 2.10502 132.948 5.04902C133.013 5.05951 133.092 5.06943 133.157 5.07991" fill="#E9F9FE"/>
<path d="M5.60061 152.757C2.36638 149.115 0.421875 144.516 0.421875 139.508V19.6109C0.421875 15.2652 7.47301 11.5091 17.0513 8.4986C33.4516 3.41835 56.962 0.505708 65.2767 0.505708L82.9667 0.024524C83.7393 0.0344271 84.538 0.0501576 85.3629 0.0705462C93.933 0.376374 114.667 2.11932 133.163 5.07857C133.804 5.18226 134.439 5.28536 135.101 5.39429C135.114 5.39954 135.133 5.39952 135.153 5.40476C135.186 5.59583 134.367 6.39799 132.796 7.7949C113.698 5.01157 93.6122 3.50631 87.7199 3.50631L69.9447 3.99213C56.6673 3.99213 4.67092 11.4212 4.67092 23.2267V143.125C4.67092 146.027 5.32564 148.789 6.49756 151.309C6.20294 151.79 5.90177 152.276 5.60061 152.757" fill="#F0FBFE"/>
<path d="M37.4095 98.5307C36.3112 97.7185 33.791 97.8687 28.1475 89.141C27.4175 87.5323 26.878 85.9853 26.5352 84.4901C28.1476 89.7256 32.0262 94.1284 37.1746 96.8182C37.2507 97.1079 37.3269 97.4028 37.4095 97.6976V98.5307M89.8576 35.8039C90.5622 35.7107 91.2795 35.6226 92.0032 35.5401C91.7874 35.6175 91.5842 35.6949 91.3747 35.783C90.8669 35.783 90.3591 35.7881 89.8576 35.8039ZM102.179 35.3176C101.506 35.0798 100.808 34.8883 100.084 34.7482C100.643 34.7019 101.202 34.6551 101.754 34.6138C102.084 34.6449 102.42 34.6918 102.763 34.759C102.566 34.9448 102.37 35.1312 102.179 35.3176" fill="#C5E1E8"/>
<path d="M100.958 36.4814C100.412 36.3989 99.8727 36.3261 99.3271 36.2595C99.2192 36.2437 99.0987 36.2279 98.9908 36.2177C98.9908 36.2177 98.9845 36.2177 98.9845 36.2127C98.8957 36.2076 98.8068 36.1969 98.7243 36.1867C98.718 36.1867 98.7117 36.1816 98.7053 36.1816C98.6863 36.1816 98.6673 36.1816 98.6546 36.1765C98.6482 36.1765 98.6419 36.1765 98.6356 36.1765C98.5785 36.1664 98.515 36.1607 98.4515 36.1556C98.4515 36.1556 98.4452 36.1556 98.4388 36.1556C98.4198 36.1505 98.4008 36.1506 98.3818 36.1455C98.3818 36.1455 98.3691 36.1455 98.3628 36.1455C98.3437 36.1455 98.3246 36.1404 98.3119 36.1404C98.3056 36.1404 98.2993 36.1404 98.2993 36.1404C98.2359 36.1302 98.1724 36.1246 98.109 36.1195C98.1026 36.1195 98.1026 36.1195 98.0963 36.1144C98.0709 36.1144 98.0582 36.1144 98.0391 36.1093C98.0328 36.1093 98.0265 36.1093 98.0138 36.1093C97.9948 36.1093 97.982 36.1037 97.963 36.1037C97.9249 36.0986 97.8869 36.0936 97.8425 36.0936C97.8361 36.0885 97.8298 36.0885 97.8235 36.0885C97.8044 36.0885 97.7854 36.0834 97.7727 36.0834C97.76 36.0834 97.7536 36.0834 97.7409 36.0834C97.7283 36.0783 97.7092 36.0783 97.6902 36.0783C97.6902 36.0783 97.6775 36.0732 97.6712 36.0732C97.6268 36.0676 97.595 36.0676 97.5506 36.0625C97.5379 36.0625 97.5189 36.0574 97.4999 36.0574C97.4872 36.0574 97.4809 36.0574 97.4745 36.0574C97.4555 36.0523 97.4428 36.0523 97.4237 36.0523C97.411 36.0523 97.4047 36.0472 97.392 36.0472C97.3793 36.0472 97.3603 36.0472 97.3476 36.0416C97.3349 36.0416 97.3095 36.0416 97.2905 36.0365C97.2778 36.0365 97.2651 36.0365 97.2461 36.0365C97.227 36.0314 97.2143 36.0315 97.2017 36.0315C97.189 36.0315 97.17 36.0264 97.1573 36.0264C97.1446 36.0264 97.1319 36.0264 97.1256 36.0264C97.1129 36.0213 97.0938 36.0213 97.0812 36.0213C97.0621 36.0213 97.0557 36.0162 97.043 36.0162C97.0304 36.0162 97.0114 36.0162 96.9987 36.0111C96.9797 36.0111 96.9542 36.0111 96.9289 36.0055C96.9225 36.0055 96.9035 36.0055 96.8908 36.0055C96.8781 36.0004 96.8654 36.0004 96.8527 36.0004C96.84 36.0004 96.8274 36.0004 96.8083 35.9953C96.7957 35.9953 96.783 35.9953 96.7766 35.9953C96.7576 35.9953 96.7449 35.9902 96.7322 35.9902C96.7132 35.9902 96.7068 35.9902 96.6941 35.9851C96.6687 35.9851 96.6434 35.9852 96.618 35.9801C96.6053 35.9801 96.5926 35.9801 96.5799 35.9801C96.5736 35.9801 96.5609 35.9744 96.5419 35.9744C96.5292 35.9744 96.5101 35.9744 96.5038 35.9744C96.4911 35.9693 96.4721 35.9694 96.4594 35.9694C96.4467 35.9694 96.434 35.9694 96.4213 35.9643C96.4086 35.9643 96.3959 35.9643 96.3833 35.9643C96.3642 35.9592 96.3452 35.9592 96.3198 35.9592C96.3008 35.9592 96.2944 35.9541 96.2754 35.9541C96.2564 35.9541 96.2437 35.9541 96.231 35.9541C96.2183 35.9485 96.2056 35.9485 96.1929 35.9485C96.1802 35.9485 96.1612 35.9485 96.1548 35.9434C96.1421 35.9434 96.1295 35.9434 96.1105 35.9434C96.0978 35.9434 96.0914 35.9434 96.0787 35.9383C96.0534 35.9383 96.0279 35.9383 96.0089 35.9332C95.9899 35.9332 95.9772 35.9332 95.9582 35.9332C95.9455 35.9332 95.9391 35.9332 95.9264 35.9281C95.9074 35.9281 95.8947 35.9281 95.8757 35.9281C95.8693 35.9281 95.8567 35.9231 95.844 35.9231C95.8249 35.9231 95.8122 35.9231 95.7995 35.9231C95.7869 35.9231 95.7742 35.918 95.7615 35.918C95.7361 35.918 95.7107 35.918 95.6854 35.9123C95.679 35.9123 95.6663 35.9123 95.66 35.9123C95.6409 35.9123 95.6219 35.9123 95.6092 35.9073C95.5965 35.9073 95.5902 35.9073 95.5712 35.9073C95.5585 35.9073 95.5394 35.9073 95.5331 35.9022C95.5204 35.9022 95.5077 35.9022 95.4886 35.9022C95.476 35.9022 95.4633 35.9022 95.4443 35.8971C95.4316 35.8971 95.4252 35.8971 95.4126 35.8971C95.3872 35.8971 95.3618 35.892 95.3364 35.892C95.3237 35.892 95.3174 35.892 95.3047 35.892C95.2857 35.892 95.273 35.8869 95.2539 35.8869C95.2476 35.8869 95.2349 35.8869 95.2222 35.8869C95.2032 35.8869 95.1841 35.8819 95.1778 35.8819C95.1651 35.8819 95.1524 35.8819 95.1397 35.8819C95.1143 35.8819 95.1016 35.8762 95.0762 35.8762C95.0572 35.8762 95.0446 35.8762 95.0382 35.8762C95.0192 35.8762 95.0001 35.8711 94.9811 35.8711C94.9747 35.8711 94.962 35.8711 94.9494 35.8711C94.9367 35.8711 94.9177 35.8711 94.905 35.866C94.8987 35.866 94.8796 35.866 94.8669 35.866C94.8542 35.866 94.8352 35.866 94.8225 35.866C94.8098 35.861 94.7971 35.861 94.7844 35.861C94.7654 35.861 94.74 35.861 94.7083 35.861C94.7019 35.8559 94.6956 35.8559 94.6829 35.8559C94.6639 35.8559 94.6512 35.8559 94.6321 35.8559C94.6258 35.8559 94.6131 35.8559 94.6004 35.8502C94.5814 35.8502 94.5624 35.8502 94.5497 35.8502C94.537 35.8502 94.5306 35.8502 94.5179 35.8502C94.4672 35.8452 94.4165 35.8452 94.353 35.8401C94.3467 35.8401 94.3403 35.8401 94.334 35.8401C94.315 35.8401 94.2896 35.8401 94.2769 35.8401C94.2642 35.8401 94.2578 35.835 94.2515 35.835C94.2261 35.835 94.2071 35.835 94.188 35.835C94.1753 35.835 94.1754 35.835 94.1627 35.835C94.1373 35.835 94.1119 35.8299 94.0865 35.8299C94.0738 35.8299 94.0675 35.8299 94.0611 35.8299C94.0421 35.8299 94.0231 35.8299 94.0041 35.8299C93.9977 35.8248 93.985 35.8248 93.9723 35.8248C93.9533 35.8248 93.9343 35.8248 93.9216 35.8248C93.9153 35.8248 93.9026 35.8248 93.8899 35.8248C93.8708 35.8248 93.8518 35.8192 93.8328 35.8192C93.8201 35.8192 93.8074 35.8192 93.7947 35.8192C93.7757 35.8192 93.7503 35.8192 93.7249 35.8192C93.7185 35.8192 93.7185 35.8141 93.7059 35.8141C93.6868 35.8141 93.6678 35.8141 93.6487 35.8141C93.6424 35.8141 93.6297 35.8141 93.617 35.8141C93.598 35.8141 93.5853 35.8141 93.5663 35.8141C93.5599 35.8141 93.5472 35.809 93.5345 35.809C93.5092 35.809 93.4838 35.809 93.4584 35.809C93.4457 35.809 93.4394 35.809 93.4394 35.809C93.414 35.809 93.395 35.809 93.3759 35.8039C93.3696 35.8039 93.3569 35.8039 93.3442 35.8039C93.3252 35.8039 93.3125 35.8039 93.2998 35.8039C93.2871 35.8039 93.2744 35.8039 93.2617 35.8039C93.2364 35.8039 93.2173 35.8039 93.1983 35.8039C93.192 35.8039 93.1856 35.7989 93.1793 35.7989C93.1602 35.7989 93.1285 35.7989 93.1031 35.7989C93.0968 35.7989 93.0841 35.7989 93.0777 35.7989C93.0587 35.7989 93.0334 35.7989 93.0207 35.7989C93.0143 35.7989 93.0016 35.7989 92.9953 35.7989C92.9699 35.7989 92.9572 35.7938 92.9318 35.7938C92.9255 35.7938 92.9128 35.7938 92.9065 35.7938C92.8874 35.7938 92.8557 35.7938 92.8239 35.7938C92.8176 35.7938 92.8177 35.7938 92.8113 35.7938C92.7923 35.7938 92.7669 35.7938 92.7479 35.7938C92.7415 35.7938 92.7288 35.7938 92.7161 35.7938C92.6971 35.7887 92.678 35.7887 92.6653 35.7887C92.6526 35.7887 92.64 35.7887 92.6336 35.7887C92.6082 35.7887 92.5955 35.7887 92.5702 35.7887C92.5638 35.7887 92.5575 35.7887 92.5511 35.7887C92.5258 35.7887 92.5004 35.7887 92.4687 35.7887C92.4687 35.7887 92.456 35.7887 92.4497 35.7887C92.4306 35.7887 92.4052 35.7887 92.3925 35.7887C92.3798 35.7887 92.3735 35.7887 92.3608 35.7831C92.3354 35.7831 92.3228 35.7831 92.3037 35.7831C92.2911 35.7831 92.2847 35.7831 92.2783 35.7831C92.253 35.7831 92.2213 35.7831 92.1959 35.7831C92.1895 35.7831 92.1895 35.7831 92.1895 35.7831C92.1641 35.7831 92.1388 35.7831 92.1197 35.7831C92.107 35.7831 92.0944 35.7831 92.088 35.7831C92.069 35.7831 92.0499 35.7831 92.0309 35.7831C92.0245 35.7831 92.0119 35.7831 91.9992 35.7831C91.9801 35.7831 91.9611 35.7831 91.9357 35.7831C91.9294 35.7831 91.9231 35.7831 91.9231 35.7831C91.8977 35.7831 91.8659 35.7831 91.8406 35.7831C91.8342 35.7831 91.8279 35.7831 91.8152 35.7831C91.7962 35.7831 91.7771 35.7831 91.7581 35.7831C91.7454 35.7831 91.7391 35.7831 91.7264 35.7831C91.7073 35.7831 91.6947 35.7831 91.6756 35.7831C91.6629 35.7831 91.6502 35.7831 91.6439 35.7831C91.6185 35.7831 91.5868 35.7831 91.5677 35.7831C91.498 35.7831 91.4345 35.7831 91.3711 35.7831C91.5805 35.6956 91.7834 35.6177 91.9992 35.5403C92.0436 35.5245 92.0817 35.5087 92.1197 35.4935C94.0548 34.8002 95.8503 34.5056 97.5062 34.5056C98.4008 34.5056 99.2636 34.5931 100.082 34.7483C100.812 34.8883 101.51 35.0797 102.176 35.3174C101.77 35.7007 101.364 36.0885 100.958 36.4814" fill="#DCF7CF"/>
<path d="M26.6223 120.338L26.6164 120.333L26.6223 120.338ZM26.6164 120.327C26.4572 119.644 27.3179 118.863 29.01 118.005C28.5973 118.563 28.1905 119.132 27.7778 119.696C27.6068 119.5 27.4476 119.293 27.3003 119.086C26.7755 119.53 26.5279 119.944 26.6164 120.327Z" fill="#D2F3C1"/>
<path d="M26.8311 121.005C26.7487 120.793 26.678 120.57 26.6251 120.348C26.6251 120.343 26.6251 120.343 26.6251 120.337L26.6191 120.332C26.6191 120.332 26.6191 120.332 26.6191 120.327C26.5308 119.944 26.7781 119.53 27.3022 119.085C27.4494 119.292 27.6083 119.499 27.7791 119.696C27.4611 120.131 27.1432 120.565 26.8311 121.005" fill="#DCF7CF"/>
<path d="M37.1692 96.8189C32.0249 94.1292 28.1474 89.7267 26.5297 84.4912C25.9945 82.7476 25.7031 80.9162 25.7031 79.0229C25.7031 71.3459 30.4192 64.6515 37.4071 61.1025V65.3754C32.7505 68.4848 29.7294 73.4408 29.7294 79.0229C29.7294 84.0827 32.2093 88.6244 36.1463 91.7491C36.3901 93.4667 36.7351 95.1584 37.1692 96.8189Z" fill="#D8999B"/>
<path d="M36.1474 91.7492C32.2104 88.6246 29.7305 84.0828 29.7305 79.023C29.7305 73.441 32.7516 68.4849 37.4082 65.3756V73.26C36.2961 77.1657 35.7133 81.263 35.7133 85.4793C35.7133 85.5052 35.7133 85.5364 35.7133 85.5671C35.7133 85.5724 35.7133 85.583 35.7133 85.5883C35.7133 85.6089 35.7133 85.6295 35.7133 85.6549C35.7133 85.6602 35.7133 85.6708 35.7133 85.6809C35.7133 85.7021 35.7133 85.7227 35.7133 85.7433C35.7133 85.7486 35.7133 85.7587 35.7133 85.7687C35.7133 85.7899 35.7133 85.8105 35.7133 85.8312C35.7133 85.8417 35.7133 85.847 35.7133 85.8571C35.7133 85.8777 35.7133 85.9036 35.7133 85.9296C35.7133 85.9349 35.7133 85.9396 35.7133 85.9396C35.7311 87.9054 35.8798 89.8406 36.1474 91.7492" fill="#E3AEB0"/>
<path d="M38.9336 104.863V102.157C39.1714 102.746 39.4152 103.331 39.6774 103.911C39.4335 104.226 39.1836 104.542 38.9336 104.863ZM38.9336 68.7936V47.7799C38.9336 45.3691 41.1345 43.4135 43.8415 43.4135H61.8027C59.7359 44.5771 57.7605 45.8552 55.8888 47.2363H48.7311C45.9632 47.2363 43.7196 49.2332 43.7196 51.696V59.8179C41.8052 62.6376 40.1956 65.6429 38.9336 68.7936" fill="#F2DB8F"/>
<path d="M43.7188 59.8183V51.6962C43.7188 49.2335 45.9612 47.2367 48.7308 47.2367H55.8883C51.0884 50.7908 46.9611 55.0433 43.7188 59.8183" fill="#D7C283"/>
<path d="M37.415 106.828V97.6968C37.8428 99.2127 38.3561 100.702 38.9366 102.156V104.862C38.4294 105.514 37.9222 106.171 37.415 106.828ZM37.415 73.2575V47.2457V46.6873C37.415 44.209 39.676 42.1967 42.4626 42.1967H64.0952C63.3191 42.5849 62.5552 42.9932 61.8036 43.4125H43.8436C41.1365 43.4125 38.9366 45.3682 38.9366 47.7791V68.7929C38.3561 70.2517 37.8428 71.7367 37.415 73.2575" fill="#F1E1B4"/>
<path d="M39.6735 103.911C39.4137 103.332 39.1665 102.748 38.9321 102.158C38.3491 100.704 37.8358 99.2141 37.4049 97.6985C37.3288 97.4036 37.2464 97.1087 37.1704 96.8189C36.7331 95.1584 36.3909 93.4663 36.1438 91.7488C35.8776 89.8402 35.7319 87.9051 35.7129 85.9395C35.7763 92.2822 37.1831 98.3401 39.6798 103.901C39.6798 103.906 39.6799 103.906 39.6735 103.911M40.0221 103.467C38.7293 99.271 38.0386 94.8584 38.0386 90.3003C38.0386 62.8507 63.0507 40.6003 93.8929 40.6003C94.8055 40.6003 95.7053 40.6206 96.6115 40.6623C93.1135 44.0561 89.4634 47.6827 85.6865 51.5366C85.7499 50.8949 85.5535 49.99 85.3 49.6331C85.1732 49.4521 84.9451 49.3483 84.717 49.3483C84.6156 49.3483 84.5015 49.3742 84.4065 49.421C83.9059 49.6483 83.0694 50.5747 82.8856 51.1898C82.5878 52.1782 83.1137 52.618 83.8678 52.799C84.0453 52.8402 84.2163 52.8661 84.3811 52.8661C73.5258 63.9891 61.6756 76.9276 49.6099 91.5419C49.5909 91.5419 49.5719 91.5419 49.5529 91.5419C49.3945 91.5419 49.2234 91.5576 49.0333 91.5988C48.3299 91.7386 47.2653 92.4474 46.9928 92.8821C46.8153 93.1562 46.9041 93.508 47.1956 93.689C47.3096 93.7612 47.4871 93.8288 47.6835 93.8858C45.136 97.0049 42.5759 100.202 40.0221 103.467ZM56.3398 77.3877C56.1687 77.3877 56.004 77.4446 55.8773 77.5535C55.459 77.8844 54.9203 78.9761 54.9203 79.607C54.9203 80.6366 55.5541 80.9422 56.3398 80.9422C57.1193 80.9422 57.7594 80.6366 57.7594 79.607C57.7594 78.9761 57.2143 77.8844 56.8024 77.5535C56.6694 77.4446 56.5046 77.3877 56.3398 77.3877ZM60.8264 68.5985C60.5349 68.5985 60.2625 68.7637 60.1737 69.0174C59.9963 69.4883 60.1231 70.6729 60.4716 71.2266C60.8201 71.7746 61.2257 71.9816 61.6502 71.9816C61.9101 71.9816 62.1762 71.8987 62.4424 71.7696C63.1268 71.4279 63.507 70.8849 62.943 69.9901C62.5945 69.4364 61.5235 68.7225 60.9849 68.6137C60.9342 68.6036 60.8771 68.5985 60.8264 68.5985M74.6792 56.8908C74.451 56.8908 74.2292 56.9895 74.1025 57.1654C73.792 57.5844 73.5702 58.7532 73.7539 59.3689C73.9757 60.1397 74.4447 60.4087 74.996 60.4087C75.1608 60.4087 75.3255 60.3827 75.4966 60.3466C76.2507 60.1713 76.783 59.7366 76.4978 58.7431C76.3204 58.1274 75.4966 57.1965 75.0023 56.9585C74.9009 56.9117 74.7869 56.8908 74.6792 56.8908M35.7129 85.9288C35.7129 85.9034 35.7129 85.8775 35.7129 85.8566C35.7129 85.8826 35.7129 85.9034 35.7129 85.9288ZM35.7129 85.8307C35.7129 85.8098 35.7129 85.7895 35.7129 85.7687C35.7129 85.7895 35.7129 85.8098 35.7129 85.8307ZM35.7129 85.7427C35.7129 85.7219 35.7129 85.7016 35.7129 85.6807C35.7129 85.7016 35.7129 85.7219 35.7129 85.7427ZM35.7129 85.6548C35.7129 85.6288 35.7129 85.6085 35.7129 85.5877C35.7129 85.6085 35.7129 85.6288 35.7129 85.6548ZM35.7129 85.5668C35.7129 85.5358 35.7129 85.5048 35.7129 85.4788C35.7129 85.5048 35.7129 85.5358 35.7129 85.5668ZM35.7129 85.4788C35.7129 81.2624 36.2959 77.1655 37.4049 73.2598C37.8358 71.7385 38.3491 70.2539 38.9321 68.7947C40.1931 65.6445 41.8027 62.6387 43.7165 59.8194C46.9611 55.0443 51.0801 50.7918 55.8836 47.2379C57.7593 45.8564 59.7365 44.5782 61.796 43.4144C62.5501 42.9955 63.3169 42.5867 64.09 42.1988C71.7324 38.3443 80.5092 36.0529 89.8499 35.8048C90.3569 35.789 90.8639 35.7839 91.3708 35.7839C91.4342 35.7839 91.4976 35.7839 91.5609 35.7839C60.7124 35.7839 35.7129 58.0292 35.7129 85.4788M100.952 36.482C100.414 36.3996 99.8687 36.3269 99.3238 36.2598C99.8687 36.3269 100.414 36.3996 100.952 36.482ZM99.3238 36.2598C99.216 36.2446 99.102 36.2288 98.9879 36.2187C99.0956 36.2288 99.216 36.2446 99.3238 36.2598ZM98.9816 36.213C98.8929 36.2079 98.8041 36.1978 98.7217 36.1871C98.8041 36.1978 98.8929 36.2079 98.9816 36.213ZM98.7027 36.182C98.6837 36.182 98.6647 36.182 98.6521 36.1769C98.6647 36.182 98.6837 36.182 98.7027 36.182ZM98.6331 36.1769C98.576 36.1668 98.5126 36.1617 98.4493 36.1561C98.5126 36.1617 98.576 36.1668 98.6331 36.1769ZM98.4366 36.1561C98.4176 36.151 98.3986 36.151 98.3796 36.1459C98.3986 36.151 98.4176 36.151 98.4366 36.1561ZM98.3605 36.1459C98.3415 36.1459 98.3225 36.1408 98.3098 36.1408C98.3225 36.1408 98.3415 36.1459 98.3605 36.1459ZM98.2971 36.1408C98.2338 36.1307 98.1704 36.1251 98.107 36.12C98.1641 36.1251 98.2338 36.1307 98.2971 36.1408ZM98.0944 36.1149C98.0754 36.1149 98.0564 36.1149 98.0374 36.1098C98.0564 36.1149 98.0691 36.1149 98.0944 36.1149ZM98.012 36.1098C97.993 36.1098 97.974 36.1048 97.955 36.1048C97.9803 36.1048 97.993 36.1098 98.012 36.1098ZM97.955 36.1048C97.917 36.0997 97.8853 36.094 97.8409 36.094C97.8853 36.094 97.9233 36.0997 97.955 36.1048ZM97.8156 36.089C97.8029 36.089 97.7839 36.0839 97.7712 36.0839C97.7839 36.0839 97.8029 36.089 97.8156 36.089ZM97.7395 36.0839C97.7268 36.0788 97.7078 36.0788 97.6888 36.0788C97.7078 36.0788 97.7268 36.0788 97.7395 36.0839ZM97.6698 36.0738C97.6255 36.0681 97.5938 36.0681 97.5494 36.063C97.5938 36.0681 97.6255 36.0681 97.6698 36.0738ZM97.5494 36.063C97.5304 36.063 97.5177 36.0579 97.4987 36.0579C97.5177 36.0579 97.5304 36.063 97.5494 36.063ZM97.467 36.0579C97.4607 36.0529 97.4417 36.0529 97.4227 36.0529C97.4417 36.0529 97.4544 36.0529 97.467 36.0579ZM97.391 36.0478C97.3783 36.0478 97.3656 36.0478 97.3466 36.0422C97.3593 36.0478 97.3783 36.0478 97.391 36.0478ZM97.2896 36.0377C97.2769 36.0377 97.2579 36.0377 97.2452 36.0377C97.2579 36.0377 97.2769 36.0377 97.2896 36.0377ZM97.1945 36.032C97.1819 36.032 97.1692 36.0269 97.1565 36.0269C97.1692 36.0269 97.1819 36.032 97.1945 36.032ZM97.1185 36.0269C97.1122 36.0219 97.0932 36.0219 97.0805 36.0219C97.0932 36.0219 97.1122 36.0219 97.1185 36.0269ZM97.0361 36.0168C97.0298 36.0168 97.0107 36.0168 96.9981 36.0117C97.0107 36.0168 97.0298 36.0168 97.0361 36.0168ZM96.9284 36.0061C96.9157 36.0061 96.8967 36.0061 96.8904 36.0061C96.8967 36.0061 96.9157 36.0061 96.9284 36.0061ZM96.846 36.001C96.8333 36.001 96.827 36.001 96.808 35.9959C96.827 36.001 96.8333 36.001 96.846 36.001ZM96.77 35.9959C96.7573 35.9959 96.7446 35.9909 96.732 35.9909C96.7446 35.9909 96.7573 35.9959 96.77 35.9959ZM96.6876 35.9858C96.6686 35.9858 96.6432 35.9858 96.6178 35.9801C96.6432 35.9858 96.6686 35.9858 96.6876 35.9858ZM96.5798 35.9801C96.5672 35.9801 96.5545 35.9751 96.5418 35.9751C96.5545 35.9751 96.5672 35.9801 96.5798 35.9801ZM96.4975 35.9751C96.4848 35.97 96.4721 35.97 96.4594 35.97C96.4721 35.97 96.4848 35.97 96.4975 35.9751ZM96.4151 35.9649C96.4024 35.9649 96.3961 35.9649 96.3834 35.9649C96.3961 35.9649 96.4024 35.9649 96.4151 35.9649ZM96.3201 35.9599C96.301 35.9599 96.282 35.9548 96.2693 35.9548C96.2883 35.9548 96.301 35.9599 96.3201 35.9599ZM96.2313 35.9548C96.2123 35.9491 96.1996 35.9491 96.1933 35.9491C96.1996 35.9491 96.2123 35.9491 96.2313 35.9548ZM96.1489 35.9441C96.1363 35.9441 96.1236 35.9441 96.1109 35.9441C96.1236 35.9441 96.1363 35.9441 96.1489 35.9441ZM96.0729 35.939C96.0539 35.939 96.0285 35.939 96.0032 35.9339C96.0285 35.939 96.0539 35.939 96.0729 35.939ZM95.9588 35.9339C95.9462 35.9339 95.9334 35.9339 95.9208 35.9288C95.9334 35.9339 95.9462 35.9339 95.9588 35.9339ZM95.8765 35.9288C95.8638 35.9288 95.8511 35.9238 95.8384 35.9238C95.8511 35.9238 95.8638 35.9288 95.8765 35.9288ZM95.794 35.9238C95.7814 35.9238 95.7687 35.9181 95.7623 35.9181C95.7687 35.9181 95.7814 35.9238 95.794 35.9238ZM95.6864 35.9131C95.68 35.9131 95.6673 35.9131 95.6547 35.9131C95.6673 35.9131 95.68 35.9131 95.6864 35.9131ZM95.6103 35.908C95.5913 35.908 95.5849 35.908 95.5659 35.908C95.5849 35.908 95.5913 35.908 95.6103 35.908ZM95.5279 35.9029C95.5089 35.9029 95.5025 35.9029 95.4899 35.9029C95.5025 35.9029 95.5153 35.9029 95.5279 35.9029ZM95.4392 35.8972C95.4265 35.8972 95.4201 35.8972 95.4138 35.8972C95.4201 35.8972 95.4265 35.8972 95.4392 35.8972ZM95.3378 35.8928C95.3251 35.8928 95.3124 35.8928 95.2998 35.8928C95.3124 35.8928 95.3251 35.8928 95.3378 35.8928ZM95.2554 35.8871C95.2427 35.8871 95.2301 35.8871 95.2174 35.8871C95.2301 35.8871 95.2427 35.8871 95.2554 35.8871ZM95.173 35.882C95.1603 35.882 95.1477 35.882 95.135 35.882C95.1477 35.882 95.1603 35.882 95.173 35.882ZM95.0716 35.877C95.0653 35.877 95.0463 35.877 95.0336 35.877C95.0463 35.877 95.059 35.877 95.0716 35.877ZM94.9829 35.8719C94.9702 35.8719 94.9576 35.8719 94.9449 35.8719C94.9576 35.8719 94.9766 35.8719 94.9829 35.8719ZM94.9068 35.8668C94.8942 35.8668 94.8816 35.8668 94.8625 35.8668C94.8752 35.8668 94.8942 35.8668 94.9068 35.8668ZM94.8182 35.8668C94.8055 35.8612 94.7928 35.8612 94.7801 35.8612C94.7928 35.8612 94.8055 35.8612 94.8182 35.8668ZM94.7104 35.8612C94.7041 35.8561 94.6914 35.8561 94.6787 35.8561C94.6914 35.8561 94.7041 35.8561 94.7104 35.8612ZM94.6344 35.8561C94.6217 35.8561 94.6027 35.8561 94.5964 35.851C94.609 35.8561 94.6217 35.8561 94.6344 35.8561ZM94.5457 35.851C94.533 35.851 94.5267 35.851 94.514 35.851C94.5267 35.851 94.533 35.851 94.5457 35.851ZM94.3556 35.8409C94.3492 35.8409 94.3365 35.8409 94.3302 35.8409C94.3365 35.8409 94.3492 35.8409 94.3556 35.8409ZM94.2731 35.8409C94.2605 35.8409 94.2542 35.8352 94.2478 35.8352C94.2542 35.8352 94.2605 35.8409 94.2731 35.8409ZM94.1845 35.8352C94.1718 35.8352 94.1718 35.8352 94.1591 35.8352C94.1718 35.8352 94.1718 35.8352 94.1845 35.8352ZM94.083 35.8307C94.0767 35.8307 94.0704 35.8307 94.0577 35.8307C94.0704 35.8307 94.0767 35.8307 94.083 35.8307ZM94.007 35.8307C93.9944 35.8251 93.9817 35.8251 93.969 35.8251C93.9817 35.8251 93.9944 35.8251 94.007 35.8307ZM93.9183 35.8251C93.912 35.8251 93.8993 35.8251 93.8866 35.8251C93.8993 35.8251 93.912 35.8251 93.9183 35.8251ZM93.8296 35.82C93.8169 35.82 93.8042 35.82 93.7979 35.82C93.8042 35.82 93.8169 35.82 93.8296 35.82ZM93.7282 35.82C93.7219 35.82 93.7092 35.8149 93.7028 35.8149C93.7155 35.8149 93.7219 35.82 93.7282 35.82ZM93.6521 35.8149C93.6395 35.8149 93.6268 35.8149 93.6141 35.8149C93.6268 35.8149 93.6395 35.8149 93.6521 35.8149ZM93.5635 35.8149C93.5508 35.8149 93.5444 35.8099 93.5318 35.8099C93.5444 35.8099 93.5571 35.8149 93.5635 35.8149ZM93.4557 35.8099C93.443 35.8099 93.4431 35.8099 93.4367 35.8099C93.4431 35.8099 93.443 35.8099 93.4557 35.8099ZM93.3733 35.8048C93.367 35.8048 93.3543 35.8048 93.3417 35.8048C93.3543 35.8048 93.367 35.8048 93.3733 35.8048ZM93.2973 35.8048C93.2846 35.8048 93.2719 35.8048 93.2592 35.8048C93.2719 35.8048 93.2846 35.8048 93.2973 35.8048ZM93.1959 35.8048C93.1895 35.8048 93.1832 35.8048 93.1769 35.7992C93.1832 35.7992 93.1895 35.8048 93.1959 35.8048ZM93.1008 35.7992C93.0881 35.7992 93.0818 35.7992 93.0755 35.7992C93.0818 35.7992 93.0881 35.7992 93.1008 35.7992ZM93.0184 35.7992C93.0058 35.7992 92.9995 35.7992 92.9931 35.7992C92.9995 35.7992 93.0121 35.7992 93.0184 35.7992ZM92.9298 35.7941C92.9234 35.7941 92.9171 35.7941 92.9044 35.7941C92.9107 35.7941 92.9234 35.7941 92.9298 35.7941ZM92.822 35.7941C92.8157 35.7941 92.8093 35.7941 92.8093 35.7941C92.8157 35.7941 92.8157 35.7941 92.822 35.7941ZM92.7396 35.7941C92.7396 35.7941 92.7269 35.7941 92.7143 35.7941C92.7269 35.7941 92.7396 35.7941 92.7396 35.7941ZM92.6636 35.789C92.6509 35.789 92.6446 35.789 92.6319 35.789C92.6382 35.789 92.6509 35.789 92.6636 35.789ZM92.5685 35.789C92.5622 35.789 92.5559 35.789 92.5495 35.789C92.5559 35.789 92.5622 35.789 92.5685 35.789ZM92.4671 35.789C92.4608 35.789 92.4544 35.789 92.4481 35.789C92.4544 35.789 92.4608 35.789 92.4671 35.789ZM92.3847 35.789C92.3784 35.789 92.3721 35.789 92.3594 35.7839C92.3721 35.789 92.3784 35.789 92.3847 35.789ZM92.3024 35.7839C92.296 35.7839 92.2833 35.7839 92.277 35.7839C92.2833 35.7839 92.2897 35.7839 92.3024 35.7839ZM92.1946 35.7839C92.1883 35.7839 92.1883 35.7839 92.1819 35.7839C92.1883 35.7839 92.1883 35.7839 92.1946 35.7839ZM92.1123 35.7839C92.1059 35.7839 92.0932 35.7839 92.0869 35.7839C92.0932 35.7839 92.1059 35.7839 92.1123 35.7839ZM92.0299 35.7839C92.0235 35.7839 92.0109 35.7839 91.9982 35.7839C92.0109 35.7839 92.0235 35.7839 92.0299 35.7839ZM91.9348 35.7839C91.9285 35.7839 91.9221 35.7839 91.9221 35.7839C91.9221 35.7839 91.9285 35.7839 91.9348 35.7839ZM91.8334 35.7839C91.8271 35.7839 91.8207 35.7839 91.8144 35.7839C91.8207 35.7839 91.8271 35.7839 91.8334 35.7839ZM91.751 35.7839C91.7447 35.7839 91.7384 35.7839 91.7257 35.7839C91.7384 35.7839 91.7447 35.7839 91.751 35.7839ZM91.675 35.7839C91.6623 35.7839 91.6496 35.7839 91.6433 35.7839C91.6496 35.7839 91.6623 35.7839 91.675 35.7839Z" fill="#E9D0B6"/>
<path d="M39.6798 103.901C37.1831 98.3401 35.7763 92.2822 35.7129 85.9395C35.7129 85.9395 35.7129 85.9345 35.7129 85.9288C35.7129 85.9035 35.7129 85.8826 35.7129 85.8567C35.7129 85.8465 35.7129 85.8409 35.7129 85.8307C35.7129 85.8099 35.7129 85.7896 35.7129 85.7687C35.7129 85.7586 35.7129 85.7478 35.7129 85.7428C35.7129 85.7219 35.7129 85.7016 35.7129 85.6807C35.7129 85.6706 35.7129 85.6599 35.7129 85.6548C35.7129 85.6289 35.7129 85.6086 35.7129 85.5877C35.7129 85.5826 35.7129 85.5719 35.7129 85.5668C35.7129 85.5358 35.7129 85.5048 35.7129 85.4789C35.7129 58.0293 60.7124 35.784 91.5609 35.784C91.5863 35.784 91.6116 35.784 91.6433 35.784C91.6496 35.784 91.6623 35.784 91.675 35.784C91.6876 35.784 91.7067 35.784 91.7257 35.784C91.7384 35.784 91.7447 35.784 91.751 35.784C91.7764 35.784 91.7954 35.784 91.8144 35.784C91.8207 35.784 91.8271 35.784 91.8334 35.784C91.8651 35.784 91.8905 35.784 91.9221 35.784C91.9221 35.784 91.9285 35.784 91.9348 35.784C91.9602 35.784 91.9729 35.784 91.9982 35.784C92.0109 35.784 92.0235 35.784 92.0299 35.784C92.0489 35.784 92.0679 35.784 92.0869 35.784C92.0932 35.784 92.1059 35.784 92.1123 35.784C92.1376 35.784 92.1629 35.784 92.1819 35.784C92.1883 35.784 92.1883 35.784 92.1946 35.784C92.22 35.784 92.2453 35.784 92.277 35.784C92.2833 35.784 92.296 35.784 92.3024 35.784C92.315 35.784 92.3341 35.784 92.3594 35.784C92.3721 35.789 92.3784 35.789 92.3847 35.789C92.4037 35.789 92.4291 35.789 92.4481 35.789C92.4544 35.789 92.4608 35.789 92.4671 35.789C92.4988 35.789 92.5242 35.789 92.5495 35.789C92.5559 35.789 92.5622 35.789 92.5685 35.789C92.5939 35.789 92.6066 35.789 92.6319 35.789C92.6446 35.789 92.6509 35.789 92.6636 35.789C92.6763 35.789 92.6953 35.7891 92.7143 35.7941C92.7269 35.7941 92.7396 35.7941 92.7396 35.7941C92.765 35.7941 92.7903 35.7941 92.8093 35.7941C92.8093 35.7941 92.8157 35.7941 92.822 35.7941C92.8537 35.7941 92.879 35.7941 92.9044 35.7941C92.9171 35.7941 92.9234 35.7941 92.9298 35.7941C92.9488 35.7941 92.9678 35.7992 92.9931 35.7992C92.9995 35.7992 93.0058 35.7992 93.0184 35.7992C93.0311 35.7992 93.0565 35.7992 93.0755 35.7992C93.0818 35.7992 93.0881 35.7992 93.1008 35.7992C93.1262 35.7992 93.1578 35.7992 93.1769 35.7992C93.1832 35.8048 93.1895 35.8048 93.1959 35.8048C93.2149 35.8048 93.2339 35.8048 93.2592 35.8048C93.2719 35.8048 93.2846 35.8048 93.2973 35.8048C93.31 35.8048 93.3226 35.8048 93.3417 35.8048C93.3543 35.8048 93.367 35.8048 93.3733 35.8048C93.3924 35.8099 93.4114 35.8099 93.4367 35.8099C93.4431 35.8099 93.443 35.8099 93.4557 35.8099C93.4811 35.8099 93.5064 35.8099 93.5318 35.8099C93.5444 35.8099 93.5508 35.815 93.5635 35.815C93.5825 35.815 93.5951 35.815 93.6141 35.815C93.6268 35.815 93.6395 35.815 93.6521 35.815C93.6648 35.815 93.6838 35.815 93.7028 35.815C93.7092 35.815 93.7219 35.8201 93.7282 35.8201C93.7472 35.8201 93.7725 35.8201 93.7979 35.8201C93.8042 35.8201 93.8169 35.8201 93.8296 35.8201C93.8486 35.8201 93.8676 35.8251 93.8866 35.8251C93.8993 35.8251 93.912 35.8251 93.9183 35.8251C93.9373 35.8251 93.95 35.8251 93.969 35.8251C93.9817 35.8251 93.9944 35.8251 94.007 35.8308C94.0197 35.8308 94.0387 35.8308 94.0577 35.8308C94.0704 35.8308 94.0767 35.8308 94.083 35.8308C94.1084 35.8308 94.1401 35.8353 94.1591 35.8353C94.1718 35.8353 94.1718 35.8353 94.1845 35.8353C94.2035 35.8353 94.2225 35.8353 94.2478 35.8353C94.2542 35.8353 94.2605 35.8409 94.2731 35.8409C94.2922 35.8409 94.3112 35.8409 94.3302 35.8409C94.3365 35.8409 94.3492 35.8409 94.3556 35.8409C94.4126 35.846 94.4633 35.846 94.514 35.8511C94.5267 35.8511 94.533 35.8511 94.5457 35.8511C94.5647 35.8511 94.5774 35.8511 94.5964 35.8511C94.6027 35.8561 94.6217 35.8561 94.6344 35.8561C94.647 35.8561 94.6597 35.8561 94.6787 35.8561C94.6914 35.8561 94.7041 35.8562 94.7104 35.8612C94.7358 35.8612 94.7611 35.8612 94.7801 35.8612C94.7928 35.8612 94.8055 35.8612 94.8182 35.8669C94.8372 35.8669 94.8499 35.8669 94.8625 35.8669C94.8816 35.8669 94.8942 35.8669 94.9068 35.8669C94.9195 35.8719 94.9322 35.8719 94.9449 35.8719C94.9576 35.8719 94.9702 35.8719 94.9829 35.8719C94.9956 35.8719 95.0146 35.877 95.0336 35.877C95.0463 35.877 95.0653 35.877 95.0716 35.877C95.097 35.877 95.116 35.8821 95.135 35.8821C95.1477 35.8821 95.1603 35.8821 95.173 35.8821C95.1857 35.8821 95.2047 35.8872 95.2174 35.8872C95.2301 35.8872 95.2427 35.8872 95.2554 35.8872C95.2744 35.8872 95.2807 35.8928 95.2998 35.8928C95.3124 35.8928 95.3251 35.8928 95.3378 35.8928C95.3568 35.8928 95.3885 35.8973 95.4138 35.8973C95.4201 35.8973 95.4265 35.8973 95.4392 35.8973C95.4582 35.9029 95.4772 35.9029 95.4899 35.9029C95.5025 35.9029 95.5089 35.9029 95.5279 35.9029C95.5406 35.908 95.5596 35.908 95.5659 35.908C95.5849 35.908 95.5913 35.908 95.6103 35.908C95.623 35.9131 95.6357 35.9131 95.6547 35.9131C95.6673 35.9131 95.68 35.9131 95.6864 35.9131C95.7054 35.9182 95.737 35.9182 95.7623 35.9182C95.7687 35.9182 95.7814 35.9238 95.794 35.9238C95.813 35.9238 95.8257 35.9238 95.8384 35.9238C95.8511 35.9238 95.8638 35.9289 95.8765 35.9289C95.8955 35.9289 95.9081 35.9289 95.9208 35.9289C95.9334 35.9339 95.9462 35.934 95.9588 35.934C95.9778 35.934 95.9842 35.934 96.0032 35.934C96.0285 35.939 96.0539 35.939 96.0729 35.939C96.0856 35.9441 96.0982 35.9441 96.1109 35.9441C96.1236 35.9441 96.1363 35.9441 96.1489 35.9441C96.1616 35.9492 96.1806 35.9492 96.1933 35.9492C96.1996 35.9492 96.2123 35.9492 96.2313 35.9548C96.244 35.9548 96.2566 35.9548 96.2693 35.9548C96.282 35.9548 96.301 35.9599 96.3201 35.9599C96.3391 35.9599 96.3581 35.9599 96.3834 35.965C96.3961 35.965 96.4024 35.965 96.4151 35.965C96.4341 35.97 96.4467 35.97 96.4594 35.97C96.4721 35.97 96.4848 35.9701 96.4975 35.9751C96.5101 35.9751 96.5292 35.9751 96.5418 35.9751C96.5545 35.9751 96.5672 35.9802 96.5798 35.9802C96.5925 35.9802 96.6052 35.9802 96.6178 35.9802C96.6432 35.9858 96.6686 35.9858 96.6876 35.9858C96.7003 35.9909 96.7129 35.9909 96.732 35.9909C96.7446 35.9909 96.7573 35.996 96.77 35.996C96.7826 35.996 96.7953 35.996 96.808 35.996C96.827 36.001 96.8333 36.0011 96.846 36.0011C96.865 36.0011 96.8777 36.0011 96.8904 36.0061C96.8967 36.0061 96.9157 36.0061 96.9284 36.0061C96.9537 36.0118 96.9727 36.0118 96.9981 36.0118C97.0107 36.0168 97.0298 36.0168 97.0361 36.0168C97.0488 36.0168 97.0615 36.0219 97.0805 36.0219C97.0932 36.0219 97.1122 36.0219 97.1185 36.027C97.1312 36.027 97.1438 36.027 97.1565 36.027C97.1692 36.027 97.1819 36.0321 97.1945 36.0321C97.2136 36.0321 97.2262 36.0321 97.2452 36.0377C97.2579 36.0377 97.2769 36.0377 97.2896 36.0377C97.3086 36.0422 97.3276 36.0422 97.3466 36.0422C97.3656 36.0479 97.3783 36.0479 97.391 36.0479C97.3973 36.0479 97.41 36.0529 97.4227 36.0529C97.4417 36.0529 97.4607 36.0529 97.467 36.058C97.4797 36.058 97.486 36.058 97.4987 36.058C97.5177 36.058 97.5304 36.0631 97.5494 36.0631C97.5938 36.0682 97.6255 36.0682 97.6698 36.0738C97.6698 36.0738 97.6825 36.0789 97.6888 36.0789C97.7078 36.0789 97.7268 36.0789 97.7395 36.0839C97.7458 36.0839 97.7585 36.0839 97.7712 36.0839C97.7839 36.0839 97.8029 36.089 97.8156 36.089C97.8219 36.089 97.8346 36.089 97.8409 36.0941C97.8853 36.0941 97.917 36.0997 97.955 36.1048C97.974 36.1048 97.993 36.1099 98.012 36.1099C98.0247 36.1099 98.0247 36.1099 98.0374 36.1099C98.0564 36.1149 98.0754 36.115 98.0944 36.115C98.0944 36.12 98.1007 36.12 98.107 36.12C98.1704 36.1251 98.2338 36.1307 98.2971 36.1409C98.2971 36.1409 98.3035 36.1409 98.3098 36.1409C98.3225 36.1409 98.3415 36.146 98.3605 36.146C98.3669 36.146 98.3796 36.146 98.3796 36.146C98.3986 36.151 98.4176 36.151 98.4366 36.1561C98.4429 36.1561 98.4493 36.1561 98.4493 36.1561C98.5126 36.1618 98.576 36.1668 98.6331 36.177C98.6394 36.177 98.6457 36.177 98.6521 36.177C98.6647 36.1821 98.6837 36.1821 98.7027 36.1821C98.7091 36.1821 98.7154 36.1871 98.7217 36.1871C98.8041 36.1978 98.8929 36.208 98.9816 36.2131C98.9816 36.2187 98.9879 36.2187 98.9879 36.2187C99.102 36.2288 99.216 36.2446 99.3238 36.2599C99.8687 36.327 100.414 36.3997 100.952 36.482C99.5329 37.8324 98.0881 39.224 96.6115 40.6623C95.7053 40.6206 94.8055 40.6003 93.8929 40.6003C63.0507 40.6003 38.0386 62.8507 38.0386 90.3003C38.0386 94.8584 38.7293 99.2711 40.0221 103.467C39.908 103.612 39.7939 103.756 39.6798 103.901" fill="#F4E6D4"/>
<path d="M84.3836 52.8654C84.2212 52.8654 84.0465 52.8393 83.8716 52.7982C83.1162 52.6171 82.5917 52.1771 82.8914 51.1888C83.0724 50.5733 83.9091 49.6472 84.4086 49.42C84.5085 49.3733 84.6146 49.3472 84.7208 49.3472C84.9455 49.3472 85.1766 49.4511 85.3014 49.6322C85.5574 49.9888 85.751 50.8944 85.6886 51.5355C85.2515 51.9755 84.8206 52.4205 84.3836 52.8654" fill="#F4FBFE"/>
<path d="M47.6814 93.8851C47.4887 93.8283 47.314 93.7608 47.1935 93.6885C46.9045 93.5074 46.8202 93.1559 46.9948 92.8815C47.2658 92.447 48.3377 91.7381 49.0303 91.5988C49.223 91.557 49.3976 91.5414 49.5542 91.5414C49.5723 91.5414 49.5903 91.5414 49.6144 91.5414C48.9701 92.3178 48.3317 93.0991 47.6814 93.8851Z" fill="#F4FBFE"/>
<path d="M75.0031 60.4076C74.4461 60.4076 73.9757 60.1389 73.7591 59.368C73.5734 58.7524 73.7963 57.5833 74.1057 57.1643C74.2357 56.9881 74.4523 56.8901 74.6812 56.8901C74.7926 56.8901 74.904 56.911 75.0092 56.9573C75.4981 57.1951 76.3275 58.1263 76.5008 58.7419C76.7854 59.7353 76.2594 60.1698 75.4982 60.346C75.3249 60.3818 75.164 60.4076 75.0031 60.4076" fill="#F4FBFE"/>
<path d="M61.6449 71.9818C61.2235 71.9818 60.8204 71.7748 60.4722 71.227C60.1241 70.6733 59.9959 69.4887 60.173 69.0176C60.2646 68.7643 60.5394 68.5986 60.8265 68.5986C60.8814 68.5986 60.9303 68.604 60.9853 68.6144C61.5227 68.723 62.5976 69.4365 62.9457 69.9903C63.5076 70.8853 63.1228 71.4287 62.4449 71.7699C62.1762 71.8992 61.9075 71.9818 61.6449 71.9818" fill="#F4FBFE"/>
<path d="M56.3435 80.9394C55.5602 80.9394 54.9287 80.6342 54.9287 79.6049C54.9287 78.9739 55.4691 77.882 55.882 77.5508C56.0095 77.4423 56.1795 77.3855 56.3435 77.3855C56.5074 77.3855 56.6775 77.4423 56.811 77.5508C57.2239 77.882 57.7644 78.9739 57.7644 79.6049C57.7644 80.6342 57.1268 80.9394 56.3435 80.9394" fill="#F4FBFE"/>
</svg>
