<svg width="161" height="188" viewBox="0 0 161 188" fill="none" xmlns="http://www.w3.org/2000/svg">
<path d="M154.744 166.583C153.675 165.21 152.608 159.999 152.608 155.063C152.608 150.125 149.404 146.834 149.404 146.834C147.271 145.189 147.271 142.171 147.271 142.171L147.982 138.605C152.964 128.731 150.829 54.9503 150.829 54.9503C150.829 54.9503 152.253 46.4467 150.117 45.076C147.982 43.7037 148.693 40.9608 148.693 40.9608L150.473 38.4926C161 22.5844 161 0.367443 161 0.367443C106.483 -0.0803562 86.9588 -0.0423863 80.4998 0.0851224C74.0408 -0.0423863 54.517 -0.0803562 0 0.367443C0 0.367443 1.22012e-05 22.5844 10.5249 38.4926L12.3047 40.9608C12.3047 40.9608 13.0159 43.7037 10.8804 45.076C8.74686 46.4467 10.1692 54.9503 10.1692 54.9503C10.1692 54.9503 8.03381 128.731 13.0159 138.605L13.729 142.171C13.729 142.171 13.729 145.189 11.5935 146.834C11.5935 146.834 8.39127 150.125 8.39127 155.063C8.39127 159.999 7.32263 165.21 6.25585 166.583C6.25585 166.583 1.62934 175.302 1.62934 181.393L1.27375 187.487C1.27375 187.487 27.251 188.642 30.8088 187.487C34.3666 186.331 56.786 186.331 56.786 186.331L80.4998 185.817L104.212 186.331C104.212 186.331 126.631 186.331 130.189 187.487C133.749 188.642 159.726 187.487 159.726 187.487L159.368 181.393C159.368 175.302 154.744 166.583 154.744 166.583" fill="#B5E6E6"/>
<path d="M160.129 10.653C160.998 4.58117 161 0.367269 161 0.367269C106.483 -0.08053 86.9588 -0.0425602 80.4998 0.0849485C74.0408 -0.0425602 54.517 -0.08053 0 0.367269C0 0.367269 -8.97146e-07 4.58117 0.86923 10.653H160.129Z" fill="#B5E6E6"/>
<path d="M11.9943 0.271655C8.18998 0.300496 4.21069 0.332356 0 0.367269C0 0.367269 -8.97146e-07 4.58117 0.86923 10.653H12.9839C12.6584 7.19206 12.363 3.72957 11.9943 0.271655" fill="#DFF4F7"/>
<path d="M23.5137 0.188122C21.796 0.198748 20.0481 0.210927 18.2344 0.224589C18.605 3.69769 18.9004 7.17688 19.2259 10.653H23.5137V0.188122Z" fill="#DFF4F7"/>
<path d="M39.1311 0.0894698C36.196 0.106167 33.0803 0.124401 29.7539 0.145652V10.653H40.655C40.1941 7.12831 39.6729 3.6081 39.1311 0.0894698Z" fill="#DFF4F7"/>
<path d="M63.5839 0.00141618C61.1869 0.0044521 58.5265 0.00905935 55.5425 0.0181671C55.5237 3.56413 55.4804 7.10857 55.377 10.653H63.9696C63.789 7.10402 63.6554 3.55193 63.5839 0.00141618Z" fill="#DFF4F7"/>
<path d="M72.9278 0.0135717C71.972 0.00901785 70.9523 0.00597303 69.8271 0.00445507C69.8986 3.55497 70.0304 7.10402 70.2129 10.653H73.9419C73.6032 7.10554 73.2664 3.55953 72.9278 0.0135717" fill="#DFF4F7"/>
<path d="M88.4312 10.1855C88.4632 6.78979 88.6834 3.40018 88.8922 0.0090515C87.2892 0.0151234 85.9007 0.0226983 84.7041 0.0318061C84.7398 3.57928 84.881 7.1192 85.2685 10.653H88.4839C88.4538 10.5043 88.4293 10.3524 88.4312 10.1855" fill="#DFF4F7"/>
<path d="M95.8761 -4.10657e-05C95.6259 -4.10657e-05 95.3756 -4.10657e-05 95.1329 -4.10657e-05C94.9504 2.94784 94.7679 5.89417 94.7002 8.84357C95.0934 5.8972 95.4885 2.94936 95.8761 -4.10657e-05Z" fill="#DFF4F7"/>
<path d="M114.024 0.0500394C113.345 0.0470035 112.673 0.0454411 112.018 0.0424052C111.76 1.90494 111.113 3.69315 110.374 5.48283C109.11 8.54759 103.083 7.22692 104.355 4.14394C104.914 2.79144 105.495 1.4268 105.761 0.0196506C104.498 0.0150967 103.271 0.0120874 102.118 0.0090515C101.651 3.55805 101.183 7.10554 100.705 10.653H109.945C111.286 7.11313 112.65 3.58082 114.024 0.0500394Z" fill="#DFF4F7"/>
<path d="M122.554 0.0940652C121.876 0.0910293 121.201 0.086428 120.544 0.083392C119.18 3.60355 117.826 7.12831 116.479 10.653H122.554V0.0940652Z" fill="#DFF4F7"/>
<path d="M132.356 0.153212C131.673 1.47687 131.01 2.80817 130.35 4.13942C130.03 4.78759 129.486 5.33858 128.798 5.67102V10.653H132.54C132.527 10.5043 132.521 10.3524 132.542 10.1855C132.978 6.81408 133.675 3.48367 134.463 0.166924C133.757 0.162371 133.046 0.159284 132.356 0.153212" fill="#DFF4F7"/>
<path d="M144.192 0.784709C144.196 0.59041 144.222 0.408275 144.267 0.236746C143.084 0.227638 141.898 0.218542 140.754 0.210952C139.942 3.51404 139.217 6.83078 138.783 10.1855C138.762 10.3524 138.715 10.5043 138.664 10.653H143.439C143.622 7.35904 144.145 4.08476 144.192 0.784709Z" fill="#DFF4F7"/>
<path d="M157.224 0.335397C155.915 3.76903 154.636 7.20876 153.373 10.653H160.129C160.999 4.58117 161 0.367269 161 0.367269C159.712 0.355125 158.472 0.346023 157.224 0.335397Z" fill="#DFF4F7"/>
<path d="M49.2994 0.0409217C48.0332 0.0454756 46.7256 0.0515652 45.3672 0.0591551C45.9109 3.5869 46.4339 7.11768 46.8968 10.653H49.1339C49.2373 7.11616 49.2825 3.57929 49.2994 0.0409217Z" fill="#DFF4F7"/>
<path d="M12.3043 40.9607C12.3043 40.9607 13.0154 43.7037 10.88 45.0759C8.74642 46.4467 10.1688 54.9503 10.1688 54.9503C10.1688 54.9503 8.03337 128.731 13.0155 138.605L13.7285 142.171C13.7285 142.171 13.7285 145.189 11.5931 146.834C11.5931 146.834 8.39083 150.125 8.39083 155.063C8.39083 159.999 7.32219 165.21 6.25541 166.583C6.25541 166.583 5.45576 168.09 4.52256 170.285H156.474C155.541 168.09 154.743 166.583 154.743 166.583C153.675 165.21 152.608 159.999 152.608 155.063C152.608 150.125 149.404 146.834 149.404 146.834C147.27 145.189 147.27 142.171 147.27 142.171L147.981 138.605C152.963 128.731 150.828 54.9503 150.828 54.9503C150.828 54.9503 152.252 46.4467 150.117 45.0759C147.981 43.7037 148.693 40.9607 148.693 40.9607L150.472 38.4926C155.438 30.9893 158.06 22.0849 159.445 14.7668H1.55176C2.93839 22.0849 5.56114 30.9893 10.5244 38.4926L12.3043 40.9607" fill="#F4732F"/>
<path d="M147.982 138.605C147.984 138.601 147.986 138.598 147.989 138.592C147.986 138.596 147.984 138.601 147.982 138.605Z" fill="#F68356"/>
<path d="M13.0085 138.589C13.0066 138.587 13.0066 138.585 13.0066 138.585C13.0066 138.585 13.0066 138.589 13.0085 138.589ZM147.991 138.587C147.993 138.584 147.993 138.582 147.995 138.579C147.993 138.582 147.993 138.584 147.991 138.587ZM147.999 138.572C148.001 138.57 148.001 138.567 148.003 138.566C148.001 138.567 148.001 138.569 147.999 138.572ZM12.9991 138.57C12.9991 138.569 12.9972 138.569 12.9972 138.567C12.9972 138.569 12.9991 138.569 12.9991 138.57ZM148.006 138.558C148.006 138.555 148.008 138.554 148.008 138.552C148.008 138.554 148.006 138.555 148.006 138.558ZM148.014 138.543C148.014 138.541 148.014 138.54 148.016 138.538C148.014 138.54 148.014 138.541 148.014 138.543ZM148.02 138.529C148.022 138.528 148.022 138.526 148.022 138.525C148.022 138.526 148.02 138.528 148.02 138.529ZM148.027 138.516C148.027 138.514 148.027 138.514 148.027 138.514C148.027 138.514 148.027 138.514 148.027 138.516ZM148.057 138.449C148.059 138.449 148.059 138.449 148.059 138.447L148.057 138.449ZM9.74414 80.5234C9.74414 80.5113 9.74414 80.4976 9.74414 80.4855C9.74414 80.4991 9.74414 80.5098 9.74414 80.5234Z" fill="#F68356"/>
<path d="M9.74414 80.452C9.75143 79.4456 9.75875 78.4543 9.76786 77.4828C9.75875 78.4543 9.75143 79.4456 9.74414 80.452Z" fill="#F68356"/>
<path d="M156.474 170.285H4.52246C5.45566 168.09 6.25532 166.583 6.25532 166.583C7.3221 165.21 8.39074 159.999 8.39074 155.063C8.39074 150.125 11.593 146.834 11.593 146.834C13.7284 145.189 13.7284 142.171 13.7284 142.171L13.0154 138.605C13.0135 138.601 13.0097 138.595 13.0078 138.588C13.0059 138.588 13.0059 138.585 13.0059 138.585C13.0022 138.579 13.0003 138.575 12.9984 138.57C12.9984 138.569 12.9965 138.569 12.9965 138.567C9.97868 132.463 9.58733 102.798 9.74349 80.5234C9.74349 80.5097 9.74349 80.4991 9.74349 80.4854C9.74349 80.4733 9.74349 80.4627 9.74349 80.452C9.75102 79.4456 9.75857 78.4544 9.76797 77.4829C13.3597 75.9664 16.9852 74.5092 20.6428 73.1157C20.6202 74.4166 20.6033 75.7114 20.5976 76.9987C20.5073 99.293 19.6945 121.574 17.1244 143.78C16.5638 148.619 15.7472 153.349 14.7783 158.05C20.1159 154.697 25.6474 151.626 31.3953 148.983C31.3125 143.639 31.2015 138.297 31.0717 132.966C30.6333 114.867 30.6954 96.9629 31.5853 78.8703C31.7471 75.6036 31.8957 72.3248 31.9954 69.043C51.9313 62.3382 72.838 57.6841 94.787 56.1267C100.941 55.691 107.111 55.48 113.282 55.48C121.24 55.48 129.204 55.8307 137.135 56.5031C131.33 87.553 134.674 119.174 138.839 150.167C139.238 153.14 139.633 156.112 140.051 159.084C145.424 162.082 150.651 165.292 155.742 168.635C155.161 167.374 154.743 166.583 154.743 166.583C153.675 165.21 152.608 159.999 152.608 155.063C152.608 150.125 149.404 146.834 149.404 146.834C147.291 145.204 147.27 142.23 147.27 142.172C147.27 142.23 147.291 145.204 149.404 146.834C149.404 146.834 152.608 150.125 152.608 155.063C152.608 159.999 153.675 165.21 154.743 166.583C154.743 166.583 155.541 168.09 156.474 170.285" fill="#F57840"/>
<path d="M38.4387 31.3853C54.2391 35.4398 70.9709 37.5422 87.554 37.4814C103.896 37.4222 119.11 33.2038 133.633 27.3779C142.523 23.8122 151.108 19.7167 159.354 15.2114C159.382 15.0657 159.418 14.9124 159.446 14.7667H1.78613C11.5396 22.9151 25.2648 28.0048 38.4387 31.3853" fill="#F26224"/>
<path d="M11.5931 146.834C11.5931 146.834 8.39083 150.125 8.39083 155.063C8.39083 158.244 7.94491 161.534 7.34473 163.841C7.86213 163.477 8.3833 163.117 8.90634 162.757C10.0559 157.419 11.0362 152.066 11.7568 146.694L11.5931 146.834" fill="#F4732F"/>
<path d="M20.6445 73.1155C20.8984 59.2216 21.9445 44.6902 18.1045 31.106C21.8824 32.6011 25.8203 33.9112 29.8447 35.0709C32.1194 46.2613 32.3452 57.6748 31.9971 69.0428C28.1778 70.3286 24.3942 71.6887 20.6445 73.1155" fill="#F9A631"/>
<path d="M14.7783 158.05C15.7473 153.349 16.5638 148.619 17.1245 143.78C19.6945 121.573 20.5074 99.2928 20.5977 76.9985C20.6033 75.7113 20.6203 74.4164 20.6428 73.1155C24.3926 71.6887 28.1761 70.3285 31.9955 69.0428C31.8958 72.3247 31.7472 75.6035 31.5853 78.8701C30.6954 96.9627 30.6333 114.867 31.0717 132.966C31.2015 138.297 31.3125 143.639 31.3953 148.983C25.6475 151.626 20.116 154.697 14.7783 158.05" fill="#F9AC3F"/>
<path d="M150.51 38.4347C150.512 38.4332 150.514 38.4302 150.515 38.4271C150.514 38.4302 150.512 38.4332 150.51 38.4347ZM150.551 38.374V38.3725C150.551 38.3725 150.551 38.3725 150.551 38.374Z" fill="#F25942"/>
<path d="M150.474 38.4925C150.491 38.4667 150.508 38.4409 150.524 38.4166C150.523 38.4196 150.519 38.4242 150.517 38.4272C150.515 38.4302 150.513 38.4332 150.511 38.4348C150.5 38.4545 150.487 38.4728 150.474 38.4925ZM150.541 38.3908C150.553 38.3726 150.566 38.3528 150.579 38.3331C150.57 38.3467 150.562 38.3589 150.553 38.3726V38.3741C150.549 38.3786 150.545 38.3847 150.541 38.3908ZM150.6 38.2997C150.613 38.2815 150.624 38.2632 150.637 38.245C150.624 38.2632 150.613 38.2815 150.6 38.2997ZM150.664 38.2025C150.669 38.1949 150.675 38.1858 150.679 38.1782C150.675 38.1873 150.669 38.1949 150.664 38.2025Z" fill="#A6DA5E"/>
<path d="M147.989 138.592C147.989 138.592 147.991 138.589 147.991 138.587C147.991 138.589 147.989 138.592 147.989 138.592ZM147.995 138.579C147.996 138.576 147.998 138.573 147.998 138.572C147.996 138.573 147.996 138.576 147.995 138.579ZM148.002 138.566C148.002 138.563 148.004 138.56 148.006 138.558C148.004 138.56 148.002 138.563 148.002 138.566ZM148.008 138.552C148.01 138.549 148.011 138.546 148.013 138.543C148.011 138.546 148.01 138.549 148.008 138.552ZM148.015 138.538C148.015 138.535 148.017 138.532 148.019 138.529C148.017 138.532 148.015 138.537 148.015 138.538ZM148.021 138.525C148.023 138.522 148.025 138.519 148.026 138.516C148.025 138.519 148.023 138.522 148.021 138.525ZM148.026 138.514C148.036 138.493 148.047 138.472 148.057 138.449C148.047 138.472 148.036 138.493 148.026 138.514ZM148.058 138.447C152.343 129.256 151.24 71.9045 150.907 57.9939C146.329 57.3928 141.739 56.8933 137.135 56.5032C137.317 55.5302 137.507 54.5557 137.709 53.5827C139.611 44.3398 142.866 35.4946 147.613 27.1822C151.02 25.6005 154.376 23.9384 157.675 22.2048C156.151 27.5466 153.938 33.1615 150.677 38.1784C150.674 38.1859 150.668 38.1951 150.662 38.2027C150.655 38.2163 150.645 38.2315 150.636 38.2451C150.623 38.2634 150.612 38.2816 150.598 38.2998C150.593 38.312 150.585 38.3226 150.578 38.3332C150.565 38.3529 150.551 38.3727 150.54 38.3909C150.534 38.4 150.529 38.4076 150.523 38.4167C150.506 38.441 150.489 38.4668 150.472 38.4926L148.693 40.9608C148.693 40.9608 148.58 41.401 148.58 42.0173C148.58 42.9387 148.836 44.2533 150.117 45.076C151.031 45.6635 151.293 47.5624 151.293 49.5388C151.293 52.174 150.828 54.9503 150.828 54.9503C150.828 54.9503 151.283 70.6582 151.283 88.5504C151.283 109.231 150.676 132.829 148.058 138.447" fill="#F0392A"/>
<path d="M155.742 168.635C150.651 165.292 145.424 162.082 140.051 159.084C139.633 156.112 139.238 153.139 138.839 150.167C134.674 119.174 131.33 87.5529 137.135 56.503C141.739 56.8931 146.329 57.3925 150.907 57.9937C151.24 71.9043 152.343 129.256 148.058 138.447C148.058 138.449 148.058 138.449 148.057 138.449C148.047 138.471 148.036 138.493 148.026 138.514C148.026 138.514 148.026 138.514 148.026 138.515C148.025 138.518 148.023 138.521 148.021 138.525C148.021 138.526 148.021 138.528 148.019 138.529C148.017 138.532 148.015 138.535 148.015 138.538C148.013 138.54 148.013 138.541 148.013 138.543C148.011 138.546 148.01 138.549 148.008 138.552C148.008 138.553 148.006 138.555 148.006 138.558C148.004 138.559 148.002 138.562 148.002 138.566C148 138.567 148 138.57 147.998 138.572C147.998 138.573 147.996 138.576 147.995 138.579C147.993 138.582 147.993 138.584 147.991 138.587C147.991 138.588 147.989 138.591 147.989 138.591C147.985 138.597 147.983 138.6 147.981 138.605L147.27 142.171V142.172C147.27 142.23 147.291 145.204 149.404 146.834C149.404 146.834 152.608 150.125 152.608 155.063C152.608 159.999 153.675 165.21 154.743 166.583C154.743 166.583 155.161 167.373 155.742 168.635" fill="#F03B32"/>
<path d="M7.75781 170.285H148.331C130.099 158.709 110.114 149.081 87.5934 145.529C55.8646 140.525 30.0718 153.896 7.75781 170.285Z" fill="#F26224"/>
<path d="M47.6754 170.285C46.524 166.81 45.4911 163.313 44.6726 159.773C43.3274 163.219 42.3471 166.772 41.2051 170.285H47.6754Z" fill="#D84C1F"/>
<path d="M69.0029 170.285H71.5523C70.8806 168.879 70.2334 167.466 69.637 166.038C69.4262 167.454 69.2118 168.869 69.0029 170.285" fill="#D84C1F"/>
<path d="M133.781 170.285C131.405 166.205 129.055 162.105 126.473 158.09C125.853 162.137 125.51 166.211 125.162 170.285H133.781Z" fill="#D84C1F"/>
<path d="M104.185 170.285C102.795 162.865 101.38 155.451 99.7281 148.073C98.889 147.854 98.0442 147.654 97.1976 147.452C96.7648 155.06 96.4488 162.674 96.0781 170.285H104.185" fill="#D84C1F"/>
<path d="M127.312 14.7075C128.464 18.1837 129.495 21.6795 130.313 25.2194C131.659 21.7752 132.641 18.2201 133.781 14.7075H127.312" fill="#D84C1F"/>
<path d="M105.986 14.7075H103.437C104.106 16.1146 104.754 17.5279 105.35 18.9547C105.561 17.54 105.775 16.1237 105.986 14.7075Z" fill="#D84C1F"/>
<path d="M41.2051 14.7076C43.5832 18.7894 45.9313 22.8893 48.5127 26.9043C49.1335 22.8559 49.4778 18.7818 49.824 14.7076H41.2051Z" fill="#D84C1F"/>
<path d="M70.8008 14.7076C72.1912 22.1274 73.606 29.5425 75.2598 36.9198C76.0971 37.1384 76.9437 37.3388 77.7885 37.5422C78.2213 29.9327 78.5373 22.3201 78.908 14.7076H70.8008" fill="#D84C1F"/>
<path d="M158.027 174.399H2.97239C2.21605 176.723 1.62903 179.224 1.62903 181.393L1.27344 187.487C1.27344 187.487 27.2507 188.642 30.8085 187.487C34.3663 186.331 56.7857 186.331 56.7857 186.331L80.4995 185.817L104.211 186.331C104.211 186.331 126.631 186.331 130.189 187.487C133.748 188.642 159.726 187.487 159.726 187.487L159.368 181.393C159.368 179.224 158.781 176.723 158.027 174.399" fill="#DFF4F7"/>
<path d="M20.9816 174.399H2.97239C2.21605 176.723 1.62903 179.224 1.62903 181.393L1.27344 187.486C1.27344 187.486 13.1473 188.013 21.9393 187.998C21.5047 183.471 21.1585 178.94 20.9816 174.399" fill="#C1EAE9"/>
<path d="M36.8849 174.399H27.2236C27.3967 178.887 27.7373 183.365 28.1662 187.84C29.3854 187.76 30.3167 187.646 30.8078 187.486C31.8087 187.162 34.3016 186.928 37.3665 186.761C37.2781 182.64 37.1069 178.518 36.8849 174.399" fill="#C1EAE9"/>
<path d="M53.3151 174.399H43.1289C43.3472 178.438 43.5127 182.476 43.6049 186.515C46.6133 186.431 49.6124 186.386 51.9924 186.36C52.4082 182.372 52.8522 178.385 53.3151 174.399" fill="#C1EAE9"/>
<path d="M60.2628 174.399H59.5573C59.0944 178.365 58.656 182.332 58.2402 186.299L60.688 186.246C60.6127 182.297 60.4829 178.347 60.2628 174.399Z" fill="#C1EAE9"/>
<path d="M74.6157 174.399H66.5029C66.7231 178.301 66.851 182.206 66.9263 186.111L74.04 185.956C74.2752 182.105 74.4784 178.254 74.6157 174.399Z" fill="#C1EAE9"/>
<path d="M86.1405 174.399H80.8593C80.7219 178.209 80.5244 182.016 80.293 185.821L80.4999 185.817L86.4736 185.946C86.308 182.101 86.2403 178.25 86.1405 174.399" fill="#C1EAE9"/>
<path d="M104.51 186.331C105.349 182.38 105.938 178.396 106.429 174.399H92.3818C92.4816 178.295 92.5493 182.19 92.7186 186.082L104.211 186.331C104.211 186.331 104.32 186.331 104.51 186.331" fill="#C1EAE9"/>
<path d="M128.044 174.399H122.821C122.308 178.505 121.6 182.584 120.466 186.615C124.902 186.785 128.861 187.054 130.189 187.487C130.391 187.552 130.669 187.608 131.004 187.658C129.787 183.273 128.808 178.854 128.044 174.399" fill="#C1EAE9"/>
<path d="M149.075 187.854C154.872 187.702 159.726 187.486 159.726 187.486L159.369 181.393C159.369 179.224 158.782 176.723 158.027 174.399H149.075V187.854Z" fill="#C1EAE9"/>
<path d="M142.832 174.399H134.318C135.129 178.968 136.173 183.497 137.487 187.99C139.15 188.007 140.971 187.999 142.832 187.977V174.399Z" fill="#C1EAE9"/>
<path d="M116.555 174.399H112.676C112.192 178.409 111.63 182.413 110.828 186.383C111.859 186.397 112.965 186.415 114.104 186.438C115.295 182.464 116.028 178.446 116.555 174.399Z" fill="#C1EAE9"/>
<path d="M1.55176 14.7666C8.12743 14.5389 14.7031 14.4418 21.2788 14.2763L41.0039 13.9955C54.1534 13.83 67.3029 13.8452 80.4523 13.7602C93.6037 13.8391 106.753 13.8316 119.903 13.9909L139.628 14.2733C146.203 14.4402 152.777 14.5389 159.353 14.7666C152.777 14.9958 146.203 15.093 139.628 15.2615L119.903 15.5423C106.753 15.7017 93.6037 15.6941 80.4523 15.7731C67.3029 15.6881 54.1534 15.7047 41.0039 15.5377L21.2788 15.2569C14.7031 15.0914 8.12743 14.9943 1.55176 14.7666" fill="#B63D20"/>
<path d="M4.52246 170.285C10.8535 170.059 17.1847 169.96 23.5176 169.795L42.5109 169.514C55.1731 169.348 67.8352 169.364 80.4993 169.279C93.1615 169.358 105.824 169.35 118.486 169.511L137.481 169.792C143.812 169.959 150.143 170.057 156.474 170.285C150.143 170.514 143.812 170.611 137.481 170.78L118.486 171.061C105.824 171.22 93.1615 171.213 80.4993 171.291C67.8352 171.206 55.1731 171.223 42.5109 171.056L23.5176 170.777C17.1847 170.61 10.8535 170.513 4.52246 170.285Z" fill="#B63D20"/>
<path d="M100.898 124.667C100.183 124.667 99.8524 125.542 99.8524 126.132V126.257C101.211 125.801 101.213 125.235 101.213 125.044C101.213 124.667 100.991 124.667 100.898 124.667V124.667ZM96.7762 136.416C94.1873 136.416 92.2344 134.929 92.2344 132.955C92.2344 131.053 94.0857 129.447 96.2757 129.447C97.8693 129.447 99.1205 130.483 99.1205 131.805C99.1205 131.869 99.1205 131.975 99.0772 132.114C99.0189 132.277 98.827 132.438 98.5673 132.438L98.1384 132.291L97.9954 131.952C98.0499 131.518 97.8844 131.094 97.5401 130.786C97.2183 130.498 96.7687 130.34 96.2757 130.34C94.684 130.34 93.3425 131.559 93.3425 133.002C93.3425 134.463 94.8101 135.524 96.8326 135.524C99.2371 135.524 100.981 134.13 100.981 132.21C100.981 131.166 100.413 130.153 99.8617 129.176C99.4892 128.509 99.1412 127.867 98.9248 127.237C98.7856 127.34 98.4751 127.356 98.1252 127.356C95.4968 127.356 93.5984 126.417 92.4827 124.569L92.4281 124.361C92.4281 124.066 92.7574 123.93 92.9813 123.93C93.1996 123.93 93.3802 124.022 93.4799 124.183C94.3811 125.696 95.9314 126.463 98.0857 126.463C98.3265 126.463 98.5466 126.454 98.7498 126.442L98.7273 126.147C98.7273 124.982 99.5683 123.773 100.976 123.773C101.359 123.773 101.691 123.881 101.929 124.084C102.202 124.315 102.342 124.658 102.317 125.05C102.257 125.999 101.41 126.779 100.041 127.158C100.232 127.69 100.537 128.239 100.859 128.801C101.435 129.821 102.086 130.976 102.086 132.21C102.086 134.646 99.8524 136.416 96.7762 136.416" fill="#6A2E16"/>
<path d="M108.261 135.639C107.314 135.639 106.726 135.092 106.726 134.214C106.726 133.447 107.124 132.598 107.508 131.776C107.879 130.985 108.229 130.24 108.229 129.597C108.229 129.134 107.95 128.91 107.377 128.91C106.314 128.91 104.887 130.904 104.259 132.251L102.91 135.326C102.835 135.513 102.622 135.636 102.372 135.636C101.903 135.528 101.76 135.288 101.86 135.047C102.347 133.959 102.882 132.738 103.39 131.58C103.932 130.347 104.441 129.186 104.829 128.328C104.902 128.151 105.109 128.032 105.352 128.032C105.536 128.032 105.71 128.105 105.813 128.228L105.911 128.492C106.402 128.174 106.885 128.017 107.377 128.017C108.675 128.017 109.335 128.549 109.335 129.597C109.335 130.335 108.927 131.235 108.534 132.107C108.172 132.905 107.832 133.658 107.832 134.214C107.832 134.705 108.044 134.746 108.261 134.746C109.044 134.746 109.685 134.065 110.901 131.941C111.008 131.77 111.192 131.671 111.401 131.671L111.621 131.706C111.849 131.797 111.975 131.947 111.975 132.116L111.928 132.293C110.53 134.798 109.608 135.639 108.261 135.639Z" fill="#6A2E16"/>
<path d="M114.912 128.94C113.27 128.97 111.65 132.254 111.61 133.734C111.612 134.631 111.934 134.746 112.214 134.746C113.676 134.746 114.799 132.434 115.544 130.906L116.005 129.913C115.962 129.332 115.546 128.942 114.912 128.94V128.94ZM116.028 135.639C115.204 135.639 114.653 135.226 114.523 134.54C113.797 135.27 113.027 135.639 112.235 135.639C111.168 135.639 110.506 134.95 110.506 133.84C110.506 131.909 112.41 128.048 114.91 128.048C115.676 128.048 116.254 128.272 116.632 128.712L116.79 128.382C116.933 128.081 117.138 127.97 117.377 127.97C117.563 127.97 117.727 128.04 117.827 128.161L117.881 128.571L116.918 130.649L116.707 131.128C116.113 132.465 115.599 133.622 115.599 134.214C115.599 134.707 115.802 134.746 116.028 134.746C117.125 134.746 118.039 133.092 118.645 131.996C118.775 131.77 118.959 131.669 119.168 131.669L119.388 131.706C119.616 131.797 119.742 131.947 119.742 132.116L119.695 132.293C118.871 133.779 117.828 135.639 116.028 135.639" fill="#6A2E16"/>
<path d="M120.866 135.639C119.384 135.639 118.387 134.736 118.387 133.389C118.387 130.944 120.838 128.048 122.908 128.048C124.027 128.048 124.695 128.64 124.695 129.629C124.695 130.353 124.261 131.164 123.679 131.164C123.342 131.164 123.126 130.994 123.126 130.733L123.292 130.394C123.423 130.212 123.587 129.988 123.587 129.629C123.587 129.024 123.262 128.94 122.908 128.94C121.504 128.94 119.493 131.569 119.493 133.406C119.493 134.207 120.054 134.746 120.885 134.746C122.532 134.746 123.73 133.883 124.776 131.944C124.876 131.78 125.081 131.679 125.301 131.679L125.502 131.707C125.721 131.795 125.85 131.959 125.85 132.131L125.675 132.228L125.803 132.293C124.5 134.642 123.023 135.639 120.866 135.639" fill="#6A2E16"/>
<path d="M129.51 127.803L129.354 127.896C129.139 128.067 129.107 128.345 129.107 128.494L129.126 128.688C129.335 128.406 129.506 128.073 129.506 127.826L129.51 127.803ZM127.418 135.639C125.732 135.639 124.36 134.567 124.36 133.251C124.486 131.745 125.546 130.815 127.13 130.815C128.189 130.815 129.087 131.571 129.128 132.5C129.128 132.758 128.891 132.951 128.575 132.951C128.261 132.951 128.022 132.758 128.022 132.504C127.99 132.067 127.598 131.707 127.149 131.707C126.219 131.707 125.542 132.331 125.467 133.259C125.467 134.089 126.325 134.746 127.418 134.746C128.919 134.746 129.952 133.945 129.988 132.75C129.969 132.114 129.679 131.653 128.776 130.373L128.539 130.602L128.112 130.774L127.719 130.662C127.611 130.593 127.54 130.46 127.54 130.312L127.666 130.039C127.905 129.813 128.101 129.64 128.336 129.452C128.101 129.203 128.001 128.851 128.001 128.511C128.001 127.621 128.701 126.898 129.557 126.898C130.151 126.898 130.582 127.267 130.629 127.817C130.629 128.406 130.223 129.109 129.514 129.755L129.997 130.297C130.693 131.304 131.075 131.858 131.092 132.767C131.053 134.459 129.544 135.639 127.418 135.639" fill="#6A2E16"/>
<path d="M110.19 116.388C126.525 103.209 126.525 81.8424 110.19 68.6634C93.8554 55.486 67.372 55.486 51.0392 68.6634C34.7044 81.8424 34.7044 103.209 51.0392 116.388C67.372 129.567 93.8554 129.567 110.19 116.388Z" fill="#E8EAD5"/>
<path d="M51.5889 126.68C76.932 119.943 102.277 113.208 127.62 106.471C110.002 88.9982 91.8369 71.8847 73.1446 55.1522C71.139 53.3579 68.5163 51.3952 65.5925 51.9189C62.5069 52.47 61.2219 55.3799 60.4618 57.8542C54.5804 76.9956 48.7008 96.1372 42.8194 115.279C41.9577 118.084 41.1186 121.141 42.5823 123.779C44.0442 126.419 48.9059 127.907 51.2953 125.753" fill="#F68B18"/>
<path d="M54.6368 123.679C78.964 117.214 103.293 110.748 127.62 104.283C110.708 87.5076 93.2706 71.0817 75.3272 55.0202C73.4024 53.2973 70.885 51.4135 68.0779 51.9159C65.1184 52.4442 63.8842 55.2388 63.1542 57.6113C57.5098 75.9863 51.8654 94.3612 46.2192 112.736C45.3933 115.429 44.5861 118.363 45.9916 120.895C47.3951 123.429 52.0611 124.857 54.3546 122.79" fill="#F4AA17"/>
<path d="M76.4906 93.6689C82.3664 93.6689 82.3758 86.3007 76.4906 86.3007C70.6111 86.3007 70.6035 93.6689 76.4906 93.6689Z" fill="#F68B18"/>
<path d="M78.1114 78.2359C84.4462 78.2359 84.4575 70.2939 78.1114 70.2939C71.7784 70.2939 71.7671 78.2359 78.1114 78.2359Z" fill="#F68B18"/>
<path d="M94.3514 92.9326C99.0531 92.9326 99.0607 87.0368 94.3514 87.0368C89.6497 87.0368 89.6421 92.9326 94.3514 92.9326Z" fill="#F68B18"/>
<path d="M79.7384 107.098C86.1372 107.098 86.1485 99.0727 79.7384 99.0727C73.3377 99.0727 73.3264 107.098 79.7384 107.098Z" fill="#F68B18"/>
<path d="M52.1327 113.32C55.92 113.32 55.9276 108.571 52.1327 108.571C48.3453 108.571 48.3397 113.32 52.1327 113.32Z" fill="#F68B18"/>
<path d="M64.6564 87.6956C64.4946 87.2949 64.3309 86.8942 64.1672 86.4934C63.6272 85.1682 62.0826 84.0237 60.2519 84.0889C58.3987 84.1557 56.918 85.0711 56.3385 86.4934C56.1748 86.8942 56.0111 87.2949 55.8493 87.6956C54.9123 89.9938 57.4015 92.3603 60.2519 92.3603C63.1042 92.3603 65.5914 89.9908 64.6564 87.6956Z" fill="#F68B18"/>
<path d="M61.8759 109.84C68.4723 109.84 68.4835 101.57 61.8759 101.57C55.2814 101.57 55.2701 109.84 61.8759 109.84Z" fill="#F68B18"/>
<path d="M94.3233 102.725C94.5171 102.845 94.7109 102.963 94.9047 103.083C94.3121 102.252 93.7213 101.42 93.1286 100.588C92.9631 101.737 94.0393 103.17 95.2942 103.706C96.0487 104.028 97.0928 104.421 97.9489 104.525C99.6083 104.727 101.456 104.406 102.314 103.092C103.125 101.854 102.95 100.334 101.71 99.3143C99.7382 97.6916 96.4663 96.7778 94.1785 98.5431C95.3412 98.2957 96.5021 98.0483 97.6648 97.8009C97.4371 97.7462 97.2095 97.6916 96.9837 97.6369C95.3299 97.2423 93.5632 98.0058 92.9122 99.249C92.1917 100.627 92.9367 101.869 94.3233 102.725" fill="#F68B18"/>
<path d="M68.3707 65.4211C73.0724 65.4211 73.0781 59.5269 68.3707 59.5269C63.6689 59.5269 63.6595 65.4211 68.3707 65.4211Z" fill="#F68B18"/>
<path d="M112.211 105.255C117.761 105.255 117.771 98.2956 112.211 98.2956C106.661 98.2956 106.651 105.255 112.211 105.255Z" fill="#F68B18"/>
</svg>
