<svg width="13" height="11" viewBox="0 0 13 11" fill="none" xmlns="http://www.w3.org/2000/svg">
<path d="M12.7309 5.40988L6.82435 0.120466C6.78182 0.0822787 6.73131 0.0519824 6.6757 0.0313112C6.62009 0.0106401 6.56047 0 6.50027 0C6.44006 0 6.38045 0.0106401 6.32484 0.0313112C6.26923 0.0519824 6.21872 0.0822787 6.17619 0.120466L0.26959 5.40988C0.0975112 5.56409 0 5.77356 0 5.99202C0 6.44566 0.411555 6.81448 0.917752 6.81448H1.5401V10.5888C1.5401 10.8162 1.74516 11 1.99898 11H5.58252V8.12141H7.18858V11H11.0016C11.2554 11 11.4604 10.8162 11.4604 10.5888V6.81448H12.0828C12.3266 6.81448 12.5603 6.72838 12.7324 6.57288C13.0894 6.25161 13.0894 5.73115 12.7309 5.40988Z" fill="url(#paint0_linear_764_3)"/>
<defs>
<linearGradient id="paint0_linear_764_3" x1="6.5" y1="0" x2="6.5" y2="11" gradientUnits="userSpaceOnUse">
<stop stop-color="#E87D00"/>
<stop offset="1" stop-color="#E22201"/>
</linearGradient>
</defs>
</svg>
