<svg width="8" height="11" viewBox="0 0 8 11" fill="none" xmlns="http://www.w3.org/2000/svg">
<path d="M7 0.0740454L1 2.95405C0.45 3.19405 0 4.03404 0 4.75405V9.97404C0 10.694 0.45 11.054 1 10.814L7 7.93404C7.55 7.69404 8 6.85404 8 6.13404V0.914045C8 0.194045 7.55 -0.165955 7 0.0740454ZM7.3 1.63405L4.3 7.21405L0.95 4.51405C0.9 4.45405 0.75 4.27404 0.85 4.09405C0.95 3.85405 1.2 3.97405 1.2 3.97405L4.35 5.35404C4.35 5.35404 6.75 1.57405 6.9 1.33405C6.95 1.21405 7.1 1.15405 7.25 1.27405C7.4 1.39405 7.35 1.57405 7.3 1.63405Z" fill="url(#paint0_linear_758_7)"/>
<defs>
<linearGradient id="paint0_linear_758_7" x1="4" y1="0" x2="4" y2="10.8881" gradientUnits="userSpaceOnUse">
<stop stop-color="#E87D00"/>
<stop offset="1" stop-color="#E22201"/>
</linearGradient>
</defs>
</svg>
