<svg width="277" height="159" viewBox="0 0 277 159" fill="none" xmlns="http://www.w3.org/2000/svg">
<path fill-rule="evenodd" clip-rule="evenodd" d="M43.7895 35.4522C46.1651 35.309 48.9523 36.2054 51.0507 37.0867C57.2271 39.6855 63.158 42.7889 68.796 45.8095C70.6489 46.8038 72.5493 47.9187 74.5448 48.8828C78.5515 50.8112 82.3365 52.3403 86.3432 54.7357C88.505 56.0238 90.833 57.5755 91.6882 59.6244C93.2719 63.4811 91.316 68.2718 89.8749 71.0439C88.1566 74.3356 86.367 77.4165 84.7279 80.4446C81.2834 86.8247 77.9734 92.655 74.3864 99.1481C70.7993 105.641 67.5132 111.908 64.2983 118.145C61.9228 122.778 59.1275 127.591 56.5382 132.247C55.0812 134.853 53.8935 137.421 50.9953 138.484C50.086 138.761 49.1267 138.858 48.1763 138.77C45.8008 138.536 43.5361 137.218 41.414 136.276C39.2918 135.335 37.1855 134.22 35.2613 133.203C27.5488 129.136 18.4109 125.196 10.7617 120.827C7.07168 118.725 2.65319 116.194 0.776516 112.541C-1.3773 108.383 1.44958 102.56 3.19956 99.2084C4.94954 95.8563 6.61241 93.0542 8.33863 90.2822C10.2074 87.2691 12.0128 84.2561 13.6836 81.4615C17.3432 75.5947 20.6891 69.5559 23.7083 63.3681C25.1257 60.3099 26.8757 56.8976 28.4594 54.0653C30.8349 49.7642 33.5589 45.0261 36.4254 40.8229C37.3127 39.4102 38.3997 38.1201 39.6561 36.9888C40.8216 36.0627 42.2727 35.5233 43.7895 35.4522Z" fill="#5BBC99"/>
<path d="M65.9453 50.9846C66.0324 50.9846 66.1591 50.9846 66.167 51.0825C67.6716 50.8038 68.3842 49.2596 69.0335 48.1674C69.3503 47.6401 69.7066 47.0676 69.9917 46.465L68.796 45.8096L68.1467 45.4631C67.7587 46.0281 67.3548 46.6458 67.046 47.2559C66.468 48.3557 65.4069 49.6588 65.9453 50.9846Z" fill="white"/>
<path d="M62.3028 56.9202C61.2719 58.2979 60.3483 59.7456 59.5393 61.2515C59.0563 62.306 58.985 63.4133 59.9907 63.4661C60.7825 63.4661 61.4239 62.2307 61.7485 61.7562C62.287 61.0029 62.8413 60.3023 63.1897 59.7449C64.1558 58.1631 65.1693 56.9202 65.0585 55.0069C63.6886 54.0427 62.9126 56.0313 62.3028 56.9202Z" fill="white"/>
<path d="M55.9047 68.6034C54.3101 70.419 53.0079 72.4498 52.0405 74.6295C51.7634 75.2622 51.3754 76.136 52.1514 76.6407C53.1016 76.6934 53.6242 75.8121 54.0281 75.2321C54.5111 74.5315 54.8674 73.7783 55.2396 73.1154C56.0314 71.7219 57.1559 70.2153 57.1163 68.5958C56.8787 68.4 56.1027 68.2569 55.9047 68.6034Z" fill="white"/>
<path d="M47.622 82.1922C46.848 83.1969 46.1846 84.2747 45.6424 85.4086C45.2861 86.0187 43.4728 88.2183 44.5339 88.8359C45.1515 89.19 46.1175 88.1957 46.4105 87.8266C46.8532 87.2118 47.2577 86.573 47.622 85.9133C48.5089 84.5574 49.4512 83.3673 49.3879 81.7854C48.7623 81.356 48.0338 81.7779 47.622 82.1922Z" fill="white"/>
<path d="M41.3348 94.9148C41.3348 95.0429 41.1368 95.0052 41.1131 95.1107C39.9257 96.0721 38.9835 97.2775 38.3575 98.6359C37.9457 99.3892 36.0374 102.237 37.138 102.764C37.9299 103.156 38.6267 102.071 39.0147 101.551C39.9439 100.279 40.7572 98.9328 41.4457 97.5286C41.8099 96.8281 42.4513 96.0899 42.2375 95.2161C41.9841 95.0163 41.6639 94.9095 41.3348 94.9148Z" fill="white"/>
<path d="M33.3847 108.564C32.4894 109.682 31.6796 110.861 30.9616 112.089C30.6053 112.692 28.5861 115.577 30.0748 115.81C30.8033 115.923 31.4051 114.952 31.7376 114.5C32.1969 113.874 32.6245 113.174 32.9492 112.692C33.8281 111.366 34.7387 110.176 34.6041 108.564C34.3666 108.361 33.5906 108.225 33.3847 108.564Z" fill="white"/>
<path d="M26.8757 121.852C26.6382 121.648 25.8621 121.513 25.6642 121.852C24.7765 122.725 24.0653 123.746 23.5658 124.865C23.1819 125.534 22.8612 126.235 22.6077 126.959L24.1914 127.712C24.7326 127.049 25.1997 126.335 25.585 125.58C26.2818 124.345 27.0024 123.238 26.8757 121.852Z" fill="white"/>
<path opacity="0.38" fill-rule="evenodd" clip-rule="evenodd" d="M45.397 112.858C45.2069 113.566 44.2963 113.475 43.8133 113.611C40.2025 114.59 36.8213 116.812 36.7342 121.317C36.6995 122.43 36.92 123.538 37.3804 124.562C37.8408 125.586 38.5301 126.503 39.4003 127.248C40.2705 127.994 41.3009 128.55 42.4199 128.878C43.5388 129.207 44.7195 129.3 45.88 129.151C47.8255 128.95 49.6191 128.057 50.9003 126.65C51.32 126.205 51.6921 125.249 52.7295 125.671C53.6005 127.275 51.6921 128.51 50.5598 129.256C48.9912 130.278 47.1479 130.851 45.2478 130.909C43.3476 130.966 41.4699 130.505 39.8363 129.58C38.2027 128.655 36.8816 127.304 36.0288 125.688C35.1761 124.072 34.8273 122.257 35.0238 120.458C35.4039 116.609 38.7455 112.865 42.9423 112.421C43.3612 112.331 43.7948 112.324 44.2168 112.399C44.6388 112.474 45.0403 112.63 45.397 112.858Z" fill="#1A4E72"/>
<path fill-rule="evenodd" clip-rule="evenodd" d="M44.3676 116.006C45.6521 115.873 46.951 116.06 48.1368 116.549C49.2485 117.179 50.1227 118.127 50.6346 119.258C51.1465 120.389 51.2699 121.644 50.9874 122.846C50.3222 125.271 46.0621 128.397 42.2771 126.612C40.9218 125.864 39.9062 124.664 39.4265 123.245C39.0412 121.873 39.1731 120.416 39.7995 119.126C40.4258 117.837 41.5069 116.797 42.8552 116.187C43.3493 116.066 43.8574 116.006 44.3676 116.006Z" fill="white"/>
<path opacity="0.38" fill-rule="evenodd" clip-rule="evenodd" d="M44.4784 116.759C45.6583 118.341 46.3551 120.865 46.7668 123.275C46.8856 124.028 47.3291 124.94 46.6481 125.535C45.682 125.738 45.4445 124.721 45.1673 124.028C44.8902 123.335 44.6764 122.522 44.4784 121.859C44.0587 120.353 43.4173 118.168 43.6866 117.076C43.6782 117.005 43.6966 116.933 43.7387 116.874C43.7808 116.814 43.8437 116.771 43.9162 116.752L44.4784 116.759Z" fill="#1A4E72"/>
<path opacity="0.38" fill-rule="evenodd" clip-rule="evenodd" d="M57.4647 94.0185C57.2746 94.7265 56.3561 94.6437 55.881 94.7717C52.2702 95.751 48.889 97.9731 48.8019 102.485C48.7677 103.595 48.9876 104.7 49.4462 105.721C49.9048 106.743 50.5912 107.657 51.458 108.402C52.3248 109.146 53.3512 109.702 54.4663 110.032C55.5813 110.362 56.7584 110.457 57.916 110.312C59.8634 110.116 61.6603 109.225 62.9442 107.818C63.3639 107.374 63.7361 106.41 64.7734 106.839C65.6444 108.443 63.7361 109.671 62.6037 110.425C61.0351 111.446 59.1919 112.02 57.2917 112.077C55.3916 112.134 53.5138 111.673 51.8803 110.748C50.2467 109.823 48.9255 108.473 48.0728 106.856C47.22 105.24 46.8713 103.425 47.0678 101.626C47.4478 97.7773 50.7894 94.026 54.9862 93.5816C55.409 93.4918 55.8464 93.4842 56.2723 93.5593C56.6982 93.6344 57.1038 93.7906 57.4647 94.0185Z" fill="#1A4E72"/>
<path fill-rule="evenodd" clip-rule="evenodd" d="M56.4353 97.1746C57.7205 97.0442 59.0194 97.2337 60.2044 97.7245C61.3162 98.3548 62.1904 99.303 62.7023 100.434C63.2142 101.565 63.3376 102.82 63.0551 104.022C62.3899 106.44 58.1219 109.566 54.3448 107.788C52.988 107.038 51.9721 105.835 51.4942 104.414C51.1114 103.042 51.2437 101.587 51.8682 100.298C52.4927 99.0099 53.5702 97.9691 54.9149 97.3554C55.4119 97.2354 55.9226 97.1747 56.4353 97.1746Z" fill="white"/>
<path opacity="0.38" fill-rule="evenodd" clip-rule="evenodd" d="M56.5461 97.9279C57.726 99.5098 58.4228 102.033 58.8346 104.444C58.9533 105.159 59.3968 106.108 58.7158 106.703C57.7497 106.907 57.5122 105.89 57.235 105.197C56.9579 104.504 56.7441 103.69 56.5461 103.028C56.1265 101.521 55.4851 99.3365 55.7543 98.2518C55.7455 98.1797 55.7637 98.107 55.8057 98.0464C55.8477 97.9858 55.9108 97.9412 55.9839 97.9204L56.5461 97.9279Z" fill="#1A4E72"/>
<path opacity="0.38" fill-rule="evenodd" clip-rule="evenodd" d="M67.7111 75.3752C67.5211 76.1284 66.6105 76.0004 66.1274 76.1284C62.5166 77.1077 59.1355 79.3298 59.0484 83.8419C59.0148 84.9537 59.236 86.0592 59.6965 87.0817C60.157 88.1041 60.8459 89.019 61.7152 89.7629C62.5846 90.5068 63.6137 91.0618 64.7311 91.3895C65.8485 91.7173 67.0275 91.8098 68.1862 91.6607C70.1308 91.4631 71.9245 90.5723 73.2065 89.1674C73.6262 88.723 73.9984 87.7588 75.0357 88.1882C75.9067 89.7926 73.9984 91.028 72.866 91.7737C71.2974 92.7955 69.4542 93.3689 67.554 93.4262C65.6539 93.4836 63.7761 93.0225 62.1426 92.0974C60.509 91.1723 59.1878 89.8218 58.3351 88.2055C57.4823 86.5891 57.1336 84.7744 57.3301 82.9756C57.7101 79.1264 61.0517 75.3752 65.2485 74.9383C65.6689 74.8515 66.1033 74.8454 66.5261 74.9204C66.949 74.9955 67.3519 75.1501 67.7111 75.3752Z" fill="#1A4E72"/>
<path fill-rule="evenodd" clip-rule="evenodd" d="M66.6817 78.5238C67.9611 78.4081 69.2503 78.6052 70.4272 79.0963C71.5381 79.7274 72.4115 80.6757 72.9233 81.8063C73.4351 82.9368 73.5591 84.1921 73.2778 85.3935C72.6127 87.8115 68.3525 90.9376 64.6071 89.1599C63.2458 88.4163 62.2261 87.2152 61.7485 85.7928C61.3644 84.4195 61.4968 82.9617 62.1229 81.6715C62.749 80.3813 63.8294 79.3398 65.1772 78.7272C65.6678 78.5996 66.1732 78.5312 66.6817 78.5238Z" fill="white"/>
<path opacity="0.38" fill-rule="evenodd" clip-rule="evenodd" d="M66.8005 79.2846C67.9725 80.8665 68.6693 83.3899 69.081 85.8079C69.1998 86.516 69.6512 87.4651 68.9623 88.0677C67.9962 88.2711 67.7587 87.2617 67.4815 86.5612C67.2044 85.8606 66.9906 85.0546 66.8005 84.3842C66.3729 82.8777 65.7315 80.6932 66.0087 79.6085C65.9999 79.5364 66.0181 79.4637 66.0601 79.4031C66.1021 79.3425 66.1652 79.2979 66.2383 79.2771L66.8005 79.2846Z" fill="#1A4E72"/>
<path opacity="0.38" fill-rule="evenodd" clip-rule="evenodd" d="M78.5832 55.2329C78.3931 55.9862 77.4825 55.8581 76.9995 55.9862C73.3887 56.9654 70.0154 59.1876 69.9204 63.6996C69.8802 64.8138 70.0958 65.9229 70.5523 66.9497C71.0088 67.9765 71.6951 68.8962 72.5635 69.6448C73.4319 70.3935 74.4614 70.953 75.5804 71.2844C76.6993 71.6158 77.8808 71.7111 79.0424 71.5637C80.9877 71.3683 82.7822 70.477 84.0627 69.0704C84.4824 68.6184 84.8546 67.6618 85.8919 68.0911C86.7708 69.6956 84.8625 70.9234 83.7222 71.6767C82.1509 72.7031 80.3029 73.2788 78.3977 73.3353C76.4925 73.3918 74.6104 72.9267 72.9749 71.9953C71.3395 71.0639 70.0196 69.7054 69.1721 68.0813C68.3246 66.4571 67.9852 64.6357 68.1942 62.8334C68.5663 58.9917 71.9079 55.2405 76.073 54.8036C76.4998 54.7057 76.9434 54.6934 77.3755 54.7673C77.8076 54.8412 78.2189 54.9998 78.5832 55.2329Z" fill="#1A4E72"/>
<path fill-rule="evenodd" clip-rule="evenodd" d="M77.5538 58.3815C78.839 58.2507 80.138 58.4402 81.3229 58.9314C82.4362 59.5607 83.312 60.5084 83.8253 61.6393C84.3387 62.7701 84.4633 64.0264 84.1815 65.2287C83.5084 67.6467 79.2483 70.7727 75.4712 68.995C74.1144 68.2449 73.0986 67.0423 72.6206 65.6204C72.24 64.2482 72.3742 62.7928 73 61.5045C73.6258 60.2163 74.7041 59.1759 76.0493 58.5623C76.5408 58.4423 77.0463 58.3816 77.5538 58.3815Z" fill="white"/>
<path opacity="0.38" fill-rule="evenodd" clip-rule="evenodd" d="M77.6726 59.1423C78.8445 60.7242 79.5413 63.2476 79.9531 65.658C80.0718 66.4113 80.5232 67.3227 79.8422 67.9178C78.8682 68.1212 78.6307 67.1043 78.3535 66.4113C78.0764 65.7183 77.8626 64.9048 77.6726 64.2419C77.2529 62.7354 76.6036 60.5509 76.8807 59.4587C76.8706 59.3873 76.8884 59.3149 76.9307 59.2551C76.9731 59.1954 77.037 59.1526 77.1104 59.1348L77.6726 59.1423Z" fill="#1A4E72"/>
<path opacity="0.38" fill-rule="evenodd" clip-rule="evenodd" d="M16.9381 98.5079C16.748 99.2235 15.8295 99.1406 15.3544 99.2611C11.7436 100.24 8.3624 102.463 8.2753 106.967C8.23914 108.077 8.45692 109.182 8.91357 110.204C9.37023 111.226 10.0549 112.142 10.9201 112.887C11.7854 113.633 12.8106 114.191 13.9248 114.523C15.0391 114.854 16.2158 114.952 17.3736 114.808C19.3219 114.61 21.1187 113.716 22.4018 112.308C22.8215 111.863 23.1936 110.907 24.231 111.328C25.102 112.933 23.1936 114.168 22.0613 114.914C20.4934 115.932 18.6522 116.503 16.7547 116.558C14.8572 116.613 12.9826 116.151 11.3521 115.227C9.72149 114.302 8.40295 112.953 7.55194 111.338C6.70094 109.724 6.35297 107.912 6.54907 106.116C6.92124 102.267 10.2628 98.5229 14.4675 98.0785C14.8886 97.9896 15.3241 97.9817 15.7485 98.0555C16.1728 98.1292 16.5773 98.283 16.9381 98.5079Z" fill="#1A4E72"/>
<path fill-rule="evenodd" clip-rule="evenodd" d="M15.9087 101.694C17.1932 101.561 18.492 101.748 19.6778 102.237C20.7887 102.868 21.6622 103.816 22.174 104.947C22.6857 106.077 22.8098 107.332 22.5285 108.534C21.8633 110.959 17.5953 114.085 13.8182 112.338C12.4629 111.59 11.4473 110.39 10.9675 108.971C10.5823 107.599 10.7142 106.141 11.3405 104.852C11.9668 103.563 13.048 102.523 14.3962 101.913C14.8886 101.779 15.3968 101.706 15.9087 101.694Z" fill="white"/>
<path opacity="0.38" fill-rule="evenodd" clip-rule="evenodd" d="M16.0195 102.448C17.1994 104.029 17.8962 106.553 18.308 108.963C18.4267 109.679 18.8781 110.628 18.1892 111.223C17.2231 111.426 16.9856 110.41 16.7084 109.717C16.4313 109.024 16.2175 108.21 16.0195 107.54C15.5998 106.033 14.9584 103.856 15.2277 102.764C15.2193 102.693 15.2378 102.621 15.2798 102.562C15.3219 102.502 15.3848 102.459 15.4573 102.44L16.0195 102.448Z" fill="#1A4E72"/>
<path opacity="0.38" fill-rule="evenodd" clip-rule="evenodd" d="M29.0058 79.6763C28.8157 80.3844 27.8972 80.3016 27.4221 80.4296C23.8113 81.4088 20.4301 83.631 20.343 88.143C20.3088 89.2534 20.5287 90.3575 20.9873 91.379C21.4459 92.4006 22.1323 93.3152 22.9991 94.0595C23.8659 94.8038 24.8923 95.3601 26.0074 95.6899C27.1224 96.0196 28.2995 96.115 29.4571 95.9694C31.4045 95.7737 33.2014 94.8826 34.4853 93.4761C34.905 93.0242 35.2772 92.0675 36.3066 92.4969C37.1855 94.1013 35.2772 95.3292 34.1449 96.0824C32.5757 97.1048 30.7316 97.6784 28.8306 97.7356C26.9296 97.7927 25.0512 97.3309 23.4173 96.4049C21.7834 95.4788 20.4623 94.1271 19.6102 92.5095C18.7581 90.892 18.4107 89.0762 18.6089 87.2768C18.9889 83.4351 22.3305 79.6839 26.5273 79.2395C26.9502 79.151 27.3874 79.1441 27.8131 79.2191C28.2388 79.2942 28.6443 79.4496 29.0058 79.6763Z" fill="#1A4E72"/>
<path fill-rule="evenodd" clip-rule="evenodd" d="M27.9764 82.8626C29.2609 82.7336 30.5587 82.9203 31.7456 83.405C32.8571 84.0374 33.7308 84.9871 34.2426 86.1189C34.7543 87.2508 34.8781 88.5072 34.5962 89.7098C33.931 92.1278 29.663 95.2538 25.8859 93.4761C24.525 92.7305 23.5078 91.5262 23.0353 90.1015C22.6525 88.7302 22.7848 87.2748 23.4093 85.9864C24.0338 84.6979 25.1113 83.6571 26.456 83.0434C26.953 82.9234 27.4637 82.8627 27.9764 82.8626Z" fill="white"/>
<path opacity="0.38" fill-rule="evenodd" clip-rule="evenodd" d="M28.0872 83.6159C29.2671 85.1978 29.9639 87.7212 30.3757 90.1317C30.4944 90.8849 30.9379 91.7964 30.2569 92.3915C29.2908 92.5948 29.0533 91.5779 28.7761 90.8849C28.499 90.1919 28.2852 89.3784 28.0872 88.7155C27.6676 87.209 27.0262 85.0245 27.2954 83.9323C27.287 83.8612 27.3055 83.7895 27.3475 83.7301C27.3896 83.6708 27.4525 83.6276 27.525 83.6084L28.0872 83.6159Z" fill="#1A4E72"/>
<path opacity="0.38" fill-rule="evenodd" clip-rule="evenodd" d="M39.2523 61.0179C39.0622 61.7712 38.1516 61.6431 37.6686 61.7712C34.0578 62.7579 30.6766 64.9725 30.5895 69.4846C30.553 70.5962 30.7711 71.702 31.2286 72.7254C31.6862 73.7488 32.3723 74.6653 33.2394 75.4113C34.1065 76.1572 35.1337 76.7149 36.2499 77.0455C37.3662 77.3762 38.5446 77.4719 39.7036 77.3261C41.651 77.1303 43.4479 76.2393 44.7318 74.8328C45.1515 74.3883 45.5237 73.4242 46.561 73.8535C47.432 75.458 45.5237 76.6858 44.3913 77.4391C42.8234 78.4618 40.9804 79.0361 39.0802 79.0938C37.18 79.1516 35.3022 78.6905 33.6688 77.765C32.0355 76.8396 30.7149 75.4885 29.8633 73.8716C29.0117 72.2547 28.6646 70.4395 28.8633 68.6409C29.2513 64.7842 32.577 61.0179 36.7342 60.5961C37.162 60.5002 37.6059 60.4881 38.0388 60.5606C38.4717 60.6331 38.8846 60.7887 39.2523 61.0179Z" fill="#1A4E72"/>
<path fill-rule="evenodd" clip-rule="evenodd" d="M38.2229 64.1892C39.5067 64.0574 40.8045 64.2416 41.992 64.724C43.1019 65.3581 43.9742 66.308 44.4857 67.4393C44.9972 68.5707 45.1221 69.8263 44.8427 71.0288C44.1775 73.4468 39.9095 76.5729 36.1324 74.7952C34.7771 74.0468 33.7615 72.8472 33.2817 71.4281C32.8986 70.0557 33.0306 68.5992 33.655 67.3094C34.2794 66.0197 35.3571 64.9775 36.7025 64.3625C37.1991 64.2414 37.7103 64.1832 38.2229 64.1892Z" fill="white"/>
<path opacity="0.38" fill-rule="evenodd" clip-rule="evenodd" d="M38.3337 64.9425C39.5135 66.5244 40.2104 69.0478 40.6221 71.4658C40.7409 72.1738 41.1843 73.1229 40.5034 73.7256C39.5373 73.9289 39.2997 72.912 39.0226 72.219C38.7455 71.526 38.5317 70.7125 38.3337 70.0496C37.914 68.5431 37.2726 66.3586 37.5419 65.2739C37.5331 65.2018 37.5513 65.1291 37.5933 65.0685C37.6353 65.0079 37.6984 64.9633 37.7715 64.9425H38.3337Z" fill="#1A4E72"/>
<path opacity="0.38" fill-rule="evenodd" clip-rule="evenodd" d="M50.1243 40.8908C49.9342 41.6064 49.0236 41.516 48.5406 41.644C44.9377 42.6233 41.5486 44.8454 41.4615 49.3575C41.4271 50.4685 41.6471 51.5734 42.1062 52.5955C42.5653 53.6177 43.2525 54.5327 44.1202 55.2771C44.9878 56.0216 46.0153 56.5777 47.1313 56.9069C48.2474 57.2362 49.4253 57.3307 50.5835 57.1839C52.5302 56.9872 54.3251 56.0931 55.6038 54.683C56.0235 54.2461 56.3957 53.282 57.433 53.7113C58.3119 55.3158 56.3957 56.5436 55.2633 57.2893C53.6954 58.3121 51.8524 58.8863 49.9522 58.9441C48.052 59.0019 46.1742 58.5408 44.5409 57.6153C42.9075 56.6898 41.5869 55.3388 40.7353 53.7218C39.8837 52.1049 39.5366 50.2898 39.7353 48.4912C40.1074 44.642 43.449 40.8983 47.6141 40.4539C48.0418 40.3608 48.4849 40.3515 48.9165 40.4266C49.348 40.5017 49.759 40.6596 50.1243 40.8908Z" fill="#1A4E72"/>
<path fill-rule="evenodd" clip-rule="evenodd" d="M49.0949 44.0394C50.3794 43.9096 51.6774 44.0964 52.8641 44.5817C53.9779 45.2122 54.854 46.1613 55.3673 47.2935C55.8807 48.4257 56.005 49.6831 55.7226 50.8865C55.0496 53.3045 50.7894 56.4306 47.0123 54.6529C45.648 53.9127 44.6272 52.7104 44.1538 51.2858C43.7732 49.9136 43.9074 48.4581 44.5332 47.1699C45.159 45.8817 46.2373 44.8412 47.5825 44.2277C48.0763 44.1045 48.5844 44.0413 49.0949 44.0394Z" fill="white"/>
<path opacity="0.38" fill-rule="evenodd" clip-rule="evenodd" d="M49.2137 44.8003C50.3856 46.3821 51.0824 48.9055 51.4942 51.316C51.613 52.0316 52.0643 52.9807 51.3833 53.5758C50.4094 53.7792 50.1718 52.7623 49.8947 52.0693C49.6175 51.3763 49.4037 50.5627 49.2137 49.8999C48.794 48.3933 48.1447 46.2089 48.4218 45.1166C48.4117 45.0452 48.4295 44.9728 48.4718 44.9131C48.5142 44.8534 48.5781 44.8105 48.6515 44.7927L49.2137 44.8003Z" fill="#1A4E72"/>
<path fill-rule="evenodd" clip-rule="evenodd" d="M67.5449 62.6374L70.7597 66.5092C72.3434 68.4074 76.9124 67.4809 80.9587 64.4377C85.005 61.3945 87.0084 57.3721 85.4247 55.4739L82.2098 51.6021L67.5449 62.6374Z" fill="#F6BD4A"/>
<path opacity="0.14" fill-rule="evenodd" clip-rule="evenodd" d="M67.5449 62.6374L70.7597 66.5092C72.3434 68.4074 76.9124 67.4809 80.9587 64.4377C85.005 61.3945 87.0084 57.3721 85.4247 55.4739L82.2098 51.6021L67.5449 62.6374Z" fill="#1A4E72"/>
<path fill-rule="evenodd" clip-rule="evenodd" d="M82.2098 51.6022C83.7935 53.5079 81.7981 57.5228 77.7438 60.5735C73.6896 63.6242 69.1285 64.5432 67.5449 62.6375C65.9612 60.7317 67.9645 56.7168 72.0109 53.6736C76.0572 50.6304 80.6261 49.719 82.2098 51.6022Z" fill="#F6BD4A"/>
<path d="M81.1012 50.8564C80.6927 50.7124 80.2619 50.6335 79.8264 50.6229C79.0345 51.3762 78.0368 52.3328 77.1024 53.2819C75.5187 54.8939 73.6975 56.7922 72.2405 58.3966C70.7593 59.8847 69.4037 61.4816 68.1862 63.1723C68.49 63.3441 68.8219 63.4663 69.1681 63.5339C72.0109 61.3419 75.9701 56.8223 79.1375 53.1614C79.7313 52.4684 80.5786 51.6097 81.1012 50.8564Z" fill="white"/>
<path fill-rule="evenodd" clip-rule="evenodd" d="M121.335 38.8871L121.659 43.8134C121.818 46.2314 126.126 47.9488 131.272 47.6475C136.419 47.3462 140.482 45.1241 140.315 42.6986L139.999 37.7798L121.335 38.8871Z" fill="#F6BD4A"/>
<path opacity="0.14" fill-rule="evenodd" clip-rule="evenodd" d="M121.335 38.8871L121.659 43.8134C121.826 46.2314 126.118 47.9488 131.272 47.6475C136.427 47.3462 140.482 45.1241 140.315 42.6986L139.999 37.7798L121.335 38.8871Z" fill="#1A4E72"/>
<path fill-rule="evenodd" clip-rule="evenodd" d="M139.999 37.7798C140.157 40.2053 136.111 42.4199 130.956 42.7212C125.801 43.0225 121.493 41.3126 121.335 38.8871C121.176 36.4616 125.223 34.2545 130.378 33.9457C135.533 33.6369 139.84 35.3618 139.999 37.7798Z" fill="#F6BD4A"/>
<path d="M139.539 36.5671C139.284 36.2293 138.977 35.9298 138.629 35.6782C137.52 35.8213 136.134 36.1151 134.796 36.4315C132.524 36.891 129.895 37.4559 127.733 37.9907C125.571 38.5256 122.903 39.0679 121.541 39.7082C121.686 40.0175 121.887 40.3004 122.135 40.5443C125.769 40.2731 131.763 38.7365 136.546 37.4333C137.449 37.1471 138.653 36.9136 139.539 36.5671Z" fill="white"/>
<path fill-rule="evenodd" clip-rule="evenodd" d="M93.6678 51.7076C92.8266 51.1765 92.0177 50.6005 91.2448 49.9826C88.9563 47.9488 87.238 44.303 90.7459 42.45C92.0129 41.7796 94.0954 41.8624 95.6078 42.3521C98.3882 43.4464 101.012 44.8714 103.415 46.5929C106.036 48.4008 109.37 50.7886 110.202 52.619C110.446 53.1416 110.578 53.7051 110.59 54.2768C110.602 54.8484 110.495 55.4166 110.274 55.9483C110.053 56.4799 109.722 56.9643 109.302 57.373C108.882 57.7818 108.38 58.1067 107.826 58.3288C105.403 59.3005 102.734 57.5303 99.7888 55.7451C97.635 54.4645 95.7662 53.1463 93.6678 51.7076Z" fill="#1A4E72"/>
<path d="M91.2448 49.9827C92.0177 50.6006 92.8266 51.1765 93.6678 51.7076C94.7606 52.4609 95.8058 53.2142 96.8352 53.8996C96.6372 50.8866 97.4212 47.0525 102.473 45.9904C100.338 44.5215 98.0253 43.3025 95.5841 42.3596C94.0716 41.87 91.9891 41.7872 90.7221 42.4576C87.238 44.3031 88.9563 47.9489 91.2448 49.9827Z" fill="#E24E6A"/>
<path fill-rule="evenodd" clip-rule="evenodd" d="M99.9313 53.4853C99.5195 52.6794 98.1813 51.8734 96.8273 51.1502C96.2413 50.8414 95.2911 50.3593 94.9427 50.8263C94.5943 51.2933 95.5128 52.0918 95.8691 52.3329C96.9346 53.1229 98.1497 53.7111 99.4483 54.0654C99.5716 54.0124 99.6799 53.9321 99.7639 53.8312C99.8479 53.7303 99.9053 53.6117 99.9313 53.4853Z" fill="white"/>
<path fill-rule="evenodd" clip-rule="evenodd" d="M97.6349 49.9224C98.7356 48.9356 96.0513 47.0449 95.4495 48.0769C95.1723 48.5213 96.0988 49.8922 96.8748 50.1258C97.0091 50.1581 97.15 50.1563 97.2834 50.1206C97.4168 50.0849 97.538 50.0166 97.6349 49.9224Z" fill="white"/>
<path d="M118.888 12.4476C117.873 14.8072 117.192 17.2844 116.861 19.8145C116.536 22.5564 117.558 24.7032 119.482 25.2832C121.604 25.9234 123.568 24.1608 124.724 22.7899C126.308 20.9368 127.424 18.2703 128.382 15.6414C125.856 11.5813 121.517 11.8223 118.888 12.4476Z" fill="#5BBC99"/>
<path d="M126.838 0.628801C126.392 0.673573 125.953 0.769689 125.532 0.915041C122.926 2.09767 121.256 6.18789 120.084 8.87704C119.672 9.81861 119.292 10.7451 118.888 11.6792C121.517 11.054 125.848 10.8129 128.39 14.873C128.778 13.8184 129.135 12.7563 129.467 11.7545C130.109 9.85628 130.932 7.86013 131.051 5.90165C131.352 2.43663 129.744 0.267235 126.838 0.628801Z" fill="#295E4B"/>
<path fill-rule="evenodd" clip-rule="evenodd" d="M124.684 4.78683C124.684 5.7736 123.829 7.21987 122.871 8.55315C122.459 9.14069 121.786 10.0597 121.192 9.7885C120.48 9.442 121.074 8.28197 121.287 7.83755C121.918 6.5428 122.802 5.37441 123.893 4.39513C124.049 4.39171 124.203 4.42582 124.341 4.4943C124.48 4.56277 124.598 4.66339 124.684 4.78683Z" fill="white"/>
<path fill-rule="evenodd" clip-rule="evenodd" d="M124.32 9.38173C125.904 9.82615 124.32 12.9673 123.148 12.2592C122.641 11.9504 122.816 10.1576 123.457 9.54744C123.573 9.45005 123.714 9.38345 123.865 9.35436C124.017 9.32526 124.174 9.3347 124.32 9.38173Z" fill="white"/>
<path fill-rule="evenodd" clip-rule="evenodd" d="M118.856 16.7939C119.442 16.8918 119.648 17.6978 119.498 18.5038C119.387 19.1591 118.872 20.3568 118.16 20.0103C117.955 19.8283 117.804 19.5979 117.723 19.3425C117.643 19.087 117.635 18.8158 117.7 18.5565C117.811 17.7656 118.104 16.6658 118.856 16.7939Z" fill="white"/>
<path fill-rule="evenodd" clip-rule="evenodd" d="M103.685 10.2933C106.702 11.5211 107.794 13.811 106.385 16.7035C104.849 19.8522 101.578 21.7881 99.3612 23.1213C93.326 26.8235 86.4977 29.1964 79.375 30.0664C77.7913 30.2698 76.3502 30.5561 75.0753 30.2171C73.8126 29.8402 72.7195 29.071 71.9713 28.0326C70.6172 26.0892 71.1794 23.1891 73.4837 20.3041C74.4171 19.2896 75.4813 18.3912 76.6511 17.63C79.7603 15.4782 83.1416 13.7067 86.7154 12.3572C91.1972 10.6699 96.4234 9.02778 101.372 9.66805C102.169 9.77604 102.947 9.98636 103.685 10.2933Z" fill="#5BBC99"/>
<path d="M110.019 26.0892C110.375 25.48 110.58 24.8014 110.617 24.1054C110.654 23.4093 110.523 22.7145 110.233 22.0743L106.852 13.359C107.111 14.4923 106.943 15.6763 106.377 16.7035C104.841 19.8521 101.57 21.788 99.3532 23.1213C93.3181 26.8235 86.4898 29.1963 79.3671 30.0664C77.7834 30.2698 76.3422 30.556 75.0674 30.217C73.8047 29.8402 72.7116 29.0709 71.9633 28.0326C71.7961 27.7974 71.6579 27.5446 71.5516 27.2793L75.107 36.213C75.221 36.6482 75.4139 37.0612 75.6771 37.4333C76.4202 38.4732 77.5114 39.2432 78.7732 39.6178C80.0481 39.9567 81.5288 39.6705 83.0729 39.4671C90.1987 38.5994 97.0301 36.2264 103.067 32.522C105.268 31.1737 108.515 29.2378 110.019 26.0892Z" fill="#93E5A9"/>
<g opacity="0.38">
<path opacity="0.38" d="M110.019 26.0891C110.091 25.9536 110.146 25.818 110.202 25.6824C108.974 22.9932 107.889 19.7693 106.013 17.2684C105.642 17.8954 105.207 18.4859 104.714 19.0311C104.762 19.1441 104.817 19.2495 104.865 19.3625C105.875 21.6397 107.042 23.8515 108.357 25.9837C108.618 26.4055 108.895 26.9328 109.228 27.4149C109.525 26.992 109.79 26.5489 110.019 26.0891Z" fill="#1A4E72"/>
<path opacity="0.38" d="M101.919 21.4716C101.515 21.7579 101.127 22.0215 100.723 22.2701C100.98 22.5281 101.218 22.8024 101.436 23.0911C102.394 24.5525 103.059 26.3452 104.009 27.9346C104.526 28.7474 105.086 29.5344 105.688 30.2923L105.934 30.6388C106.377 30.3149 106.812 29.976 107.24 29.6069C107.2 29.5315 107.153 29.4637 107.113 29.396C105.831 27.1211 103.954 23.4904 101.919 21.4716Z" fill="#1A4E72"/>
<path opacity="0.38" d="M101.309 29.0645C100.391 27.0683 99.472 24.9441 98.2605 23.7314L97.0411 24.4169C97.0411 25.1701 97.7141 25.9234 98.0467 26.6766C98.9415 28.6351 99.5512 30.5334 100.612 32.3864C100.81 32.7254 101.024 33.1396 101.293 33.5389C101.824 33.2376 102.362 32.9287 102.877 32.6048L102.552 31.8516C102.22 30.9326 101.753 29.9609 101.309 29.0645Z" fill="#1A4E72"/>
<path opacity="0.38" d="M97.3499 33.441C96.5581 31.7387 95.7662 29.9911 94.9744 28.4017C94.6296 27.5774 94.1425 26.8136 93.5332 26.1419C93.0819 26.3453 92.6305 26.5411 92.1792 26.7219C92.2279 27.4053 92.4162 28.0731 92.7335 28.6879C93.5294 30.5579 94.516 32.3492 95.6791 34.0361C95.9844 34.6378 96.3617 35.204 96.8035 35.7234L98.1814 35.1057C97.9718 34.5225 97.6928 33.964 97.3499 33.441Z" fill="#1A4E72"/>
<path opacity="0.38" d="M90.9122 32.9363C90.2313 31.2572 89.4104 29.6325 88.4575 28.0778C87.8953 28.2585 87.3251 28.4243 86.7471 28.5824C86.8896 29.1926 87.143 29.8329 87.2776 30.2321C88 32.3226 88.8596 34.368 89.8511 36.3561C90.1053 36.8869 90.3881 37.4048 90.6984 37.9078C91.3715 37.712 92.0366 37.5086 92.7018 37.2902C92.5196 36.8307 92.2663 36.3637 92.0841 35.9268C91.6882 34.9551 91.3636 33.9005 90.9122 32.9363Z" fill="#1A4E72"/>
<path opacity="0.38" d="M84.617 31.8441C84.2988 30.9669 83.8189 30.1507 83.1996 29.4337L81.996 29.6596C82.0481 30.5388 82.2681 31.4016 82.6453 32.2057C83.4045 34.1458 84.2986 36.0356 85.3218 37.8627C85.496 38.2016 85.686 38.6159 85.9157 39.0076C86.4858 38.9022 87.0401 38.7892 87.5944 38.6687C87.4281 38.2242 87.1668 37.7723 86.9926 37.3354C86.2641 35.4598 85.5197 33.7047 84.617 31.8441Z" fill="#1A4E72"/>
<path opacity="0.38" d="M80.5074 37.8777C79.7155 36.0096 79.0345 34.1641 78.2981 32.3262C78.0623 31.6309 77.7657 30.9556 77.4113 30.3074C76.9147 30.3633 76.414 30.3785 75.9147 30.3526C76.1232 30.9783 76.3881 31.5857 76.7065 32.168C77.4509 34.1566 78.021 36.0247 78.8841 37.9531C79.1104 38.577 79.4022 39.1776 79.7551 39.7458C80.2415 39.7689 80.729 39.7513 81.2121 39.6931C81.0632 39.0608 80.8262 38.4503 80.5074 37.8777Z" fill="#1A4E72"/>
</g>
<path fill-rule="evenodd" clip-rule="evenodd" d="M74.8298 26.7896C75.0278 27.9572 71.9238 27.0533 72.771 26.2021C73.2145 25.7577 74.3864 26.3678 74.8298 26.7896Z" fill="white"/>
<path fill-rule="evenodd" clip-rule="evenodd" d="M76.2235 28.379C76.0176 28.2208 75.685 27.7915 76.0493 27.4224C76.5323 26.9403 77.8943 27.2491 78.4248 27.2642C79.1058 27.2642 80.4123 27.0533 80.8003 27.7086C81.2992 28.6427 79.3038 28.7029 78.6228 28.6954C78.2585 28.6954 77.8943 28.6577 77.5934 28.6427C77.0628 28.6276 76.6115 28.6879 76.2235 28.379Z" fill="white"/>
<path fill-rule="evenodd" clip-rule="evenodd" d="M96.6293 11.3854C97.3736 10.8582 101.111 11.3176 100.866 12.5153C100.668 13.4946 97.3816 13.02 96.6768 12.2216C96.4947 12.0558 96.4551 11.8374 96.6293 11.3854Z" fill="white"/>
<path fill-rule="evenodd" clip-rule="evenodd" d="M100.272 14.8655C100.121 13.6904 101.982 13.9917 102.061 14.6923C102.164 15.6414 100.414 15.8975 100.272 14.8655Z" fill="white"/>
<path fill-rule="evenodd" clip-rule="evenodd" d="M102.513 12.5605C102.6 11.4382 105.427 11.9202 105.205 12.9221C105.11 13.3515 104.785 13.4042 104.199 13.4418C103.344 13.4946 102.449 13.3439 102.513 12.5605Z" fill="white"/>
<path fill-rule="evenodd" clip-rule="evenodd" d="M125.35 65.6505C126.529 67.4131 127.266 69.0628 129.079 69.8688C131.605 71.0062 135.913 70.2454 138.257 71.5034C139.975 72.4299 141.281 74.8102 142.493 76.7762C143.704 78.7422 144.956 80.8514 146.017 82.727C148.392 86.8549 150.768 90.8773 153.08 94.621C154.379 96.7302 155.297 98.8242 156.303 100.858C158.393 105.046 160.207 109.197 162.154 113.905C163.105 116.164 164.609 120.029 163.564 122.725C162.487 125.535 158.512 127.35 155.495 128.751C147.046 132.729 139.737 136.171 130.995 139.779C128.699 140.728 125.793 141.888 123.029 140.834C121.692 140.149 120.523 139.202 119.601 138.054C118.342 136.351 117.227 134.555 116.267 132.683C112.094 125.414 108.261 117.904 103.97 110.236C101.879 106.47 100.121 102.764 98.2209 98.6284C97.1519 96.2933 96.178 93.8452 96.7085 91.2389C97.0727 89.416 98.2922 87.8417 99.3295 86.4481C100.367 85.0546 101.705 83.4351 101.848 81.5519C101.99 79.6687 101.143 78.4259 100.636 76.9495C106.551 74.0042 112.759 71.3 118.896 68.4075C120.984 67.3596 123.139 66.4387 125.35 65.6505Z" fill="#93E5A9"/>
<path d="M132.983 124.45C135.319 123.396 137.781 122.19 139.436 120.616C140.06 119.998 140.571 119.285 140.949 118.507C141.741 116.541 140.949 114.153 140.244 112.27C139.721 110.831 139.064 109.43 138.534 108.24C136.008 102.56 133.83 98.1991 131.273 92.7002C129.903 89.7625 127.994 86.0263 123.908 86.079C121.018 86.1242 118.31 87.5856 115.942 88.482C113.44 89.416 111.009 90.335 108.483 91.4498C104.902 92.9234 101.445 94.656 98.1417 96.6323L97.1599 97.2725C97.247 97.4759 97.342 97.6793 97.437 97.8827C99.3374 102.018 101.095 105.762 103.186 109.49C107.478 117.159 111.31 124.669 115.483 131.938C115.57 132.073 115.642 132.216 115.729 132.36C119.149 130.8 122.855 128.895 125.872 127.524C128.319 126.416 130.607 125.543 132.983 124.45Z" fill="#4B6568"/>
<path fill-rule="evenodd" clip-rule="evenodd" d="M115.602 98.5155C116.877 98.1916 119.023 96.9412 120.939 96.8282C122.309 96.7528 124.019 100.64 123.726 102.432C123.568 103.412 120.496 104.308 118.975 105.317C119.529 106.673 121.097 109.024 120.305 109.701C119.061 110.672 117.614 111.381 116.061 111.78C115.087 111.946 113.907 109.084 112.894 107.743C111.445 108.496 109.505 109.799 108.048 109.129C107.256 108.767 105.846 106.282 105.617 105.204C105.197 103.178 107.992 102.191 109.497 101.28C109.133 100.06 108.246 99.3441 108.404 97.9355C108.554 96.6399 110.78 95.2011 112.411 95.0505C114.628 94.8546 114.873 97.0843 115.602 98.5155Z" fill="#B9D5E8"/>
<path fill-rule="evenodd" clip-rule="evenodd" d="M129.348 110.485C125.983 111.908 121.089 114.198 117.582 115.878C116.533 116.32 115.537 116.868 114.612 117.513C115.119 118.387 115.618 119.275 116.117 120.149C117.479 120.089 119.339 118.688 120.337 118.176C123.441 116.586 126.355 115.313 129.135 113.905C129.633 113.656 130.204 113.4 130.718 113.091C130.267 112.24 129.816 111.359 129.348 110.485Z" fill="#B9D5E8"/>
<path fill-rule="evenodd" clip-rule="evenodd" d="M133.331 117.565C132.959 116.993 132.611 116.405 132.262 115.825C130.908 116.157 129.641 117.181 128.612 117.686C126.236 118.853 122.713 120.511 120.337 121.618C119.68 121.927 118.571 122.371 117.716 122.801L117.787 122.914L119.126 124.97C119.395 124.834 119.672 124.699 119.997 124.571C123.713 123.001 127.337 121.241 130.853 119.298C131.785 118.889 132.682 118.413 133.537 117.874C133.466 117.784 133.403 117.671 133.331 117.565Z" fill="#B9D5E8"/>
<path fill-rule="evenodd" clip-rule="evenodd" d="M145.161 91.352C143.831 90.4405 142.786 88.015 141.875 85.5669C141.487 84.5274 140.901 82.8175 141.875 82.3881C143.008 81.8684 144.005 83.6988 144.354 84.3617C145.462 86.3472 146.163 88.5148 146.421 90.7493C146.281 90.9424 146.092 91.0988 145.872 91.2042C145.652 91.3095 145.408 91.3603 145.161 91.352Z" fill="white"/>
<path fill-rule="evenodd" clip-rule="evenodd" d="M136.419 82.8626C134.297 84.3691 131.668 79.4579 133.727 78.7272C134.622 78.4108 136.815 80.3316 137.013 81.68C137.032 81.9093 136.987 82.1394 136.883 82.347C136.779 82.5546 136.619 82.7324 136.419 82.8626Z" fill="white"/>
<path fill-rule="evenodd" clip-rule="evenodd" d="M135.865 76.2188C135.176 76.8214 133.941 76.2791 132.999 75.3526C132.207 74.5993 131.154 72.8367 132.286 72.3395C132.785 72.106 133.87 72.4148 134.662 73.1756C135.588 74.0419 136.752 75.443 135.865 76.2188Z" fill="white"/>
<path fill-rule="evenodd" clip-rule="evenodd" d="M125.247 136.239C123.497 137.203 127.86 140.005 128.121 138.092C128.232 137.098 126.228 136.344 125.247 136.239Z" fill="white"/>
<path fill-rule="evenodd" clip-rule="evenodd" d="M121.715 136.209C122.135 136.292 123.045 136.246 123.156 135.455C123.299 134.386 121.501 133.075 120.891 132.442C120.155 131.689 119.141 129.851 117.914 130.1C116.172 130.454 118.128 132.902 118.841 133.715C119.221 134.145 119.632 134.536 119.973 134.89C120.551 135.44 120.907 136.05 121.715 136.209Z" fill="white"/>
<path fill-rule="evenodd" clip-rule="evenodd" d="M124.819 60.1819C124.281 59.2554 123.94 58.472 123.283 57.5078C122.63 56.4692 121.712 55.6039 120.614 54.9919C119.324 54.4571 117.764 54.9166 116.291 55.4815C113.456 56.5813 103.772 61.5076 103.764 61.5076C101.206 62.6375 98.8148 63.6996 96.3917 65.0404C95.0219 65.7937 93.7866 66.66 93.3352 67.9782C92.5434 70.3736 94.4676 73.6277 94.9189 74.5918C95.8216 76.5804 96.9935 79.2319 100.28 78.8854C101.67 78.6248 103.007 78.1516 104.239 77.4844C106.416 76.4675 119.68 70.012 121.85 69.0026C123.154 68.4866 124.362 67.7745 125.429 66.8935C127.725 64.6186 125.904 62.0801 124.819 60.1819Z" fill="#5BBC99"/>
<path d="M95.0298 69.8161C98.403 68.174 101.65 66.7503 105.007 65.176C105.894 64.7542 107.018 64.1365 108.079 63.5188C108.444 63.3079 109.901 62.7655 109.544 62.1403C109.386 61.8767 108.752 61.9144 108.38 62.0123C107.975 62.1184 107.581 62.257 107.2 62.4266C103.143 63.8575 99.1773 65.5125 95.3228 67.383C94.6259 67.7145 93.8974 68.0459 93.1848 68.4075C93.0536 69.1407 93.0805 69.8916 93.264 70.6145C93.9529 70.3283 94.5388 70.0571 95.0298 69.8161Z" fill="#295E4B"/>
<path d="M119.411 56.6038C117.73 57.305 116.137 58.1817 114.66 59.2177C114.465 59.3726 114.295 59.5526 114.153 59.7525C114.071 59.8628 114.028 59.9943 114.028 60.1291C114.028 60.2639 114.071 60.3954 114.153 60.5057C114.62 60.9878 115.847 60.4455 116.6 60.1291C117.534 59.7299 118.389 59.3758 119.062 59.0143C120.401 58.3589 121.715 57.7488 123.022 57.1386C122.601 56.5601 122.109 56.0316 121.557 55.5643L119.411 56.6038Z" fill="#295E4B"/>
<path d="M101 71.1268C101.792 70.7276 103.708 69.8462 103.162 69.1231C102.734 68.5657 101.365 69.1834 100.478 69.5449C98.5852 70.2982 96.6293 71.3 94.9348 72.1211C94.6655 72.2567 94.3092 72.3998 93.937 72.5655C94.1667 73.1003 94.4042 73.5749 94.5943 73.9591C96.782 73.1262 98.9205 72.1807 101 71.1268Z" fill="#295E4B"/>
<path d="M123.307 62.6375C121.596 63.3907 119.577 64.2796 117.764 65.2438C116.924 65.6957 115.57 66.3511 115.784 67.0215C116.053 67.8727 117.946 66.9612 118.769 66.6072C121.206 65.5472 123.573 64.3473 125.856 63.0141L126.181 62.8333C126.019 62.4104 125.828 61.9978 125.611 61.598C124.815 61.8855 124.044 62.2331 123.307 62.6375Z" fill="#295E4B"/>
<path d="M110.289 70.7501C110.653 70.5542 112.316 69.688 112.047 69.108C111.666 68.302 110.273 69.0251 109.861 69.1682C107.582 69.9948 105.358 70.9532 103.202 72.0382C100.913 73.0661 98.6817 74.2076 96.5185 75.458C96.2492 75.6162 95.9246 75.8045 95.5999 76.0079C95.9067 76.6081 96.2983 77.1657 96.7639 77.665C97.6112 77.2206 98.4506 76.746 99.2978 76.2866C103.019 74.2829 106.488 72.7839 110.289 70.7501Z" fill="#295E4B"/>
<path d="M110.978 64.6487C109.79 65.1911 107.945 65.8314 108.467 66.6976C109.837 66.8709 119.854 62.065 124.558 59.7224C124.32 59.293 124.114 58.8863 123.869 58.4569C120.171 60.1969 111.682 64.3248 110.978 64.6487Z" fill="#295E4B"/>
<path fill-rule="evenodd" clip-rule="evenodd" d="M273.63 25.6146C274.604 26.2021 276.568 27.6559 276.916 28.9365C277.265 30.217 276.449 31.7612 275.832 33.0192C275.214 34.2771 260.969 62.7806 259.805 65.1233C257.92 68.8896 256.162 73.0476 254.927 76.249C252.9 81.5218 250.508 87.2617 248.37 92.8208C247.737 94.4478 247.151 97.024 245.449 98.3045C243.936 99.457 241.276 98.8619 239.161 98.4627C236.957 98.0201 234.779 97.4669 232.637 96.8055C228.321 95.4948 223.72 94.0109 219.429 92.4517C216.8 91.4875 214.677 90.5685 212.682 89.8152C208.343 88.1807 203.972 86.5536 199.339 84.6479C195.95 83.2618 192.918 81.2054 193.005 78.1999C193.217 76.7077 193.594 75.2408 194.129 73.8234C194.573 72.3169 194.976 70.8104 195.475 69.4093C196.584 66.336 198.009 63.3154 199.332 60.453C203.473 51.4139 207.155 42.3747 211.368 33.4033C214.06 27.6785 217.56 21.1854 220.791 15.2421C222.881 11.3854 226.009 6.79053 229.651 6.67754C231.235 6.63234 233.191 7.36301 234.972 7.91289C240.302 9.555 245.971 12.3571 251.387 15.0086C257.302 17.856 262.267 19.8521 267.945 22.6015C269.861 23.5054 271.738 24.4772 273.63 25.6146Z" fill="#5BBC99"/>
<g style="mix-blend-mode:screen">
<g style="mix-blend-mode:screen">
<path fill-rule="evenodd" clip-rule="evenodd" d="M268.927 35.407L269.164 34.8722C267.953 34.2771 266.67 33.7423 265.474 33.1623C259.931 30.5108 255.03 28.1606 249.4 25.6297C245.971 24.1232 242.455 22.6618 238.765 21.0046C237.245 20.3192 235.733 19.6488 233.444 18.6921C232.082 18.1272 228.804 16.4323 228.131 16.6809C227.458 16.9295 226.547 18.5113 226.801 19.1441C227.054 19.7768 228.076 20.048 229.176 20.5602C231.964 21.8709 234.719 23.2117 237.095 24.2512C246.138 28.2134 254.84 32.7706 263.582 36.8458C264.722 37.3731 266.124 38.1188 267.248 38.5783C267.842 37.5162 268.436 36.4691 268.927 35.407Z" fill="#295E4B"/>
</g>
<g style="mix-blend-mode:screen">
<path fill-rule="evenodd" clip-rule="evenodd" d="M265.086 42.7513C263.59 41.8851 261.864 41.2448 260.28 40.4463C254.737 37.7949 249.835 35.4371 244.205 32.9137C240.777 31.4072 237.261 29.9459 233.571 28.2887C232.051 27.6032 230.538 26.9328 228.258 25.9762C226.888 25.4037 223.61 23.7164 222.936 23.9649C222.263 24.2135 221.353 25.7954 221.614 26.4281C221.875 27.0609 222.881 27.332 223.99 27.8442C226.777 29.1474 229.533 30.4957 231.908 31.5277C240.951 35.4974 249.653 40.0546 258.395 44.1223C260.09 44.8755 262.354 46.1787 263.447 46.2691C264.002 45.1166 264.532 43.9264 265.086 42.7513Z" fill="#295E4B"/>
</g>
<g style="mix-blend-mode:screen">
<path fill-rule="evenodd" clip-rule="evenodd" d="M261.357 50.2915C260.446 49.8697 259.512 49.4629 258.625 49.0411C253.122 46.3896 248.188 44.0319 242.55 41.5085C239.13 40.0019 235.606 38.5481 231.916 36.891C230.396 36.2055 228.891 35.5351 226.603 34.5784C225.233 34.006 221.962 32.3187 221.282 32.5672C220.601 32.8158 219.698 34.3977 219.959 35.0304C220.22 35.6631 221.226 35.9343 222.335 36.4465C225.122 37.7497 227.878 39.098 230.253 40.13C239.288 44.0922 247.998 48.6569 256.74 52.7246C257.532 53.0861 258.411 53.5532 259.258 53.9449C259.971 52.7321 260.676 51.5269 261.357 50.2915Z" fill="#295E4B"/>
</g>
<g style="mix-blend-mode:screen">
<path fill-rule="evenodd" clip-rule="evenodd" d="M256.867 57.9446C255.735 57.3948 254.547 56.8976 253.43 56.3553C247.927 53.7038 242.994 51.3536 237.364 48.8226C233.935 47.3161 230.411 45.8623 226.721 44.2051C225.201 43.5196 223.697 42.8492 221.408 41.8926C220.046 41.3201 216.768 39.6328 216.087 39.8814C215.406 40.13 214.503 41.7118 214.765 42.337C215.026 42.9622 216.032 43.2409 217.14 43.7607C219.927 45.0638 222.683 46.4046 225.059 47.4441C234.101 51.4063 242.804 55.9636 251.546 60.0387C252.504 60.4831 253.66 61.0857 254.666 61.5452C255.368 60.3501 256.102 59.1499 256.867 57.9446Z" fill="#295E4B"/>
</g>
<g style="mix-blend-mode:screen">
<path fill-rule="evenodd" clip-rule="evenodd" d="M253.636 65.7335L253.874 65.1987C252.662 64.6036 251.387 64.0688 250.184 63.4888C244.641 60.8373 239.739 58.4796 234.109 55.9561C230.689 54.4496 227.165 52.9883 223.475 51.3311C221.955 50.6532 220.442 49.9752 218.162 49.0186C216.792 48.4461 213.514 46.7588 212.84 47.0074C212.167 47.2559 211.257 48.8378 211.518 49.4705C211.779 50.1033 212.785 50.3744 213.894 50.8867C216.681 52.1898 219.436 53.5306 221.812 54.5701C230.847 58.5323 239.557 63.0971 248.291 67.1647C249.432 67.6995 250.833 68.4452 251.958 68.9047C252.551 67.8728 253.145 66.8257 253.636 65.7335Z" fill="#295E4B"/>
</g>
<g style="mix-blend-mode:screen">
<path fill-rule="evenodd" clip-rule="evenodd" d="M231.053 10.5493C231.576 10.1197 232.239 9.87489 232.93 9.85632C233.801 9.85632 236.707 10.6096 236.097 11.7771C235.487 12.9447 231.172 12.0559 231.053 10.5493Z" fill="#295E4B"/>
</g>
<g style="mix-blend-mode:screen">
<path fill-rule="evenodd" clip-rule="evenodd" d="M228.4 11.3027C227.664 12.0559 226.254 12.9523 225.565 12.4627C223.926 11.3027 228.487 9.30651 228.4 11.3027Z" fill="#295E4B"/>
</g>
<g style="mix-blend-mode:screen">
<path fill-rule="evenodd" clip-rule="evenodd" d="M231.845 13.8336C231.784 13.9027 231.744 13.9856 231.727 14.074C231.711 14.1625 231.718 14.2535 231.75 14.3383C231.401 14.6469 230.946 14.8228 230.47 14.8325C229.994 14.8422 229.53 14.6851 229.168 14.391C229.2 14.2014 229.2 14.0082 229.168 13.8185C229.913 13.1858 231.092 12.8091 231.845 13.8336Z" fill="#295E4B"/>
</g>
<g style="mix-blend-mode:screen">
<path fill-rule="evenodd" clip-rule="evenodd" d="M273.219 28.6276C272.427 31.2038 267.771 27.9422 268.594 26.5863C269.418 25.2304 272.791 27.1964 273.219 28.6276Z" fill="#295E4B"/>
</g>
<g style="mix-blend-mode:screen">
<path fill-rule="evenodd" clip-rule="evenodd" d="M264.025 23.4226C265.443 24.1759 266.44 24.6429 265.815 25.6824C264.841 27.2793 258.688 24.4245 259.615 22.7447C260.367 21.3587 262.703 22.6995 264.025 23.4226Z" fill="#295E4B"/>
</g>
<g style="mix-blend-mode:screen">
<path fill-rule="evenodd" clip-rule="evenodd" d="M273.543 32.8008C273.717 34.0211 272.268 35.3619 271.326 34.6011C270.241 33.7198 272.268 31.1285 273.543 32.8008Z" fill="#295E4B"/>
</g>
<g style="mix-blend-mode:screen">
<path fill-rule="evenodd" clip-rule="evenodd" d="M242.099 95.1333C240.919 96.8733 246.518 97.4985 245.805 95.5777C245.425 94.5758 243.089 94.7717 242.099 95.1333Z" fill="#295E4B"/>
</g>
<g style="mix-blend-mode:screen">
<path fill-rule="evenodd" clip-rule="evenodd" d="M238.71 96.7528C239.153 96.6322 240.001 96.1652 239.684 95.3366C239.272 94.2519 236.881 93.8301 235.97 93.4911C234.862 93.0844 232.961 91.834 231.924 92.6324C230.435 93.7849 233.563 95.2086 234.656 95.6455C235.242 95.8865 235.836 96.0598 236.342 96.2405C237.205 96.5645 237.855 96.9712 238.71 96.7528Z" fill="#295E4B"/>
</g>
<g style="mix-blend-mode:screen">
<path fill-rule="evenodd" clip-rule="evenodd" d="M235.131 77.5898C236.778 77.7781 238.734 76.1736 240.009 77.3789C241.284 78.5841 239.312 80.6556 238.987 82.373C240.785 82.486 242.733 81.6951 244.11 83.0283C245.488 84.3616 244.902 88.8511 243.936 90.4932C243.566 89.4859 243.35 88.4331 243.295 87.3671C243.224 86.6139 243.509 84.8588 242.891 84.2411C241.545 82.9154 239.051 84.9944 237.768 83.8042C236.485 82.6141 237.871 80.5727 238.457 78.9231C236.968 78.2301 234.497 80.7309 233.135 79.7893C231.876 78.9457 232.779 77.6802 233.508 76.3243C230.815 77.2207 226.634 82.4483 224.291 80.6104C222.849 79.488 223.942 77.7706 224.647 76.2791C222.493 77.6802 217.885 83.1941 216.095 80.1208C215.034 78.3054 217.354 74.3733 219.769 71.6164C221.226 69.9668 223.689 67.3605 225.154 68.2719C226.856 69.334 225.645 71.1193 225.154 72.4902C226.959 72.0382 228.701 68.3096 230.522 68.4904C232.439 69.6203 230.799 71.3302 229.936 72.8292C229.073 74.3282 228.353 75.7594 227.862 76.6482C229.667 76.1887 234.347 71.6164 236.287 72.2642C238.702 73.1154 236.596 75.9251 235.131 77.5898ZM218.993 77.6877C220.308 76.9344 221.598 75.4279 222.905 74.6747C222.604 73.5975 223.419 72.4977 223.522 71.413C221.741 73.5598 219.927 75.6464 219.001 77.7178L218.993 77.6877Z" fill="#295E4B"/>
</g>
</g>
<path fill-rule="evenodd" clip-rule="evenodd" d="M181.285 88.9415C183.518 88.1054 188.262 87.435 189.909 88.1882C190.901 88.8237 191.605 89.7921 191.88 90.9C192.247 92.2003 192.511 93.5246 192.672 94.8621C193.464 99.909 194.406 105.174 194.802 110.229C194.976 112.488 195.119 115.253 194.493 117.091C194.153 118.047 193.549 118.898 192.744 119.556C191.939 120.213 190.962 120.651 189.917 120.826C188.872 121 187.797 120.903 186.805 120.545C185.813 120.188 184.94 119.583 184.279 118.793C182.964 117.166 182.156 113.859 181.697 111.494C181.238 109.129 180.763 106.636 180.375 103.66C179.987 100.685 179.528 98.0786 179.258 95.9544C178.91 93.1899 178.506 89.981 181.285 88.9415Z" fill="#B9D5E8"/>
<path fill-rule="evenodd" clip-rule="evenodd" d="M184.991 113.392C186.092 112.767 187.454 112.82 188.61 112.714C189.766 112.609 191.033 112.308 191.967 112.805C191.613 114.352 191.109 115.865 190.463 117.324C190.312 117.746 190.21 118.605 189.806 118.733C189.141 118.944 187.794 117.098 187.311 116.564C186.923 116.142 186.52 115.712 186.147 115.328C185.569 114.726 184.912 114.198 184.991 113.392Z" fill="#E24E6A"/>
<g style="mix-blend-mode:multiply">
<g style="mix-blend-mode:multiply">
<path fill-rule="evenodd" clip-rule="evenodd" d="M144.465 7.53626C147.19 6.83999 149.971 6.35878 152.779 6.09753C160.476 5.20868 168.442 4.34996 176.471 3.21253C181.626 2.45926 187.185 1.63821 192.633 0.854813C197.78 0.101549 203.718 -1.14887 206.236 2.29355C207.559 4.13151 208.058 7.23496 208.612 9.96177C209.166 12.6886 209.459 14.9258 210.021 17.7806C211.605 26.1117 212.635 33.0041 213.981 41.1318C215.192 48.6644 216.594 57.1236 217.148 63.9632C217.568 68.9498 217.861 73.7557 216.713 77.7404C215.495 81.5832 213.505 85.1647 210.853 88.2861C209.552 89.881 208.111 91.3678 206.545 92.7304C205.781 93.468 204.958 94.148 204.083 94.7642C201.024 96.7517 197.679 98.3094 194.153 99.3892C185.849 101.971 176.905 102.024 168.568 99.5399C167.585 99.1913 166.634 98.7655 165.726 98.2668C163.852 97.4042 162.057 96.3965 160.357 95.2538C156.984 92.9036 153.634 90.1316 151.393 86.4707C149.152 82.8099 147.703 77.2508 146.579 71.5411C145.454 65.8313 144.861 61.2515 144.235 56.0841C143.039 46.1109 141.384 35.8364 140.355 25.8556C140.117 23.5958 139.729 20.9368 139.563 18.4059C139.405 15.9954 139.167 13.3816 139.69 11.4909C140.402 8.9298 142.113 8.22173 144.465 7.53626Z" fill="#5BBC99"/>
</g>
<g style="mix-blend-mode:multiply">
<path fill-rule="evenodd" clip-rule="evenodd" d="M185.498 95.6681C184.611 98.1388 191.651 97.2725 190.162 95.1333C189.386 94.0335 186.591 94.96 185.498 95.6681Z" fill="#5BBC99"/>
</g>
<g style="mix-blend-mode:multiply">
<path fill-rule="evenodd" clip-rule="evenodd" d="M181.879 98.6811C182.378 98.4099 183.257 97.5889 182.608 96.6699C181.761 95.4647 178.712 95.6379 177.485 95.4948C175.996 95.314 173.28 94.3348 172.266 95.6229C170.817 97.4533 175.093 98.2894 176.574 98.5229C177.366 98.6434 178.158 98.6886 178.823 98.764C179.971 98.8468 180.905 99.1632 181.879 98.6811Z" fill="#5BBC99"/>
</g>
<g style="mix-blend-mode:multiply">
<path fill-rule="evenodd" clip-rule="evenodd" d="M151.544 76.7385C152.676 77.4918 153.618 79.503 154.418 81.5443C154.767 82.4181 155.297 83.8041 154.505 84.2184C153.563 84.6779 152.692 83.1563 152.383 82.6064C151.413 80.9541 150.782 79.1419 150.522 77.2658C150.633 77.1045 150.785 76.9719 150.963 76.8799C151.141 76.7879 151.341 76.7393 151.544 76.7385Z" fill="#5BBC99"/>
</g>
<g style="mix-blend-mode:multiply">
<path fill-rule="evenodd" clip-rule="evenodd" d="M159.066 83.7289C160.816 82.4333 163.12 86.5084 161.402 87.1638C160.658 87.45 158.773 85.8682 158.583 84.7383C158.565 84.5446 158.6 84.3498 158.685 84.1729C158.769 83.9959 158.901 83.8429 159.066 83.7289Z" fill="#5BBC99"/>
</g>
<g style="mix-blend-mode:multiply">
<path fill-rule="evenodd" clip-rule="evenodd" d="M159.66 89.303C160.23 88.7908 161.244 89.2201 162.083 89.9885C162.74 90.6061 163.667 92.075 162.74 92.5194C162.376 92.586 161.999 92.5597 161.649 92.4433C161.299 92.3269 160.987 92.1245 160.745 91.8566C159.906 91.1485 158.924 89.9734 159.66 89.303Z" fill="#5BBC99"/>
</g>
</g>
<path fill-rule="evenodd" clip-rule="evenodd" d="M147.236 17.1479C149.597 16.4665 152.016 15.9825 154.466 15.7017C161.363 14.7074 168.101 13.9616 174.982 13.0351C181.57 12.1463 188.808 10.9938 195.507 10.361C198.967 10.0371 202.024 9.72075 203.425 12.4099C204.273 14.0294 204.605 16.1084 205.009 18.1874C205.405 20.1158 205.92 22.24 206.3 24.1156C206.712 26.1946 206.91 28.0401 207.195 29.8856C208.667 39.1884 210.465 49.3424 211.027 58.1405C211.257 61.8541 211.114 65.1007 209.744 67.7898C208.374 70.479 206.015 72.5128 203.362 74.4412C198.136 78.2075 190.115 80.8966 182.069 81.7553C174.539 82.5689 167.301 81.9889 161.521 79.714C158.354 78.4711 155.859 77.2207 153.777 74.8027C151.694 72.3847 150.443 68.9047 149.572 64.4679C148.099 56.9805 147.109 49.1692 146.009 41.5461C145.177 35.7611 144.686 30.6238 144.148 24.8011C144.005 23.2946 143.839 21.1176 144.29 19.7166C144.521 19.0909 144.911 18.5292 145.425 18.0811C145.939 17.633 146.561 17.3125 147.236 17.1479Z" fill="white"/>
<path fill-rule="evenodd" clip-rule="evenodd" d="M199.102 18.8352C200.503 29.4261 201.731 39.9266 203.774 50.879C197.17 54.9165 186.068 56.747 177.643 57.5454C168.782 58.374 160.317 58.5322 153.341 56.9127C151.842 45.9552 150.567 35.1283 149.517 24.432C153.698 22.9254 157.839 21.547 162.281 20.3417C176.13 16.5754 188.467 17.3287 199.102 18.8352Z" fill="#93E5A9"/>
<path fill-rule="evenodd" clip-rule="evenodd" d="M170.136 63.5715C170.675 64.6713 170.485 65.9594 170.469 67.0591C170.453 68.1589 170.651 69.3943 170.033 70.2228C168.455 69.7319 166.928 69.1014 165.472 68.3397C165.037 68.1514 164.158 67.9706 164.063 67.5864C163.912 66.9311 165.979 65.8464 166.589 65.4472C167.072 65.1233 167.563 64.7768 167.998 64.4679C168.687 63.9708 169.305 63.4058 170.136 63.5715Z" fill="#E24E6A"/>
<path fill-rule="evenodd" clip-rule="evenodd" d="M193.694 60.6413C193.195 61.7562 193.424 63.0442 193.472 64.144C193.519 65.2438 193.377 66.4867 194.026 67.2926C195.586 66.7511 197.089 66.0727 198.516 65.2664C198.944 65.0705 199.823 64.8596 199.902 64.4604C200.028 63.805 197.922 62.7881 197.304 62.404C196.806 62.0951 196.299 61.7637 195.855 61.4699C195.159 61.018 194.525 60.4605 193.694 60.6413Z" fill="#E24E6A"/>
<path fill-rule="evenodd" clip-rule="evenodd" d="M180.612 63.6394C181.111 63.3876 181.673 63.2735 182.236 63.3098C182.799 63.3461 183.34 63.5315 183.798 63.8449C184.256 64.1583 184.612 64.5873 184.827 65.0834C185.042 65.5795 185.107 66.123 185.015 66.6524C184.901 67.4086 184.489 68.0953 183.863 68.5736C183.236 69.0519 182.443 69.286 181.642 69.2286C181.133 69.1248 180.653 68.9193 180.234 68.6258C179.815 68.3324 179.466 67.9575 179.211 67.5262C179.028 67.1846 178.92 66.8115 178.892 66.4292C178.863 66.0469 178.916 65.6632 179.047 65.3007C179.178 64.9382 179.384 64.6044 179.653 64.319C179.921 64.0336 180.248 63.8025 180.612 63.6394Z" fill="#E24E6A"/>
<path fill-rule="evenodd" clip-rule="evenodd" d="M98.8148 139.071C96.7877 139.824 94.8556 140.683 92.7889 141.414C92.25 139.839 91.5992 138.302 90.8409 136.811C88.7663 132.231 86.7946 127.471 84.7358 122.763C79.3592 110.522 73.8638 97.9504 68.3525 85.5517C66.3729 81.0848 64.2508 76.3318 62.1603 71.5862C61.8198 70.8329 61.5823 70.1399 61.2259 69.1607C60.819 68.3285 60.6159 67.4193 60.6321 66.5017C60.83 65.3718 62.5721 64.4528 63.8549 64.3247C64.3101 64.2787 64.7702 64.3042 65.2168 64.4001C66.3413 64.8219 67.1727 67.1495 67.8458 68.6033C71.5278 76.4975 74.6556 84.1356 78.1952 92.09C85.1555 107.72 92.0445 123.682 98.8148 139.071Z" fill="#B9D5E8"/>
<path fill-rule="evenodd" clip-rule="evenodd" d="M65.8503 67.1495C66.7213 67.4131 67.4894 69.5524 68.012 70.72C70.9339 77.3035 73.5549 83.8117 76.3818 90.4479C78.1001 94.508 79.6284 98.3873 81.3309 102.365C81.9089 103.713 82.3207 105.106 82.8512 106.462C83.8885 109.151 85.2267 111.735 86.2799 114.281C86.8421 115.63 87.3885 116.955 87.9507 118.228C89.0276 120.639 89.8907 122.748 90.9043 125.286C90.9043 125.354 90.8409 125.399 90.9043 125.512C91.1181 125.889 91.2052 126.371 91.4665 127.019C91.7278 127.667 92.2979 128.42 91.704 129.075C90.7696 129.075 90.6271 128.051 90.35 127.478C89.8727 126.64 89.4444 125.778 89.0672 124.895C88.9247 124.503 88.4891 123.712 88.1962 123.079C87.1113 120.729 86.0107 118.168 84.9258 115.788C84.2765 114.379 83.5401 112.729 82.8512 111.163C82.5503 110.5 82.3523 109.777 82.0594 109.114C81.7664 108.451 81.4259 108.014 81.1804 107.442C80.9349 106.869 80.6657 106.056 80.3886 105.393C79.6442 103.66 78.8049 101.935 78.0764 100.233C74.1726 91.1937 70.4826 81.4012 66.8322 71.6088C66.3254 70.2755 65.3594 68.3999 65.6286 67.2098C65.6207 67.1646 65.882 66.9988 65.8503 67.1495Z" fill="white"/>
<path d="M63.2372 68.5054C63.2173 68.4592 63.1879 68.4171 63.1507 68.3818C63.1136 68.3464 63.0694 68.3185 63.0207 68.2995C62.9721 68.2806 62.92 68.2711 62.8674 68.2715C62.8148 68.2719 62.7629 68.2823 62.7146 68.302L61.1309 68.9272C61.1309 69.0101 61.1943 69.0854 61.218 69.1608L61.3922 69.6504L63.0155 68.995C63.1119 68.9566 63.1888 68.8841 63.2302 68.7928C63.2715 68.7015 63.274 68.5985 63.2372 68.5054Z" fill="#1A4E72"/>
<path d="M64.8843 72.3169C64.8438 72.2234 64.7663 72.1488 64.6685 72.1093C64.5707 72.0698 64.4604 72.0686 64.3616 72.1059L62.6592 72.7914L62.968 73.492L64.6705 72.8065C64.7188 72.7883 64.7629 72.7611 64.7999 72.7265C64.837 72.6918 64.8664 72.6504 64.8864 72.6047C64.9063 72.5591 64.9164 72.5101 64.916 72.4606C64.9157 72.4111 64.9049 72.3623 64.8843 72.3169Z" fill="#1A4E72"/>
<path d="M66.5709 76.0832C66.551 76.037 66.5216 75.9949 66.4844 75.9596C66.4472 75.9242 66.403 75.8963 66.3544 75.8773C66.3057 75.8584 66.2536 75.8489 66.2011 75.8493C66.1485 75.8497 66.0966 75.8601 66.0483 75.8799L64.3458 76.5578L64.6546 77.2583L66.3571 76.5729C66.4062 76.5556 66.451 76.5289 66.4887 76.4944C66.5264 76.4599 66.5562 76.4184 66.5763 76.3724C66.5964 76.3265 66.6062 76.2771 66.6053 76.2273C66.6044 76.1775 66.5927 76.1285 66.5709 76.0832Z" fill="#1A4E72"/>
<path d="M68.2417 79.8495C68.1983 79.7569 68.1182 79.6843 68.0188 79.6476C67.9195 79.6109 67.8088 79.6131 67.7111 79.6537L66.0166 80.3316L66.3254 81.0322L68.0279 80.3542C68.1253 80.3128 68.2021 80.2371 68.2419 80.1429C68.2818 80.0488 68.2817 79.9436 68.2417 79.8495Z" fill="#1A4E72"/>
<path d="M69.9046 83.6159C69.8611 83.525 69.7828 83.4534 69.6857 83.4156C69.5885 83.3778 69.4799 83.3767 69.3819 83.4125L67.6953 84.0905L68.0041 84.7985L69.6908 84.1206C69.7397 84.1009 69.784 84.0722 69.8213 84.0361C69.8585 84 69.8879 83.9573 69.9078 83.9105C69.9276 83.8636 69.9376 83.8134 69.937 83.7629C69.9365 83.7123 69.9254 83.6624 69.9046 83.6159Z" fill="#1A4E72"/>
<path d="M71.5753 87.3822C71.5318 87.2895 71.4522 87.2165 71.3532 87.1785C71.2543 87.1406 71.1437 87.1407 71.0448 87.1788L69.3661 87.8567L69.6749 88.5573L71.3615 87.8793C71.4102 87.8604 71.4544 87.8324 71.4915 87.797C71.5287 87.7617 71.5581 87.7196 71.578 87.6734C71.5979 87.6271 71.6079 87.5775 71.6074 87.5275C71.607 87.4775 71.5961 87.4281 71.5753 87.3822Z" fill="#1A4E72"/>
<path d="M73.2382 91.1485C73.2183 91.1022 73.1889 91.0602 73.1517 91.0248C73.1146 90.9895 73.0704 90.9615 73.0217 90.9426C72.9731 90.9237 72.921 90.9141 72.8684 90.9146C72.8158 90.915 72.7639 90.9254 72.7156 90.9451L71.0369 91.6155L71.3457 92.316L73.0323 91.6456C73.0803 91.626 73.1237 91.5975 73.16 91.5618C73.1963 91.5262 73.2249 91.484 73.244 91.4378C73.2632 91.3916 73.2725 91.3423 73.2715 91.2926C73.2705 91.2429 73.2592 91.194 73.2382 91.1485Z" fill="#1A4E72"/>
<path d="M74.9644 94.9148C74.924 94.8213 74.8465 94.7467 74.7487 94.7073C74.6508 94.6678 74.5406 94.6666 74.4418 94.7039L72.7077 95.3969L73.0165 96.0974L74.7506 95.4044C74.799 95.3863 74.843 95.3591 74.8801 95.3244C74.9172 95.2898 74.9466 95.2484 74.9665 95.2027C74.9865 95.157 74.9966 95.108 74.9962 95.0586C74.9958 95.0091 74.985 94.9602 74.9644 94.9148Z" fill="#1A4E72"/>
<path d="M76.6352 98.6811C76.5933 98.5889 76.5152 98.5161 76.4175 98.4781C76.3198 98.4401 76.2104 98.4399 76.1126 98.4777L74.3705 99.1707L74.6794 99.8712L76.4214 99.1707C76.4705 99.1534 76.5153 99.1267 76.553 99.0922C76.5907 99.0578 76.6206 99.0162 76.6406 98.9703C76.6607 98.9243 76.6706 98.8749 76.6696 98.8251C76.6687 98.7754 76.657 98.7263 76.6352 98.6811Z" fill="#1A4E72"/>
<path d="M78.2981 102.447C78.2782 102.401 78.2488 102.359 78.2116 102.324C78.1745 102.288 78.1303 102.26 78.0816 102.242C78.033 102.223 77.9809 102.213 77.9283 102.214C77.8757 102.214 77.8238 102.224 77.7755 102.244L76.0334 102.937L76.3423 103.645L78.0922 102.945C78.1402 102.925 78.1836 102.896 78.2199 102.861C78.2562 102.825 78.2848 102.783 78.3039 102.737C78.323 102.691 78.3324 102.641 78.3314 102.592C78.3304 102.542 78.3191 102.493 78.2981 102.447Z" fill="#1A4E72"/>
<path d="M79.9689 106.214C79.9269 106.122 79.8492 106.048 79.7519 106.009C79.6546 105.97 79.5452 105.968 79.4463 106.003L77.6963 106.711C77.7992 106.945 77.8942 107.178 78.0051 107.412L79.7551 106.711C79.8519 106.671 79.9285 106.597 79.9685 106.504C80.0085 106.411 80.0086 106.307 79.9689 106.214Z" fill="#1A4E72"/>
<path d="M81.6318 109.98C81.612 109.934 81.5825 109.892 81.5452 109.857C81.5079 109.822 81.4634 109.794 81.4146 109.776C81.3657 109.757 81.3134 109.749 81.2609 109.75C81.2084 109.752 81.1568 109.763 81.1092 109.784L79.3513 110.485L79.6601 111.185L81.4259 110.477C81.4753 110.459 81.5202 110.432 81.5578 110.396C81.5954 110.361 81.6248 110.319 81.6442 110.272C81.6636 110.225 81.6725 110.175 81.6703 110.125C81.6682 110.075 81.6551 110.025 81.6318 109.98Z" fill="#1A4E72"/>
<path d="M83.3026 113.746C83.2607 113.654 83.1825 113.581 83.0848 113.543C82.9872 113.505 82.8777 113.505 82.78 113.543L81.0062 114.259L81.315 114.959L83.0888 114.244C83.1374 114.225 83.1816 114.197 83.2188 114.161C83.2559 114.126 83.2853 114.084 83.3052 114.038C83.3251 113.991 83.3351 113.942 83.3347 113.892C83.3342 113.842 83.3233 113.792 83.3026 113.746Z" fill="#1A4E72"/>
<path d="M84.9813 117.513C84.9614 117.466 84.932 117.424 84.8948 117.389C84.8576 117.354 84.8134 117.326 84.7648 117.307C84.7161 117.288 84.664 117.278 84.6115 117.279C84.5589 117.279 84.5069 117.29 84.4587 117.309L82.6612 118.063L82.97 118.763L84.7675 118.048C84.8213 118.029 84.8702 118 84.911 117.962C84.9518 117.924 84.9834 117.878 85.0038 117.827C85.0241 117.776 85.0326 117.722 85.0287 117.667C85.0248 117.613 85.0086 117.56 84.9813 117.513Z" fill="#1A4E72"/>
<path d="M86.6442 121.279C86.6037 121.186 86.5262 121.111 86.4284 121.071C86.3305 121.032 86.2203 121.031 86.1215 121.068L84.3161 121.821L84.625 122.522L86.4383 121.769C86.4859 121.75 86.5292 121.722 86.5654 121.687C86.6017 121.652 86.6302 121.611 86.6494 121.565C86.6685 121.519 86.678 121.471 86.6771 121.421C86.6762 121.372 86.665 121.324 86.6442 121.279Z" fill="#1A4E72"/>
<path d="M88.3149 125.045C88.295 124.999 88.2656 124.957 88.2285 124.922C88.1913 124.886 88.1471 124.858 88.0984 124.839C88.0498 124.821 87.9977 124.811 87.9451 124.811C87.8926 124.812 87.8406 124.822 87.7923 124.842L85.9632 125.595L86.272 126.303L88.1091 125.55C88.158 125.53 88.2023 125.502 88.2393 125.465C88.2763 125.429 88.3052 125.386 88.3245 125.339C88.3437 125.292 88.3527 125.242 88.3511 125.191C88.3495 125.141 88.3372 125.091 88.3149 125.045Z" fill="#1A4E72"/>
<path d="M89.9857 128.849C89.9437 128.757 89.866 128.684 89.7687 128.645C89.6715 128.605 89.562 128.603 89.4631 128.638L87.5944 129.392C87.6973 129.625 87.7923 129.859 87.8953 130.1L89.7719 129.346C89.8688 129.307 89.9454 129.232 89.9854 129.139C90.0253 129.046 90.0254 128.942 89.9857 128.849Z" fill="#1A4E72"/>
<path d="M91.6486 132.616C91.6279 132.57 91.598 132.529 91.5605 132.494C91.523 132.46 91.4787 132.432 91.4301 132.414C91.3816 132.396 91.3297 132.387 91.2775 132.388C91.2253 132.389 91.1738 132.4 91.126 132.42L89.2256 133.173C89.3285 133.414 89.4314 133.64 89.5423 133.881L91.4427 133.128C91.4934 133.109 91.5395 133.081 91.5778 133.044C91.6162 133.007 91.6461 132.964 91.6655 132.915C91.6849 132.867 91.6934 132.815 91.6905 132.764C91.6876 132.712 91.6733 132.662 91.6486 132.616Z" fill="#1A4E72"/>
<path d="M93.3115 136.39C93.2712 136.298 93.1945 136.225 93.0981 136.187C93.0017 136.149 92.8934 136.149 92.7968 136.186L90.9043 136.939C91.0072 137.173 91.1181 137.406 91.2289 137.632L93.1056 136.879C93.2005 136.839 93.2751 136.766 93.3136 136.674C93.3521 136.583 93.3514 136.481 93.3115 136.39Z" fill="#1A4E72"/>
<path d="M57.3776 60.7995C57.2473 60.5264 57.2349 60.2156 57.343 59.9339C57.4511 59.6522 57.6711 59.422 57.9556 59.293L60.8696 58.0049C61.1557 57.8805 61.4817 57.8676 61.7777 57.9689C62.0737 58.0703 62.3162 58.2779 62.4533 58.5472L64.5279 62.7429C64.6603 63.0157 64.6738 63.3273 64.5655 63.6096C64.4572 63.8919 64.2359 64.1219 63.9499 64.2494L61.0359 65.5375C60.8945 65.6011 60.7414 65.6376 60.5851 65.6447C60.4289 65.6519 60.2728 65.6297 60.1256 65.5793C59.9785 65.5289 59.8433 65.4513 59.7277 65.3511C59.6121 65.2509 59.5185 65.1299 59.4522 64.9952L57.3776 60.7995Z" fill="#B9D5E8"/>
<path d="M57.0767 56.2875C57.0585 56.1363 57.0888 55.9834 57.1637 55.849C57.2386 55.7145 57.3546 55.6048 57.4964 55.5343L58.2882 55.2028C58.4395 55.1421 58.6068 55.1276 58.7672 55.1613C58.9275 55.1951 59.0728 55.2754 59.183 55.3911C59.2305 55.4363 61.123 57.9296 61.123 57.9296C61.2069 58.0995 61.2165 58.294 61.1497 58.4706C61.0828 58.6471 60.9451 58.7912 60.7667 58.8712L58.9375 59.6923C58.7566 59.763 58.5545 59.7675 58.3703 59.7049C58.1861 59.6423 58.0327 59.5171 57.9398 59.3533L57.148 56.2875" fill="#B9D5E8"/>
<path d="M57.6943 55.6774L58.2565 55.4288L51.9217 43.0677C51.9085 43.0464 51.8872 43.0307 51.8622 43.0237C51.8373 43.0167 51.8104 43.019 51.7871 43.0301C51.7638 43.04 51.7452 43.0579 51.735 43.0801C51.7247 43.1024 51.7236 43.1275 51.7317 43.1506L57.6943 55.6774Z" fill="#1A4E72"/>
<path d="M57.2905 55.6322C57.2605 55.5712 57.257 55.5014 57.2807 55.438C57.3044 55.3745 57.3535 55.3225 57.4172 55.2932L58.1061 54.9844C58.1376 54.9692 58.1721 54.9603 58.2074 54.9582C58.2427 54.9561 58.278 54.9608 58.3114 54.9721C58.3447 54.9833 58.3752 55.0009 58.4012 55.0237C58.4272 55.0466 58.448 55.0742 58.4624 55.1049C58.4782 55.1344 58.4875 55.1666 58.4896 55.1996C58.4917 55.2326 58.4867 55.2657 58.4748 55.2968C58.4629 55.3279 58.4445 55.3563 58.4205 55.3803C58.3966 55.4043 58.3677 55.4234 58.3357 55.4363L57.6389 55.7527C57.5754 55.7771 57.5047 55.7783 57.4404 55.756C57.3761 55.7338 57.3227 55.6896 57.2905 55.6322Z" fill="#1A4E72"/>
<path d="M58.5495 66.4791C58.5109 66.4041 58.4884 66.3226 58.4835 66.2392C58.4786 66.1558 58.4912 66.0724 58.5207 65.9937C58.5503 65.9151 58.596 65.8429 58.6554 65.7813C58.7147 65.7198 58.7864 65.6702 58.8662 65.6355L65.4702 62.6902C65.5499 62.6498 65.6374 62.6252 65.7274 62.618C65.8174 62.6108 65.908 62.6211 65.9937 62.6483C66.0794 62.6755 66.1583 62.719 66.2257 62.7761C66.2932 62.8333 66.3476 62.9029 66.3859 62.9807C66.4241 63.0586 66.4452 63.143 66.448 63.2289C66.4509 63.3147 66.4352 63.4003 66.4022 63.4802C66.3691 63.5602 66.3193 63.6329 66.2557 63.6939C66.1921 63.7549 66.1162 63.803 66.0324 63.8352L59.4285 66.788C59.3497 66.8243 59.2641 66.8452 59.1767 66.8493C59.0893 66.8534 59.0019 66.8406 58.9198 66.8118C58.8377 66.7829 58.7626 66.7386 58.6989 66.6814C58.6353 66.6243 58.5845 66.5555 58.5495 66.4791Z" fill="#5BBC99"/>
<path fill-rule="evenodd" clip-rule="evenodd" d="M100.256 140.442C101.555 140.57 102.869 140.201 103.74 140.841C104.397 141.331 104.762 142.348 105.181 143.184C106.467 145.776 107.573 148.446 108.491 151.176C108.966 151.003 109.932 150.754 110.447 151.101C111.461 152.607 108.491 153.428 107.05 154.001C103.653 155.364 100.066 156.856 96.5264 158.204C95.5524 158.573 93.5965 159.304 93.359 158.038C93.1769 156.954 94.6022 156.735 94.9427 156.426C94.3725 155.153 93.7232 153.474 92.9947 151.741C92.2226 150.198 91.6509 148.572 91.2923 146.898C91.1843 146.293 91.2544 145.672 91.4948 145.103C91.7352 144.534 92.1365 144.039 92.6542 143.674C91.9574 143.885 91.2764 144.223 90.445 144.48C89.6668 144.797 88.829 144.961 87.9823 144.962C87.531 144.901 87.0005 144.525 86.9688 144.156C86.8738 143.222 89.1305 142.393 90.3658 141.813C92.8443 140.645 95.7424 139.229 98.3397 138.258C99.7991 137.711 101.303 137.281 102.837 136.97C103.629 136.834 104.207 137.098 104.279 137.452C104.437 138.288 103.067 138.883 102.497 139.229C101.811 139.729 101.057 140.137 100.256 140.442Z" fill="#5BBC99"/>
<path fill-rule="evenodd" clip-rule="evenodd" d="M93.7866 149.285C92.8364 149.09 93.4461 151.417 94.1746 150.792C94.5547 150.521 94.1033 149.617 93.7866 149.285Z" fill="white"/>
<path fill-rule="evenodd" clip-rule="evenodd" d="M92.5434 148.186C92.6622 148.344 93.0027 148.607 93.3352 148.351C93.6678 148.095 93.557 146.995 93.557 146.581C93.557 146.167 93.8183 145.12 93.2957 144.834C92.5592 144.419 92.4246 145.888 92.4009 146.4C92.4009 146.672 92.4009 146.935 92.4009 147.154C92.385 147.553 92.3058 147.877 92.5434 148.186Z" fill="white"/>
<path fill-rule="evenodd" clip-rule="evenodd" d="M106.417 148.833C106.204 149.627 106.204 150.458 106.417 151.251C106.488 151.651 106.614 152.298 107.002 152.276C107.39 152.253 107.446 151.523 107.43 151.229C107.419 150.401 107.242 149.583 106.907 148.818C106.83 148.784 106.745 148.768 106.66 148.77C106.575 148.773 106.491 148.795 106.417 148.833Z" fill="white"/>
<path fill-rule="evenodd" clip-rule="evenodd" d="M105.466 151.349C104.508 151.221 104.579 153.24 105.371 153.127C105.72 153.082 106.076 152.095 105.886 151.62C105.847 151.545 105.787 151.48 105.714 151.432C105.64 151.385 105.555 151.356 105.466 151.349Z" fill="white"/>
<path fill-rule="evenodd" clip-rule="evenodd" d="M229.057 73.2736C234.422 73.6008 239.744 74.3925 244.958 75.6388C244.894 76.5955 244.768 77.3563 244.665 78.1924C244.457 79.0754 244.457 79.991 244.665 80.874C245.108 82.2299 247.61 82.712 248.505 83.7967C249.18 84.6233 249.543 85.6423 249.535 86.6892C249.503 87.4616 249.421 88.2314 249.289 88.9942C249.067 91.1334 248.632 93.461 248.291 95.6756C247.143 103.05 245.916 110.387 244.372 117.46C244.169 118.839 243.784 120.188 243.224 121.475C242.617 122.493 241.744 123.344 240.69 123.946C238.845 124.789 236.081 124.42 234.149 124.232C231.773 124.006 230.031 123.629 228.163 123.411C226.169 123.196 224.191 122.863 222.24 122.416C220.474 122.002 218.383 121.4 217.378 120.262C215.651 118.319 215.929 115.502 216.214 112.586C216.364 111.08 216.618 109.483 216.8 108.135C217.774 100.79 219.001 93.5439 220.292 86.29C220.403 85.612 220.577 84.8889 220.727 84.2109C221.131 82.3052 221.717 80.6028 223.451 79.7742C224.734 79.1641 226.531 79.3147 227.41 78.5464C228.479 77.5898 228.345 75.0513 229.057 73.2736Z" fill="#5BBC99"/>
<path fill-rule="evenodd" clip-rule="evenodd" d="M221.099 91.9998C220.846 90.3953 221.622 87.7514 222.984 87.6534C224.091 87.6602 225.193 87.7866 226.27 88.0301C232.419 88.8629 238.487 90.1729 244.411 91.947C245.369 92.2559 246.581 92.7003 246.787 93.318C246.881 94.0325 246.822 94.7576 246.613 95.4497C246.169 97.4609 244.403 97.2048 242.25 96.8056C239.225 96.2482 236.026 95.3518 233.056 94.8622C229.849 94.3349 226.793 93.8528 223.633 93.1899C222.665 93.0991 221.764 92.6761 221.099 91.9998Z" fill="#295E4B"/>
<path d="M221.883 102.96C226.508 103.713 230.839 104.549 235.4 105.332C236.604 105.543 238.195 105.717 239.731 105.845C240.262 105.897 242.107 106.357 242.25 105.498C242.297 105.122 241.687 104.745 241.196 104.557C240.711 104.378 240.21 104.239 239.7 104.142C234.574 102.729 229.365 101.605 224.1 100.775C222.077 100.353 220.018 100.101 217.948 100.022C217.837 100.722 217.734 101.431 217.631 102.131C217.964 102.214 218.288 102.282 218.565 102.342C219.817 102.598 220.957 102.817 221.883 102.96Z" fill="#295E4B"/>
<path d="M226.801 108.474C227.909 108.639 230.483 109.106 230.506 107.999C230.506 107.14 228.669 106.801 227.513 106.492C225.035 105.927 222.327 105.543 220.015 105.182C219.294 105.069 218.193 104.783 217.251 104.715C217.164 105.295 217.085 105.875 217.006 106.447H217.093C220.281 107.315 223.523 107.991 226.801 108.474Z" fill="#295E4B"/>
<path d="M236.319 114.583C236.841 114.643 239.169 114.952 239.343 114.176C239.589 113.114 237.641 112.858 237.126 112.707C234.221 111.933 231.27 111.324 228.289 110.884C225.218 110.308 222.118 109.881 219.001 109.603C218.304 109.558 217.378 109.475 216.586 109.498C216.475 110.251 216.372 111.005 216.277 111.758C217.861 112.014 219.5 112.157 221.115 112.345C226.373 112.993 230.974 113.935 236.319 114.583Z" fill="#295E4B"/>
<path fill-rule="evenodd" clip-rule="evenodd" d="M225.518 64.9651C226.492 64.6487 228.353 64.8521 229.533 65.0178C235.172 65.7822 240.747 66.925 246.217 68.4376C247.8 68.8745 251.221 69.5524 251.76 71.1795C252.061 72.106 251.601 73.718 251.38 74.4637C251.158 75.2094 250.714 76.6632 250.065 77.0474C249.194 77.5521 247.626 77.2734 246.478 77.0474C243.057 76.2941 240.048 75.5409 236.501 75.0211C233.111 74.6057 229.757 73.9537 226.468 73.0702C225.328 72.7312 224.093 72.3169 223.72 71.4959C223.541 70.8892 223.525 70.2495 223.673 69.6353C223.887 67.6617 223.823 65.5375 225.518 64.9651Z" fill="#E24E6A"/>
<path d="M228.59 65.6882C228.59 66.2908 229.754 66.7804 230.459 67.0366C231.385 67.3755 232.241 67.5488 232.93 67.7446C236.313 68.74 239.77 69.4953 243.271 70.0044C244.063 70.1174 248.426 71.0289 248.608 69.6805C248.621 69.5684 248.61 69.455 248.574 69.3473C248.539 69.2397 248.48 69.1402 248.402 69.0553C247.61 68.8067 246.818 68.6184 246.248 68.4678C240.768 66.9537 235.182 65.8109 229.532 65.0479L229.16 65.0027C228.796 65.0931 228.566 65.2438 228.59 65.6882Z" fill="#FF8C9C"/>
<path fill-rule="evenodd" clip-rule="evenodd" d="M231.56 121.482C232.28 121.068 233.698 121.061 235.091 121.136C235.693 121.174 236.675 121.241 236.675 121.754C236.675 122.266 235.598 122.454 235.202 122.507C233.993 122.616 232.773 122.506 231.607 122.183C231.54 122.079 231.501 121.96 231.492 121.838C231.484 121.716 231.507 121.594 231.56 121.482Z" fill="white"/>
<path fill-rule="evenodd" clip-rule="evenodd" d="M236.715 120.142C236.382 118.891 239.343 118.635 239.304 119.742C239.304 120.209 237.902 120.82 237.19 120.646C237.07 120.61 236.964 120.544 236.88 120.455C236.797 120.367 236.739 120.258 236.715 120.142Z" fill="white"/>
<path fill-rule="evenodd" clip-rule="evenodd" d="M239.882 121.949C239.573 121.595 239.882 121.008 240.42 120.571C240.959 120.134 241.83 119.735 242.075 120.3C242.101 120.515 242.067 120.732 241.977 120.93C241.886 121.128 241.743 121.301 241.561 121.43C241.022 121.867 240.238 122.401 239.882 121.949Z" fill="white"/>
<path fill-rule="evenodd" clip-rule="evenodd" d="M227.379 81.5217C227.482 82.275 224.599 82.1997 224.496 81.6724C224.33 80.8137 227.371 80.889 227.379 81.5217Z" fill="white"/>
<path fill-rule="evenodd" clip-rule="evenodd" d="M228.479 81.4088C228.867 81.1226 230.15 81.3335 231.132 81.4465C234.921 81.8804 238.664 82.6213 242.321 83.6611C243.013 83.8544 243.695 84.0807 244.364 84.339C244.926 84.565 245.995 84.9115 245.876 85.5593C245.734 86.3126 244.293 85.8907 243.762 85.7853C239.937 84.9718 236.54 84.0076 232.605 83.0811C232.011 82.9379 231.219 82.8099 230.324 82.5914C229.43 82.373 227.893 82.1094 228.479 81.4088Z" fill="white"/>
<path fill-rule="evenodd" clip-rule="evenodd" d="M229.469 67.4659C229.889 66.8633 227.268 65.7108 226.935 66.1477C226.421 66.8483 229.168 68.0309 229.469 67.4659Z" fill="white"/>
<path fill-rule="evenodd" clip-rule="evenodd" d="M230.38 68.0233C230.602 68.4376 231.861 68.7766 232.755 69.0779C236.364 70.2513 240.073 71.1234 243.841 71.6842C244.552 71.7964 245.268 71.8743 245.987 71.9177C246.597 71.9177 247.721 72.0759 247.903 71.4356C248.085 70.7953 246.605 70.479 246.106 70.366C242.289 69.5298 238.789 68.995 234.814 68.2192C234.22 68.0986 233.444 67.8877 232.534 67.7145C231.829 67.5714 230.214 67.1269 230.38 68.0233Z" fill="white"/>
<path fill-rule="evenodd" clip-rule="evenodd" d="M156.406 26.5034C157.522 26.9629 157.554 28.492 157.696 29.6596C158.033 31.9525 158.173 34.2676 158.116 36.5821C158.069 37.5689 157.91 38.8419 156.794 39.0905C155.622 38.3824 155.495 36.7553 155.257 35.4974C154.687 32.3939 154.838 28.7632 155.851 26.8725C155.946 26.6767 156.097 26.5561 156.406 26.5034Z" fill="#E24E6A"/>
<path fill-rule="evenodd" clip-rule="evenodd" d="M158.076 41.1393C159.161 42.4349 159.343 44.9659 159.51 46.9696C159.605 48.0693 160.238 51.8884 158.718 52.0767C157.395 52.2349 157.007 48.9431 156.81 46.962C156.58 44.7022 156.239 41.6892 157.324 41.1845C157.617 41.0414 157.863 41.1996 158.076 41.1393Z" fill="#E24E6A"/>
<path fill-rule="evenodd" clip-rule="evenodd" d="M162.447 26.0138C163.342 26.639 163.239 27.9873 163.311 29.0268C163.493 31.1812 163.675 33.1999 163.73 35.4522C163.73 36.3184 163.999 37.953 162.938 38.0886C161.545 38.2694 161.355 34.0511 161.244 32.8158C161.022 30.6313 160.903 27.9647 161.616 26.4582C161.703 26.1795 162.052 26.0816 162.447 26.0138Z" fill="#E24E6A"/>
<path fill-rule="evenodd" clip-rule="evenodd" d="M164.459 25.8105C165.053 25.4489 167.389 25.3736 168.869 25.3208C169.954 25.3208 172.322 25.0798 172.401 26.0138C172.456 26.6842 171.181 26.9705 169.97 27.1663C168.513 27.3999 164.182 27.8141 163.897 26.6767C163.762 26.1042 164.063 26.0515 164.459 25.8105Z" fill="#E24E6A"/>
<path fill-rule="evenodd" clip-rule="evenodd" d="M174.547 25.2831C176.035 24.7634 176.614 29.6747 176.804 31.3092C177.081 33.6067 177.508 36.7252 176.107 36.8759C174.705 37.0265 174.301 33.1095 174.064 31.1812C173.898 29.863 173.201 25.7577 174.547 25.2831Z" fill="#E24E6A"/>
<path fill-rule="evenodd" clip-rule="evenodd" d="M164.657 51.1201C163.706 50.5551 163.437 48.5967 163.16 47.1429C162.709 44.9101 162.579 42.6296 162.772 40.3635C163.413 40.0471 163.564 40.2204 164.087 40.4388C164.709 42.7349 165.062 45.0893 165.14 47.4592C165.235 48.7247 165.773 50.4045 164.657 51.1201Z" fill="#E24E6A"/>
<path fill-rule="evenodd" clip-rule="evenodd" d="M176.843 38.7967C178.118 40.7326 178.427 43.3916 178.561 46.2842C178.617 47.399 178.973 50.2764 177.492 50.3367C176.21 50.3894 175.671 46.9546 175.497 44.8755C175.307 42.5329 175.228 40.356 175.679 39.3014C175.861 38.872 176.202 38.7063 176.843 38.7967Z" fill="#E24E6A"/>
<path fill-rule="evenodd" clip-rule="evenodd" d="M166.826 50.6229C167.75 50.3549 168.692 50.146 169.645 49.9977C171.158 49.7642 174.943 49.3122 175.046 50.3894C175.133 51.2406 173.169 51.4515 171.728 51.6247C170.287 51.798 168.869 51.8131 168.062 51.9486C167.254 52.0842 166.399 52.5814 166.074 51.7754C165.749 50.9694 166.351 50.8715 166.826 50.6229Z" fill="#E24E6A"/>
<path fill-rule="evenodd" clip-rule="evenodd" d="M191.579 23.4828C191.492 24.3641 190.202 24.3943 189.394 24.5901C186.425 25.2982 182.576 26.0966 180.684 25.3434C180.351 24.1381 182.79 23.9423 184.413 23.6561C185.593 23.4451 187.042 23.2719 188.293 23.1589C189.639 22.9856 191.112 22.7973 191.579 23.4828Z" fill="#E24E6A"/>
<path fill-rule="evenodd" clip-rule="evenodd" d="M180.597 26.1796C181.333 27.4978 181.388 29.396 181.768 31.4524C181.982 32.7104 183.067 35.8816 181.515 36.1829C180.319 36.4164 180.113 34.4278 179.876 33.2301C179.417 30.9176 179.084 27.7012 179.615 26.398C179.702 25.9762 180.248 26.1193 180.597 26.1796Z" fill="#E24E6A"/>
<path fill-rule="evenodd" clip-rule="evenodd" d="M182.513 36.5746C183.811 35.9795 186.472 35.8816 188.515 35.7309C189.766 35.6405 193.409 34.8421 193.607 35.9494C193.789 36.9211 191.231 37.3128 189.734 37.5538C188.943 37.6744 186.868 37.9229 185.332 38.0359C184.049 38.1338 181.776 38.292 181.586 37.5237C181.396 36.7554 181.887 36.8608 182.513 36.5746Z" fill="#E24E6A"/>
<path fill-rule="evenodd" clip-rule="evenodd" d="M194.786 37.0416C195.911 38.4653 195.784 40.9058 196.006 43.0677C196.101 44.0093 196.243 45.1693 196.386 46.1862C196.505 47.0449 196.94 48.5515 195.594 48.5816C194.707 48.2502 194.739 46.9621 194.478 45.6363C193.931 42.8342 193.036 38.857 193.686 37.5764C193.82 37.1169 194.09 36.9512 194.786 37.0416Z" fill="#E24E6A"/>
<path fill-rule="evenodd" clip-rule="evenodd" d="M183.21 48.8453C184.35 48.1824 186.908 48.092 189.307 47.8585C190.795 47.6928 194.208 47.2107 194.24 48.4762C194.272 49.7416 189.576 49.9827 188.317 50.171C187.296 50.2915 183.122 50.9243 182.608 50.0881C182.093 49.252 182.719 49.1315 183.21 48.8453Z" fill="#E24E6A"/>
</svg>
