<svg width="239" height="184" viewBox="0 0 239 184" fill="none" xmlns="http://www.w3.org/2000/svg">
<path d="M29.9941 15.4525H26.7864V136.757H29.9941V15.4525Z" fill="#A00808"/>
<path d="M27.9398 15.4525H26.7864V136.757H27.9398V15.4525Z" fill="#FF0606"/>
<path d="M46.1244 84.8514L45.7112 93.7108L44.839 112.658L42.8134 156.45H11.9299L9.91001 112.658L9.02631 93.7108L8.6189 84.8514H46.1244Z" fill="#4D9134"/>
<path d="M46.1244 84.8514L45.7112 93.7108L44.839 112.658H9.91001L9.02631 93.7108L8.6189 84.8514H46.1244Z" fill="#92CC76"/>
<path d="M9.02634 93.7108H45.7113L44.839 112.658H9.91003L9.02634 93.7108Z" fill="#60A842"/>
<g style="mix-blend-mode:multiply" opacity="0.46">
<path d="M32.7026 84.8514L32.278 93.7108L31.3713 112.658L29.2768 156.45H42.6987L44.7932 112.658L45.6998 93.7108L46.1245 84.8514H32.7026Z" fill="#4D9134"/>
</g>
<g style="mix-blend-mode:screen">
<path d="M22.4769 151.395C27.6141 151.395 31.7787 137.003 31.7787 119.249C31.7787 101.496 27.6141 87.1038 22.4769 87.1038C17.3397 87.1038 13.1751 101.496 13.1751 119.249C13.1751 137.003 17.3397 151.395 22.4769 151.395Z" fill="#6F5C93"/>
</g>
<path d="M49.4699 76.5569C49.4699 76.6548 49.4699 76.7452 49.4699 76.8432H6.43268C6.43268 76.7452 6.43268 76.6548 6.43268 76.5569C6.43268 67.0044 10.4495 58.6196 16.5436 53.8961H39.3533C45.4244 58.6196 49.4699 67.0044 49.4699 76.5569Z" fill="#AF7792"/>
<path d="M39.4565 76.5569C39.4565 76.6548 39.4565 76.7452 39.4565 76.8432H11.4249C11.4249 76.7452 11.4249 76.6548 11.4249 76.5569C11.4249 67.0044 14.0588 58.6196 18.0125 53.8961H32.8746C36.8226 58.6196 39.4565 67.0044 39.4565 76.5569Z" fill="#DD92B9"/>
<path d="M51.6446 78.576V82.1167H2.96667V78.576C2.99184 78.0089 3.18713 77.4781 3.50978 77.0997C3.83244 76.7213 4.25616 76.5261 4.68816 76.557H49.9231C50.3552 76.5261 50.7789 76.7213 51.1015 77.0997C51.4242 77.4781 51.6195 78.0089 51.6446 78.576V78.576Z" fill="#D887B1"/>
<path d="M53.5727 80.0751H0V82.0865H53.5727V80.0751Z" fill="#AF7792"/>
<g opacity="0.5">
<path opacity="0.5" d="M29.9883 53.8961H26.7864V82.0865H29.9883V53.8961Z" fill="#A00808"/>
<path opacity="0.5" d="M27.9398 53.8961H26.7864V82.0865H27.9398V53.8961Z" fill="#FF0606"/>
</g>
<path d="M48.7467 82.0865H6.41534V84.8513H48.7467V82.0865Z" fill="black"/>
<path d="M182.656 86.0792C184.136 85.4841 186.162 86.5162 186.345 88.3393C186.512 89.9816 188.176 90.3959 188.239 90.4411C190.414 91.2849 190.781 89.0098 192.83 89.4166C192.99 89.4768 194.293 89.4768 194.964 90.863C195.791 92.5731 198.683 92.7389 199.641 90.9459C200.399 89.5296 202.625 89.055 203.928 90.3206C205.23 91.5862 208.065 90.8329 208.352 88.8139C208.587 87.1189 210.601 86.0642 212.162 86.7723C213.849 87.5257 216.23 85.8758 215.794 83.8418C215.45 82.2447 216.896 80.4969 218.664 80.6325C220.54 80.7681 222.17 78.3724 221.074 76.6473C220.161 75.2008 221.022 73.114 222.669 72.6545C224.585 72.1196 225.119 69.3021 223.558 68.1344C223.255 67.9253 223.003 67.6078 222.832 67.2185C222.66 66.8293 222.576 66.3843 222.59 65.935C222.603 65.4858 222.713 65.0506 222.906 64.6799C223.1 64.3092 223.37 64.0181 223.685 63.8403C225.228 62.7328 224.901 59.8776 222.95 59.2524C221.389 58.7476 220.574 56.6458 221.584 55.1692C222.594 53.6926 221.361 51.0333 219.289 51.1086C217.682 51.1689 216.15 49.504 216.598 47.7411C216.902 46.5734 216.248 45.5188 215.203 44.8859L179.138 84.339C179.534 85.4916 181.106 86.697 182.656 86.0792Z" fill="#7BCE45"/>
<path d="M206.16 65.4525C206.831 64.1718 208.851 63.1925 210.062 64.0136C211.273 64.8348 213.803 63.6294 214.079 61.7536C214.308 60.3674 216.076 58.9436 217.568 59.2223C219.232 59.5237 221.24 57.4745 220.913 56.0055C220.586 54.5365 222.089 52.8942 223.535 52.6606H223.564C225.188 52.3894 226.806 50.0616 225.802 48.7884C224.93 47.6885 225.934 45.775 227.305 45.0819C228.866 44.3286 229.693 41.7898 228.178 41.0515C227.937 40.9629 227.725 40.7738 227.574 40.5127C227.423 40.2517 227.341 39.933 227.34 39.605C227.386 39.3866 227.133 38.475 228.344 37.4052C229.698 36.1999 229.561 33.8118 227.736 33.6988C227.46 33.714 227.185 33.6344 226.94 33.468C226.694 33.3015 226.486 33.0539 226.336 32.7495C226.161 32.4112 226.087 32.0006 226.127 31.5953C226.167 31.1901 226.319 30.8181 226.554 30.5497C226.677 30.3978 226.775 30.2134 226.84 30.0085C226.905 29.8036 226.936 29.583 226.932 29.361C226.928 29.139 226.888 28.9208 226.815 28.7206C226.741 28.5203 226.637 28.3427 226.508 28.1993C226.247 27.8885 225.929 27.6712 225.585 27.5683C225.241 27.4654 224.883 27.4803 224.545 27.6117C224.205 27.7515 223.843 27.78 223.492 27.6947C223.141 27.6094 222.811 27.4128 222.531 27.122C222.324 26.9403 222.173 26.6673 222.106 26.3523C222.038 26.0373 222.059 25.7011 222.164 25.4044C222.217 25.2263 222.242 25.0357 222.237 24.8445C222.232 24.6533 222.197 24.4654 222.135 24.2925C222.073 24.1196 221.984 23.9653 221.875 23.839C221.765 23.7128 221.637 23.6174 221.498 23.5586C221.112 23.285 220.68 23.1417 220.242 23.1417C219.803 23.1417 219.371 23.285 218.985 23.5586C217.671 24.3497 215.812 23.9654 215.662 22.4512C215.502 20.7336 212.965 20.6808 211.737 21.9615C211.084 22.632 210.271 22.9787 209.442 22.9409C208.759 22.9786 202.665 66.9819 202.665 66.9819C203.595 67.3359 205.431 66.8839 206.16 65.4525Z" fill="#9AF95D"/>
<path d="M178.461 79.6682C179.132 73.6414 184.624 69.2418 190.724 69.8746C196.824 70.5075 201.225 75.9919 200.553 82.0488C199.882 88.1058 194.385 92.4677 188.285 91.7972C182.185 91.1267 177.784 85.7176 178.461 79.6682Z" fill="#F72130"/>
<path d="M194.454 87.9326L189.588 82.6591L188.83 89.4393C190.774 89.6221 192.719 89.1009 194.454 87.9326V87.9326Z" fill="#F95353"/>
<path d="M190.701 82.0715L195.412 87.1642C196.59 86.1355 197.477 84.6265 197.937 82.8701L190.701 82.0715Z" fill="#F95353"/>
<path d="M190.735 72.3231L189.903 79.8566C192.147 78.3499 194.207 76.9035 196.123 75.3365C194.612 73.6158 192.727 72.5618 190.735 72.3231V72.3231Z" fill="#F95353"/>
<path d="M190.626 80.8359L198.149 81.6646C198.227 80.7025 198.152 79.7296 197.929 78.8076C197.706 77.8855 197.339 77.0344 196.852 76.3082C194.924 77.8903 192.864 79.3292 190.626 80.8359Z" fill="#F95353"/>
<path d="M188.388 82.3351C186.322 83.7213 184.532 84.9568 182.799 86.3128C184.158 87.9002 185.842 88.9296 187.642 89.2735L188.388 82.3351Z" fill="#F95353"/>
<path d="M182.093 85.3184C183.683 84.0678 185.324 82.9303 187.166 81.6872L180.854 80.9941C180.892 82.5756 181.328 84.0959 182.093 85.3184V85.3184Z" fill="#F95353"/>
<path d="M187.579 80.5045L182.834 75.3741C181.827 76.5093 181.145 78.0612 180.9 79.7737L187.579 80.5045Z" fill="#F95353"/>
<path d="M188.664 79.8566L189.507 72.2553C187.443 72.2235 185.418 72.997 183.689 74.4777L188.664 79.8566Z" fill="#F95353"/>
<path d="M193.673 83.7816C193.845 83.5858 193.794 83.2694 193.558 83.0735C193.323 82.8776 192.485 82.6064 192.33 82.8173C192.175 83.0283 192.715 83.5707 192.95 83.7892C193.056 83.8863 193.183 83.9378 193.313 83.9365C193.442 83.9351 193.568 83.881 193.673 83.7816V83.7816Z" fill="#D8901D"/>
<path d="M196.973 78.0938C196.887 77.9694 196.775 77.883 196.65 77.8466C196.526 77.8101 196.396 77.8254 196.278 77.8904C196.003 78.0184 195.395 78.6437 195.521 78.8848C195.647 79.1259 196.393 78.8848 196.669 78.7492C196.944 78.6136 197.082 78.3499 196.973 78.0938Z" fill="#D8901D"/>
<path d="M194.528 80.3538C194.637 80.1203 194.5 79.8265 194.218 79.6984C193.937 79.5703 193.071 79.5477 192.973 79.7963C192.876 80.0449 193.547 80.4367 193.834 80.5497C193.951 80.6155 194.08 80.632 194.205 80.5969C194.329 80.5618 194.442 80.4769 194.528 80.3538V80.3538Z" fill="#D8901D"/>
<path d="M196.772 83.8343C196.835 83.5781 196.651 83.3144 196.353 83.2391C196.055 83.1638 195.205 83.2919 195.142 83.548C195.079 83.8041 195.825 84.0753 196.118 84.1507C196.41 84.226 196.709 84.0829 196.772 83.8343Z" fill="#D8901D"/>
<path d="M192.709 88.8065C192.761 88.7801 192.806 88.7373 192.842 88.682C192.878 88.6266 192.903 88.5604 192.914 88.4894C192.925 88.4184 192.923 88.3447 192.907 88.2751C192.892 88.2056 192.863 88.1422 192.824 88.0908C192.669 87.8347 191.957 87.3375 191.739 87.4731C191.521 87.6087 191.86 88.3244 192.015 88.5805C192.098 88.7096 192.209 88.8011 192.334 88.8417C192.459 88.8823 192.59 88.87 192.709 88.8065V88.8065Z" fill="#D8901D"/>
<path d="M190.511 87.5332C190.634 87.5657 190.762 87.5354 190.869 87.4487C190.975 87.3619 191.053 87.2251 191.085 87.0661C191.137 86.7723 190.93 85.9135 190.666 85.8984C190.402 85.8834 190.202 86.6518 190.15 86.923C190.142 86.9945 190.145 87.0673 190.159 87.1372C190.173 87.2071 190.198 87.2725 190.231 87.3295C190.265 87.3865 190.307 87.434 190.355 87.469C190.404 87.504 190.457 87.5258 190.511 87.5332V87.5332Z" fill="#D8901D"/>
<path d="M187.573 73.6866C187.517 73.6921 187.462 73.7138 187.412 73.75C187.363 73.7863 187.32 73.8362 187.287 73.8965C187.253 73.9567 187.23 74.0257 187.219 74.0988C187.209 74.1718 187.21 74.2471 187.223 74.3194C187.286 74.6132 187.797 75.3365 188.044 75.2611C188.291 75.1858 188.216 74.4174 188.147 74.1236C188.107 73.973 188.027 73.8462 187.922 73.7661C187.817 73.686 187.693 73.6578 187.573 73.6866V73.6866Z" fill="#D8901D"/>
<path d="M186.919 76.2782C186.869 76.3184 186.828 76.3757 186.801 76.444C186.773 76.5122 186.76 76.5889 186.763 76.666C186.766 76.7432 186.785 76.8178 186.817 76.8821C186.85 76.9464 186.895 76.9981 186.948 77.0315C187.154 77.2575 187.958 77.6191 188.136 77.4308C188.314 77.2425 187.849 76.6172 187.642 76.3912C187.545 76.2776 187.424 76.2059 187.294 76.1857C187.165 76.1655 187.034 76.1978 186.919 76.2782V76.2782Z" fill="#D8901D"/>
<path d="M191.458 75.8788C191.34 75.8124 191.21 75.7956 191.085 75.8307C190.959 75.8658 190.845 75.951 190.758 76.0747C190.592 76.3309 190.431 77.1897 190.661 77.3177C190.89 77.4458 191.389 76.8431 191.55 76.5644C191.585 76.515 191.611 76.4556 191.625 76.3909C191.64 76.3263 191.643 76.2581 191.634 76.1917C191.625 76.1253 191.604 76.0625 191.574 76.0083C191.544 75.954 191.504 75.9097 191.458 75.8788V75.8788Z" fill="#D8901D"/>
<path d="M182.719 77.5138C182.67 77.5556 182.631 77.6133 182.604 77.6813C182.578 77.7493 182.566 77.8251 182.569 77.9013C182.571 77.9775 182.59 78.0513 182.621 78.1155C182.652 78.1797 182.696 78.232 182.747 78.2672C182.954 78.4856 183.757 78.8548 183.935 78.6589C184.113 78.463 183.648 77.8453 183.442 77.6268C183.345 77.5132 183.223 77.4415 183.094 77.4213C182.965 77.4011 182.834 77.4334 182.719 77.5138V77.5138Z" fill="#D8901D"/>
<path d="M186.753 87.7066C186.875 87.7375 187.001 87.7076 187.107 87.6226C187.214 87.5376 187.292 87.4037 187.327 87.247C187.373 86.9457 187.166 86.0944 186.902 86.0718C186.638 86.0492 186.437 86.8252 186.391 87.0964C186.381 87.1681 186.383 87.2418 186.397 87.3126C186.41 87.3834 186.434 87.4497 186.468 87.5072C186.503 87.5648 186.545 87.6123 186.594 87.6466C186.643 87.6809 186.697 87.7014 186.753 87.7066V87.7066Z" fill="#D8901D"/>
<path d="M186.753 85.228C186.864 85.3146 186.993 85.3544 187.122 85.3423C187.252 85.3302 187.375 85.2667 187.476 85.1602C187.682 84.9418 188.004 84.1206 187.803 83.9624C187.602 83.8042 187 84.2939 186.787 84.5123C186.575 84.7308 186.563 85.0548 186.753 85.228Z" fill="#D8901D"/>
<path d="M182.403 83.8494C182.487 83.9759 182.6 84.0644 182.724 84.1023C182.849 84.1402 182.98 84.1255 183.098 84.0603C183.379 83.9322 183.987 83.3069 183.861 83.0734C183.735 82.8399 182.994 83.0734 182.713 83.2015C182.432 83.3296 182.3 83.6234 182.403 83.8494Z" fill="#D8901D"/>
<path d="M193.312 75.5701C193.205 75.4722 193.078 75.4197 192.947 75.4197C192.817 75.4197 192.69 75.4722 192.583 75.5701C192.348 75.7584 191.935 76.5343 192.112 76.7227C192.29 76.911 192.95 76.4891 193.185 76.2933C193.421 76.0974 193.478 75.7735 193.312 75.5701Z" fill="#D8901D"/>
<path d="M183.488 82.3275C183.488 82.5836 183.706 82.8096 184.01 82.8322C184.314 82.8548 185.158 82.561 185.158 82.2974C185.158 82.0337 184.377 81.9056 184.073 81.8906C183.769 81.8755 183.505 82.0714 183.488 82.3275Z" fill="#D8901D"/>
<path d="M210.923 65.5806C204.834 64.8273 200.53 59.2751 201.311 53.2332C202.091 47.1913 207.663 42.9424 213.751 43.6958C219.84 44.4491 224.144 50.0013 223.357 56.0432C222.571 62.0851 217.011 66.3566 210.923 65.5806Z" fill="#F72130"/>
<path d="M219.536 49.8506L214.147 54.5892L220.976 55.4556C221.064 54.4398 220.98 53.4111 220.731 52.4425C220.482 51.4739 220.074 50.589 219.536 49.8506V49.8506Z" fill="#F95353"/>
<path d="M213.568 53.4892L218.778 48.9013C217.539 47.58 216.064 46.6935 214.492 46.3248L213.568 53.4892Z" fill="#F95353"/>
<path d="M203.767 53.2708L211.313 54.2426C209.909 52.0596 208.421 49.9726 206.854 47.9898C206.092 48.5456 205.424 49.3011 204.893 50.2096C204.362 51.118 203.979 52.1599 203.767 53.2708V53.2708Z" fill="#F95353"/>
<path d="M212.317 53.527L213.281 46.0763C211.428 45.8631 209.563 46.2727 207.864 47.2666C209.429 49.2519 210.915 51.3414 212.317 53.527V53.527Z" fill="#F95353"/>
<path d="M213.792 55.7493C215.152 57.821 216.362 59.6216 217.699 61.3693C219.131 60.3431 220.222 58.6579 220.764 56.6383L213.792 55.7493Z" fill="#F95353"/>
<path d="M216.678 62.0775C215.456 60.4729 214.331 58.8306 213.115 56.9773L212.317 63.2377C213.816 63.2487 215.301 62.8537 216.678 62.0775V62.0775Z" fill="#F95353"/>
<path d="M211.927 56.5403L206.676 61.1584C208.001 62.2699 209.507 62.9564 211.072 63.1623L211.927 56.5403Z" fill="#F95353"/>
<path d="M211.307 55.4556L203.669 54.4837C203.676 55.5957 203.87 56.6919 204.24 57.6926C204.609 58.6934 205.143 59.5737 205.804 60.2695L211.307 55.4556Z" fill="#F95353"/>
<path d="M215.341 50.5513C215.226 50.4719 215.096 50.4395 214.967 50.4583C214.838 50.4771 214.717 50.5462 214.618 50.6567C214.417 50.8827 214.136 51.7114 214.343 51.8696C214.549 52.0278 215.134 51.5005 215.335 51.2745C215.382 51.2363 215.42 51.1833 215.447 51.1205C215.474 51.0577 215.488 50.987 215.489 50.9149C215.489 50.8429 215.476 50.7718 215.45 50.7083C215.424 50.6447 215.387 50.5907 215.341 50.5513V50.5513Z" fill="#D8901D"/>
<path d="M215.444 47.4624C215.324 47.4246 215.198 47.444 215.087 47.5171C214.977 47.5902 214.89 47.7123 214.842 47.8617C214.761 48.1555 214.87 49.0219 215.129 49.0746C215.387 49.1273 215.703 48.4041 215.754 48.1103C215.773 48.0409 215.779 47.967 215.773 47.894C215.766 47.821 215.748 47.7508 215.718 47.6886C215.688 47.6263 215.648 47.5737 215.601 47.5346C215.553 47.4954 215.5 47.4708 215.444 47.4624V47.4624Z" fill="#D8901D"/>
<path d="M220.379 51.5984C220.285 51.4847 220.166 51.4115 220.039 51.3886C219.912 51.3657 219.782 51.3942 219.668 51.4704C219.404 51.621 218.87 52.3217 219.019 52.5326C219.168 52.7435 219.886 52.4347 220.167 52.284C220.448 52.1333 220.517 51.8244 220.379 51.5984Z" fill="#D8901D"/>
<path d="M219.065 53.768C219.105 53.5118 218.899 53.2557 218.6 53.2105C218.302 53.1653 217.453 53.3461 217.413 53.6022C217.372 53.8584 218.141 54.0844 218.44 54.1296C218.738 54.1748 219.019 54.0166 219.065 53.768Z" fill="#D8901D"/>
<path d="M219.203 57.4895C219.249 57.2334 219.042 56.9848 218.744 56.9321C218.445 56.8793 217.596 57.0677 217.556 57.3313C217.516 57.595 218.279 57.8059 218.577 57.8587C218.876 57.9114 219.128 57.7457 219.203 57.4895Z" fill="#D8901D"/>
<path d="M216.678 57.452C216.862 57.2636 216.833 56.9397 216.615 56.6986C216.397 56.4576 215.582 56.1562 215.41 56.3521C215.238 56.548 215.737 57.1582 215.949 57.3691C216.051 57.4767 216.174 57.542 216.304 57.5568C216.434 57.5715 216.564 57.535 216.678 57.452V57.452Z" fill="#D8901D"/>
<path d="M215.186 61.7762C215.24 61.7589 215.289 61.7256 215.331 61.6788C215.373 61.632 215.406 61.5731 215.428 61.5066C215.45 61.4402 215.459 61.368 215.456 61.2958C215.453 61.2236 215.437 61.1534 215.41 61.0906C215.289 60.8119 214.658 60.1941 214.429 60.3373C214.199 60.4804 214.429 61.2036 214.538 61.4824C214.607 61.6165 214.708 61.7175 214.825 61.7705C214.942 61.8234 215.068 61.8254 215.186 61.7762V61.7762Z" fill="#D8901D"/>
<path d="M213.694 60.6386C213.813 60.6541 213.932 60.6098 214.026 60.5147C214.121 60.4196 214.185 60.2808 214.205 60.1263C214.205 59.8249 213.952 58.9963 213.694 58.9963C213.436 58.9963 213.287 59.7496 213.264 60.0585C213.261 60.1342 213.271 60.2098 213.291 60.2806C213.312 60.3513 213.344 60.4158 213.384 60.4701C213.424 60.5244 213.472 60.5674 213.526 60.5963C213.579 60.6253 213.636 60.6397 213.694 60.6386V60.6386Z" fill="#D8901D"/>
<path d="M200.903 74.8544L200.944 74.9825C200.981 75.117 200.983 75.2639 200.95 75.4002C200.916 75.5365 200.85 75.6545 200.76 75.7358V75.7358C200.675 75.8066 200.608 75.9087 200.567 76.0293C200.527 76.15 200.514 76.2837 200.531 76.4138V76.5494C200.561 76.6835 200.614 76.8064 200.687 76.9084C200.76 77.0105 200.85 77.0887 200.949 77.1371C200.949 77.1371 200.949 77.1371 200.949 77.1371C201.064 77.1859 201.163 77.2805 201.234 77.4075C201.305 77.5346 201.344 77.6876 201.345 77.8452V77.9808C201.336 78.1409 201.289 78.293 201.209 78.4149C201.13 78.5369 201.023 78.6223 200.903 78.6588C200.8 78.6999 200.704 78.7724 200.626 78.8706C200.547 78.9687 200.487 79.0897 200.45 79.2238V79.3519C200.425 79.4783 200.428 79.6118 200.461 79.7353C200.494 79.8589 200.554 79.9667 200.634 80.045V80.045C200.726 80.1341 200.791 80.2639 200.816 80.4106C200.841 80.5572 200.826 80.7109 200.772 80.8435L200.72 80.9716C200.65 81.1181 200.554 81.2396 200.44 81.3251C200.326 81.4106 200.197 81.4574 200.066 81.4613C199.831 81.4748 199.609 81.6071 199.446 81.8304L199.383 81.9434C199.312 82.0432 199.267 82.1705 199.256 82.3063C199.245 82.4421 199.267 82.5791 199.32 82.6968V82.6968C199.368 82.8328 199.38 82.9869 199.351 83.1326C199.323 83.2783 199.257 83.4065 199.165 83.4953L199.079 83.5933C198.97 83.7065 198.844 83.7863 198.709 83.8268C198.574 83.8672 198.433 83.8672 198.298 83.8268C198.298 83.8268 198.298 83.8268 198.298 83.8268C198.059 83.7613 197.811 83.8122 197.598 83.97L197.489 84.0528C197.4 84.1166 197.326 84.2102 197.274 84.324C197.221 84.4378 197.193 84.5677 197.191 84.7007C197.191 84.7007 197.191 84.7007 197.191 84.7007C197.186 84.8595 197.142 85.012 197.067 85.1365C196.992 85.261 196.889 85.351 196.772 85.3938L196.657 85.4541C196.529 85.5307 196.39 85.5703 196.25 85.5703C196.109 85.5703 195.97 85.5307 195.842 85.4541V85.4541C195.623 85.3074 195.371 85.2673 195.131 85.3411L195.005 85.3863C194.895 85.4152 194.793 85.4764 194.704 85.5652C194.616 85.6539 194.544 85.7679 194.494 85.8985C194.431 86.0499 194.34 86.1769 194.228 86.2669C194.116 86.3568 193.988 86.4065 193.857 86.4108H193.731C193.594 86.4333 193.456 86.4167 193.325 86.362C193.195 86.3074 193.074 86.2161 192.973 86.0944C192.802 85.8774 192.574 85.7559 192.336 85.7554H192.21C192.09 85.7458 191.97 85.7675 191.857 85.8193C191.744 85.871 191.639 85.9517 191.55 86.0567C191.444 86.1721 191.321 86.2561 191.188 86.3029C191.055 86.3497 190.917 86.3582 190.781 86.3279H190.649C190.526 86.3082 190.408 86.2473 190.308 86.151C190.207 86.0547 190.127 85.9263 190.075 85.778V85.778C190.033 85.6467 189.968 85.5301 189.885 85.4373C189.802 85.3446 189.704 85.2781 189.599 85.2431L189.364 85.1301C189.126 85.0385 188.872 85.0626 188.646 85.1979C188.518 85.2762 188.378 85.3167 188.236 85.3167C188.094 85.3167 187.954 85.2762 187.826 85.1979L187.717 85.1301C187.6 85.0751 187.5 84.9719 187.432 84.8361C187.364 84.7003 187.331 84.5392 187.338 84.3768C187.347 84.2445 187.328 84.1114 187.282 83.9929C187.237 83.8743 187.167 83.775 187.08 83.7063L186.977 83.6159C186.771 83.4436 186.523 83.3791 186.282 83.4351V83.4351C186.146 83.4622 186.008 83.45 185.876 83.3992C185.744 83.3485 185.622 83.2604 185.519 83.1413L185.433 83.0433C185.346 82.9444 185.289 82.8086 185.271 82.6598C185.254 82.511 185.276 82.3587 185.335 82.2297V82.2297C185.39 82.124 185.419 81.9994 185.419 81.8719C185.419 81.7444 185.39 81.6198 185.335 81.514L185.272 81.401C185.203 81.2849 185.116 81.1884 185.018 81.1172C184.919 81.046 184.81 81.0016 184.699 80.9867V80.9867C184.568 80.9739 184.443 80.9182 184.334 80.8247C184.224 80.7312 184.135 80.6029 184.073 80.4518L184.033 80.3237C183.996 80.1848 183.996 80.0333 184.033 79.8943L185.467 79.4574L198.752 75.3441L200.84 74.7339C200.866 74.77 200.887 74.8106 200.903 74.8544V74.8544Z" fill="#2F600F"/>
<path d="M198.694 75.3967C199.75 78.7642 197.627 82.4104 193.954 83.5404C190.282 84.6705 186.495 82.8624 185.41 79.51L198.694 75.3967Z" fill="#69CC82"/>
<path d="M188.388 81.5064C188.29 81.6735 188.153 81.795 187.998 81.8532C187.843 81.9115 187.679 81.9035 187.528 81.8303C187.206 81.6797 187.057 81.303 187.206 80.979C187.355 80.6551 188.21 79.6456 188.537 79.7963C188.865 79.947 188.537 81.1825 188.388 81.5064Z" fill="#A0EFB1"/>
<path d="M192.107 82.3351C192.21 82.6742 192.015 83.0358 191.671 83.1337C191.518 83.1896 191.355 83.1769 191.209 83.0978C191.062 83.0186 190.94 82.8775 190.861 82.6968C190.764 82.3577 190.752 81.0394 191.091 80.9414C191.43 80.8435 192.009 81.9961 192.107 82.3351Z" fill="#A0EFB1"/>
<path d="M194.953 81.2804C194.995 81.3539 195.022 81.4397 195.033 81.5303C195.044 81.6209 195.037 81.7136 195.015 81.8004C194.992 81.8871 194.954 81.9654 194.903 82.0284C194.852 82.0913 194.791 82.1371 194.723 82.1618C194.576 82.2503 194.41 82.2761 194.251 82.2356C194.092 82.195 193.946 82.0903 193.834 81.9358C193.656 81.6269 193.323 80.3537 193.627 80.1729C193.931 79.9921 194.775 80.979 194.953 81.2804Z" fill="#A0EFB1"/>
<path d="M196.554 79.284C196.618 79.3168 196.676 79.3701 196.721 79.4391C196.766 79.5081 196.797 79.5908 196.812 79.6796C196.827 79.7684 196.825 79.8607 196.806 79.9481C196.787 80.0355 196.751 80.1153 196.703 80.1805C196.582 80.3243 196.429 80.4153 196.267 80.4409C196.105 80.4666 195.94 80.4256 195.796 80.3236C195.504 80.1202 194.677 79.0881 194.89 78.8169C195.102 78.5457 196.25 79.1032 196.554 79.284Z" fill="#A0EFB1"/>
<path d="M197.46 76.5494C197.816 76.5494 198.074 76.9035 198.034 77.2576C197.99 77.4512 197.893 77.6168 197.762 77.7224C197.631 77.828 197.474 77.8664 197.323 77.8301C196.967 77.8301 195.739 77.3103 195.773 76.9562C195.808 76.6021 197.099 76.5117 197.46 76.5494Z" fill="#A0EFB1"/>
<path d="M216.167 64.6463C217.217 68.0138 215.1 71.66 211.422 72.7976C207.743 73.9352 203.962 72.1196 202.877 68.7596L216.167 64.6463Z" fill="#69CC82"/>
<path d="M205.856 70.7637C205.759 70.9317 205.623 71.0537 205.469 71.1108C205.314 71.1679 205.15 71.1571 205.001 71.0801C204.674 70.9369 204.53 70.5527 204.674 70.2288C204.817 69.9048 205.678 68.8953 206.005 69.046C206.332 69.1967 206.005 70.4397 205.856 70.7637Z" fill="#A0EFB1"/>
<path d="M209.58 71.5696C209.677 71.9161 209.482 72.2702 209.138 72.3681C208.986 72.4292 208.823 72.419 208.676 72.3393C208.53 72.2595 208.409 72.1152 208.335 71.9312C208.231 71.5922 208.22 70.2738 208.564 70.1759C208.908 70.078 209.476 71.2456 209.58 71.5696Z" fill="#A0EFB1"/>
<path d="M212.426 70.5376C212.466 70.6116 212.493 70.6973 212.502 70.7874C212.512 70.8775 212.505 70.9693 212.482 71.0551C212.459 71.141 212.42 71.2182 212.37 71.2802C212.319 71.3423 212.258 71.3873 212.191 71.4115C212.044 71.5017 211.88 71.5284 211.721 71.4878C211.562 71.4472 211.417 71.3413 211.307 71.1855C211.123 70.8766 210.791 69.6035 211.1 69.4227C211.41 69.2419 212.242 70.2288 212.426 70.5376Z" fill="#A0EFB1"/>
<path d="M214.038 68.5563C214.103 68.5891 214.16 68.6424 214.205 68.7114C214.251 68.7805 214.282 68.8631 214.297 68.9519C214.311 69.0407 214.309 69.133 214.29 69.2204C214.271 69.3078 214.236 69.3877 214.188 69.4528C214.066 69.5959 213.914 69.687 213.752 69.7139C213.59 69.7408 213.426 69.7023 213.281 69.6035C212.994 69.3925 212.162 68.3604 212.374 68.0968C212.587 67.8331 213.729 68.3228 214.038 68.5563Z" fill="#A0EFB1"/>
<path d="M214.928 65.799C215.284 65.799 215.542 66.1531 215.502 66.5072C215.458 66.7009 215.361 66.8664 215.229 66.972C215.098 67.0777 214.942 67.116 214.79 67.0797C214.434 67.0421 213.201 66.5599 213.235 66.2058C213.27 65.8518 214.572 65.7614 214.928 65.799Z" fill="#A0EFB1"/>
<path d="M214.905 32.3954H215.037C215.771 32.4858 215.571 33.224 216.185 33.4124H216.305C216.971 33.6158 217.166 32.885 217.843 33.2391L217.963 33.3069C218.646 33.6459 218.153 34.2335 218.698 34.6554L218.807 34.7307C219.381 35.1526 219.782 34.5198 220.31 35.0848L220.402 35.1903C220.919 35.7402 220.27 36.132 220.626 36.697L220.701 36.81C221.062 37.375 221.705 36.9607 221.986 37.6613L222.038 37.7743C222.336 38.4749 221.579 38.6331 221.733 39.281L221.762 39.4166C221.917 40.0795 222.652 39.8837 222.68 40.6446V40.7802C222.715 41.5335 221.974 41.413 221.871 42.0835V42.2191C221.791 42.8895 222.543 42.9724 222.313 43.7258L222.273 43.8463C222.032 44.5997 221.372 44.1928 221.062 44.8031L220.999 44.9161C220.672 45.5338 221.383 45.8276 220.907 46.4228L220.821 46.5282C220.362 47.1234 219.863 46.5282 219.358 47.0104L219.255 47.1008C218.755 47.5603 219.289 48.1027 218.641 48.5095L218.531 48.5774C217.895 48.9917 217.596 48.276 216.982 48.5774L216.856 48.6301C216.213 48.8938 216.569 49.5718 215.794 49.7375H215.668C214.916 49.8957 214.911 49.1348 214.222 49.165H214.09C213.378 49.165 213.516 49.9183 212.707 49.858H212.575C212.436 49.8408 212.301 49.7843 212.179 49.6923L212.397 48.1856L214.434 34.5198L214.767 32.3125L214.905 32.3954Z" fill="#2F600F"/>
<path d="M214.434 34.6027C217.946 35.1225 220.339 38.603 219.771 42.3773C219.203 46.1516 215.909 48.7732 212.397 48.2685L214.434 34.6027Z" fill="#69CC82"/>
<path d="M215.507 46.4755C215.56 46.5332 215.602 46.6074 215.627 46.6913C215.653 46.7753 215.662 46.8663 215.654 46.9561C215.646 47.046 215.621 47.1318 215.582 47.2057C215.542 47.2797 215.489 47.3394 215.427 47.3795C215.287 47.4913 215.124 47.5433 214.961 47.5285C214.797 47.5136 214.642 47.4326 214.515 47.2966C214.285 47.0254 213.74 45.7899 214.015 45.6016C214.291 45.4132 215.278 46.1967 215.507 46.4755Z" fill="#A0EFB1"/>
<path d="M217.877 43.5074C218.227 43.5676 218.451 43.8991 218.411 44.2607C218.355 44.4505 218.248 44.6078 218.112 44.7044C217.975 44.801 217.817 44.8306 217.665 44.7881C217.309 44.7353 216.11 44.1703 216.167 43.8238C216.225 43.4772 217.522 43.4471 217.877 43.5074Z" fill="#A0EFB1"/>
<path d="M218.153 40.5015C218.305 40.4686 218.461 40.5113 218.59 40.6213C218.72 40.7314 218.813 40.9009 218.853 41.0967C218.881 41.4507 218.618 41.7596 218.279 41.7897C217.94 41.8199 216.621 41.5637 216.592 41.2097C216.563 40.8556 217.797 40.5316 218.153 40.5015Z" fill="#A0EFB1"/>
<path d="M217.028 38.2037C217.178 38.1203 217.344 38.1009 217.502 38.1482C217.661 38.1955 217.804 38.3072 217.912 38.4674C217.951 38.5432 217.975 38.6304 217.983 38.7213C217.991 38.8123 217.981 38.9043 217.956 38.9896C217.931 39.0748 217.89 39.1507 217.837 39.2106C217.784 39.2706 217.721 39.3128 217.654 39.3337C217.338 39.507 216.041 39.8008 215.875 39.4844C215.708 39.168 216.718 38.377 217.028 38.2037Z" fill="#A0EFB1"/>
<path d="M214.945 36.2149C215.057 36.0607 215.203 35.9567 215.363 35.9174C215.523 35.8782 215.688 35.9059 215.835 35.9964C215.905 36.0212 215.97 36.0693 216.023 36.1361C216.075 36.203 216.114 36.2864 216.136 36.3784C216.157 36.4704 216.16 36.5681 216.144 36.6621C216.129 36.7561 216.095 36.8433 216.047 36.9155C215.857 37.2169 214.899 38.1133 214.578 37.925C214.256 37.7367 214.756 36.5162 214.945 36.2149Z" fill="#A0EFB1"/>
<path d="M209.861 58.2204C209.958 57.3616 210.739 56.7137 211.582 56.8342C212.426 56.9548 213.069 57.7081 212.977 58.5669C212.885 59.4257 212.099 60.0736 211.255 59.9456C210.412 59.8175 209.769 59.0792 209.861 58.2204Z" fill="#FFA300"/>
<path d="M202.453 69.6186C202.532 69.2795 202.704 68.9916 202.937 68.8117C203.17 68.6317 203.445 68.5729 203.709 68.6468C204.323 68.7071 204.765 69.257 204.696 69.8672C204.617 70.1997 204.448 70.4825 204.22 70.6628C203.993 70.8432 203.724 70.9085 203.463 70.8466C202.826 70.8165 202.384 70.2288 202.453 69.6186Z" fill="#FFA300"/>
<path d="M202.935 82.3502C206.952 82.7872 210.527 79.9244 210.968 75.9543L217.59 16.4394C217.711 15.3546 216.357 14.7595 215.628 15.5806L161.688 76.0522C161.085 76.7377 161.499 77.8075 162.411 77.913L202.935 82.3502Z" fill="#5E3607"/>
<path d="M209.344 73.6716L215.863 15.3772C215.777 15.4289 215.698 15.4975 215.628 15.5806L162.428 75.2536L201.908 79.5854C205.603 79.9922 208.937 77.348 209.344 73.6716Z" fill="#EFB26A"/>
<path opacity="0.08" d="M177.313 72.3231C177.381 72.0329 177.528 71.7857 177.726 71.6287C177.924 71.4717 178.159 71.4158 178.386 71.4718C178.92 71.5321 179.305 72.0067 179.241 72.534C179.173 72.8247 179.027 73.0726 178.829 73.2309C178.631 73.3891 178.396 73.4468 178.168 73.3929C177.64 73.3552 177.256 72.8806 177.313 72.3231Z" fill="#5E3607"/>
<path opacity="0.08" d="M175.483 65.2867C175.592 64.2998 176.694 63.6067 177.945 63.78C179.195 63.9533 180.114 64.8272 180.005 65.8216C179.896 66.816 178.794 67.5016 177.543 67.3659C176.292 67.2303 175.374 66.2962 175.483 65.2867Z" fill="#5E3607"/>
<path opacity="0.08" d="M173.744 67.9611C173.794 67.7461 173.902 67.5626 174.048 67.4458C174.194 67.329 174.368 67.2872 174.536 67.3283C174.926 67.3735 175.213 67.7276 175.167 68.0816C175.118 68.2967 175.01 68.4802 174.863 68.597C174.717 68.7137 174.543 68.7556 174.375 68.7145C173.985 68.6994 173.698 68.3528 173.744 67.9611Z" fill="#5E3607"/>
<path opacity="0.08" d="M202.728 74.9825C202.796 74.6923 202.943 74.4451 203.141 74.2881C203.339 74.1311 203.574 74.0752 203.801 74.1312C204.335 74.1915 204.719 74.6661 204.662 75.1934C204.594 75.4841 204.447 75.732 204.25 75.8903C204.052 76.0485 203.817 76.1061 203.589 76.0522C203.055 75.992 202.671 75.5174 202.728 74.9825Z" fill="#5E3607"/>
<path opacity="0.08" d="M200.892 67.9235C201.007 66.9366 202.103 66.2436 203.354 66.4168C204.605 66.5901 205.523 67.4715 205.414 68.4584C205.305 69.4453 204.203 70.1384 202.952 70.0028C201.701 69.8672 200.783 68.9179 200.892 67.9235Z" fill="#5E3607"/>
<path opacity="0.08" d="M199.153 70.5979C199.204 70.3838 199.312 70.2013 199.458 70.0848C199.604 69.9682 199.777 69.9257 199.945 69.9651C200.341 70.0103 200.622 70.3644 200.582 70.7185C200.531 70.9312 200.422 71.1119 200.276 71.227C200.13 71.3421 199.958 71.3836 199.79 71.3438C199.394 71.3362 199.119 70.9897 199.153 70.5979Z" fill="#5E3607"/>
<path opacity="0.08" d="M193.799 73.8298C193.867 73.5396 194.014 73.2924 194.212 73.1354C194.41 72.9784 194.645 72.9225 194.873 72.9785C195.406 73.0313 195.791 73.5134 195.733 74.0408C195.665 74.3309 195.518 74.5781 195.32 74.7352C195.123 74.8922 194.887 74.948 194.66 74.892C194.127 74.8092 193.742 74.327 193.799 73.8298Z" fill="#5E3607"/>
<path opacity="0.08" d="M190.224 69.4076C190.276 69.1949 190.385 69.0142 190.531 68.8991C190.676 68.784 190.849 68.7425 191.016 68.7823C191.412 68.8275 191.693 69.1741 191.653 69.5357C191.603 69.7498 191.494 69.9323 191.349 70.0488C191.203 70.1654 191.029 70.2079 190.861 70.1685C190.465 70.1534 190.184 69.7994 190.224 69.4076Z" fill="#5E3607"/>
<path opacity="0.08" d="M204.283 35.4616C204.461 36.0341 204.14 36.6368 203.572 36.8101C203.317 36.9082 203.045 36.8919 202.799 36.7635C202.552 36.6352 202.346 36.4023 202.212 36.1019C202.034 35.5369 202.355 34.9267 202.929 34.7534C203.183 34.6558 203.454 34.6725 203.699 34.8008C203.945 34.9292 204.15 35.1618 204.283 35.4616V35.4616Z" fill="#5E3607"/>
<path opacity="0.08" d="M208.903 31.8078C209.19 32.7345 208.667 33.7138 207.755 34.0076C207.34 34.1684 206.896 34.1415 206.494 33.9311C206.093 33.7206 205.757 33.339 205.54 32.8475C205.253 31.9208 205.775 30.9415 206.688 30.6552C207.102 30.491 207.546 30.5155 207.948 30.7248C208.35 30.934 208.687 31.3157 208.903 31.8078V31.8078Z" fill="#5E3607"/>
<g style="mix-blend-mode:screen" opacity="0.47">
<path d="M204.214 71.6149C200.094 79.3744 193.312 75.57 187.769 74.4249C163.387 69.385 183.683 57.3087 189.794 49.9636C195.418 43.1834 200.972 37.8572 205.569 40.2529C210.165 42.6485 208.329 63.8554 204.214 71.6149Z" fill="#EFB26A"/>
</g>
<path opacity="0.08" d="M141.627 154.438C141.443 154.467 141.27 154.567 141.129 154.725C140.988 154.883 140.887 155.092 140.837 155.326C140.787 155.56 140.791 155.808 140.848 156.039C140.906 156.27 141.014 156.474 141.16 156.624C141.305 156.774 141.482 156.864 141.666 156.882C141.851 156.901 142.036 156.847 142.197 156.727C142.358 156.608 142.489 156.428 142.572 156.211C142.656 155.994 142.688 155.749 142.665 155.508C142.635 155.186 142.509 154.892 142.314 154.692C142.12 154.491 141.873 154.4 141.627 154.438V154.438Z" fill="#5E3607"/>
<path d="M132.618 127.025L136.254 166.181L222.841 152.324L219.205 113.168L132.618 127.025Z" fill="#295E4B"/>
<path d="M232.946 106.608L234.868 108.883L233.864 110.337L235.144 111.851L234.14 113.305L235.419 114.82L234.415 116.274L235.695 117.788L234.691 119.242L235.97 120.756L234.966 122.21L236.246 123.724L235.241 125.178L236.521 126.693L235.517 128.146L236.796 129.661L235.792 131.115L237.072 132.629L236.068 134.083L237.347 135.597L236.343 137.051L237.623 138.565L236.624 140.019L237.898 141.534L236.894 142.988L238.174 144.502L237.175 145.956L238.449 147.47L237.451 148.924L238.725 150.438L237.726 151.892L239 153.406L237.267 155.93L229.36 151.274L222.841 152.322L219.203 113.162L225.727 112.123L232.946 106.608Z" fill="#1C1C1C"/>
<path d="M118.283 124.96L126.512 127.996L132.618 127.024L136.25 166.176L130.15 167.155L123.121 173.988L122.995 174.214L122.937 174.161L122.863 174.237L122.845 174.093L120.762 172.331L121.778 170.447L120.487 169.362L121.503 167.479L120.212 166.394L121.221 164.518L119.936 163.426L120.952 161.543L119.661 160.458L120.671 158.582L119.385 157.49L120.395 155.606L119.11 154.521L120.12 152.646L118.834 151.553L119.844 149.677L118.559 148.585L119.569 146.709L118.283 145.617L119.293 143.733L118.008 142.649L119.018 140.765L117.733 139.68L118.743 137.797L117.457 136.712L118.467 134.829L117.182 133.744L118.192 131.861L116.906 130.776L117.916 128.892L116.631 127.807L118.152 124.982L118.301 125.111L118.283 124.96Z" fill="#1C1C1C"/>
<g style="mix-blend-mode:screen">
<path d="M143.172 133.734L145.271 156.348L212.503 145.589L210.403 122.975L143.172 133.734Z" fill="#295E4B"/>
</g>
<g style="mix-blend-mode:screen">
<path d="M222.841 152.321L212.495 145.586L210.395 122.971L219.203 113.162L222.841 152.321Z" fill="#295E4B"/>
</g>
<g style="mix-blend-mode:screen">
<path d="M136.25 166.176L145.271 156.344L143.17 133.736L132.618 127.024L136.25 166.176Z" fill="#295E4B"/>
</g>
<path d="M208.478 125.058L210.24 144.012L147.801 154.032L146.04 135.077L208.478 125.058ZM209.304 143.055L207.726 126.308L146.975 136.034L148.53 152.804L209.304 143.055Z" fill="#FFDA00"/>
<g style="mix-blend-mode:screen" opacity="0.27">
<path d="M226.995 126.512C227.569 132.538 227.087 137.624 225.945 137.812C224.803 138 223.415 133.239 222.852 127.182C222.29 121.125 222.761 116.063 223.908 115.882C225.056 115.701 226.433 120.455 226.995 126.512Z" fill="#453293"/>
</g>
<path d="M177.945 149.67C177.107 156.701 175.99 163.717 174.593 170.718H106.038C104.645 163.687 103.528 156.671 102.687 149.67C100.229 129.29 100.158 108.537 102.475 88.1284C103.408 79.8737 104.711 71.6983 106.377 63.6444C106.95 63.3205 107.57 63.0568 108.161 62.7555H172.465C173.038 63.0568 173.658 63.3205 174.249 63.6444C175.912 71.6984 177.213 79.8738 178.145 88.1284C180.469 108.536 180.401 129.289 177.945 149.67Z" fill="#FF0303"/>
<path d="M177.945 149.67H102.716C100.258 129.29 100.187 108.537 102.503 88.1284H178.145C180.469 108.536 180.401 129.289 177.945 149.67V149.67Z" fill="#FFEBB8"/>
<path d="M132.996 153.052L127.551 154.875L114.622 77.5437L120.068 75.7131L132.996 153.052Z" fill="#EA6C18"/>
<path d="M134.643 76.4363H129.049V135.808H134.643V76.4363Z" fill="#EA6C18"/>
<path d="M135.332 154.017L141.633 157.949L161.212 94.8408L154.905 90.9158L135.332 154.017Z" fill="#EA6C18"/>
<path d="M148.272 77.9958H143.394V103.437H148.272V77.9958Z" fill="#EA6C18"/>
<path d="M177.945 149.67C177.107 156.701 175.99 163.717 174.593 170.718H106.038C104.645 163.687 103.528 156.671 102.687 149.67C100.229 129.29 100.158 108.537 102.475 88.1284C103.408 79.8737 104.711 71.6983 106.377 63.6444C106.95 63.3205 107.57 63.0568 108.161 62.7555H172.465C173.038 63.0568 173.658 63.3205 174.249 63.6444C175.912 71.6984 177.213 79.8738 178.145 88.1284C180.469 108.536 180.401 129.289 177.945 149.67Z" fill="#5BBC99"/>
<path d="M177.945 149.67H102.716C100.258 129.29 100.187 108.537 102.503 88.1284H178.145C180.469 108.536 180.401 129.289 177.945 149.67V149.67Z" fill="#FFEBB8"/>
<path d="M132.159 79.8114L130.913 104.898C130.875 105.662 130.991 106.426 131.249 107.113C131.507 107.799 131.899 108.385 132.384 108.81C132.869 109.235 133.43 109.485 134.012 109.535C134.594 109.585 135.176 109.433 135.699 109.094L152.868 97.937C153.39 97.5975 153.835 97.0839 154.158 96.4475C154.481 95.8112 154.671 95.0745 154.709 94.3114C154.746 93.5483 154.631 92.7856 154.373 92.0997C154.116 91.4138 153.725 90.8288 153.241 90.4035L137.317 76.4665C136.832 76.0418 136.271 75.7922 135.689 75.7427C135.107 75.6933 134.526 75.8456 134.003 76.1846C133.48 76.5235 133.034 77.0371 132.711 77.6737C132.387 78.3103 132.197 79.0476 132.159 79.8114V79.8114Z" fill="#FF7E27"/>
<path d="M147.084 114.337L145.839 139.424C145.801 140.188 145.917 140.952 146.175 141.639C146.433 142.325 146.824 142.911 147.309 143.336C147.794 143.761 148.356 144.011 148.938 144.061C149.52 144.111 150.101 143.959 150.624 143.62L167.793 132.493C168.315 132.154 168.76 131.64 169.083 131.004C169.406 130.367 169.596 129.631 169.634 128.868C169.672 128.105 169.556 127.342 169.299 126.656C169.041 125.97 168.651 125.385 168.166 124.96L152.243 111.008C151.759 110.581 151.198 110.329 150.616 110.278C150.035 110.227 149.453 110.377 148.93 110.715C148.407 111.053 147.961 111.565 147.637 112.201C147.313 112.837 147.122 113.574 147.084 114.337V114.337Z" fill="#FF7E27"/>
<path d="M113.153 118.278L111.897 143.342C111.859 144.106 111.974 144.869 112.233 145.556C112.491 146.243 112.882 146.828 113.367 147.254C113.852 147.679 114.414 147.929 114.996 147.979C115.578 148.029 116.159 147.877 116.682 147.538L133.846 136.411C134.368 136.072 134.813 135.559 135.137 134.923C135.46 134.287 135.651 133.55 135.689 132.787C135.728 132.024 135.613 131.261 135.355 130.575C135.098 129.889 134.708 129.303 134.224 128.877L118.301 114.925C117.815 114.504 117.254 114.258 116.674 114.21C116.093 114.163 115.513 114.317 114.992 114.657C114.471 114.996 114.027 115.509 113.704 116.144C113.382 116.78 113.192 117.515 113.153 118.278V118.278Z" fill="#FF7E27"/>
<path d="M136.83 86.7271C136.83 87.0043 136.767 87.2752 136.65 87.5056C136.533 87.7361 136.366 87.9157 136.171 88.0217C135.976 88.1278 135.761 88.1555 135.554 88.1014C135.347 88.0474 135.157 87.9139 135.008 87.718C134.858 87.522 134.757 87.2723 134.716 87.0005C134.674 86.7287 134.695 86.4469 134.776 86.1909C134.857 85.9349 134.994 85.716 135.169 85.562C135.345 85.4081 135.551 85.3259 135.762 85.3259C135.903 85.3259 136.041 85.3621 136.171 85.4326C136.3 85.503 136.418 85.6062 136.517 85.7363C136.616 85.8664 136.695 86.0209 136.748 86.1909C136.802 86.3609 136.83 86.5431 136.83 86.7271V86.7271Z" fill="#161616"/>
<path d="M143.762 96.2647C143.762 96.4733 143.714 96.6772 143.626 96.8506C143.538 97.0241 143.412 97.1593 143.266 97.2391C143.119 97.3189 142.957 97.3398 142.801 97.2991C142.646 97.2584 142.502 97.158 142.39 97.0105C142.278 96.863 142.201 96.675 142.17 96.4704C142.139 96.2659 142.155 96.0538 142.216 95.8611C142.277 95.6683 142.38 95.5036 142.512 95.3877C142.644 95.2719 142.799 95.21 142.958 95.21C143.171 95.21 143.376 95.3211 143.526 95.5189C143.677 95.7167 143.762 95.985 143.762 96.2647V96.2647Z" fill="#161616"/>
<path d="M136.635 99.489C136.636 99.734 136.581 99.9739 136.478 100.178C136.375 100.383 136.228 100.542 136.056 100.637C135.884 100.731 135.694 100.756 135.511 100.709C135.328 100.661 135.16 100.543 135.028 100.37C134.896 100.197 134.806 99.9761 134.77 99.7357C134.734 99.4953 134.753 99.2463 134.825 99.0202C134.897 98.7942 135.019 98.6013 135.174 98.4661C135.33 98.3309 135.513 98.2596 135.699 98.261C135.947 98.261 136.185 98.3904 136.361 98.6207C136.536 98.851 136.635 99.1633 136.635 99.489V99.489Z" fill="#161616"/>
<path d="M120.986 99.489C120.987 99.7337 120.933 99.9733 120.83 100.177C120.728 100.382 120.581 100.541 120.409 100.636C120.237 100.73 120.048 100.756 119.865 100.709C119.682 100.662 119.514 100.545 119.382 100.373C119.25 100.2 119.159 99.9802 119.123 99.7404C119.086 99.5005 119.104 99.2517 119.175 99.0255C119.246 98.7993 119.367 98.6059 119.522 98.4698C119.677 98.3337 119.859 98.261 120.045 98.261C120.168 98.26 120.291 98.2911 120.405 98.3523C120.519 98.4136 120.623 98.5039 120.71 98.618C120.798 98.7322 120.867 98.8679 120.914 99.0173C120.962 99.1668 120.986 99.3271 120.986 99.489V99.489Z" fill="#161616"/>
<path d="M116.487 134.136C116.487 134.377 116.433 134.613 116.331 134.814C116.229 135.014 116.083 135.171 115.913 135.263C115.744 135.355 115.557 135.38 115.376 135.333C115.196 135.285 115.03 135.169 114.9 134.999C114.77 134.828 114.682 134.61 114.646 134.374C114.61 134.137 114.629 133.892 114.699 133.669C114.769 133.446 114.888 133.255 115.041 133.121C115.194 132.987 115.374 132.915 115.558 132.915C115.68 132.914 115.801 132.945 115.914 133.006C116.027 133.067 116.13 133.157 116.217 133.27C116.303 133.384 116.372 133.519 116.418 133.667C116.465 133.816 116.488 133.975 116.487 134.136Z" fill="#161616"/>
<path d="M127.585 135.492C127.586 135.762 127.526 136.026 127.413 136.251C127.3 136.476 127.138 136.652 126.948 136.757C126.758 136.861 126.549 136.889 126.348 136.837C126.146 136.786 125.96 136.656 125.814 136.466C125.668 136.276 125.569 136.033 125.528 135.768C125.488 135.503 125.508 135.229 125.587 134.979C125.665 134.73 125.798 134.516 125.969 134.366C126.14 134.216 126.341 134.136 126.547 134.136C126.821 134.136 127.084 134.278 127.279 134.532C127.474 134.786 127.584 135.131 127.585 135.492V135.492Z" fill="#161616"/>
<path d="M140.164 146.317C140.164 146.53 140.115 146.739 140.025 146.916C139.935 147.093 139.807 147.231 139.657 147.313C139.507 147.394 139.342 147.415 139.183 147.374C139.024 147.332 138.877 147.23 138.763 147.079C138.648 146.928 138.57 146.736 138.538 146.527C138.507 146.318 138.523 146.102 138.585 145.905C138.647 145.708 138.752 145.54 138.887 145.422C139.022 145.303 139.181 145.24 139.343 145.24C139.561 145.24 139.769 145.353 139.923 145.555C140.077 145.758 140.164 146.032 140.164 146.317V146.317Z" fill="#161616"/>
<path d="M137.581 122.993C138.101 122.993 138.522 122.44 138.522 121.758C138.522 121.076 138.101 120.522 137.581 120.522C137.062 120.522 136.64 121.076 136.64 121.758C136.64 122.44 137.062 122.993 137.581 122.993Z" fill="#161616"/>
<path d="M150.854 123.129C150.855 123.402 150.795 123.669 150.68 123.897C150.565 124.125 150.402 124.303 150.21 124.408C150.018 124.514 149.807 124.542 149.603 124.49C149.399 124.437 149.211 124.307 149.064 124.114C148.916 123.922 148.815 123.676 148.775 123.408C148.734 123.141 148.754 122.863 148.833 122.611C148.913 122.359 149.047 122.143 149.22 121.991C149.393 121.839 149.596 121.758 149.804 121.758C150.082 121.758 150.348 121.902 150.545 122.159C150.741 122.416 150.853 122.765 150.854 123.129V123.129Z" fill="#161616"/>
<path d="M148.272 90.9986C142.568 90.9986 137.943 96.6864 137.943 103.708C137.943 110.729 142.533 116.424 148.272 116.424C154.01 116.424 158.601 110.729 158.601 103.708C158.601 96.6864 153.97 90.9986 148.272 90.9986ZM150.418 112.371C147.032 112.371 144.284 109.207 144.284 105.312C144.284 101.417 147.032 98.2459 150.418 98.2459C153.803 98.2459 156.552 101.41 156.552 105.312C156.552 109.215 153.786 112.371 150.418 112.371Z" fill="#352203"/>
<path d="M133.088 121.743C137.599 123.611 139.894 128.109 139.802 131.71C139.607 137.737 133.989 140.132 129.152 138.128C124.481 136.185 121.577 130.949 122.668 126.421C123.758 121.894 128.423 119.784 133.088 121.743Z" fill="#3F3854"/>
<path d="M134.793 122.64C137.908 124.666 139.888 128.244 139.802 131.68C138.654 133.684 136.164 134.482 133.668 133.443C130.707 132.215 128.876 128.877 129.571 125.992C130.15 123.596 132.342 122.263 134.793 122.64Z" fill="#4E4963"/>
<g style="mix-blend-mode:multiply" opacity="0.44">
<path d="M133.542 135.846C128.871 133.91 125.973 128.674 127.057 124.146C127.356 122.955 127.9 121.897 128.63 121.088C125.76 121.442 123.396 123.385 122.662 126.429C121.572 130.949 124.475 136.222 129.146 138.128C132.589 139.552 135.986 138.791 138 136.501C136.496 136.678 134.979 136.455 133.542 135.846V135.846Z" fill="#3F3854"/>
</g>
<path d="M137.208 126.21C137.622 126.432 137.977 126.808 138.23 127.291C138.483 127.774 138.624 128.343 138.634 128.93C138.644 129.516 138.524 130.093 138.288 130.591C138.052 131.089 137.711 131.486 137.306 131.733C136.901 131.979 136.45 132.066 136.008 131.981C135.566 131.896 135.152 131.644 134.818 131.256C134.483 130.867 134.243 130.359 134.125 129.793C134.007 129.227 134.018 128.629 134.156 128.071C134.374 127.294 134.818 126.663 135.39 126.314C135.962 125.966 136.616 125.928 137.208 126.21V126.21Z" fill="#605C77"/>
<path d="M114.427 103.663C116.849 98.3288 120.739 96.4304 123.362 97.3796C127.809 99.0219 128.268 106.751 125.657 112.447C123.15 117.969 118.593 120.47 115.489 118.036C112.385 115.603 111.897 109.177 114.427 103.663Z" fill="#3F3854"/>
<path d="M115.483 101.704C117.704 98.1856 120.808 96.483 123.362 97.3946C124.584 99.3157 124.601 102.668 123.259 105.681C121.669 109.177 118.771 110.752 116.792 109.2C115.127 107.844 114.64 104.717 115.483 101.704Z" fill="#4E4963"/>
<g style="mix-blend-mode:multiply" opacity="0.44">
<path d="M124.992 106.329C122.484 111.851 117.933 114.353 114.829 111.919C114.011 111.268 113.349 110.329 112.918 109.207C112.522 112.974 113.417 116.424 115.506 118.059C118.611 120.492 123.161 117.991 125.669 112.469C127.511 108.416 127.734 103.873 126.501 100.777C126.284 102.741 125.771 104.629 124.992 106.329Z" fill="#3F3854"/>
</g>
<path d="M118.691 99.4438C118.951 98.9676 119.312 98.6014 119.728 98.3902C120.145 98.179 120.599 98.1319 121.036 98.2547C121.473 98.3774 121.873 98.6647 122.187 99.0814C122.501 99.498 122.716 100.026 122.805 100.6C122.894 101.175 122.853 101.771 122.688 102.316C122.523 102.86 122.24 103.33 121.875 103.667C121.51 104.004 121.077 104.194 120.631 104.213C120.185 104.232 119.744 104.08 119.362 103.776C118.837 103.317 118.472 102.603 118.346 101.792C118.22 100.98 118.344 100.136 118.691 99.4438V99.4438Z" fill="#605C77"/>
<path d="M161.613 123.363C166.124 125.231 168.419 129.736 168.327 133.337C168.132 139.402 162.508 141.76 157.671 139.748C153 137.812 150.102 132.569 151.187 128.049C152.271 123.528 156.948 121.427 161.613 123.363Z" fill="#3F3854"/>
<path d="M163.318 124.259C166.439 126.286 168.413 129.864 168.327 133.337C167.18 135.333 164.683 136.132 162.187 135.1C159.232 133.872 157.396 130.535 158.09 127.649C158.675 125.216 160.873 123.883 163.318 124.259Z" fill="#4E4963"/>
<g style="mix-blend-mode:multiply" opacity="0.44">
<path d="M162.067 137.473C157.396 135.537 154.498 130.301 155.588 125.773C155.881 124.579 156.424 123.516 157.155 122.707C154.286 123.069 151.921 125.005 151.193 128.049C150.102 132.569 153 137.842 157.671 139.756C161.114 141.172 164.517 140.419 166.525 138.128C165.021 138.301 163.505 138.079 162.067 137.473V137.473Z" fill="#3F3854"/>
</g>
<path d="M165.733 127.838C166.147 128.06 166.502 128.436 166.755 128.92C167.008 129.403 167.148 129.973 167.157 130.559C167.167 131.146 167.047 131.723 166.81 132.221C166.574 132.719 166.232 133.115 165.826 133.361C165.421 133.607 164.969 133.693 164.527 133.607C164.085 133.521 163.672 133.268 163.338 132.878C163.004 132.489 162.764 131.979 162.647 131.413C162.53 130.847 162.542 130.248 162.681 129.691C162.9 128.916 163.344 128.286 163.916 127.939C164.488 127.591 165.141 127.555 165.733 127.838V127.838Z" fill="#605C77"/>
<path d="M172.688 54.1974H108.041V62.748H172.688V54.1974Z" fill="#3A9B76"/>
<g style="mix-blend-mode:multiply">
<path d="M172.688 54.1974H144.685V62.748H172.688V54.1974Z" fill="#5BBC99"/>
</g>
<path d="M174.668 170.718H106.038V178.832H174.668V170.718Z" fill="#3A9B76"/>
<g style="mix-blend-mode:multiply">
<path d="M174.662 170.718H123.809V178.832H174.662V170.718Z" fill="#5BBC99"/>
</g>
<g style="mix-blend-mode:screen" opacity="0.29">
<path d="M150.791 116.1C150.791 141.857 141.61 161.678 130.38 162.74C110.256 164.654 104.23 142.49 104.23 116.733C104.23 90.9761 119.104 69.4603 130.38 69.4603C141.656 69.4603 150.791 90.3432 150.791 116.1Z" fill="#F9B2B2"/>
</g>
<g style="mix-blend-mode:multiply">
<path d="M178.145 88.1435C177.213 79.889 175.912 71.7135 174.249 63.6596C173.675 63.3356 173.061 63.072 172.464 62.7706H156.897C157.47 63.072 158.09 63.3356 158.681 63.6596C160.344 71.7135 161.645 79.889 162.577 88.1435C164.901 108.551 164.833 129.304 162.377 149.685C161.539 156.716 160.422 163.732 159.025 170.733H174.593C175.986 163.702 177.103 156.686 177.945 149.685C180.401 129.304 180.469 108.551 178.145 88.1435V88.1435Z" fill="#5BBC99"/>
</g>
<path d="M91.3652 79.7737C91.1184 77.5136 91.0266 74.9297 91.5889 73.7469C92.3039 72.397 92.917 70.9588 93.4195 69.4528C94.7801 64.676 95.3417 59.5707 95.0664 54.4837C94.8455 51.3078 94.0996 48.2334 92.8805 45.475C91.6615 42.7166 89.9987 40.3405 88.0082 38.5126C86.7605 37.338 85.7137 35.8338 84.935 34.0966C84.1563 32.3594 83.6629 30.4276 83.4865 28.4252L82.0576 12.198H67.7119L66.306 28.3876C66.0707 31.1072 64.3607 33.8569 62.5073 36.0944C56.8091 42.9423 53.7162 52.9167 55.0303 62.8911C55.3279 65.1135 55.7753 67.2967 56.3673 69.4151C56.8675 70.9226 57.4807 72.3611 58.1978 73.7092C58.7716 74.9296 58.6683 77.476 58.4216 79.736C58.3095 80.8826 57.9687 81.97 57.4336 82.8881C56.8985 83.8062 56.1882 84.5224 55.3746 84.9643C54.1871 85.5839 53.1691 86.6581 52.4527 88.0473C51.7364 89.4365 51.3549 91.0764 51.3577 92.754V173.619C51.3577 175.839 52.0294 177.967 53.225 179.537C54.4206 181.107 56.0422 181.989 57.733 181.989H92.0882C93.779 181.989 95.4006 181.107 96.5962 179.537C97.7917 177.967 98.4634 175.839 98.4634 173.619V92.7916C98.4663 91.1141 98.0848 89.4741 97.3684 88.085C96.6521 86.6958 95.6341 85.6216 94.4466 85.002C93.6265 84.5665 92.9091 83.8531 92.3677 82.9345C91.8264 82.016 91.4804 80.9252 91.3652 79.7737Z" fill="#97F0FF"/>
<path d="M91.3652 79.7737C91.1184 77.5136 91.0266 74.9297 91.5889 73.7469C92.3039 72.397 92.917 70.9588 93.4195 69.4528C94.7801 64.676 95.3417 59.5707 95.0664 54.4837C94.8455 51.3078 94.0996 48.2334 92.8805 45.475C91.6615 42.7166 89.9987 40.3405 88.0082 38.5126C86.7605 37.338 85.7137 35.8338 84.935 34.0966C84.1563 32.3594 83.6629 30.4276 83.4865 28.4252L82.0576 12.198H67.7119L66.306 28.3876C66.0707 31.1072 64.3607 33.8569 62.5073 36.0944C56.8091 42.9423 53.7162 52.9167 55.0303 62.8911C55.3279 65.1135 55.7753 67.2967 56.3673 69.4151C56.8675 70.9226 57.4807 72.3611 58.1978 73.7092C58.7716 74.9296 58.6683 77.476 58.4216 79.736C58.3095 80.8826 57.9687 81.97 57.4336 82.8881C56.8985 83.8062 56.1882 84.5224 55.3746 84.9643C54.1871 85.5839 53.1691 86.6581 52.4527 88.0473C51.7364 89.4365 51.3549 91.0764 51.3577 92.754V173.619C51.3577 175.839 52.0294 177.967 53.225 179.537C54.4206 181.107 56.0422 181.989 57.733 181.989H92.0882C93.779 181.989 95.4006 181.107 96.5962 179.537C97.7917 177.967 98.4634 175.839 98.4634 173.619V92.7916C98.4663 91.1141 98.0848 89.4741 97.3684 88.085C96.6521 86.6958 95.6341 85.6216 94.4466 85.002C93.6265 84.5665 92.9091 83.8531 92.3677 82.9345C91.8264 82.016 91.4804 80.9252 91.3652 79.7737Z" fill="#97F0FF"/>
<path d="M98.4462 92.7917V173.619C98.4462 175.839 97.7745 177.967 96.579 179.537C95.3834 181.107 93.7618 181.989 92.071 181.989H57.7215C56.0302 181.989 54.408 181.107 53.2115 179.538C52.015 177.968 51.3421 175.839 51.3406 173.619V92.7917C51.3385 91.1143 51.7203 89.4749 52.4365 88.0859C53.1528 86.6969 54.1704 85.6225 55.3574 85.002C56.171 84.5611 56.881 83.8449 57.4153 82.9265C57.9495 82.0081 58.2888 80.9203 58.3987 79.7737C58.6454 77.5137 58.743 74.9297 58.1749 73.7469C57.4611 72.396 56.8481 70.958 56.3443 69.4528C55.7549 67.3339 55.3094 65.1508 55.0131 62.9288C53.7334 53.2106 56.6542 43.5149 62.054 36.682H86.4073C86.8878 37.3567 87.4162 37.9697 87.9853 38.5127C89.9774 40.3391 91.6417 42.7146 92.8618 45.4732C94.0819 48.2318 94.8284 51.307 95.0491 54.4837C95.326 59.5714 94.7622 64.6776 93.3965 69.4528C92.895 70.9595 92.2819 72.3978 91.566 73.7469C90.9922 74.9674 91.0955 77.5137 91.348 79.7737C91.4578 80.9203 91.7971 82.0081 92.3313 82.9265C92.8656 83.8449 93.5756 84.5611 94.3892 85.002C95.5842 85.6133 96.6108 86.6839 97.3346 88.0738C98.0585 89.4636 98.4459 91.108 98.4462 92.7917V92.7917Z" fill="#93E5A9"/>
<g style="mix-blend-mode:screen">
<path d="M64.2344 43.8765C64.2344 44.3146 64.1355 44.7428 63.9501 45.107C63.7647 45.4712 63.5013 45.7551 63.193 45.9228C62.8847 46.0904 62.5455 46.1343 62.2182 46.0488C61.891 45.9633 61.5904 45.7524 61.3544 45.4426C61.1185 45.1329 60.9578 44.7382 60.8927 44.3086C60.8276 43.879 60.861 43.4336 60.9887 43.0289C61.1164 42.6242 61.3327 42.2783 61.6101 42.0349C61.8875 41.7916 62.2137 41.6617 62.5474 41.6617C62.9948 41.6617 63.4239 41.895 63.7403 42.3104C64.0567 42.7257 64.2344 43.2891 64.2344 43.8765V43.8765Z" fill="#93E5A9"/>
</g>
<g style="mix-blend-mode:screen">
<path d="M65.7035 51.7942C65.7035 51.9849 65.6604 52.1714 65.5797 52.3299C65.499 52.4885 65.3843 52.6121 65.2501 52.6851C65.1159 52.7581 64.9682 52.7772 64.8257 52.74C64.6832 52.7028 64.5523 52.6109 64.4496 52.4761C64.3469 52.3412 64.277 52.1694 64.2486 51.9823C64.2203 51.7953 64.2348 51.6014 64.2904 51.4252C64.346 51.249 64.4401 51.0984 64.5609 50.9924C64.6817 50.8865 64.8237 50.8299 64.969 50.8299C65.1638 50.8299 65.3506 50.9315 65.4884 51.1124C65.6261 51.2932 65.7035 51.5385 65.7035 51.7942Z" fill="#93E5A9"/>
</g>
<g style="mix-blend-mode:screen">
<path d="M71.8606 47.568C72.3899 47.568 72.8189 47.0047 72.8189 46.3099C72.8189 45.6151 72.3899 45.0518 71.8606 45.0518C71.3314 45.0518 70.9023 45.6151 70.9023 46.3099C70.9023 47.0047 71.3314 47.568 71.8606 47.568Z" fill="#93E5A9"/>
</g>
<g style="mix-blend-mode:screen">
<path d="M62.358 165.339C62.358 165.778 62.2589 166.206 62.0733 166.571C61.8877 166.935 61.6239 167.219 61.3153 167.386C61.0066 167.554 60.6671 167.597 60.3397 167.511C60.0123 167.425 59.7117 167.213 59.476 166.903C59.2403 166.592 59.0801 166.197 59.0156 165.767C58.9512 165.337 58.9854 164.891 59.114 164.487C59.2426 164.082 59.4597 163.737 59.7379 163.494C60.0161 163.252 60.3428 163.123 60.6767 163.125C60.898 163.125 61.1171 163.182 61.3215 163.293C61.5258 163.405 61.7114 163.568 61.8676 163.774C62.0238 163.979 62.1475 164.224 62.2317 164.492C62.3159 164.761 62.3588 165.049 62.358 165.339V165.339Z" fill="#93E5A9"/>
</g>
<g style="mix-blend-mode:screen">
<path d="M63.8328 173.272C63.8316 173.466 63.7864 173.654 63.703 173.814C63.6196 173.973 63.5019 174.097 63.3649 174.168C63.2278 174.239 63.0777 174.255 62.9338 174.213C62.7899 174.172 62.6587 174.075 62.557 173.935C62.4552 173.795 62.3877 173.618 62.3629 173.427C62.3381 173.237 62.3573 173.041 62.4179 172.864C62.4785 172.688 62.5778 172.539 62.7031 172.438C62.8284 172.336 62.974 172.286 63.1213 172.293C63.3136 172.303 63.4954 172.411 63.6282 172.593C63.7611 172.776 63.8344 173.02 63.8328 173.272V173.272Z" fill="#93E5A9"/>
</g>
<g style="mix-blend-mode:screen">
<path d="M70.9483 167.773C70.9449 168.021 70.8853 168.263 70.7772 168.468C70.6691 168.672 70.5172 168.83 70.3408 168.921C70.1645 169.012 69.9715 169.032 69.7863 168.979C69.6011 168.926 69.4321 168.802 69.3005 168.623C69.1689 168.444 69.0807 168.218 69.0471 167.973C69.0134 167.728 69.0359 167.476 69.1115 167.248C69.1872 167.02 69.3126 166.826 69.4721 166.692C69.6315 166.557 69.8177 166.488 70.0072 166.492C70.1331 166.495 70.2572 166.53 70.3726 166.596C70.4881 166.662 70.5924 166.758 70.6798 166.876C70.7672 166.995 70.8359 167.136 70.882 167.29C70.928 167.443 70.9506 167.608 70.9483 167.773V167.773Z" fill="#93E5A9"/>
</g>
<g style="mix-blend-mode:screen">
<path d="M68.3373 169.92C68.3385 170.358 68.2405 170.787 68.0558 171.152C67.8711 171.518 67.608 171.803 67.2999 171.972C66.9917 172.14 66.6523 172.185 66.3247 172.101C65.997 172.016 65.6959 171.806 65.4594 171.496C65.2229 171.187 65.0616 170.792 64.9961 170.362C64.9305 169.933 64.9636 169.487 65.0911 169.082C65.2186 168.676 65.4348 168.33 65.7124 168.086C65.99 167.843 66.3164 167.713 66.6503 167.713C67.0967 167.713 67.525 167.945 67.8412 168.359C68.1574 168.772 68.3358 169.334 68.3373 169.92V169.92Z" fill="#93E5A9"/>
</g>
<g style="mix-blend-mode:screen">
<path d="M69.8064 177.845C69.8052 178.035 69.7612 178.221 69.6798 178.379C69.5984 178.536 69.4833 178.659 69.349 178.731C69.2147 178.802 69.0672 178.82 68.9251 178.782C68.783 178.744 68.6527 178.652 68.5505 178.517C68.4484 178.382 68.379 178.21 68.3511 178.023C68.3232 177.836 68.3381 177.643 68.3939 177.467C68.4496 177.291 68.5438 177.141 68.6644 177.035C68.7851 176.93 68.9269 176.873 69.0719 176.873C69.1688 176.873 69.2648 176.898 69.3543 176.947C69.4438 176.996 69.525 177.068 69.5933 177.158C69.6616 177.249 69.7156 177.356 69.7521 177.474C69.7887 177.592 69.8071 177.718 69.8064 177.845V177.845Z" fill="#93E5A9"/>
</g>
<g style="mix-blend-mode:screen">
<path d="M76.9218 172.353C76.923 172.603 76.8676 172.847 76.7627 173.055C76.6579 173.263 76.5082 173.425 76.3329 173.522C76.1576 173.618 75.9644 173.643 75.778 173.595C75.5916 173.547 75.4203 173.427 75.2859 173.25C75.1516 173.074 75.0602 172.849 75.0234 172.604C74.9866 172.36 75.0061 172.106 75.0793 171.876C75.1525 171.646 75.2762 171.449 75.4347 171.312C75.5932 171.174 75.7792 171.101 75.9693 171.103C76.2219 171.103 76.4642 171.234 76.6428 171.469C76.8215 171.703 76.9218 172.022 76.9218 172.353V172.353Z" fill="#93E5A9"/>
</g>
<path d="M98.4462 96.1291H51.3405V156.216H98.4462V96.1291Z" fill="#6ACE49"/>
<path d="M95.1525 99.6095H54.9327V104.883H95.1525V99.6095Z" fill="white"/>
<path d="M95.1525 147.53H54.9327V151.839H95.1525V147.53Z" fill="white"/>
<g style="mix-blend-mode:multiply" opacity="0.49">
<path d="M94.4122 85.002C93.5985 84.5601 92.8882 83.8439 92.3531 82.9258C91.818 82.0077 91.4772 80.9203 91.3651 79.7737C91.1184 77.5136 91.0266 74.9297 91.5889 73.7469C92.3039 72.397 92.917 70.9588 93.4194 69.4528C94.78 64.676 95.3417 59.5707 95.0663 54.4837C94.8455 51.3078 94.0996 48.2334 92.8805 45.475C91.6615 42.7166 89.9987 40.3405 88.0082 38.5126C86.7605 37.338 85.7137 35.8338 84.935 34.0966C84.1562 32.3594 83.6628 30.4276 83.4864 28.4252L82.0576 12.198H74.4084L75.8143 28.3876C75.9907 30.3899 76.4841 32.3217 77.2629 34.0589C78.0416 35.7961 79.0884 37.3003 80.3361 38.4749C82.3282 40.3014 83.9925 42.6769 85.2126 45.4355C86.4327 48.1941 87.1792 51.2692 87.4 54.446C87.6733 59.5336 87.1097 64.6388 85.7473 69.4151C85.2471 70.9226 84.6339 72.3611 83.9168 73.7092C83.343 74.9296 83.4463 77.476 83.693 79.736C83.8051 80.8826 84.1459 81.97 84.681 82.8881C85.2161 83.8062 85.9264 84.5224 86.7401 84.9643C87.9275 85.5839 88.9455 86.6581 89.6619 88.0473C90.3782 89.4365 90.7597 91.0764 90.7569 92.754V173.619C90.7569 175.839 90.0852 177.967 88.8896 179.537C87.694 181.107 86.0724 181.989 84.3816 181.989H92.0537C93.7445 181.989 95.3661 181.107 96.5617 179.537C97.7573 177.967 98.429 175.839 98.429 173.619V92.7916C98.4318 91.1141 98.0503 89.4741 97.334 88.085C96.6176 86.6958 95.5996 85.6216 94.4122 85.002V85.002Z" fill="#4B6568"/>
</g>
<path d="M84.3529 1.26716V12.1983H65.0722V1.26716C65.072 0.941678 65.1672 0.628567 65.3382 0.392874C65.5092 0.157181 65.7427 0.0170263 65.9904 0.00152743H83.343C83.4734 -0.00663461 83.6037 0.0200636 83.726 0.080003C83.8483 0.139942 83.9601 0.231874 84.0545 0.350222C84.1489 0.468569 84.2241 0.610868 84.2754 0.768486C84.3267 0.926105 84.353 1.09576 84.3529 1.26716V1.26716Z" fill="#6ACE49"/>
<g style="mix-blend-mode:multiply" opacity="0.49">
<path d="M74.4084 0.00127434H83.3659C83.4944 -0.00274403 83.6223 0.0270237 83.7419 0.0888261C83.8615 0.150628 83.9705 0.243217 84.0625 0.361144C84.1544 0.479072 84.2275 0.619955 84.2774 0.775507C84.3273 0.931058 84.3529 1.09813 84.3529 1.26691V12.198H74.4084V0.00127434Z" fill="#4B6568"/>
</g>
<path d="M84.33 12.198H65.0493V15.3696H84.33V12.198Z" fill="#327719"/>
<g style="mix-blend-mode:screen" opacity="0.26">
<path d="M73.2493 10.3072C73.2501 10.9393 73.2213 11.5707 73.1632 12.1982H66.1166C66.0585 11.5707 66.0298 10.9393 66.0305 10.3072C66.0305 5.40291 67.6487 1.42522 69.6399 1.42522C71.6311 1.42522 73.2493 5.40291 73.2493 10.3072Z" fill="#FFACA1"/>
</g>
<g style="mix-blend-mode:screen" opacity="0.22">
<path d="M68.9686 66.6578C74.3942 66.6578 78.7925 61.5581 78.7925 55.2672C78.7925 48.9763 74.3942 43.8765 68.9686 43.8765C63.5429 43.8765 59.1446 48.9763 59.1446 55.2672C59.1446 61.5581 63.5429 66.6578 68.9686 66.6578Z" fill="#97F0FF"/>
</g>
<path d="M85.2538 126.173C85.255 129.651 84.4704 133.051 82.9995 135.944C81.5285 138.836 79.4372 141.091 76.99 142.423C74.5428 143.755 71.8497 144.104 69.2513 143.427C66.6529 142.749 64.2659 141.075 62.3923 138.616C60.5186 136.157 59.2425 133.024 58.7252 129.613C58.208 126.202 58.4729 122.667 59.4864 119.453C60.5 116.24 62.2166 113.493 64.4192 111.561C66.6218 109.629 69.2115 108.597 71.8607 108.597C75.4118 108.597 78.8175 110.449 81.329 113.744C83.8406 117.04 85.2523 121.511 85.2538 126.173V126.173Z" fill="#327719"/>
<path d="M89.242 110.932C88.3595 113.475 87.9017 116.236 87.8993 119.031V177.596C87.8993 179.295 88.4131 180.923 89.3279 182.124C90.2426 183.325 91.4832 184 92.7768 184H118.025C119.318 183.998 120.558 183.323 121.473 182.122C122.387 180.922 122.901 179.294 122.903 177.596V119.031C122.899 116.233 122.44 113.469 121.554 110.925L89.242 110.932Z" fill="#7F1CA0"/>
<path d="M89.242 110.932C88.3595 113.475 87.9017 116.236 87.8993 119.031V177.596C87.8993 179.295 88.4131 180.923 89.3279 182.124C90.2426 183.325 91.4832 184 92.7768 184H118.025C119.318 183.998 120.558 183.323 121.473 182.122C122.387 180.922 122.901 179.294 122.903 177.596V119.031C122.899 116.233 122.44 113.469 121.554 110.925L89.242 110.932Z" fill="#7F1CA0"/>
<path d="M122.903 119.031V177.596C122.901 179.294 122.387 180.922 121.473 182.122C120.558 183.323 119.318 183.998 118.025 184H92.7768C91.4832 184 90.2426 183.325 89.3279 182.124C88.4131 180.923 87.8993 179.295 87.8993 177.596V119.031C87.9009 116.234 88.3587 113.47 89.242 110.925H121.554C122.44 113.469 122.899 116.233 122.903 119.031V119.031Z" fill="#FFAD1D"/>
<path d="M121.554 110.932H105.309C106.192 113.475 106.65 116.237 106.652 119.031V177.597C106.652 179.295 106.138 180.924 105.223 182.124C104.309 183.325 103.068 184 101.774 184H118.025C119.318 183.998 120.558 183.323 121.473 182.122C122.387 180.922 122.901 179.294 122.903 177.597V119.031C122.899 116.236 122.439 113.475 121.554 110.932V110.932Z" fill="#E86605"/>
<path d="M94.5901 177.604V119.031C94.5935 116.233 95.0534 113.469 95.9386 110.925H89.242C88.3587 113.47 87.9009 116.234 87.8993 119.031V177.596C87.8993 179.295 88.4131 180.923 89.3279 182.124C90.2426 183.325 91.4832 184 92.7768 184H99.4677C98.1755 183.998 96.9366 183.324 96.0224 182.125C95.1082 180.926 94.5932 179.3 94.5901 177.604V177.604Z" fill="#FC8C38"/>
<path d="M104.644 119.995C99.4791 120.153 90.47 123.536 90.0453 125.465C90.47 127.386 99.5021 130.776 104.644 130.934C109.808 130.768 118.817 127.393 119.242 125.465C118.817 123.551 109.791 120.153 104.644 119.995Z" fill="#3C17AD"/>
<path d="M122.903 166.04H87.8993V173.317H122.903V166.04Z" fill="#3C17AD"/>
<g style="mix-blend-mode:multiply" opacity="0.13">
<path d="M122.903 119.031V177.596C122.901 179.294 122.387 180.922 121.473 182.122C120.558 183.323 119.318 183.998 118.025 184H107.696C108.997 184.008 110.246 183.338 111.17 182.137C112.095 180.937 112.618 179.303 112.626 177.596V119.031C112.622 116.232 112.158 113.467 111.266 110.925H121.549C122.436 113.469 122.898 116.233 122.903 119.031V119.031Z" fill="#631384"/>
</g>
<path d="M121.554 110.932H89.2362C89.2362 110.033 89.5083 109.171 89.9925 108.535C90.4768 107.899 91.1336 107.542 91.8184 107.542H118.972C119.311 107.541 119.647 107.628 119.961 107.798C120.275 107.968 120.56 108.218 120.8 108.533C121.04 108.848 121.23 109.222 121.359 109.634C121.489 110.046 121.555 110.487 121.554 110.932V110.932Z" fill="#6D6072"/>
<path d="M94.7622 104.273H101.246C101.84 104.273 102.409 104.582 102.829 105.133C103.249 105.684 103.484 106.432 103.484 107.211V107.535H92.6275V107.068C92.6275 106.7 92.6828 106.336 92.7901 105.996C92.8975 105.657 93.0548 105.348 93.2531 105.089C93.4514 104.829 93.6868 104.623 93.9457 104.483C94.2047 104.343 94.4821 104.272 94.7622 104.273V104.273Z" fill="#514756"/>
<g style="mix-blend-mode:screen">
<path d="M96.7362 110.36C99.8959 110.36 102.457 109.979 102.457 109.509C102.457 109.038 99.8959 108.657 96.7362 108.657C93.5766 108.657 91.0151 109.038 91.0151 109.509C91.0151 109.979 93.5766 110.36 96.7362 110.36Z" fill="#6D6072"/>
</g>
<path d="M111.403 157.693L100.592 133.39C98.1652 135.29 96.4078 138.372 95.7024 141.964C94.9971 145.557 95.4009 149.37 96.8261 152.573C98.2512 155.777 100.582 158.112 103.312 159.071C106.042 160.03 108.95 159.535 111.403 157.693V157.693Z" fill="#FFB024"/>
<path d="M103.358 155.817L104.741 146.905L98.9741 151.214C99.9812 153.373 101.532 155.002 103.358 155.817Z" fill="#FF350D"/>
<path d="M105.843 147.583L104.506 156.224C106.123 156.64 107.798 156.42 109.32 155.591L105.843 147.583Z" fill="#FF350D"/>
<path d="M104.322 145.398C102.067 144.321 100.076 143.409 98.0101 142.656C97.5248 145.031 97.6685 147.552 98.4175 149.805L104.322 145.398Z" fill="#FF350D"/>
<path d="M98.4118 141.187C100.294 141.888 102.119 142.694 104.15 143.666L101.109 136.659C99.9223 137.831 98.9921 139.393 98.4118 141.187V141.187Z" fill="#FF350D"/>
<path d="M114.112 140.524L99.9496 161.618C102.099 163.894 104.835 164.993 107.587 164.686C110.339 164.379 112.894 162.689 114.72 159.969C116.547 157.249 117.503 153.709 117.389 150.086C117.276 146.464 116.102 143.038 114.112 140.524V140.524Z" fill="#FFF27D"/>
<path d="M115.294 151.139L108.408 152.231L113.343 158.062C114.587 156.123 115.278 153.674 115.294 151.139V151.139Z" fill="#FF350D"/>
<path d="M108.551 150.672L115.225 149.617C115.017 147.47 114.33 145.452 113.251 143.816L108.551 150.672Z" fill="#FF350D"/>
<path d="M107.461 153.218C107.392 156.375 107.364 159.132 107.461 161.927C109.33 161.785 111.107 160.813 112.499 159.17L107.461 153.218Z" fill="#FF350D"/>
<path d="M106.273 161.912C106.181 159.343 106.204 156.811 106.273 153.994L102.165 160.021C103.384 161.113 104.801 161.766 106.273 161.912V161.912Z" fill="#FF350D"/>
<g style="mix-blend-mode:screen" opacity="0.43">
<path d="M111.168 148.412C111.168 167.05 106.153 182.162 99.9668 182.162C93.7809 182.162 88.7714 167.042 88.7714 148.412C88.7714 129.781 93.7809 114.661 99.9668 114.661C106.153 114.661 111.168 129.766 111.168 148.412Z" fill="#E0E075"/>
</g>
<path d="M16.0672 110.82C15.1832 113.367 14.7253 116.134 14.7245 118.933V177.491C14.7245 179.189 15.2384 180.818 16.1531 182.019C17.0678 183.22 18.3084 183.895 19.602 183.895H44.8505C45.4913 183.896 46.1259 183.731 46.718 183.409C47.3101 183.088 47.8481 182.616 48.3012 182.021C48.7542 181.427 49.1135 180.72 49.3583 179.943C49.6032 179.166 49.7288 178.332 49.7281 177.491V118.933C49.7273 116.134 49.2694 113.367 48.3853 110.82H16.0672Z" fill="#7F1CA0"/>
<path d="M16.0672 110.82C15.1832 113.367 14.7253 116.134 14.7245 118.933V177.491C14.7245 179.189 15.2384 180.818 16.1531 182.019C17.0678 183.22 18.3084 183.895 19.602 183.895H44.8505C45.4913 183.896 46.1259 183.731 46.718 183.409C47.3101 183.088 47.8481 182.616 48.3012 182.021C48.7542 181.427 49.1135 180.72 49.3583 179.943C49.6032 179.166 49.7288 178.332 49.7281 177.491V118.933C49.7273 116.134 49.2694 113.367 48.3853 110.82H16.0672Z" fill="#7F1CA0"/>
<path d="M49.7396 118.933V177.499C49.7381 179.196 49.2237 180.824 48.3093 182.024C47.3949 183.225 46.1552 183.9 44.862 183.902H19.6135C18.3199 183.902 17.0793 183.227 16.1646 182.027C15.2499 180.826 14.736 179.197 14.736 177.499V118.933C14.734 116.137 15.1879 113.373 16.0673 110.827H48.3911C49.2763 113.372 49.7361 116.136 49.7396 118.933V118.933Z" fill="#6BC11F"/>
<path d="M48.3911 110.82H32.1345C33.0185 113.367 33.4764 116.134 33.4772 118.933V177.491C33.4772 179.189 32.9633 180.818 32.0486 182.019C31.1339 183.22 29.8933 183.895 28.5997 183.895H44.8563C45.497 183.896 46.1316 183.731 46.7237 183.409C47.3158 183.088 47.8538 182.616 48.3069 182.021C48.76 181.427 49.1192 180.72 49.3641 179.943C49.6089 179.166 49.7346 178.332 49.7338 177.491V118.933C49.733 116.134 49.2751 113.367 48.3911 110.82V110.82Z" fill="#6BC11F"/>
<path d="M21.4268 177.491V118.933C21.4276 116.134 21.8855 113.367 22.7696 110.82H16.0672C15.1832 113.367 14.7253 116.134 14.7245 118.933V177.491C14.7245 179.189 15.2384 180.818 16.1531 182.019C17.0678 183.22 18.3084 183.895 19.602 183.895H26.3044C25.6636 183.896 25.029 183.731 24.4369 183.409C23.8448 183.088 23.3068 182.616 22.8537 182.021C22.4007 181.427 22.0414 180.72 21.7966 179.943C21.5517 179.166 21.4261 178.332 21.4268 177.491V177.491Z" fill="#7CD627"/>
<path d="M31.4803 119.882C26.3158 120.04 17.3009 123.423 16.8763 125.352C17.3009 127.28 26.333 130.663 31.4803 130.821C36.6447 130.663 45.6539 127.28 46.0785 125.352C45.6539 123.423 36.6218 120.04 31.4803 119.882Z" fill="#0A9382"/>
<path d="M49.7395 165.935H14.7359V173.212H49.7395V165.935Z" fill="#0A9382"/>
<g style="mix-blend-mode:multiply" opacity="0.13">
<path d="M49.7395 118.933V177.499C49.738 179.196 49.2236 180.824 48.3092 182.024C47.3948 183.225 46.1551 183.9 44.862 183.902H34.533C35.8333 183.91 37.0827 183.24 38.007 182.039C38.9312 180.839 39.4546 179.206 39.4622 177.499V118.933C39.4582 116.134 38.9944 113.369 38.1022 110.827H48.391C49.2763 113.372 49.7361 116.136 49.7395 118.933V118.933Z" fill="#631384"/>
</g>
<path d="M48.3911 110.819H16.0673C16.0673 109.92 16.3393 109.058 16.8236 108.422C17.3078 107.787 17.9646 107.429 18.6495 107.429H45.8088C46.4932 107.431 47.1492 107.789 47.6331 108.425C48.117 109.06 48.3896 109.921 48.3911 110.819V110.819Z" fill="#6D6072"/>
<path d="M21.5932 104.167H28.0774C28.3713 104.167 28.6623 104.243 28.9339 104.391C29.2054 104.539 29.4521 104.755 29.6599 105.028C29.8677 105.301 30.0326 105.624 30.145 105.981C30.2575 106.337 30.3154 106.719 30.3154 107.105V107.429H19.4643V106.977C19.4628 106.609 19.5167 106.244 19.623 105.903C19.7293 105.562 19.8859 105.252 20.0837 104.991C20.2816 104.73 20.5168 104.523 20.7758 104.381C21.0349 104.24 21.3126 104.167 21.5932 104.167V104.167Z" fill="#514756"/>
<g style="mix-blend-mode:screen">
<path d="M23.5672 110.247C26.7269 110.247 29.2883 109.866 29.2883 109.395C29.2883 108.925 26.7269 108.544 23.5672 108.544C20.4075 108.544 17.8461 108.925 17.8461 109.395C17.8461 109.866 20.4075 110.247 23.5672 110.247Z" fill="#6D6072"/>
</g>
<path d="M41.1551 125.156C41.1551 126.519 37.0694 127.627 32.0312 127.627C26.993 127.627 22.9016 126.519 22.9016 125.156C22.9016 123.792 26.9872 122.685 32.0312 122.685C37.0751 122.685 41.1551 123.792 41.1551 125.156Z" fill="#FFFF8F"/>
<path d="M31.4057 134.565C32.1529 135.614 32.5532 137.009 32.5189 138.445C32.5321 139.748 32.4046 141.046 32.1402 142.302L31.8877 142.227C32.3697 136.531 30.8663 135.612 30.8663 135.65L31.4057 134.565Z" fill="#472121"/>
<path d="M33.7986 141.451C33.1917 141.45 32.5889 141.58 32.014 141.835C31.1521 141.137 30.1573 140.774 29.1448 140.788C26.0691 140.788 23.5729 143.861 23.5729 149.421C23.5729 154.981 26.0691 159.493 29.1448 159.493C29.8162 159.493 32.8001 160.156 33.7871 160.156C36.8628 160.156 39.359 155.636 39.359 150.092C39.359 144.547 36.8743 141.451 33.7986 141.451Z" fill="#FF0600"/>
<path d="M29.1562 145.918C28.3873 147.786 28.1291 150.325 26.7003 149.323C26.0608 148.808 25.5959 147.99 25.4009 147.039C25.2059 146.087 25.2956 145.074 25.6516 144.207C26.0076 143.339 26.603 142.684 27.3155 142.374C28.028 142.065 28.8036 142.125 29.4833 142.543C30.9122 143.537 29.9252 144.035 29.1562 145.918Z" fill="#FF6666"/>
<g style="mix-blend-mode:screen" opacity="0.43">
<path d="M37.999 148.291C37.999 166.937 32.9895 182.049 26.8036 182.049C20.6177 182.049 15.6025 166.937 15.6025 148.291C15.6025 129.646 20.6177 114.511 26.8036 114.511C32.9895 114.511 37.999 129.653 37.999 148.291Z" fill="#C6B8CC"/>
</g>
</svg>
