<svg width="183" height="162" viewBox="0 0 183 162" fill="none" xmlns="http://www.w3.org/2000/svg">
<rect x="11" y="4" width="168" height="154" rx="16" fill="#C83333" stroke="#C83333" stroke-width="8"/>
<rect x="1" y="1" width="174" height="156" rx="19" fill="white" stroke="#C83333" stroke-width="2"/>
<path d="M122.194 67.2131C119.588 54.4564 107.953 44.8333 94 44.8333C82.9217 44.8333 73.3192 50.915 68.5083 59.7964C56.9892 61.0017 48 70.4394 48 81.9167C48 94.2098 58.2925 104.167 71 104.167H120.833C131.413 104.167 140 95.86 140 85.625C140 75.835 132.123 67.8992 122.194 67.2131ZM94 96.75L74.8333 78.2083H86.3333V63.375H101.667V78.2083H113.167L94 96.75Z" fill="#14A06F"/>
</svg>
