<svg width="229" height="189" viewBox="0 0 229 189" fill="none" xmlns="http://www.w3.org/2000/svg">
<path d="M193.007 140.212C194.468 140.212 195.652 139.353 195.652 138.295C195.652 137.236 194.468 136.377 193.007 136.377C191.547 136.377 190.363 137.236 190.363 138.295C190.363 139.353 191.547 140.212 193.007 140.212Z" fill="#8FDDE5"/>
<path d="M212.31 74.5727C212.744 72.6388 210.934 70.8161 208.267 70.5015C205.599 70.1869 203.086 71.4995 202.652 73.4334C202.218 75.3673 204.028 77.1901 206.695 77.5047C209.362 77.8193 211.876 76.5066 212.31 74.5727Z" fill="#8FDDE5"/>
<path d="M31.9674 89.0462C32.5621 87.1917 30.9708 85.3388 28.4132 84.9076C25.8556 84.4763 23.3002 85.6301 22.7055 87.4847C22.1108 89.3392 23.7021 91.1921 26.2596 91.6233C28.8172 92.0545 31.3727 90.9007 31.9674 89.0462Z" fill="#8FDDE5"/>
<path d="M36.6818 74.3048C36.683 74.6347 36.5493 74.9574 36.2974 75.2321C36.0456 75.5068 35.687 75.7211 35.2671 75.848C34.8472 75.9749 34.3848 76.0085 33.9384 75.9447C33.4921 75.8809 33.0819 75.7225 32.7598 75.4896C32.4377 75.2567 32.2182 74.9597 32.129 74.6362C32.0397 74.3128 32.0849 73.9774 32.2587 73.6726C32.4325 73.3677 32.7271 73.1072 33.1053 72.9238C33.4834 72.7405 33.9281 72.6426 34.383 72.6426C34.9916 72.6426 35.5754 72.8176 36.0063 73.1292C36.4372 73.4408 36.6801 73.8636 36.6818 74.3048Z" fill="#8FDDE5"/>
<path d="M45.5847 57.9132C47.6205 56.437 47.6205 54.0437 45.5847 52.5676C43.5489 51.0914 40.2482 51.0914 38.2124 52.5676C36.1767 54.0437 36.1767 56.437 38.2125 57.9132C40.2482 59.3893 43.5489 59.3893 45.5847 57.9132Z" fill="#8FDDE5"/>
<path d="M27.8135 137.803C27.8148 138.179 27.6622 138.546 27.3752 138.859C27.0882 139.172 26.6795 139.416 26.2011 139.56C25.7226 139.705 25.1958 139.743 24.6874 139.67C24.1789 139.598 23.7117 139.417 23.3448 139.152C22.9779 138.886 22.7278 138.548 22.6262 138.179C22.5247 137.811 22.5762 137.429 22.7742 137.082C22.9722 136.734 23.3079 136.437 23.7388 136.229C24.1696 136.02 24.6762 135.908 25.1945 135.908C25.888 135.908 26.5532 136.108 27.0442 136.463C27.5352 136.818 27.8118 137.3 27.8135 137.803V137.803Z" fill="#8FDDE5"/>
<path d="M13.349 131.847C15.4142 130.349 15.4142 127.922 13.349 126.424C11.2838 124.927 7.93542 124.927 5.8702 126.424C3.80499 127.922 3.80498 130.349 5.8702 131.847C7.93541 133.344 11.2838 133.344 13.349 131.847Z" fill="#8FDDE5"/>
<path d="M208.094 138.946C210.265 138.946 212.025 137.669 212.025 136.095C212.025 134.52 210.265 133.244 208.094 133.244C205.922 133.244 204.162 134.52 204.162 136.095C204.162 137.669 205.922 138.946 208.094 138.946Z" fill="#8FDDE5"/>
<path d="M213.376 59.0805C213.374 59.4496 213.222 59.8101 212.939 60.1166C212.655 60.4231 212.252 60.6617 211.782 60.8023C211.311 60.9429 210.793 60.9792 210.294 60.9067C209.795 60.8341 209.337 60.6559 208.977 60.3946C208.618 60.1333 208.373 59.8006 208.274 59.4385C208.176 59.0765 208.227 58.7013 208.422 58.3603C208.617 58.0194 208.947 57.7281 209.371 57.5231C209.794 57.3181 210.291 57.2087 210.801 57.2087C211.484 57.2099 212.139 57.4077 212.622 57.7586C213.105 58.1095 213.376 58.5849 213.376 59.0805Z" fill="#8FDDE5"/>
<path d="M135.96 12.5421C135.961 13.0908 135.738 13.6275 135.319 14.0842C134.899 14.5409 134.302 14.8971 133.603 15.1077C132.905 15.3183 132.135 15.3739 131.393 15.2674C130.651 15.1609 129.968 14.8971 129.433 14.5094C128.897 14.1217 128.532 13.6275 128.384 13.0894C128.236 12.5513 128.312 11.9934 128.601 11.4863C128.89 10.9793 129.38 10.5459 130.01 10.2409C130.639 9.93597 131.378 9.77319 132.135 9.77319C133.149 9.77319 134.121 10.0648 134.838 10.5839C135.555 11.103 135.959 11.8073 135.96 12.5421V12.5421Z" fill="#8FDDE5"/>
<path d="M151.656 2.09944C151.656 2.51467 151.486 2.92058 151.168 3.26583C150.849 3.61108 150.397 3.88017 149.868 4.03908C149.339 4.19798 148.757 4.23955 148.195 4.15855C147.634 4.07754 147.118 3.87759 146.713 3.58397C146.308 3.29036 146.032 2.91628 145.92 2.50902C145.809 2.10177 145.866 1.67964 146.085 1.29602C146.304 0.912398 146.675 0.58451 147.152 0.35382C147.628 0.12313 148.188 0 148.76 0C149.528 0 150.265 0.221191 150.808 0.614913C151.351 1.00863 151.656 1.54264 151.656 2.09944Z" fill="#8FDDE5"/>
<path d="M108.288 53.3378C108.288 53.8242 108.089 54.2996 107.716 54.704C107.343 55.1084 106.814 55.4237 106.194 55.6098C105.574 55.7959 104.892 55.8446 104.234 55.7497C103.576 55.6548 102.972 55.4206 102.498 55.0767C102.023 54.7328 101.7 54.2946 101.57 53.8175C101.439 53.3405 101.506 52.846 101.763 52.3967C102.019 51.9473 102.454 51.5632 103.012 51.293C103.57 51.0228 104.225 50.8785 104.896 50.8785C105.342 50.8779 105.783 50.9411 106.195 51.0645C106.607 51.1879 106.981 51.369 107.296 51.5975C107.611 51.826 107.861 52.0973 108.031 52.3959C108.201 52.6946 108.288 53.0146 108.288 53.3378V53.3378Z" fill="#8FDDE5"/>
<path d="M115.931 189C173.834 189 220.774 185.717 220.774 181.668C220.774 177.618 173.834 174.336 115.931 174.336C58.0279 174.336 11.088 177.618 11.088 181.668C11.088 185.717 58.0279 189 115.931 189Z" fill="#5BBC99"/>
<path d="M132.443 143.882C131.988 141.487 132.393 139.048 133.617 136.799C134.841 134.55 136.843 132.568 139.431 131.044C142.019 129.52 145.106 128.505 148.392 128.098C151.678 127.69 155.054 127.903 158.194 128.717C164.368 130.316 169.436 134.82 168.601 139.533" fill="#EF4545"/>
<path d="M125.183 132.98C126.1 132.675 127.456 133.148 127.356 133.891C128.135 131.737 128.982 129.482 131.124 127.87C132.066 127.16 133.461 126.577 134.736 126.914C135.239 127.08 135.666 127.348 135.965 127.685C136.263 128.023 136.421 128.416 136.419 128.817C136.395 129.618 136.093 130.401 135.539 131.094C134.785 132.17 133.846 133.173 132.745 134.077C133.273 133.649 133.974 133.353 134.748 133.23C134.938 133.214 135.131 133.229 135.312 133.272C135.494 133.315 135.661 133.386 135.801 133.48C135.941 133.575 136.052 133.69 136.125 133.818C136.198 133.946 136.232 134.085 136.224 134.223C135.854 136.528 128.756 140.544 125.704 139.57C122.809 138.636 122.413 134.041 125.183 132.98Z" fill="#006937"/>
<path d="M63.4374 142.325C61.6911 140.915 60.373 139.255 59.5685 137.452C59.1939 136.495 59.083 135.494 59.2419 134.506C59.304 134.149 59.4789 133.808 59.7529 133.509C60.0269 133.21 60.3926 132.961 60.8214 132.782C61.2502 132.602 61.7304 132.497 62.2246 132.475C62.7187 132.452 63.2133 132.513 63.6698 132.652C65.1116 133.111 66.4073 133.781 67.4758 134.619C67.3377 133.171 67.3565 131.432 69.2281 130.707C69.7973 130.502 70.4308 130.408 71.0654 130.435C71.7001 130.463 72.3139 130.61 72.8458 130.862C75.1508 131.878 75.9484 133.722 77.3679 135.243L79.8801 133.162C80.0776 132.953 80.3718 132.803 80.7092 132.739C80.9108 132.74 81.1097 132.772 81.2927 132.833C81.4757 132.895 81.6386 132.983 81.7706 133.094C84.9724 135.173 87.252 137.894 88.3213 140.913" fill="#006937"/>
<path d="M160.028 129.664C160.03 129.673 160.03 129.683 160.028 129.692C159.618 130.572 158.942 131.375 158.049 132.042C156.291 133.542 154.438 134.982 152.491 136.364C153.234 135.989 154.073 135.726 154.959 135.589C156.347 135.444 158.037 136.045 157.415 137.552C157.235 137.948 156.927 138.307 156.517 138.6C153.229 141.039 149.684 143.29 145.915 145.331C145.581 145.512 145.177 145.614 144.759 145.622H144.546C144.114 145.591 143.71 145.453 143.403 145.23C143.175 145.07 143.001 144.874 142.894 144.657C141.374 141.678 139.396 137.033 139.911 134.587C139.937 134.239 140.128 133.908 140.451 133.649C141.148 133.194 142.26 133.581 142.856 134.105C143.453 134.628 143.874 135.275 144.709 135.585C144.222 133.997 144.137 132.358 144.458 130.748C144.659 129.737 145.086 128.644 146.267 128.066C147.448 127.488 149.451 127.825 149.658 128.836C149.631 127.266 150.112 125.714 151.064 124.305C152.015 122.895 153.409 121.667 155.135 120.72C155.61 120.446 156.205 120.305 156.812 120.324C158.012 120.397 158.376 121.162 158.533 121.854C158.77 122.966 158.691 124.102 158.298 125.191C157.906 126.28 157.21 127.298 156.253 128.184C156.595 127.939 157.036 127.78 157.513 127.73C157.989 127.681 158.474 127.744 158.897 127.91C159.32 128.075 159.659 128.336 159.862 128.652C160.066 128.968 160.124 129.323 160.028 129.664V129.664Z" fill="#820032"/>
<path d="M157.076 125.361C156.561 125.566 156.046 125.771 155.524 125.971L154.79 126.267C154.626 126.331 154.469 126.39 154.312 126.44L153.295 128.303C152.416 129.874 151.517 131.445 150.626 133.021C152.221 132.374 153.615 131.491 155.185 130.812C155.334 130.762 155.504 130.755 155.659 130.794C155.814 130.834 155.941 130.915 156.014 131.022C156.084 131.129 156.093 131.253 156.039 131.365C155.985 131.477 155.872 131.57 155.725 131.623C153.766 132.47 152.064 133.636 149.928 134.264C148.817 136.25 147.743 138.249 146.788 140.276C147.919 139.916 148.98 139.46 150.092 139.087C150.241 139.037 150.412 139.031 150.567 139.071C150.722 139.111 150.849 139.194 150.921 139.301C150.99 139.409 150.998 139.533 150.943 139.645C150.887 139.758 150.774 139.85 150.626 139.902C149.168 140.394 147.787 140.982 146.273 141.382C145.645 142.78 145.055 144.192 144.552 145.618C144.12 145.586 143.717 145.448 143.409 145.226C143.899 143.86 144.464 142.493 145.086 141.127C145.083 141.118 145.083 141.109 145.086 141.1C144.527 139.989 143.566 139.01 142.844 137.958C142.791 137.903 142.756 137.842 142.74 137.776C142.724 137.711 142.727 137.644 142.751 137.58C142.774 137.516 142.816 137.457 142.874 137.406C142.932 137.355 143.005 137.314 143.087 137.285C143.17 137.257 143.26 137.242 143.351 137.241C143.442 137.24 143.533 137.254 143.616 137.281C143.699 137.308 143.773 137.348 143.833 137.398C143.893 137.448 143.937 137.507 143.962 137.57C144.489 138.34 145.155 139.073 145.689 139.848C146.625 137.912 147.636 136.004 148.691 134.105C148.674 134.087 148.661 134.067 148.653 134.046C148.214 132.802 147.667 131.573 147.228 130.325C147.027 129.76 148.251 129.596 148.446 130.152C148.754 131.022 149.112 131.882 149.451 132.752C150.707 130.544 151.963 128.335 153.15 126.112C153.026 125.919 152.919 125.72 152.83 125.516C152.629 125.129 152.434 124.732 152.24 124.345C152.188 124.291 152.154 124.23 152.138 124.165C152.123 124.1 152.127 124.034 152.15 123.971C152.173 123.907 152.215 123.848 152.273 123.797C152.33 123.747 152.402 123.706 152.484 123.677C152.566 123.649 152.655 123.633 152.745 123.632C152.836 123.631 152.925 123.644 153.008 123.67C153.091 123.696 153.166 123.735 153.226 123.784C153.286 123.833 153.331 123.891 153.358 123.954C153.508 124.254 153.659 124.555 153.816 124.865C154.162 124.209 154.494 123.553 154.827 122.893C154.901 122.8 155.018 122.728 155.157 122.692C155.297 122.655 155.449 122.655 155.588 122.693C155.727 122.73 155.844 122.801 155.917 122.894C155.99 122.988 156.016 123.097 155.989 123.202C155.663 123.858 155.324 124.514 154.984 125.165L156.542 124.546C156.691 124.495 156.86 124.489 157.015 124.528C157.17 124.567 157.298 124.649 157.371 124.755C157.442 124.864 157.451 124.989 157.396 125.102C157.34 125.216 157.225 125.309 157.076 125.361Z" fill="#A01F53"/>
<path d="M54.4309 135.166C54.5904 135.041 54.7295 134.904 54.8454 134.756C55.0173 134.553 55.1246 134.324 55.1594 134.087C55.3541 132.825 53.5202 131.559 52.7665 130.466C51.5749 128.751 50.7853 126.904 50.4301 125.001C50.1726 123.599 49.7455 121.813 47.8362 121.499C45.9269 121.185 44.4823 122.72 43.6533 124.013C44.1558 120.398 44.1431 116.755 43.6156 113.142C43.4586 112.068 43.2325 110.952 42.3594 110.091C41.8036 109.535 41.0148 109.124 40.1106 108.919C39.2064 108.714 38.2351 108.726 37.3414 108.954C36.4477 109.182 35.6793 109.613 35.1508 110.183C34.6222 110.753 34.3617 111.432 34.4081 112.118C33.9873 109.581 33.4786 107.026 32.0529 104.694C31.0291 103.009 29.2015 101.329 26.6766 101.17C24.5977 101.038 22.6507 101.994 21.3318 103.169C20.1686 104.268 19.3307 105.529 18.8703 106.874C18.41 108.219 18.3371 109.618 18.6562 110.984C19.322 113.722 21.0671 116.263 23.6807 118.298C20.9926 118.029 18.6562 120.028 18.5997 121.995C18.5432 123.963 20.2327 125.744 22.1922 127.105C26.3901 130.006 32.0026 131.581 37.7997 131.486C36.286 131.646 35.6705 133.162 36.3928 134.146C37.1151 135.13 38.6538 135.63 40.1612 135.94C43.2073 136.582 51.6799 137.343 54.4309 135.166Z" fill="#5CBC1E"/>
<path d="M54.4309 135.166C54.5904 135.041 54.7295 134.904 54.8454 134.756C55.0173 134.553 55.1246 134.324 55.1594 134.087C53.3338 133.291 51.5543 132.435 49.8209 131.518C49.5948 130.548 49.3749 129.583 49.1551 128.613C49.1314 128.535 49.0867 128.461 49.0235 128.396C48.9603 128.331 48.8799 128.276 48.787 128.234C48.6941 128.191 48.5906 128.163 48.4823 128.15C48.3741 128.136 48.2633 128.139 48.1565 128.157C47.9431 128.194 47.7581 128.29 47.6408 128.424C47.5234 128.559 47.4831 128.721 47.5284 128.877C47.654 129.4 47.7734 129.929 47.8927 130.452C44.1354 128.299 40.6962 125.87 37.6301 123.202C38.0488 121.293 38.4675 119.387 38.8862 117.487C38.8898 117.328 38.808 117.174 38.658 117.057C38.5081 116.941 38.3017 116.871 38.0823 116.863C37.8646 116.863 37.6547 116.922 37.495 117.029C37.3354 117.137 37.2377 117.284 37.2219 117.441C36.8994 118.959 36.577 120.461 36.2546 121.945C33.5092 119.399 31.1093 116.666 29.0884 113.784C30.2227 112.92 30.8914 111.788 30.9726 110.597C30.9809 110.437 30.9016 110.282 30.752 110.165C30.6024 110.048 30.3948 109.979 30.175 109.973C29.9551 109.967 29.7409 110.024 29.5795 110.133C29.4182 110.241 29.3228 110.392 29.3145 110.551C29.2718 111.29 28.9287 112.003 28.3284 112.6C27.5434 111.384 26.8085 110.155 26.1616 108.898C25.7973 108.178 24.1769 108.442 24.5475 109.176C25.1002 110.241 25.7094 111.289 26.35 112.327L23.8692 111.48C23.6797 111.399 23.4544 111.374 23.2403 111.411C23.0262 111.447 22.8398 111.542 22.7198 111.676C22.6069 111.812 22.572 111.975 22.6225 112.13C22.6729 112.285 22.8047 112.419 22.9899 112.505C24.4847 113.015 25.9669 113.534 27.4554 114.049C28.0521 114.927 28.6676 115.793 29.3396 116.64C31.0666 118.835 33.0169 120.935 35.1744 122.92C33.5131 123.163 31.8362 123.345 30.1498 123.466C29.9312 123.464 29.7197 123.522 29.5594 123.63C29.399 123.738 29.3023 123.887 29.2894 124.045C29.2826 124.203 29.3627 124.358 29.5121 124.474C29.6615 124.59 29.8682 124.658 30.087 124.664C32.1976 124.521 34.2947 124.289 36.3677 123.967C39.4878 126.672 42.979 129.139 46.7873 131.331C45.8102 131.418 44.8256 131.451 43.8417 131.432C43.728 131.422 43.6128 131.43 43.5034 131.454C43.394 131.479 43.2927 131.519 43.206 131.573C43.1193 131.627 43.049 131.694 42.9995 131.769C42.95 131.844 42.9225 131.925 42.9186 132.008C42.9147 132.091 42.9345 132.174 42.9768 132.251C43.0191 132.328 43.0829 132.398 43.1643 132.456C43.2457 132.515 43.3429 132.56 43.4498 132.59C43.5566 132.62 43.6708 132.633 43.7851 132.629C45.3989 132.665 47.0129 132.567 48.5961 132.338C50.4732 133.352 52.4206 134.296 54.4309 135.166V135.166Z" fill="#96ED5D"/>
<path d="M137.788 85.5126C138.005 85.5776 138.23 85.6264 138.46 85.6583C138.784 85.7043 139.116 85.7043 139.44 85.6583C141.129 85.3487 142.14 83.6636 143.29 82.7756C145.104 81.372 147.226 80.1962 149.57 79.2963C151.298 78.6359 153.471 77.7251 153.207 76.3224C152.943 74.9198 150.462 74.4598 148.509 74.3414C153.361 73.4352 158.072 72.1686 162.565 70.5615C163.897 70.0833 165.266 69.5414 166.076 68.6442C166.606 68.0738 166.867 67.3945 166.821 66.7077C166.774 66.0209 166.423 65.3633 165.819 64.8331C165.215 64.303 164.391 63.9286 163.469 63.766C162.548 63.6034 161.579 63.6611 160.706 63.9307C163.846 62.7694 166.987 61.5398 169.499 59.7682C171.32 58.484 172.865 56.6623 172.2 54.8862C171.653 53.4244 169.738 52.4361 167.766 51.9397C165.938 51.5327 164.014 51.4035 162.114 51.5602C160.214 51.7169 158.379 52.1562 156.724 52.8506C153.412 54.2573 150.729 56.3272 148.999 58.8119C148.421 56.8855 145.017 55.9747 142.461 56.635C139.905 57.2954 138.177 59.0396 137.091 60.8385C134.789 64.6983 134.689 69.0623 136.814 72.9752C136.086 72.0006 133.907 72.1053 132.883 72.9387C131.859 73.7721 131.746 74.9881 131.853 76.0993C132.073 78.3672 134.02 84.3923 137.788 85.5126Z" fill="#5CBC1E"/>
<path d="M137.788 85.5124C138.004 85.5774 138.23 85.6262 138.46 85.6581C138.783 85.7041 139.116 85.7041 139.44 85.6581C139.833 84.1401 140.325 82.6327 140.916 81.1359C142.09 80.6441 143.265 80.1613 144.445 79.6786C144.627 79.5897 144.754 79.4524 144.797 79.2964C144.841 79.1405 144.798 78.9784 144.678 78.8452C144.553 78.7152 144.364 78.625 144.15 78.5937C143.936 78.5623 143.713 78.592 143.528 78.6767L141.644 79.4646C143.133 76.1628 145.09 72.9821 147.485 69.9738L155.305 68.8398C155.512 68.7879 155.683 68.6793 155.781 68.5373C155.88 68.3952 155.898 68.2309 155.832 68.0793C155.757 67.9309 155.607 67.8086 155.412 67.7369C155.218 67.6651 154.993 67.6492 154.783 67.6922L148.622 68.603C150.969 65.8553 153.676 63.2779 156.705 60.9066C158.219 61.3725 159.912 61.429 161.478 61.066C161.688 61.0164 161.861 60.9087 161.96 60.7665C162.06 60.6243 162.077 60.4593 162.009 60.3077C161.941 60.1561 161.792 60.0304 161.596 59.9583C161.4 59.8861 161.172 59.8734 160.963 59.9229C159.992 60.1487 158.949 60.1614 157.968 59.9593C159.268 59.003 160.605 58.083 162.006 57.2268C162.81 56.7305 161.899 55.724 161.095 56.2295C159.902 56.9718 158.759 57.746 157.635 58.543C157.723 57.8872 157.804 57.2268 157.892 56.5711C157.932 56.4169 157.89 56.2574 157.773 56.1254C157.656 55.9933 157.474 55.8986 157.264 55.8606C157.051 55.828 156.829 55.8575 156.646 55.9427C156.462 56.0279 156.332 56.162 156.284 56.316C156.134 57.5047 155.977 58.6978 155.826 59.8819C154.896 60.5923 153.992 61.3119 153.131 62.0633C150.87 63.9892 148.81 66.0352 146.97 68.184C146.085 67.132 145.256 66.0482 144.521 64.9415C144.448 64.7918 144.298 64.6681 144.103 64.5961C143.908 64.524 143.682 64.5091 143.472 64.5544C143.264 64.6044 143.092 64.7119 142.993 64.8535C142.894 64.9952 142.877 65.1594 142.944 65.3104C143.86 66.6981 144.887 68.0454 146.022 69.3453C143.596 72.4024 141.607 75.6314 140.087 78.9818C139.641 78.3453 139.259 77.6863 138.943 77.0099C138.917 76.9291 138.867 76.8531 138.798 76.7868C138.729 76.7206 138.642 76.6654 138.542 76.6249C138.442 76.5843 138.331 76.5593 138.217 76.5513C138.103 76.5433 137.988 76.5525 137.879 76.5784C137.77 76.6043 137.669 76.6463 137.584 76.7017C137.499 76.7572 137.43 76.8249 137.383 76.9005C137.335 76.9761 137.31 77.0581 137.308 77.1412C137.307 77.2243 137.329 77.3068 137.373 77.3833C137.885 78.4986 138.57 79.5681 139.414 80.5712C138.754 82.1966 138.211 83.8459 137.788 85.5124V85.5124Z" fill="#96ED5D"/>
<path d="M73.5366 97.1756C73.3028 97.1938 73.067 97.1938 72.8332 97.1756C72.5047 97.1613 72.184 97.0977 71.8911 96.9889C70.3461 96.3923 69.9315 94.5798 69.1151 93.5141C67.8279 91.834 66.1638 90.321 64.191 89.0374C62.7339 88.0902 60.9314 86.8287 61.6788 85.5125C62.4261 84.1964 64.9573 84.1873 66.898 84.415C62.4921 82.6838 58.3438 80.6282 54.5188 78.2806C53.3883 77.5838 52.2389 76.8187 51.7553 75.8032C51.4257 75.1561 51.3944 74.449 51.6662 73.7879C51.938 73.1269 52.4981 72.5476 53.2626 72.137C54.027 71.7264 54.9545 71.5067 55.9057 71.5108C56.857 71.515 57.7808 71.7427 58.5384 72.1599C55.888 70.484 53.2627 68.7398 51.4036 66.5766C50.0595 65.0099 49.174 62.9743 50.4113 61.3667C51.4287 60.046 53.6207 59.4175 55.6996 59.2854C57.6079 59.2098 59.5172 59.4199 61.3088 59.9025C63.1003 60.3851 64.7356 61.13 66.1129 62.0908C68.8598 64.047 70.7664 66.5383 71.6022 69.2635C72.8081 67.4965 76.4132 67.2141 78.6742 68.298C80.9353 69.3819 82.0281 71.3857 82.4803 73.3075C83.4298 77.4604 82.0751 81.717 78.7119 85.1482C79.7419 84.3285 81.8208 84.8112 82.5368 85.7994C83.2528 86.7877 82.9513 87.99 82.4803 89.0465C81.4628 91.2462 77.5625 96.7521 73.5366 97.1756Z" fill="#5CBC1E"/>
<path d="M73.5367 97.1755C73.3029 97.1937 73.0671 97.1937 72.8333 97.1755C72.5048 97.1612 72.184 97.0976 71.8912 96.9888C72.0168 95.4404 72.0419 93.8905 71.9665 92.3391L69.0272 90.308C68.9538 90.2496 68.8969 90.1814 68.8599 90.1072C68.8228 90.0329 68.8063 89.9541 68.8113 89.8753C68.8162 89.7964 68.8426 89.719 68.8888 89.6475C68.935 89.576 69.0002 89.5118 69.0806 89.4586C69.161 89.4054 69.2551 89.3642 69.3575 89.3373C69.4599 89.3104 69.5685 89.2985 69.6773 89.3021C69.7861 89.3057 69.8928 89.3247 69.9914 89.3583C70.09 89.3918 70.1785 89.439 70.2519 89.4973L71.8409 90.5949C71.498 87.1311 70.656 83.7029 69.3287 80.3663L62.1247 77.8889C61.939 77.8027 61.8072 77.6672 61.7579 77.5113C61.7086 77.3554 61.7456 77.1918 61.861 77.0555C61.9827 76.9246 62.1689 76.8323 62.3814 76.7976C62.5939 76.7629 62.8166 76.7884 63.004 76.8688L68.6566 78.8225C67.3117 75.7513 65.5639 72.7806 63.4374 69.9511C61.8133 70.1348 60.152 69.8926 58.752 69.268C58.5655 69.1834 58.4329 69.0486 58.3834 68.8932C58.3339 68.7377 58.3716 68.5744 58.4882 68.4391C58.6048 68.3039 58.7908 68.2077 59.0052 68.1718C59.2195 68.136 59.4448 68.1633 59.6313 68.2479C60.4995 68.6374 61.5062 68.8337 62.5267 68.8126C61.5846 67.6558 60.5923 66.5355 59.5246 65.4289C58.8965 64.805 60.1526 63.9898 60.7807 64.6182C61.6851 65.5291 62.5393 66.5036 63.362 67.4691C63.4939 66.8179 63.6384 66.1666 63.7703 65.5108C63.7848 65.3526 63.8831 65.2046 64.0446 65.0976C64.2061 64.9907 64.4184 64.9331 64.637 64.937C64.8558 64.9441 65.0619 65.0137 65.2102 65.1306C65.3584 65.2475 65.4369 65.4022 65.4284 65.5609C65.1771 66.745 64.9322 67.9291 64.681 69.1086C65.3467 69.9602 65.9874 70.8164 66.5652 71.6953C68.0894 73.9734 69.3804 76.3296 70.4278 78.7451C71.6463 77.8786 72.8014 76.9666 73.8884 76.0126C74.0102 75.8817 74.1964 75.7894 74.4088 75.7547C74.6213 75.72 74.844 75.7455 75.0315 75.8259C75.2151 75.9111 75.3455 76.0451 75.3948 76.1991C75.4441 76.3531 75.4084 76.515 75.2953 76.6502C73.9429 77.8355 72.4959 78.9623 70.9616 80.0248C72.2869 83.4175 73.1287 86.8999 73.4739 90.4172C74.1232 89.8798 74.7153 89.3074 75.245 88.7049C75.3012 88.6352 75.3761 88.5744 75.4654 88.5262C75.5546 88.4779 75.6564 88.4432 75.7645 88.4241C75.8727 88.405 75.985 88.4018 76.0949 88.4149C76.2048 88.4279 76.3099 88.4569 76.404 88.5C76.4981 88.5432 76.5792 88.5996 76.6426 88.666C76.7059 88.7323 76.7502 88.8073 76.7728 88.8863C76.7953 88.9654 76.7957 89.0469 76.7738 89.1261C76.752 89.2052 76.7084 89.2804 76.6456 89.347C75.7773 90.3379 74.7576 91.2545 73.6058 92.0795C73.7052 93.7779 73.6822 95.4789 73.5367 97.1755V97.1755Z" fill="#96ED5D"/>
<path d="M168.952 139.861C169.15 139.954 169.361 140.032 169.581 140.093C169.885 140.184 170.213 140.225 170.541 140.212C172.287 140.148 173.726 138.632 175.089 137.935C177.228 136.805 179.611 135.942 182.142 135.38C184.026 134.97 186.381 134.378 186.494 132.962C186.607 131.545 184.296 130.758 182.406 130.366C187.412 130.153 192.375 129.565 197.215 128.613C198.647 128.33 200.13 127.989 201.166 127.219C201.838 126.733 202.275 126.102 202.411 125.421C202.548 124.74 202.377 124.045 201.924 123.441C201.471 122.836 200.76 122.354 199.898 122.066C199.036 121.779 198.068 121.701 197.14 121.845C200.525 121.144 203.923 120.37 206.875 118.981C209.004 117.979 210.995 116.403 210.813 114.568C210.662 113.056 209.048 111.835 207.239 111.061C205.556 110.404 203.703 110.006 201.798 109.893C199.893 109.779 197.975 109.952 196.167 110.401C192.545 111.32 189.366 112.977 187.009 115.173C186.953 113.206 183.869 111.84 181.175 112.131C178.48 112.423 176.326 113.894 174.787 115.51C171.507 118.978 170.254 123.247 171.301 127.383C170.849 126.326 168.682 126.126 167.464 126.8C166.246 127.474 165.8 128.654 165.611 129.76C165.184 132.069 165.53 138.24 168.952 139.861Z" fill="#5CBC1E"/>
<path d="M168.952 139.861C169.15 139.954 169.361 140.032 169.581 140.093C169.885 140.184 170.213 140.225 170.541 140.212C171.333 138.773 172.216 137.363 173.192 135.981L177.042 135.043C177.235 134.978 177.386 134.861 177.463 134.717C177.541 134.573 177.539 134.413 177.458 134.27C177.378 134.127 177.224 134.013 177.03 133.949C176.835 133.886 176.615 133.88 176.414 133.932L174.329 134.442C176.658 131.407 179.42 128.557 182.569 125.939L190.539 125.912C190.758 125.893 190.958 125.811 191.094 125.685C191.23 125.559 191.291 125.399 191.265 125.24C191.238 125.081 191.125 124.937 190.952 124.838C190.778 124.739 190.557 124.695 190.338 124.714H184.057C187.088 122.344 190.426 120.191 194.025 118.284C195.387 118.951 197.034 119.242 198.666 119.104C198.881 119.081 199.075 118.999 199.207 118.874C199.339 118.749 199.399 118.592 199.372 118.436C199.346 118.279 199.236 118.137 199.067 118.039C198.897 117.941 198.681 117.894 198.465 117.91C197.452 117.996 196.425 117.864 195.513 117.532C197.04 116.772 198.603 116.052 200.211 115.387C201.128 115.014 200.5 113.898 199.583 114.276C198.22 114.845 196.889 115.447 195.576 116.071C195.84 115.438 196.091 114.8 196.349 114.167C196.429 114.019 196.427 113.855 196.344 113.708C196.261 113.561 196.103 113.443 195.903 113.379C195.699 113.32 195.47 113.321 195.267 113.382C195.064 113.444 194.902 113.56 194.816 113.707C194.358 114.855 193.887 115.984 193.422 117.145C192.323 117.715 191.249 118.293 190.2 118.912C187.487 120.506 184.941 122.243 182.582 124.109C181.982 122.954 181.466 121.777 181.036 120.584C181.004 120.427 180.889 120.285 180.716 120.187C180.543 120.09 180.325 120.044 180.107 120.06C179.891 120.082 179.694 120.164 179.561 120.289C179.427 120.414 179.366 120.572 179.391 120.729C179.921 122.218 180.574 123.683 181.344 125.115C178.154 127.785 175.349 130.684 172.972 133.768C172.691 133.082 172.481 132.382 172.344 131.673C172.316 131.516 172.204 131.374 172.033 131.276C171.861 131.178 171.644 131.132 171.427 131.149C171.21 131.172 171.013 131.255 170.878 131.381C170.744 131.506 170.681 131.665 170.705 131.823C170.914 132.984 171.304 134.124 171.867 135.221C170.787 136.73 169.814 138.279 168.952 139.861Z" fill="#96ED5D"/>
<path d="M176.584 70.1971C176.122 69.7272 175.516 69.341 174.815 69.0683C174.114 68.7957 173.335 68.644 172.54 68.6251C171.744 68.6061 170.954 68.7204 170.229 68.9591C169.505 69.1978 168.866 69.5544 168.362 70.0012V70.0012C161.805 75.8077 146.606 89.2105 140.376 94.7027C139.879 95.1416 139.526 95.6563 139.343 96.2083C139.16 96.7602 139.151 97.335 139.318 97.8897C139.485 98.4443 139.822 98.9644 140.306 99.411C140.789 99.8575 141.406 100.219 142.109 100.468C145.739 101.752 151.43 103.201 157.905 102.8C162.123 102.534 166.186 101.521 169.738 99.8488C172.993 98.3035 175.884 96.3874 178.298 94.1744C188.454 85.0981 181.583 75.2567 176.584 70.1971Z" fill="#EF4545"/>
<path d="M168.952 71.4494C162.766 76.9143 148.408 89.5884 142.348 94.9258C141.991 95.2443 141.738 95.6168 141.607 96.0158C141.476 96.4148 141.471 96.83 141.592 97.2307C141.713 97.6314 141.956 98.0072 142.304 98.3304C142.653 98.6535 143.097 98.9157 143.604 99.0974C150.318 101.479 164.28 104.326 176.565 93.3456C185.803 85.0844 179.259 76.0081 174.894 71.5906C174.557 71.2546 174.118 70.9787 173.611 70.7842C173.105 70.5896 172.544 70.4814 171.971 70.4678C171.398 70.4542 170.828 70.5355 170.305 70.7056C169.782 70.8757 169.319 71.1301 168.952 71.4494V71.4494Z" fill="#FF9292"/>
<path d="M167.602 77.4199L149.005 92.9038C148.641 93.1918 148.388 93.544 148.27 93.9251C148.152 94.3063 148.174 94.7032 148.333 95.0763C148.493 95.4495 148.784 95.7858 149.179 96.0518C149.573 96.3179 150.057 96.5043 150.582 96.5927C155.952 97.4579 164.763 97.9133 170.837 92.9038C176.91 87.8943 175.026 81.6962 173.01 77.9755C172.795 77.609 172.452 77.2891 172.017 77.0467C171.581 76.8042 171.066 76.6475 170.522 76.5916C169.978 76.5357 169.424 76.5826 168.912 76.7277C168.401 76.8728 167.949 77.1112 167.602 77.4199V77.4199Z" fill="#EF4545"/>
<path d="M163.928 93.4457C162.396 91.6605 159.318 88.204 159.368 89.297C159.444 90.7178 160.524 93.0268 161.252 94.4067C161.328 94.5483 161.443 94.677 161.59 94.7846C161.738 94.8922 161.915 94.9763 162.11 95.0316C162.305 95.0869 162.513 95.1122 162.722 95.1058C162.932 95.0994 163.137 95.0616 163.324 94.9946C163.512 94.9276 163.679 94.833 163.813 94.7168C163.948 94.6006 164.048 94.4653 164.106 94.3196C164.165 94.1739 164.181 94.021 164.153 93.8705C164.126 93.7201 164.056 93.5754 163.947 93.4457H163.928Z" fill="#FF9292"/>
<path d="M171.703 83.7955C168.839 84.1234 163.25 84.8293 164.663 85.221C166.497 85.7265 169.844 85.9041 171.879 85.9678C172.089 85.9734 172.298 85.9471 172.493 85.8907C172.689 85.8342 172.865 85.7488 173.012 85.6399C173.159 85.531 173.273 85.4011 173.346 85.2585C173.42 85.1158 173.452 84.9636 173.439 84.8115C173.427 84.6595 173.371 84.511 173.275 84.3756C173.179 84.2401 173.045 84.1207 172.881 84.0251C172.718 83.9294 172.529 83.8596 172.326 83.8201C172.123 83.7805 171.911 83.7722 171.703 83.7955V83.7955Z" fill="#FF9292"/>
<path d="M168.952 78.7861C166.786 80.1797 162.609 82.9623 164.079 82.7391C166.007 82.4476 168.959 81.2863 170.717 80.544C170.9 80.4672 171.058 80.3634 171.182 80.2394C171.305 80.1154 171.392 79.974 171.435 79.8242C171.479 79.6745 171.479 79.5198 171.434 79.3702C171.39 79.2205 171.303 79.0793 171.179 78.9556C171.055 78.8319 170.896 78.7284 170.713 78.652C170.531 78.5756 170.328 78.5278 170.118 78.5118C169.908 78.4959 169.696 78.512 169.495 78.5593C169.294 78.6065 169.109 78.6838 168.952 78.7861Z" fill="#FF9292"/>
<path d="M169.493 89.9801C167.081 88.8143 162.308 86.5919 162.98 87.571C163.859 88.8462 166.158 90.6223 167.596 91.6697C167.744 91.7813 167.923 91.8689 168.121 91.9265C168.32 91.9842 168.533 92.0106 168.746 92.004C168.96 91.9975 169.169 91.9581 169.359 91.8885C169.55 91.8189 169.719 91.7207 169.853 91.6004C169.988 91.4801 170.085 91.3404 170.14 91.1906C170.194 91.0408 170.204 90.8843 170.169 90.7316C170.134 90.5788 170.054 90.4332 169.935 90.3044C169.817 90.1757 169.661 90.0667 169.48 89.9847L169.493 89.9801Z" fill="#FF9292"/>
<path d="M155.531 95.1809C155.87 93.0906 156.441 89.001 155.531 89.8754C154.375 91.023 153.251 93.3138 152.623 94.7255C152.558 94.871 152.536 95.0246 152.559 95.1765C152.581 95.3284 152.647 95.4752 152.753 95.6074C152.858 95.7397 153.001 95.8544 153.171 95.9443C153.342 96.0341 153.536 96.097 153.742 96.129C153.948 96.161 154.161 96.1613 154.367 96.13C154.573 96.0986 154.768 96.0362 154.939 95.9469C155.11 95.8576 155.253 95.7432 155.359 95.6113C155.466 95.4794 155.533 95.3328 155.556 95.1809H155.531Z" fill="#FF9292"/>
<path d="M80.6652 127.278C81.3385 127.103 81.947 126.818 82.4435 126.444C82.9399 126.071 83.311 125.619 83.5279 125.125C83.7448 124.631 83.8017 124.107 83.694 123.594C83.5864 123.081 83.3172 122.594 82.9074 122.168V122.168C77.5877 116.635 65.3215 103.825 60.297 98.5691C59.8948 98.1499 59.3668 97.8022 58.7527 97.5522C58.1386 97.3022 57.4544 97.1564 56.7514 97.1257C56.0484 97.0951 55.3449 97.1803 54.6939 97.3751C54.0429 97.5698 53.4612 97.8691 52.9926 98.2503C49.6631 100.874 47.3661 104.099 46.3414 107.586C45.6283 110.298 45.8439 113.096 46.9694 115.733C48.0109 118.159 49.5891 120.447 51.6422 122.505C59.983 131.076 73.4047 129.177 80.6652 127.278Z" fill="#EF4545"/>
<path d="M81.0233 122.178C75.9987 116.954 64.4109 104.872 59.5245 99.7441C59.2337 99.4404 58.8516 99.1884 58.4071 99.0072C57.9625 98.826 57.4671 98.7202 56.9581 98.6978C56.449 98.6755 55.9396 98.7371 55.4682 98.8781C54.9967 99.0191 54.5755 99.2358 54.2362 99.5118C49.7581 103.155 42.931 111.207 53.0366 121.599C60.6299 129.414 73.0594 127.52 79.4154 125.871C79.9007 125.743 80.3388 125.536 80.696 125.266C81.0532 124.995 81.3198 124.669 81.4752 124.312C81.6306 123.955 81.6707 123.577 81.5923 123.207C81.514 122.836 81.3193 122.484 81.0233 122.178Z" fill="#FF9292"/>
<path d="M74.2527 119.878L60.297 104.426C60.0434 104.126 59.686 103.881 59.2604 103.713C58.8348 103.545 58.3559 103.461 57.8716 103.469C57.3873 103.477 56.9144 103.578 56.5002 103.76C56.086 103.942 55.745 104.2 55.5112 104.508C53.1434 107.664 50.4866 113.092 54.9585 118.111C59.4303 123.129 67.3063 123.48 72.2429 123.12C72.7315 123.076 73.1961 122.941 73.5921 122.729C73.988 122.517 74.3021 122.234 74.5039 121.908C74.7058 121.583 74.7887 121.225 74.7447 120.869C74.7007 120.514 74.5313 120.172 74.2527 119.878Z" fill="#EF4545"/>
<path d="M56.0325 113.634C58.5447 113.106 63.4123 112.022 62.0996 111.79C60.3787 111.489 57.364 111.598 55.5426 111.708C55.3545 111.72 55.1721 111.76 55.0069 111.827C54.8417 111.893 54.6974 111.983 54.5832 112.092C54.469 112.201 54.3875 112.326 54.3438 112.46C54.3001 112.593 54.2952 112.731 54.3294 112.866C54.3637 113 54.4363 113.128 54.5426 113.241C54.6489 113.355 54.7867 113.45 54.9469 113.523C55.1072 113.595 55.2866 113.642 55.4735 113.661C55.6604 113.681 55.8508 113.671 56.0325 113.634V113.634Z" fill="#FF9292"/>
<path d="M65.6105 120.884C65.9245 119.012 66.4458 115.333 65.6105 116.121C64.5616 117.15 63.5253 119.204 62.9538 120.465C62.9017 120.594 62.8867 120.729 62.9098 120.862C62.9329 120.996 62.9935 121.124 63.0879 121.24C63.1822 121.355 63.3084 121.455 63.4584 121.534C63.6084 121.613 63.7792 121.668 63.96 121.697C64.1409 121.726 64.328 121.727 64.5097 121.701C64.6913 121.675 64.8638 121.623 65.0162 121.547C65.1686 121.47 65.2978 121.372 65.3957 121.258C65.4936 121.144 65.5582 121.017 65.5854 120.884H65.6105Z" fill="#FF9292"/>
<path d="M72.2994 120.392C71.1626 118.694 68.8639 115.383 68.7759 116.371C68.6503 117.646 69.3098 119.787 69.7683 121.071C69.8153 121.208 69.9029 121.336 70.0248 121.446C70.1468 121.556 70.3003 121.646 70.4748 121.709C70.6492 121.771 70.8404 121.806 71.035 121.81C71.2297 121.814 71.4232 121.787 71.6022 121.731C71.7728 121.68 71.927 121.603 72.0555 121.507C72.1839 121.411 72.2838 121.296 72.3491 121.171C72.4144 121.046 72.4437 120.912 72.4351 120.778C72.4266 120.644 72.3804 120.513 72.2994 120.392Z" fill="#FF9292"/>
<path d="M58.796 117.992C60.7807 116.763 64.5993 114.313 63.2678 114.495C61.5343 114.736 58.8713 115.743 57.2509 116.389C57.0838 116.456 56.9378 116.547 56.8225 116.657C56.7072 116.767 56.6251 116.893 56.5817 117.028C56.5383 117.163 56.5344 117.302 56.5704 117.438C56.6064 117.574 56.6814 117.702 56.7906 117.816C56.8998 117.929 57.0407 118.024 57.2041 118.095C57.3674 118.167 57.5497 118.212 57.7389 118.229C57.9281 118.245 58.12 118.233 58.3021 118.192C58.4843 118.151 58.6525 118.083 58.796 117.992V117.992Z" fill="#FF9292"/>
<path d="M56.0136 107.96C58.4191 108.684 63.161 110.045 62.3319 109.267C61.2517 108.256 58.8022 106.99 57.3074 106.238C57.1503 106.162 56.9728 106.11 56.7864 106.087C56.6 106.063 56.4088 106.068 56.2253 106.102C56.0418 106.135 55.87 106.196 55.7212 106.281C55.5723 106.366 55.4496 106.472 55.3611 106.593C55.2727 106.715 55.2203 106.848 55.2075 106.985C55.1947 107.122 55.2217 107.259 55.2867 107.388C55.3518 107.517 55.4535 107.634 55.5852 107.733C55.7169 107.831 55.8757 107.909 56.0513 107.96H56.0136Z" fill="#FF9292"/>
<path d="M196.192 34.9573C195.776 34.6831 195.278 34.4821 194.738 34.3699C194.198 34.2578 193.629 34.2375 193.076 34.3106C192.523 34.3837 192.001 34.5483 191.55 34.7916C191.099 35.0349 190.732 35.3503 190.476 35.7133V35.7133C187.141 40.4313 179.41 51.3339 176.238 55.8014C175.984 56.1582 175.844 56.5522 175.831 56.9537C175.817 57.3551 175.929 57.7536 176.159 58.119C176.389 58.4844 176.73 58.8071 177.158 59.0628C177.585 59.3185 178.086 59.5005 178.625 59.595C182.364 60.3007 186.296 60.2677 190.011 59.4994C192.87 58.8565 195.468 57.7168 197.58 56.1794C199.506 54.7561 201.107 53.1188 202.322 51.3293C207.459 43.9608 200.689 37.9084 196.192 34.9573Z" fill="#EF4545"/>
<path d="M191.167 36.6513C188.027 41.1053 180.716 51.4067 177.632 55.7467C177.451 56.0043 177.353 56.2883 177.345 56.5773C177.337 56.8663 177.419 57.153 177.585 57.4158C177.751 57.6786 177.997 57.9107 178.304 58.0949C178.612 58.279 178.972 58.4104 179.36 58.4792C184.491 59.39 194.722 59.8454 200.946 50.9376C205.619 44.2339 199.232 38.6734 195.294 36.0957C194.992 35.8988 194.632 35.7549 194.242 35.6751C193.851 35.5952 193.44 35.5817 193.041 35.6354C192.642 35.6891 192.266 35.8087 191.941 35.9848C191.616 36.161 191.351 36.3891 191.167 36.6513V36.6513Z" fill="#FF9292"/>
<path d="M191.475 40.914L181.828 53.6291C181.636 53.8673 181.533 54.1379 181.53 54.4138C181.527 54.6897 181.624 54.9614 181.811 55.2018C181.997 55.4422 182.268 55.6429 182.595 55.7841C182.922 55.9253 183.294 56.0019 183.674 56.0063C187.568 56.0337 193.723 55.3642 196.895 51.2655C200.067 47.1668 197.479 43.0681 195.319 40.7182C195.095 40.4892 194.794 40.3057 194.444 40.1856C194.094 40.0655 193.707 40.0128 193.321 40.0325C192.935 40.0521 192.562 40.1436 192.239 40.298C191.915 40.4524 191.652 40.6645 191.475 40.914V40.914Z" fill="#EF4545"/>
<path d="M192.222 52.3723C190.797 51.3066 187.958 49.2527 188.222 50.0041C188.561 50.9787 189.785 52.4542 190.564 53.3286C190.647 53.4148 190.754 53.4878 190.877 53.543C191 53.5983 191.138 53.6346 191.282 53.6497C191.425 53.6649 191.571 53.6586 191.711 53.6312C191.851 53.6038 191.982 53.5559 192.095 53.4905C192.209 53.425 192.303 53.3434 192.371 53.2507C192.439 53.158 192.481 53.0561 192.493 52.9513C192.504 52.8465 192.487 52.7411 192.44 52.6415C192.394 52.5419 192.32 52.4503 192.222 52.3723Z" fill="#FF9292"/>
<path d="M195.626 44.8899C193.742 45.4273 189.974 46.5202 191.06 46.6341C192.43 46.7889 194.779 46.5476 196.198 46.37C196.347 46.3534 196.49 46.314 196.617 46.2545C196.744 46.1949 196.852 46.1165 196.934 46.0244C197.016 45.9323 197.07 45.8287 197.092 45.7204C197.115 45.612 197.106 45.5014 197.065 45.3959C197.024 45.2904 196.953 45.1923 196.856 45.1082C196.759 45.0241 196.639 44.9559 196.503 44.9081C196.367 44.8603 196.218 44.8339 196.067 44.8308C195.916 44.8276 195.766 44.8478 195.626 44.8899Z" fill="#FF9292"/>
<path d="M192.693 41.7066C191.481 42.9088 189.17 45.2815 190.143 44.9673C191.4 44.5574 193.208 43.4371 194.27 42.7312C194.375 42.6578 194.458 42.5695 194.514 42.4717C194.57 42.374 194.598 42.2689 194.595 42.1631C194.592 42.0573 194.56 41.953 194.499 41.8567C194.438 41.7604 194.351 41.6743 194.242 41.6037C194.134 41.533 194.006 41.4794 193.867 41.4461C193.729 41.4128 193.582 41.4007 193.437 41.4103C193.292 41.42 193.15 41.4513 193.023 41.5022C192.895 41.5532 192.783 41.6228 192.693 41.7066Z" fill="#FF9292"/>
<path d="M195.369 49.3893C193.485 48.8428 189.716 47.8273 190.376 48.4284C191.249 49.2117 193.202 50.1908 194.408 50.7556C194.533 50.8119 194.672 50.8489 194.818 50.8641C194.963 50.8793 195.112 50.8724 195.253 50.8439C195.395 50.8154 195.527 50.7658 195.641 50.6983C195.755 50.6309 195.848 50.547 195.915 50.452C195.982 50.357 196.02 50.253 196.029 50.1466C196.037 50.0401 196.015 49.9336 195.964 49.8337C195.913 49.7338 195.833 49.6427 195.731 49.5662C195.628 49.4897 195.505 49.4295 195.369 49.3893Z" fill="#FF9292"/>
<path d="M186.802 54.4899C186.607 53.0144 186.174 50.1225 185.722 50.8466C185.15 51.7574 184.83 53.4698 184.679 54.4899C184.663 54.598 184.678 54.7074 184.724 54.8109C184.77 54.9144 184.846 55.0097 184.946 55.0907C185.046 55.1716 185.168 55.2364 185.305 55.2807C185.442 55.325 185.591 55.3479 185.741 55.3479C185.891 55.3479 186.039 55.325 186.176 55.2807C186.313 55.2364 186.435 55.1716 186.535 55.0907C186.636 55.0097 186.711 54.9144 186.757 54.8109C186.803 54.7074 186.818 54.598 186.802 54.4899V54.4899Z" fill="#FF9292"/>
<path d="M53.9096 94.0834C56.3654 94.138 58.5887 92.7172 59.3612 91.0367C60.1338 89.3562 59.6753 87.4617 58.6704 85.8359C56.4596 82.2564 47.9932 78.5129 44.8529 83.5907C42.573 87.1748 48.5334 93.9604 53.9096 94.0834Z" fill="#889920"/>
<path d="M48.5773 82.9075C48.1583 83.0452 47.7871 83.249 47.4908 83.5041L46.8627 83.9595C46.3917 84.2373 45.8892 84.6062 45.996 85.0389C46.0586 85.1953 46.1852 85.3343 46.359 85.4376C46.5328 85.5408 46.7456 85.6034 46.9695 85.6172C47.4148 85.6302 47.8544 85.541 48.2256 85.3622C48.9542 85.0378 49.5115 84.5455 49.8083 83.9641C49.9 83.832 49.9478 83.6862 49.9478 83.5383C49.9478 83.3904 49.9 83.2446 49.8083 83.1125C49.6599 82.9878 49.4605 82.9007 49.2391 82.8639C49.0177 82.827 48.7859 82.8423 48.5773 82.9075V82.9075Z" fill="#EF4545"/>
<path d="M168.061 41.998C168.268 43.5965 170.253 44.8808 172.426 45.1859C174.599 45.491 176.873 44.9901 178.763 44.1567C182.933 42.335 186.595 36.4147 179.981 34.9255C175.309 33.8735 167.615 38.5005 168.061 41.998Z" fill="#889920"/>
<path d="M181.244 37.2845C181.024 37.0307 180.73 36.8147 180.383 36.6515L179.755 36.2962C179.366 36.0184 178.851 35.7315 178.33 35.8408C178.138 35.8955 177.975 35.9919 177.863 36.1167C177.75 36.2415 177.694 36.3886 177.702 36.5376C177.724 36.8375 177.886 37.1231 178.16 37.3482C178.637 37.7816 179.3 38.0864 180.044 38.2135C180.219 38.2558 180.404 38.2679 180.587 38.249C180.769 38.23 180.942 38.1804 181.093 38.1042C181.235 37.9968 181.326 37.8595 181.353 37.7122C181.38 37.5648 181.342 37.4151 181.244 37.2845V37.2845Z" fill="#EF4545"/>
<path d="M178.851 70.3883C179.046 71.9413 180.974 73.1845 183.084 73.4851C185.194 73.7857 187.393 73.2938 189.233 72.4877C193.278 70.7071 196.832 64.9826 190.414 63.5298C185.91 62.5051 178.411 66.9955 178.851 70.3883Z" fill="#889920"/>
<path d="M191.638 65.816C191.425 65.568 191.14 65.3567 190.803 65.1967L190.175 64.8551C189.792 64.5864 189.296 64.3086 188.793 64.4225C188.604 64.4738 188.441 64.5668 188.329 64.6885C188.216 64.8103 188.159 64.9545 188.165 65.101C188.187 65.3913 188.344 65.6675 188.611 65.8843C189.078 66.3079 189.729 66.6047 190.457 66.7268C190.626 66.7678 190.805 66.7796 190.98 66.7614C191.156 66.7433 191.323 66.6955 191.469 66.6221C191.613 66.5188 191.707 66.3846 191.737 66.2394C191.768 66.0942 191.733 65.9457 191.638 65.816V65.816Z" fill="#EF4545"/>
<path d="M85.0869 50.5186C79.3777 54.1118 75.7789 49.0613 75.2325 47.5038C74.0203 44.0791 77.1167 38.0039 83.2655 40.2901C87.618 41.8977 88.7422 48.2142 85.0869 50.5186Z" fill="#889920"/>
<path d="M80.0874 41.3331C80.5011 41.2666 80.9298 41.2666 81.3435 41.3331L82.1286 41.3923C82.675 41.3923 83.3156 41.4515 83.5732 41.7976C83.6574 41.9336 83.6809 42.0853 83.6403 42.2315C83.5998 42.3776 83.4972 42.511 83.347 42.6128C83.0439 42.8163 82.6538 42.9384 82.2417 42.9589C81.4769 43.0256 80.7033 42.9054 80.0434 42.6173C79.8826 42.556 79.7427 42.4694 79.6341 42.3638C79.5254 42.2582 79.4507 42.1363 79.4154 42.0071C79.4135 41.8575 79.4778 41.7113 79.5987 41.5901C79.7196 41.4688 79.8909 41.3787 80.0874 41.3331V41.3331Z" fill="#EF4545"/>
<path d="M186.783 105.614C179.981 108.01 178.317 102.454 178.348 100.846C178.405 97.3121 183.549 92.0248 188.686 95.3812C192.317 97.7766 191.142 104.084 186.783 105.614Z" fill="#889920"/>
<path d="M185.282 95.8047C185.697 95.813 186.104 95.886 186.476 96.0187L187.21 96.2237C187.732 96.3284 188.335 96.506 188.467 96.8886C188.498 97.0359 188.466 97.1867 188.375 97.3204C188.284 97.454 188.138 97.5641 187.958 97.6354C187.589 97.7701 187.17 97.8133 186.764 97.7584C186.001 97.6813 185.297 97.4178 184.767 97.0115C184.629 96.9247 184.521 96.8156 184.451 96.6931C184.381 96.5705 184.352 96.4379 184.365 96.3056C184.424 96.1621 184.545 96.036 184.71 95.9458C184.875 95.8557 185.076 95.8062 185.282 95.8047V95.8047Z" fill="#EF4545"/>
<path d="M116.547 109.476C113.061 114.335 107.126 110.597 105.87 109.294C103.012 106.43 102.792 99.9627 109.688 100.445C114.543 100.787 118.789 106.357 116.547 109.476Z" fill="#889920"/>
<path d="M107.251 102.262C107.589 102.088 107.975 101.97 108.382 101.916L109.148 101.762C109.384 101.664 109.652 101.613 109.924 101.613C110.196 101.613 110.463 101.664 110.699 101.762C110.845 101.867 110.943 102.002 110.979 102.148C111.015 102.295 110.987 102.446 110.9 102.581C110.716 102.848 110.416 103.064 110.046 103.196C109.369 103.461 108.588 103.554 107.829 103.46C107.646 103.451 107.468 103.41 107.311 103.341C107.154 103.272 107.022 103.177 106.925 103.064C106.85 102.923 106.842 102.768 106.901 102.623C106.96 102.478 107.083 102.352 107.251 102.262V102.262Z" fill="#EF4545"/>
<path d="M122.476 103.037L165.184 114.727L163.689 116.717C163.689 116.717 153.76 117.045 140.727 112.992C127.695 108.939 121.1 104.795 121.1 104.795L122.476 103.037Z" fill="#006937"/>
<path d="M122.476 103.037C123.273 104.453 139.773 110.396 148.402 112.25C152.171 113.06 161.271 114.75 165.222 114.727C164.594 113.889 157.126 109.331 147.159 106.229C138.956 103.679 128.693 102.313 122.476 103.037Z" fill="#A8D070"/>
<path d="M126.244 104.07C126.834 105.405 140.884 109.836 148.365 111.239C151.649 111.849 158.753 113.766 162.257 113.566C161.774 112.782 154.758 109.308 146.204 106.735C139.176 104.662 131.828 103.091 126.244 104.07Z" fill="#E4F6C4"/>
<path d="M139.314 106.038C139.314 106.038 128.486 103.82 128.323 104.53C128.159 105.241 137.222 106.521 139.314 106.038Z" fill="#A8D070"/>
<path d="M149.325 109.148C149.325 109.148 159.827 112.186 160.084 112.705C160.342 113.224 153.527 112.113 149.325 109.148Z" fill="#A8D070"/>
<path d="M141.657 106.958C141.657 106.958 136.632 106.926 137.38 107.682C138.127 108.438 140.689 107.673 141.657 106.958Z" fill="#A8D070"/>
<path d="M146.242 108.442C146.242 108.442 148.873 111.73 149.3 110.861C149.727 109.991 148.126 109.185 146.242 108.442Z" fill="#A8D070"/>
<path d="M144.018 107.563C144.018 107.563 141.506 107.563 141.236 108.288C140.966 109.012 145.004 109.922 145.331 109.654C145.658 109.385 144.018 107.563 144.018 107.563Z" fill="#A8D070"/>
<path d="M112.697 63.8031L141.211 40.0306L143.202 41.6565C143.202 41.6565 140.319 48.1825 131.017 55.2687C121.716 62.3549 114.474 65.2558 114.474 65.2558L112.697 63.8031Z" fill="#006937"/>
<path d="M112.697 63.803C114.7 63.7575 127.5 55.0546 132.6 50.0951C134.855 47.9137 139.936 42.6036 141.211 40.0397C139.955 40.1672 131.897 43.4917 124.787 48.9065C118.94 53.3513 113.865 59.5358 112.697 63.803Z" fill="#A8D070"/>
<path d="M115.221 61.6945C117.055 61.7582 127.155 54.1392 131.35 49.7627C133.19 47.8409 137.901 43.8833 138.812 41.5653C137.687 41.62 131.093 45.0037 125.126 49.6944C120.221 53.5335 115.862 57.7643 115.221 61.6945Z" fill="#E4F6C4"/>
<path d="M121.961 53.8978C121.961 53.8978 115.648 60.1643 116.471 60.5104C117.294 60.8565 121.847 55.4098 121.961 53.8978Z" fill="#A8D070"/>
<path d="M129.095 48.4511C129.095 48.4511 136.293 42.672 137.034 42.6765C137.775 42.6811 134.132 46.716 129.095 48.4511Z" fill="#A8D070"/>
<path d="M123.87 52.691C123.87 52.691 122.168 55.9153 123.342 55.6968C124.517 55.4782 124.423 53.5563 123.87 52.691Z" fill="#A8D070"/>
<path d="M127.205 50.2137C127.205 50.2137 132.123 49.6034 131.193 49.0387C130.264 48.474 128.756 49.2436 127.205 50.2137Z" fill="#A8D070"/>
<path d="M125.396 51.3613C125.396 51.3613 124.567 53.0007 125.365 53.3969C126.162 53.7931 128.612 51.5207 128.398 51.2019C128.185 50.8831 125.396 51.3613 125.396 51.3613Z" fill="#A8D070"/>
<path d="M4.65667 111.808C5.14612 112.507 5.98337 113.046 6.99936 113.315C8.36011 113.725 9.87169 113.789 11.2891 113.497C12.1577 113.325 12.9609 113.012 13.6377 112.581C14.3146 112.15 14.8473 111.613 15.1956 111.011C16.8286 108.055 13.1104 106.001 9.66236 106.061C6.6602 106.111 3.22468 109.503 4.65667 111.808Z" fill="#EF4545"/>
<path d="M87.3039 55.5601C86.2351 55.6713 85.2649 56.0735 84.5906 56.685C83.6225 57.4909 83.0562 58.5094 82.9828 59.5769C82.933 60.2288 83.0874 60.8805 83.4343 61.4831C83.7813 62.0857 84.3119 62.6235 84.9863 63.0562C88.3339 65.1192 92.2091 63.2247 93.2203 60.8338C94.0807 58.748 90.752 55.3005 87.3039 55.5601Z" fill="#EF4545"/>
<path d="M154.08 41.6018C153.012 41.7143 152.042 42.1163 151.367 42.7267C150.402 43.5342 149.836 44.5518 149.759 45.6185C149.709 46.2705 149.863 46.9222 150.21 47.5248C150.557 48.1274 151.088 48.6652 151.762 49.0979C155.11 51.1609 158.985 49.2664 160.002 46.8755C160.882 44.7942 157.553 41.3513 154.08 41.6018Z" fill="#EF4545"/>
<path d="M41.8068 92.2298C40.7379 92.3439 39.7684 92.7474 39.0935 93.3592C38.1283 94.1646 37.5624 95.1809 37.4857 96.2465C37.434 96.9 37.5874 97.5535 37.9344 98.1577C38.2815 98.762 38.8131 99.3013 39.4892 99.7349C42.8368 101.803 46.712 99.9034 47.7294 97.5125C48.6087 95.4222 45.28 91.993 41.8068 92.2298Z" fill="#EF4545"/>
<path d="M170.592 103.601C169.523 103.715 168.553 104.119 167.879 104.731C166.911 105.535 166.345 106.552 166.271 107.618C166.221 108.27 166.375 108.922 166.722 109.524C167.069 110.127 167.6 110.665 168.274 111.097C171.622 113.16 175.497 111.266 176.515 108.875C177.394 106.794 174.065 103.351 170.592 103.601Z" fill="#EF4545"/>
<path d="M209.946 14.6232C208.889 14.7427 207.932 15.1458 207.265 15.7526C206.296 16.5585 205.73 17.5771 205.657 18.6445C205.608 19.2964 205.763 19.9478 206.11 20.5502C206.457 21.1526 206.987 21.6905 207.66 22.1238C211.008 24.1868 214.883 22.2878 215.894 19.8969C216.748 17.8157 213.42 14.3773 209.946 14.6232Z" fill="#EF4545"/>
<path d="M116.295 120.283C115.227 120.396 114.258 120.798 113.582 121.408C112.614 122.214 112.048 123.232 111.974 124.3C111.925 124.952 112.08 125.603 112.427 126.206C112.774 126.808 113.304 127.346 113.978 127.779C117.326 129.842 121.201 127.948 122.212 125.557C123.104 123.471 119.769 120.033 116.295 120.283Z" fill="#EF4545"/>
<path d="M86.4937 86.3732C87.4986 91.0457 92.6299 94.9941 98.8414 96.4514C105.053 97.9087 112.069 97.0025 117.602 94.4932C120.503 93.1725 123.116 91.3508 124.284 89.0282C126.2 85.2028 123.788 80.8308 119.888 77.9162C114.505 73.9268 104.846 71.5951 97.2336 73.1344C90.2369 74.5325 85.4197 81.473 86.4937 86.3732Z" fill="#006937"/>
<path d="M87.7309 86.2774C88.673 90.6448 93.4778 94.3428 99.2811 95.6999C105.084 97.057 111.654 96.219 116.823 93.8782C119.543 92.6486 121.986 90.9408 123.104 88.7549C124.894 85.1799 122.639 81.0812 118.971 78.3624C113.946 74.6326 104.909 72.4421 97.7863 73.8903C91.2356 75.2018 86.7449 81.6914 87.7309 86.2774Z" fill="#A8D070"/>
<path d="M91.7004 85.9679C92.4352 89.3744 96.1722 92.248 100.688 93.3091C105.204 94.3702 110.323 93.7099 114.348 91.8837C116.465 90.9228 118.368 89.6066 119.216 87.8943C120.61 85.1117 118.858 81.9193 116 79.8016C112.087 76.9007 105.053 75.1974 99.5072 76.3223C94.4262 77.347 90.9278 82.402 91.7004 85.9679Z" fill="#E4F6C4"/>
<path d="M104.569 87.3114C104.569 87.3114 100.072 92.6989 103.671 92.8629C107.27 93.0268 104.569 87.3114 104.569 87.3114Z" fill="#A8D070"/>
<path d="M107.735 86.7784C107.735 86.7784 108.533 92.6396 112.163 91.5785C115.793 90.5174 107.735 86.7784 107.735 86.7784Z" fill="#A8D070"/>
<path d="M108.884 84.588C108.884 84.588 116.804 81.8965 118.01 84.8931C119.216 87.8897 108.884 84.588 108.884 84.588Z" fill="#A8D070"/>
<path d="M107.295 83.4767C107.295 83.4767 113.406 80.1158 111.547 78.959C109.688 77.8023 107.295 83.4767 107.295 83.4767Z" fill="#A8D070"/>
<path d="M105.166 83.4768C105.166 83.4768 106.108 77.4836 103.91 77.5564C101.712 77.6293 105.166 83.4768 105.166 83.4768Z" fill="#A8D070"/>
<path d="M102.277 83.9732C102.277 83.9732 97.8115 77.9982 95.9524 79.3462C94.0933 80.6943 102.277 83.9732 102.277 83.9732Z" fill="#A8D070"/>
<path d="M101.712 85.3576C101.712 85.3576 93.9112 83.5861 94.3131 85.772C94.7151 87.958 101.712 85.3576 101.712 85.3576Z" fill="#A8D070"/>
<path d="M102.277 86.7784C102.277 86.7784 94.5393 88.2266 96.4863 89.6976C98.4333 91.1686 102.277 86.7784 102.277 86.7784Z" fill="#A8D070"/>
<path d="M151.775 38.8419C157.427 38.555 162.584 35.6131 164.795 31.8058C167.005 27.9986 166.453 23.4946 163.853 19.8194C162.49 17.8885 160.492 16.1033 157.779 15.1925C153.332 13.6942 147.893 14.8873 144.112 17.1462C138.925 20.2384 135.395 26.1587 136.676 31.0817C137.844 35.5903 145.814 39.1653 151.775 38.8419Z" fill="#006937"/>
<path d="M151.756 38.0495C157.07 37.799 161.862 35.0301 163.928 31.4688C165.994 27.9075 165.479 23.6995 163.049 20.2612C161.793 18.4395 159.908 16.7864 157.365 15.9302C153.213 14.5321 148.126 15.6479 144.584 17.7519C139.735 20.6437 136.419 26.1815 137.631 30.7812C138.724 35.0119 146.179 38.3319 151.756 38.0495Z" fill="#A8D070"/>
<path d="M151.687 35.522C155.82 35.3126 159.557 33.1721 161.165 30.3987C161.92 28.9938 162.25 27.4874 162.132 25.9818C162.014 24.4762 161.451 23.0067 160.48 21.673C159.563 20.2308 158.018 19.0469 156.084 18.303C152.849 17.2145 148.886 18.0844 146.135 19.7284C142.367 22.0055 139.791 26.2909 140.721 29.8704C141.544 33.1585 147.347 35.7406 151.687 35.522Z" fill="#E4F6C4"/>
<path d="M154.262 27.5023C154.262 27.5023 160.386 30.7448 160.851 28.486C161.315 26.2271 154.262 27.5023 154.262 27.5023Z" fill="#A8D070"/>
<path d="M153.879 25.4665C153.879 25.4665 160.97 25.4028 159.977 23.0301C158.985 20.6574 153.879 25.4665 153.879 25.4665Z" fill="#A8D070"/>
<path d="M151.31 24.5921C151.31 24.5921 148.672 19.3959 152.365 18.8585C156.058 18.3211 151.31 24.5921 151.31 24.5921Z" fill="#A8D070"/>
<path d="M149.859 25.5029C149.859 25.5029 146.286 21.4042 144.759 22.479C143.233 23.5537 149.859 25.5029 149.859 25.5029Z" fill="#A8D070"/>
<path d="M149.702 26.8374C149.702 26.8374 142.58 25.7945 142.492 27.1881C142.404 28.5817 149.702 26.8374 149.702 26.8374Z" fill="#A8D070"/>
<path d="M150.111 28.6909C150.111 28.6909 142.605 31.0591 144.087 32.3342C145.57 33.6094 150.111 28.6909 150.111 28.6909Z" fill="#A8D070"/>
<path d="M151.7 29.1462C151.7 29.1462 148.986 33.9372 151.637 33.8461C154.287 33.755 151.7 29.1462 151.7 29.1462Z" fill="#A8D070"/>
<path d="M153.445 28.9095C153.445 28.9095 154.607 33.9191 156.517 32.7851C158.426 31.6511 153.445 28.9095 153.445 28.9095Z" fill="#A8D070"/>
<path d="M111.949 115.747C113.851 115.748 115.746 115.901 117.602 116.203C122.432 116.986 126.985 119.896 126.966 123.489C126.966 125.211 125.917 126.846 124.705 128.33C121.993 131.732 118.114 134.567 113.444 136.56C109.733 138.108 105.534 138.936 101.253 138.964C100.124 138.964 98.9962 138.9 97.8805 138.773C95.5149 138.55 93.2656 137.897 91.3423 136.874C86.6632 134.228 85.9912 128.986 88.5914 125.12C92.6424 119.099 102.641 115.765 111.937 115.765L111.949 115.747ZM111.937 114.162C102.767 114.162 91.3737 117.35 86.6004 124.418C83.3219 129.291 84.7727 135.193 89.9794 138.14C92.1903 139.332 94.7845 140.096 97.5162 140.358C98.7443 140.496 99.9852 140.566 101.228 140.567C105.895 140.543 110.474 139.642 114.518 137.953C119.52 135.823 123.676 132.79 126.583 129.15C127.77 127.697 129.139 125.739 129.152 123.494C129.127 122.403 128.804 121.327 128.202 120.327C127.601 119.328 126.733 118.424 125.647 117.669C123.57 116.158 120.947 115.102 118.079 114.622C116.06 114.302 113.998 114.141 111.93 114.144L111.937 114.162Z" fill="#820032"/>
<path d="M101.285 139.747C100.092 139.747 98.9017 139.68 97.7235 139.547C95.1685 139.309 92.7402 138.6 90.6703 137.488C85.1999 134.392 85.0177 128.612 87.6116 124.737C92.9565 116.795 107.471 113.707 117.853 115.392C122.834 116.203 128.109 119.304 128.084 123.457C128.084 125.511 126.784 127.342 125.666 128.708C122.859 132.229 118.843 135.162 114.009 137.224C110.14 138.849 105.756 139.718 101.285 139.747V139.747ZM111.962 116.558C103.313 116.558 93.5971 119.504 89.59 125.452C87.3416 128.795 87.6368 133.74 92.0269 136.227C93.8036 137.167 95.8805 137.764 98.0627 137.962C103.198 138.49 108.428 137.744 112.904 135.844C117.408 133.922 121.148 131.186 123.757 127.902C124.737 126.709 125.855 125.129 125.867 123.466C125.867 120.146 121.502 117.642 117.363 116.972C115.591 116.691 113.782 116.552 111.968 116.558H111.962Z" fill="#E9D5DE"/>
<path d="M199.169 20.038C199.893 20.9174 200.48 21.8521 200.921 22.8251C202.051 25.3572 201.216 28.5679 198.044 29.9113C196.463 30.4955 194.697 30.7658 192.926 30.6946C188.906 30.7243 184.945 29.9994 181.426 28.5906C178.659 27.4573 176.343 25.8261 174.699 23.8544C174.277 23.3294 173.908 22.783 173.594 22.2194C172.897 21.0386 172.623 19.7495 172.796 18.4714C173.349 15.2926 177.745 12.9974 182.142 12.7514C188.975 12.3552 195.689 15.7253 199.2 20.038H199.169ZM200.613 19.4323C197.146 15.1833 190.049 11.1029 182.01 11.5719C176.477 11.8953 171.829 14.7962 171.195 18.3211C170.986 19.7936 171.295 21.2803 172.093 22.643C172.446 23.2728 172.866 23.8818 173.349 24.4646C175.121 26.6006 177.621 28.3698 180.609 29.6016C184.374 31.1206 188.618 31.9051 192.926 31.8787C194.989 31.9545 197.042 31.629 198.873 30.936C199.825 30.5117 200.651 29.9553 201.306 29.2989C201.96 28.6424 202.429 27.8987 202.686 27.1105C203.227 25.5747 203.155 23.959 202.479 22.4517C202.007 21.3961 201.375 20.3819 200.594 19.4278L200.613 19.4323Z" fill="#820032"/>
<path d="M173.977 24.1368C173.527 23.5844 173.136 23.0073 172.809 22.4108C172.054 21.1392 171.76 19.7486 171.955 18.3713C172.614 14.6643 177.607 12.3918 182.004 12.1368C191.017 11.613 199.225 17.1463 201.662 22.6112C202.83 25.2207 202.096 28.8367 198.421 30.3942C196.613 31.1638 194.515 31.2595 192.888 31.2595C188.717 31.2928 184.606 30.5412 180.955 29.078C178.083 27.8926 175.679 26.1909 173.977 24.1368V24.1368ZM198.472 20.3296C195.206 16.3265 188.931 12.9383 182.18 13.3345C178.411 13.5531 174.147 15.5615 173.613 18.5307C173.457 19.7091 173.717 20.8968 174.367 21.9827C175.841 24.5611 178.475 26.7021 181.84 28.0579C185.235 29.4148 189.056 30.1114 192.932 30.08C194.558 30.1484 196.18 29.9066 197.636 29.3786C200.569 28.1353 201.116 25.1615 200.149 23.0029C199.726 22.0701 199.163 21.1737 198.472 20.3296V20.3296Z" fill="#E9D5DE"/>
<path d="M182.173 137.033C182.173 138.513 182.067 139.975 181.872 141.419C181.505 143.986 180.82 146.524 179.824 149.001C179.743 149.215 179.655 149.425 179.567 149.634C179.108 150.718 178.587 151.788 178.009 152.822C177.921 152.986 177.827 153.155 177.733 153.319C176.879 154.827 175.904 156.297 174.812 157.722C173.977 158.811 173.085 159.876 172.118 160.91C170.718 162.425 169.182 163.872 167.521 165.241C167.024 165.66 166.509 166.07 165.982 166.471C165.624 166.749 165.253 167.022 164.883 167.295C159.402 171.272 152.894 174.426 145.73 176.578C138.567 178.729 130.889 179.835 123.135 179.833H101.712C93.3066 179.838 84.997 178.54 77.3399 176.027C69.6827 173.513 62.8548 169.842 57.3137 165.259C55.6569 163.887 54.1214 162.441 52.7163 160.928C51.7554 159.899 50.8321 158.838 50.0282 157.741C48.9414 156.312 47.9664 154.84 47.1077 153.332C47.0135 153.168 46.9192 153 46.8313 152.836C46.2535 151.784 45.7322 150.718 45.28 149.648C45.1921 149.438 45.1041 149.229 45.0225 149.015C44.0237 146.538 43.3383 144 42.975 141.432C42.7803 139.989 42.6735 138.527 42.6735 137.047L182.173 137.033Z" fill="#14AF78"/>
<g style="mix-blend-mode:soft-light">
<path d="M181.872 141.419C181.506 143.986 180.82 146.524 179.824 149.001H45.0225C44.0237 146.524 43.3384 143.986 42.975 141.419H181.872Z" fill="white"/>
</g>
<g style="mix-blend-mode:soft-light">
<path d="M177.745 153.332C176.892 154.84 175.916 156.311 174.825 157.736C173.99 158.825 173.098 159.89 172.13 160.924H52.7163C51.7553 159.895 50.8321 158.834 50.0281 157.736C48.9416 156.309 47.9666 154.839 47.1076 153.332H177.745Z" fill="white"/>
</g>
<g style="mix-blend-mode:soft-light">
<path d="M167.52 165.25C167.024 165.669 166.509 166.079 165.982 166.48C165.624 166.758 165.253 167.031 164.883 167.304C162.025 169.376 158.883 171.23 155.506 172.838H69.3412C64.879 170.713 60.8332 168.161 57.3137 165.25H167.52Z" fill="white"/>
</g>
<path opacity="0.25" d="M165.982 166.48C165.63 166.758 165.259 167.031 164.883 167.304C159.408 171.286 152.902 174.444 145.739 176.595C138.575 178.747 130.895 179.85 123.141 179.842H101.712C93.9587 179.842 86.2816 178.734 79.1188 176.583C71.956 174.432 65.4476 171.278 59.9654 167.303C54.4832 163.328 50.1345 158.609 47.1675 153.415C44.2006 148.221 42.6735 142.655 42.6735 137.033H65.7864C67.5338 141.999 70.9915 146.562 75.8354 150.295C87.8378 159.357 104.519 166.12 121.822 166.812C135.992 167.382 148.459 166.184 165.982 166.48Z" fill="#D87512"/>
<path d="M140.313 184.1H84.5404C83.4927 184.1 82.4878 183.798 81.747 183.261C81.0061 182.724 80.5899 181.995 80.5899 181.235V181.235C80.5891 180.859 80.6906 180.486 80.8888 180.138C81.087 179.79 81.3778 179.473 81.7447 179.207C82.1117 178.94 82.5475 178.729 83.0272 178.585C83.5069 178.44 84.0211 178.366 84.5404 178.366H140.313C141.361 178.367 142.366 178.67 143.107 179.208C143.847 179.746 144.263 180.475 144.263 181.235V181.235C144.263 181.995 143.847 182.724 143.106 183.261C142.365 183.798 141.36 184.1 140.313 184.1V184.1Z" fill="#295E4B"/>
<path d="M59.0409 50.6871C59.4554 50.1042 60.7807 49.8902 61.258 50.4503C60.1652 48.6287 59.0472 46.6795 59.3173 44.6894C59.4303 43.8104 59.9453 42.8404 61.1324 42.5672C61.6153 42.4836 62.1211 42.5022 62.5898 42.6209C63.0585 42.7395 63.4704 42.9532 63.7765 43.2366C64.374 43.8127 64.7588 44.4899 64.8945 45.204C65.1851 46.2665 65.2885 47.3514 65.2022 48.4328C65.2444 47.9179 65.5129 47.4264 65.9685 47.0302C66.091 46.9434 66.2378 46.8766 66.399 46.8344C66.5601 46.7921 66.7318 46.7754 66.9026 46.7853C67.0734 46.7952 67.2393 46.8316 67.3891 46.8919C67.5389 46.9522 67.6691 47.0351 67.771 47.1349C69.2658 48.911 67.3188 54.5991 64.4234 55.1365C61.6788 55.642 57.8916 52.5543 59.0409 50.6871Z" fill="#006937"/>
<path d="M97.8366 131.796C98.1758 131.34 99.2498 131.149 99.6392 131.6C98.7473 130.111 97.8429 128.54 98.0564 126.923C98.1569 126.208 98.5966 125.42 99.5387 125.197C99.9313 125.129 100.343 125.144 100.723 125.241C101.104 125.338 101.439 125.512 101.687 125.743C102.17 126.213 102.483 126.762 102.597 127.342C102.83 128.205 102.912 129.087 102.842 129.965C102.879 129.545 103.099 129.145 103.47 128.822C103.57 128.752 103.689 128.697 103.82 128.663C103.951 128.629 104.091 128.616 104.229 128.624C104.368 128.632 104.503 128.662 104.624 128.711C104.746 128.76 104.851 128.827 104.934 128.908C106.152 130.352 104.569 134.975 102.214 135.412C99.9909 135.822 96.9134 133.312 97.8366 131.796Z" fill="#006937"/>
<path d="M184.786 22.1648C185.464 21.9553 186.444 22.3105 186.356 22.8434C186.984 21.2813 187.612 19.6555 189.201 18.4942C189.898 17.9841 190.928 17.5834 191.852 17.8339C192.217 17.9584 192.524 18.1574 192.736 18.4065C192.948 18.6556 193.055 18.944 193.045 19.2365C193.01 19.8223 192.772 20.3923 192.354 20.8942C191.785 21.6705 191.082 22.3913 190.263 23.0392C190.655 22.732 191.172 22.5231 191.739 22.4426C191.879 22.4313 192.021 22.4422 192.155 22.4746C192.289 22.507 192.411 22.5601 192.514 22.6303C192.617 22.7005 192.697 22.786 192.75 22.881C192.803 22.976 192.826 23.0782 192.819 23.1804C192.505 24.8563 187.254 27.7345 185.043 26.9694C182.952 26.2726 182.77 22.9208 184.786 22.1648Z" fill="#006937"/>
<path d="M16.5396 95.7546C15.8425 95.4631 14.7057 95.7546 14.712 96.3512C14.3226 94.5887 13.8829 92.7443 12.363 91.3417C11.691 90.7223 10.6421 90.1804 9.58695 90.3808C9.16808 90.4846 8.79946 90.6739 8.52538 90.9259C8.2513 91.178 8.08342 91.4821 8.0419 91.8016C7.98002 92.4438 8.13975 93.0871 8.50667 93.6734C8.98355 94.5721 9.61674 95.423 10.3909 96.2054C10.0163 95.8336 9.48843 95.5577 8.88351 95.4176C8.73591 95.3974 8.58406 95.4001 8.43802 95.4256C8.29198 95.4511 8.15507 95.4988 8.03633 95.5655C7.9176 95.6322 7.81975 95.7165 7.74925 95.8127C7.67875 95.9089 7.63722 96.0148 7.62738 96.1235C7.67135 97.9816 12.9031 101.588 15.4405 100.974C17.8272 100.409 18.6311 96.7656 16.5396 95.7546Z" fill="#006937"/>
<path d="M74.529 99.0929C71.0809 98.806 70.5157 101.711 73.97 104.685C74.1519 104.841 74.3914 104.956 74.6602 105.016C74.929 105.076 75.2159 105.079 75.4871 105.025C75.7584 104.971 76.0027 104.862 76.1912 104.711C76.3798 104.559 76.5047 104.372 76.5514 104.171C76.9722 102.162 77.1041 99.3115 74.529 99.0929Z" fill="#14AF78"/>
<path d="M194.948 85.5353C192.725 83.6044 189.553 85.4214 189.226 89.3015C189.212 89.5049 189.277 89.7071 189.416 89.8843C189.554 90.0616 189.759 90.2065 190.007 90.3021C190.255 90.3978 190.536 90.4401 190.816 90.4242C191.096 90.4083 191.364 90.3348 191.588 90.2124C193.799 88.9782 196.587 86.9835 194.948 85.5353Z" fill="#14AF78"/>
<path d="M228.989 97.9132C229.234 95.4039 225.221 95.1215 221.264 97.7538C221.057 97.8926 220.909 98.0717 220.838 98.2696C220.766 98.4676 220.775 98.6762 220.862 98.8708C220.949 99.0654 221.112 99.2377 221.33 99.3675C221.548 99.4972 221.813 99.5789 222.093 99.6028C224.85 99.7986 228.807 99.7713 228.989 97.9132Z" fill="#14AF78"/>
<path d="M120.215 67.7697C116.798 67.3143 115.988 70.2016 119.185 73.3212C119.352 73.4861 119.581 73.6127 119.845 73.6857C120.109 73.7586 120.396 73.775 120.672 73.7327C120.948 73.6904 121.202 73.5913 121.403 73.4473C121.603 73.3032 121.743 73.1203 121.804 72.9204C122.4 70.9394 122.771 68.0976 120.215 67.7697Z" fill="#14AF78"/>
<path d="M77.8829 56.5893C75.2325 55.6785 73.6623 57.8736 75.2827 60.9521C75.3698 61.1129 75.5181 61.2524 75.7104 61.3544C75.9026 61.4563 76.1309 61.5165 76.3686 61.528C76.6063 61.5395 76.8435 61.5017 77.0527 61.4191C77.2619 61.3365 77.4344 61.2124 77.55 61.0614C78.668 59.5404 79.8739 57.2815 77.8829 56.5893Z" fill="#14AF78"/>
<path d="M205.632 30.2301C202.611 29.0005 200.538 31.5144 202.133 35.2396C202.216 35.4347 202.375 35.6084 202.59 35.74C202.805 35.8715 203.068 35.9555 203.348 35.9819C203.627 36.0083 203.911 35.976 204.165 35.8888C204.42 35.8016 204.634 35.6632 204.784 35.4901C206.247 33.7459 207.893 31.1546 205.632 30.2301Z" fill="#14AF78"/>
<path d="M128.876 35.3307C125.409 35.3945 125.409 38.3228 129.397 40.9186C129.606 41.0559 129.865 41.1466 130.144 41.18C130.422 41.2133 130.708 41.1879 130.966 41.1068C131.225 41.0256 131.447 40.8922 131.604 40.7223C131.761 40.5525 131.847 40.3535 131.853 40.149C131.897 38.1178 131.47 35.2806 128.876 35.3307Z" fill="#14AF78"/>
<path d="M133.975 91.7835C131.79 89.8298 128.58 91.615 128.172 95.4906C128.151 95.6943 128.212 95.8981 128.345 96.0779C128.479 96.2576 128.681 96.4058 128.928 96.5049C129.174 96.604 129.455 96.65 129.736 96.6373C130.017 96.6246 130.287 96.5538 130.515 96.4333C132.757 95.2173 135.608 93.25 133.975 91.7835Z" fill="#14AF78"/>
<path d="M162.075 119.436C158.608 119.504 158.608 122.433 162.596 125.028C162.806 125.166 163.065 125.256 163.343 125.29C163.621 125.323 163.907 125.298 164.166 125.217C164.425 125.135 164.646 125.002 164.803 124.832C164.96 124.662 165.047 124.463 165.052 124.259C165.084 122.228 164.669 119.39 162.075 119.436Z" fill="#14AF78"/>
<path d="M1.75551 97.6947C-1.47903 98.6055 -0.128688 101.365 4.85816 102.827C5.11918 102.904 5.40536 102.926 5.68255 102.888C5.95975 102.851 6.21626 102.756 6.4215 102.616C6.62674 102.476 6.77204 102.296 6.84007 102.098C6.90809 101.899 6.89598 101.691 6.80516 101.497C5.88819 99.5801 4.17357 97.0024 1.75551 97.6947Z" fill="#14AF78"/>
<path d="M219.198 89.766L217.433 89.6977L216.598 89.6704C216.419 89.6692 216.24 89.6586 216.064 89.6385L213.853 90.8454C211.969 91.8564 210.085 92.8537 208.2 93.8602C210.022 93.9103 211.856 93.6826 213.677 93.7008C213.84 93.7135 213.991 93.7721 214.095 93.864C214.199 93.9559 214.25 94.0739 214.236 94.1926C214.219 94.3111 214.138 94.4199 214.011 94.4957C213.884 94.5714 213.721 94.6082 213.558 94.598C211.278 94.5752 208.985 94.9259 206.712 94.6572C204.331 95.9323 201.976 97.2302 199.69 98.5873C200.909 98.7103 202.146 98.724 203.364 98.8242C203.531 98.8368 203.684 98.897 203.789 98.9914C203.894 99.0857 203.944 99.2066 203.926 99.3274C203.909 99.4482 203.826 99.559 203.696 99.6354C203.566 99.7119 203.399 99.7477 203.232 99.735C201.637 99.6029 200.035 99.5847 198.459 99.3524C196.908 100.3 195.394 101.283 193.937 102.313C193.595 102.121 193.352 101.851 193.246 101.548C194.653 100.559 196.116 99.612 197.643 98.6921C197.653 98.6902 197.664 98.6902 197.674 98.6921C197.994 97.5354 197.881 96.3331 198.019 95.1672C198.037 95.0487 198.118 94.94 198.244 94.8642C198.371 94.7884 198.534 94.7517 198.698 94.7619C198.862 94.7746 199.013 94.8338 199.118 94.9267C199.223 95.0197 199.273 95.1388 199.257 95.2583C199.15 96.1145 199.188 96.9889 199.087 97.8541C201.279 96.5562 203.515 95.3129 205.782 94.0924C205.782 94.0924 205.782 94.0515 205.782 94.0287C206.31 92.7991 206.731 91.5421 207.246 90.3125C207.484 89.7524 208.646 90.0803 208.414 90.6268C208.05 91.4875 207.736 92.3573 207.396 93.2226C210.047 91.8108 212.71 90.3991 215.329 88.96C215.362 88.7479 215.417 88.5378 215.492 88.3315C215.599 87.9216 215.712 87.5118 215.825 87.1065C215.843 86.988 215.923 86.8792 216.05 86.8034C216.177 86.7276 216.34 86.6909 216.503 86.7011C216.667 86.7138 216.817 86.7724 216.921 86.8643C217.026 86.9563 217.076 87.0743 217.062 87.193C216.974 87.5118 216.887 87.826 216.805 88.1402C217.565 87.7121 218.325 87.2841 219.085 86.8423C219.713 86.478 220.479 87.1839 219.851 87.5482C219.104 88.0036 218.337 88.4135 217.584 88.8416L219.361 88.9008C219.525 88.9145 219.674 88.9742 219.777 89.0671C219.881 89.1599 219.93 89.2784 219.914 89.3972C219.885 89.5143 219.793 89.6185 219.66 89.6874C219.526 89.7564 219.36 89.7846 219.198 89.766V89.766Z" fill="#A01F53"/>
<path d="M93.1512 100.878C93.1512 100.878 93.1512 100.878 93.1512 100.905C93.2931 101.738 93.175 102.583 92.8057 103.378C92.1819 105.1 91.4512 106.798 90.6138 108.474C91.016 107.957 91.5562 107.504 92.2028 107.14C93.2517 106.63 94.9663 106.653 95.2615 108.051C95.3275 108.424 95.2694 108.804 95.0919 109.157C93.724 112.076 92.044 114.913 90.0674 117.642C89.8934 117.885 89.6189 118.082 89.2823 118.206L89.1064 118.261C88.7384 118.355 88.3376 118.355 87.9696 118.261C87.7213 118.191 87.4949 118.086 87.3039 117.951C84.465 115.957 80.3512 112.737 79.4531 110.597C79.2837 110.308 79.2593 109.986 79.384 109.686C79.7106 109.126 80.8222 109.116 81.5822 109.362C82.3422 109.608 83.0456 110.027 83.8872 110.041C82.6401 108.891 81.693 107.585 81.0923 106.188C80.7092 105.305 80.4642 104.294 81.0923 103.492C81.7204 102.691 83.548 102.39 84.264 103.155C83.3923 101.888 82.9443 100.489 82.9564 99.0732C82.9684 97.657 83.44 96.2628 84.3331 95.0033C84.5716 94.645 84.9794 94.3606 85.4825 94.2018C86.5 93.924 87.2097 94.4432 87.7121 94.9623C88.5045 95.801 89.0516 96.7485 89.3195 97.7463C89.5874 98.7442 89.5704 99.7713 89.2697 100.764C89.4087 100.463 89.6788 100.203 90.0394 100.022C90.4 99.8419 90.8317 99.7513 91.2694 99.7641C91.7072 99.777 92.1273 99.8925 92.4667 100.093C92.806 100.294 93.0462 100.57 93.1512 100.878V100.878Z" fill="#820032"/>
<path d="M88.4344 98.2138L87.4986 99.1474L87.0527 99.6028C86.9613 99.6993 86.8628 99.792 86.7575 99.8806C86.8203 100.482 86.8831 101.087 86.9396 101.702C87.0715 103.232 87.1845 104.767 87.3102 106.302C88.2585 105.323 88.918 104.202 89.8224 103.21C89.9159 103.127 90.0504 103.074 90.1971 103.062C90.3438 103.05 90.4911 103.08 90.6075 103.146C90.7214 103.214 90.7947 103.311 90.8123 103.417C90.8299 103.523 90.7902 103.63 90.7017 103.715C89.5586 104.963 88.8175 106.393 87.4044 107.509C87.574 109.444 87.7749 111.375 88.0764 113.297C88.7987 112.687 89.4205 112.013 90.1239 111.398C90.2172 111.314 90.3526 111.26 90.5005 111.249C90.6483 111.237 90.7964 111.269 90.9121 111.336C91.0279 111.404 91.1019 111.502 91.1178 111.61C91.1337 111.717 91.0902 111.824 90.9969 111.908C90.0799 112.719 89.2697 113.593 88.2523 114.344C88.4846 115.661 88.7736 116.977 89.1316 118.279C88.7636 118.373 88.3628 118.373 87.9948 118.279C87.6493 117.018 87.3667 115.752 87.1531 114.472C87.1531 114.472 87.1531 114.472 87.1531 114.445C86.0288 113.759 84.8548 113.118 83.636 112.523C83.5203 112.456 83.446 112.358 83.4296 112.251C83.4131 112.145 83.4557 112.038 83.548 111.954C83.6424 111.872 83.7767 111.819 83.9229 111.808C84.0692 111.796 84.2161 111.825 84.3331 111.89C85.181 112.368 86.1168 112.801 86.971 113.256C86.6884 111.434 86.4811 109.576 86.3429 107.732C86.3429 107.732 86.299 107.709 86.2801 107.695C85.2501 106.785 84.1447 105.956 83.1084 105.068C82.6436 104.662 83.5543 104.184 84.0128 104.58C84.7288 105.204 85.4888 105.801 86.2299 106.402C86.0477 104.253 85.8845 102.098 85.6584 99.9489C85.4539 99.8262 85.2609 99.6939 85.0805 99.5527L83.9626 98.7694C83.8606 98.6986 83.7988 98.6027 83.7895 98.5005C83.7802 98.3983 83.8239 98.2973 83.9121 98.2174C84.0003 98.1374 84.1266 98.0843 84.2662 98.0685C84.4057 98.0526 84.5483 98.0752 84.666 98.1319L85.5265 98.7421C85.4511 98.1091 85.3757 97.4806 85.2878 96.8521C85.2776 96.7471 85.3242 96.6433 85.4178 96.5628C85.5113 96.4822 85.6444 96.4312 85.7888 96.4205C85.9333 96.4099 86.0778 96.4404 86.1918 96.5057C86.3058 96.5709 86.3803 96.6658 86.3995 96.7702C86.4937 97.3986 86.5628 98.0271 86.6381 98.6556L87.5739 97.7083C87.6685 97.6252 87.8041 97.572 87.9518 97.5601C88.0996 97.5482 88.2479 97.5785 88.3653 97.6446C88.4728 97.7161 88.5394 97.8141 88.5522 97.9195C88.565 98.0248 88.523 98.1298 88.4344 98.2138Z" fill="#A01F53"/>
<path d="M145.356 118.862C144.697 117.765 143.635 116.79 143.221 115.633L140.664 116.089C138.273 116.445 135.952 117.015 133.756 117.788C133.316 117.91 132.937 118.126 132.669 118.407C132.33 118.862 132.581 119.404 132.832 119.882L134.679 123.293L141.525 122.993C142.75 122.943 144.087 122.852 144.967 122.237C146.173 121.367 146.016 119.937 145.356 118.862Z" fill="#FFED85"/>
<path d="M43.5968 67.4463C42.4223 67.9017 41.4111 68.5575 40.155 68.8672L40.7831 70.3245C41.3107 71.6855 42.0702 72.9935 43.0441 74.2183C43.2021 74.4684 43.4633 74.6768 43.7915 74.8148C44.0624 74.8705 44.3467 74.8835 44.6251 74.8528C44.9035 74.8222 45.1697 74.7487 45.4056 74.6372L49.061 73.3757L48.3638 69.4228C48.2382 68.7169 48.0686 67.9473 47.3338 67.4691C46.3352 66.8269 44.765 67 43.5968 67.4463Z" fill="#FFED85"/>
<path d="M130.867 60.9932C129.541 60.9431 128.204 61.1435 126.91 60.9476L126.426 62.4323C125.924 63.7996 125.66 65.2071 125.641 66.622C125.6 66.8948 125.677 67.1701 125.861 67.4099C126.054 67.5609 126.29 67.6798 126.552 67.7584C126.814 67.837 127.097 67.8735 127.381 67.8653L131.413 68.1249C132.133 66.9105 132.851 65.6885 133.567 64.4588C133.957 63.8031 134.346 63.0926 134.051 62.3958C133.655 61.4805 132.185 61.025 130.867 60.9932Z" fill="#FFED85"/>
<path d="M169.907 6.22995C168.588 6.18441 167.244 6.38479 165.95 6.18896L165.467 7.6736C164.964 9.0409 164.701 10.4485 164.682 11.8634C164.641 12.1362 164.717 12.4115 164.901 12.6512C165.094 12.8022 165.33 12.9211 165.593 12.9997C165.855 13.0783 166.138 13.1148 166.421 13.1067L170.454 13.3662C171.176 12.1457 171.892 10.9252 172.614 9.72295C172.997 9.06716 173.387 8.35672 173.091 7.65994C172.721 6.70813 171.226 6.28005 169.907 6.22995Z" fill="#FFED85"/>
<path d="M214.098 103.451C212.961 102.964 211.642 102.695 210.618 102.085L209.243 103.242C207.925 104.284 206.794 105.442 205.876 106.689C205.663 106.917 205.555 107.188 205.569 107.463C205.632 107.869 206.153 108.142 206.63 108.374L210.041 109.964L214.286 107.436C215.053 106.981 215.863 106.471 216.039 105.769C216.271 104.813 215.235 103.938 214.098 103.451Z" fill="#FFED85"/>
</svg>
